<svg fill="none" viewBox="0 0 24 24" fit="" height="100%" width="100%">
    <g>
        <path fill="currentColor" d="M3 13v7.076c0 .507.403.924.907.924H11c-.06-4.423-3.623-7.994-8-8Z"></path>
        <path fill="currentColor" d="M3 7v3.046C8.972 10.1 13.821 14.982 13.882 21H17c-.06-7.73-6.315-13.994-14-14Z"></path>
        <path fill="currentColor" d="M21 20.094v-6.126C18.952 8.89 14.784 4.871 9.587 3H3.9a.9.9 0 0 0-.9.9v.883c8.982.053 16.281 7.296 16.34 16.217h.765a.904.904 0 0 0 .895-.906ZM18.819 5.36C19.602 6.154 20.363 7.11 21 8V3.845A.836.836 0 0 0 20.174 3H16c.972.696 1.955 1.48 2.819 2.36Z"></path>
    </g>
</svg>
