<svg xmlns="http://www.w3.org/2000/svg" width="624.303" height="125.812" viewBox="0 0 624.303 125.812">
  <g>
    <g>
      <rect x="251.361" y="48.88" width="67.546" height="11.404" rx="2.851" transform="translate(230.552 339.717) rotate(-90)" fill="cyan"/>
      <rect x="279.432" y="0.015" width="11.404" height="11.404" rx="2.851" fill="cyan"/>
    </g>
    <rect x="512.113" y="76.952" width="11.404" height="11.404" rx="2.851" fill="cyan"/>
    <path d="M266.045,20.852l-5.764-.011a4.129,4.129,0,0,0-3.787,2.933L242.2,74.459a3.836,3.836,0,0,1-7.527-.112L220.387,23.774a4.13,4.13,0,0,0-3.788-2.933l-5.759.011A2.218,2.218,0,0,0,208.6,23.8l15.124,53.841.01,0a15.237,15.237,0,0,0,29.5-.3L268.281,23.8A2.218,2.218,0,0,0,266.045,20.852Z" fill="cyan"/>
    <g>
      <rect x="536.792" y="1.073" width="5.702" height="11.404" rx="2.851" fill="cyan"/>
      <rect x="536.792" y="21.868" width="5.702" height="67.547" rx="2.851" fill="cyan"/>
    </g>
    <path d="M607.341,26.645a11.3,11.3,0,0,1,11.293,11.292V71.031a11.306,11.306,0,0,1-11.293,11.293h-34a11.3,11.3,0,0,1-11.292-11.293V37.937a11.3,11.3,0,0,1,11.292-11.292h34m0-5.669h-34a16.961,16.961,0,0,0-16.961,16.961V71.031a16.962,16.962,0,0,0,16.961,16.962h34A16.962,16.962,0,0,0,624.3,71.031V37.937a16.961,16.961,0,0,0-16.962-16.961Z" fill="cyan"/>
    <path d="M79.682,20.976H21.226A16.961,16.961,0,0,0,4.264,37.937V63.485a16.877,16.877,0,0,0,4.13,11.071A15.817,15.817,0,0,0,6.651,93.569,16.916,16.916,0,0,0,0,107.016v1.835a16.961,16.961,0,0,0,16.961,16.961H63.494a16.962,16.962,0,0,0,16.962-16.961v-1.835A16.962,16.962,0,0,0,63.494,90.054l-43.329,0v-.005a4.823,4.823,0,0,1,.017-9.645h.164c.293.015,38.884.045,38.884.045A16.962,16.962,0,0,0,76.192,63.485l.072-29.041a2.291,2.291,0,0,1,2.288-2.287h1.13a2.8,2.8,0,0,0,2.8-2.795V23.771A2.8,2.8,0,0,0,79.682,20.976Zm-10.369,86.04v1.835a5.825,5.825,0,0,1-5.819,5.818H16.961a5.825,5.825,0,0,1-5.818-5.818v-1.835a5.825,5.825,0,0,1,5.818-5.819H63.494A5.825,5.825,0,0,1,69.313,107.016ZM65.049,63.485A5.826,5.826,0,0,1,59.23,69.3h-38a5.825,5.825,0,0,1-5.819-5.819V37.937a5.825,5.825,0,0,1,5.819-5.818h38a5.826,5.826,0,0,1,5.819,5.818Z" fill="cyan"/>
    <path d="M123.584,20.965l-14.311.01A16.962,16.962,0,0,0,92.312,37.937V85.566A2.788,2.788,0,0,0,95.1,88.355h5.578a2.788,2.788,0,0,0,2.789-2.789l-.013-47.629a5.826,5.826,0,0,1,5.818-5.819l14.311,0a2.789,2.789,0,0,0,2.789-2.789V23.754A2.789,2.789,0,0,0,123.584,20.965Z" fill="cyan"/>
    <path d="M338.427,32.2a2.851,2.851,0,0,0,2.851-2.852v-5.7a2.851,2.851,0,0,0-2.851-2.851h-15.79l0-18A2.789,2.789,0,0,0,319.851,0h-5.578a2.789,2.789,0,0,0-2.789,2.789v18h-5.675a2.851,2.851,0,0,0-2.851,2.851v5.7a2.851,2.851,0,0,0,2.851,2.852h5.675V71.1a16.962,16.962,0,0,0,16.961,16.962l10.044.01a2.789,2.789,0,0,0,2.789-2.789V79.7a2.789,2.789,0,0,0-2.789-2.789l-10.044,0a5.826,5.826,0,0,1-5.818-5.819l.007-38.9Z" fill="cyan"/>
    <path d="M182.479,20.975l-43.531-.01a2.789,2.789,0,0,0-2.789,2.789v5.578a2.79,2.79,0,0,0,2.789,2.79l43.531,0a5.826,5.826,0,0,1,5.818,5.819l0,7.352a16.9,16.9,0,0,0-5.814-1.044H149.086a16.962,16.962,0,0,0-16.962,16.961V71.16a16.962,16.962,0,0,0,16.962,16.962h33.393A16.962,16.962,0,0,0,199.44,71.16V37.937A16.962,16.962,0,0,0,182.479,20.975Zm0,56H149.086a5.825,5.825,0,0,1-5.818-5.819V61.206a5.825,5.825,0,0,1,5.818-5.818h33.393a5.821,5.821,0,0,1,5.806,5.576v2.685c0,.046.011.09.013.136V71.16A5.825,5.825,0,0,1,182.479,76.979Z" fill="cyan"/>
    <path d="M406.692,62.351a16.962,16.962,0,0,0,16.961-16.962V37.915a16.962,16.962,0,0,0-16.961-16.962H369.3a16.962,16.962,0,0,0-16.962,16.962v4.762h.019c0,.063-.019.123-.019.186V71.054A16.962,16.962,0,0,0,369.3,88.016l47.53.01a2.789,2.789,0,0,0,2.789-2.789V79.658a2.789,2.789,0,0,0-2.789-2.789l-47.53,0a5.826,5.826,0,0,1-5.819-5.819l0-8.7ZM363.48,42.677V37.915A5.826,5.826,0,0,1,369.3,32.1h37.393a5.826,5.826,0,0,1,5.818,5.819v7.474a5.825,5.825,0,0,1-5.818,5.819h-43.2l0-8.345c0-.063-.015-.123-.019-.186Z" fill="cyan"/>
    <path d="M489.048,62.351A16.962,16.962,0,0,0,506.01,45.389V37.915a16.962,16.962,0,0,0-16.962-16.962H451.655a16.962,16.962,0,0,0-16.962,16.962v4.762h.019c0,.063-.019.123-.019.186V71.054a16.962,16.962,0,0,0,16.962,16.962l47.531.01a2.789,2.789,0,0,0,2.789-2.789V79.658a2.789,2.789,0,0,0-2.789-2.789l-47.531,0a5.826,5.826,0,0,1-5.818-5.819l0-8.7ZM445.837,42.677V37.915a5.826,5.826,0,0,1,5.818-5.819h37.393a5.826,5.826,0,0,1,5.819,5.819v7.474a5.826,5.826,0,0,1-5.819,5.819h-43.2l0-8.345c0-.063-.014-.123-.018-.186Z" fill="cyan"/>
  </g>
</svg>
