<svg fill="none" viewBox="0 0 24 24" xmlns="http://www.w3.org/2000/svg">
  <path fill="currentColor" fill-rule="evenodd" d="M12 3a9 9 0 1 0 0 18 9 9 0 0 0 0-18ZM1 12C1 5.925 5.925 1 12 1s11 4.925 11 11-4.925 11-11 11S1 18.075 1 12Z" clip-rule="evenodd"/>
  <path fill="currentColor" fill-rule="evenodd" d="M15.707 8.293a1 1 0 0 1 0 1.414l-6 6a1 1 0 0 1-1.414-1.414l6-6a1 1 0 0 1 1.414 0Z" clip-rule="evenodd"/>
  <path fill="currentColor" fill-rule="evenodd" d="M8.293 8.293a1 1 0 0 1 1.414 0l6 6a1 1 0 0 1-1.414 1.414l-6-6a1 1 0 0 1 0-1.414Z" clip-rule="evenodd"/>
</svg>
