<svg fill="none" viewBox="0 0 24 24" fit="">
    <g>
        <path fill="currentColor" d="M11.652 2.512a5.027 5.027 0 0 0-3.998 2.543c-1.207 2.126-.711 4.793 1.03 6.358L6.998 14.37a1.979 1.979 0 0 0-1.718 1.017c-.55.974-.238 2.201.718 2.766.957.56 2.167.242 2.718-.731a2.075 2.075 0 0 0 0-2.035l2.655-4.641-.875-.509c-1.433-.842-1.92-2.706-1.093-4.164a2.966 2.966 0 0 1 4.092-1.113c1.433.842 1.92 2.706 1.093 4.164l1.75 1.018c1.377-2.428.542-5.56-1.844-6.962a4.913 4.913 0 0 0-2.842-.668Zm.094 3.052a1.955 1.955 0 0 0-.75.254c-.957.56-1.27 1.824-.719 2.798a1.979 1.979 0 0 0 1.718 1.017l2.624 4.641.875-.508a2.966 2.966 0 0 1 4.092 1.112c.827 1.459.34 3.322-1.094 4.165a2.965 2.965 0 0 1-4.091-1.113l-1.75 1.018c1.379 2.427 4.455 3.278 6.841 1.875s3.221-4.534 1.843-6.962c-1.207-2.126-3.729-3.04-5.935-2.289l-1.687-2.956a2.074 2.074 0 0 0 0-2.035c-.413-.73-1.194-1.116-1.967-1.017Zm-4.748 5.754C4.24 11.318 2 13.598 2 16.404c0 2.806 2.241 5.087 4.998 5.087 2.413 0 4.44-1.753 4.904-4.07h3.373c.348.605.98 1.018 1.718 1.018 1.105 0 2-.91 2-2.035 0-1.124-.895-2.034-2-2.034-.738 0-1.37.413-1.718 1.017H9.996v1.017c0 1.681-1.347 3.052-2.998 3.052-1.652 0-2.999-1.37-2.999-3.052 0-1.68 1.347-3.052 2.999-3.052v-2.034Z"></path>
    </g>
</svg>
