<svg width="41" height="40" viewBox="0 0 41 40" fill="none" xmlns="http://www.w3.org/2000/svg">
<path d="M6.99935 33.3333C6.08268 33.3333 5.29796 33.0069 4.64518 32.3542C3.9924 31.7014 3.66602 30.9167 3.66602 30V23.3333H11.9993C11.9993 23.8056 12.1591 24.2014 12.4785 24.5208C12.798 24.8403 13.1938 25 13.666 25C14.1105 25 14.423 24.7986 14.6035 24.3958C14.7841 23.9931 15.0271 23.6389 15.3327 23.3333H25.3327C25.3327 23.8056 25.4924 24.2014 25.8118 24.5208C26.1313 24.8403 26.5271 25 26.9993 25C27.4438 25 27.7563 24.7986 27.9368 24.3958C28.1174 23.9931 28.3605 23.6389 28.666 23.3333H36.9993V30C36.9993 30.9167 36.673 31.7014 36.0202 32.3542C35.3674 33.0069 34.5827 33.3333 33.666 33.3333H6.99935ZM4.37435 20L7.83268 12C8.08268 11.3889 8.48546 10.9028 9.04102 10.5417C9.59657 10.1806 10.1938 10 10.8327 10H11.9993V8.33333C11.9993 7.41667 12.3257 6.63194 12.9785 5.97917C13.6313 5.32639 14.416 5 15.3327 5H25.3327C26.2493 5 27.0341 5.32639 27.6868 5.97917C28.3396 6.63194 28.666 7.41667 28.666 8.33333V10H29.8327C30.4716 10 31.0688 10.1806 31.6243 10.5417C32.1799 10.9028 32.5827 11.3889 32.8327 12L36.291 20H28.666C28.666 19.5278 28.5063 19.1319 28.1868 18.8125C27.8674 18.4931 27.4716 18.3333 26.9993 18.3333C26.5549 18.3333 26.2424 18.5347 26.0618 18.9375C25.8813 19.3403 25.6382 19.6944 25.3327 20H15.3327C15.3327 19.5278 15.173 19.1319 14.8535 18.8125C14.5341 18.4931 14.1382 18.3333 13.666 18.3333C13.2216 18.3333 12.9091 18.5347 12.7285 18.9375C12.548 19.3403 12.3049 19.6944 11.9993 20H4.37435ZM15.3327 10H25.3327V8.33333H15.3327V10Z" fill="#275CF6"/>
</svg>
