<svg width="40" height="40" viewBox="0 0 40 40" fill="none" xmlns="http://www.w3.org/2000/svg">
<path d="M35.5293 6.196C33.614 5.59208 31.5089 5.33325 29.4901 5.33325C26.1254 5.33325 22.5019 6.02345 19.9999 7.92149C17.498 6.02345 13.8744 5.33325 10.5097 5.33325C7.14502 5.33325 3.52149 6.02345 1.01953 7.92149V33.1999C1.01953 33.6313 1.4509 34.0627 1.88228 34.0627C2.05483 34.0627 2.1411 33.9764 2.31365 33.9764C4.64306 32.8548 8.00777 32.0784 10.5097 32.0784C13.8744 32.0784 17.498 32.7685 19.9999 34.6666C22.3293 33.1999 26.5568 32.0784 29.4901 32.0784C32.3372 32.0784 35.2705 32.596 37.6862 33.8901C37.8587 33.9764 37.945 33.9764 38.1176 33.9764C38.5489 33.9764 38.9803 33.545 38.9803 33.1136V7.92149C37.945 7.14502 36.8235 6.62737 35.5293 6.196ZM35.5293 29.4901C33.6313 28.8862 31.5607 28.6274 29.4901 28.6274C26.5568 28.6274 22.3293 29.7489 19.9999 31.2156V11.3725C22.3293 9.9058 26.5568 8.78423 29.4901 8.78423C31.5607 8.78423 33.6313 9.04306 35.5293 9.64698V29.4901Z" fill="#275CF6"/>
<path d="M29.4913 15.6861C31.0097 15.6861 32.4764 15.8414 33.805 16.1348V13.512C32.4419 13.2532 30.9752 13.0979 29.4913 13.0979C26.5579 13.0979 23.9007 13.5983 21.7266 14.5301V17.3944C23.6764 16.2901 26.3854 15.6861 29.4913 15.6861Z" fill="#275CF6"/>
<path d="M21.7266 19.1199V21.9842C23.6764 20.8799 26.3854 20.276 29.4913 20.276C31.0097 20.276 32.4764 20.4313 33.805 20.7246V18.1019C32.4419 17.843 30.9752 17.6877 29.4913 17.6877C26.5579 17.6877 23.9007 18.2054 21.7266 19.1199Z" fill="#275CF6"/>
<path d="M29.4913 22.2947C26.5579 22.2947 23.9007 22.7951 21.7266 23.7268V26.5911C23.6764 25.4868 26.3854 24.8829 29.4913 24.8829C31.0097 24.8829 32.4764 25.0382 33.805 25.3315V22.7088C32.4419 22.4327 30.9752 22.2947 29.4913 22.2947Z" fill="#275CF6"/>
</svg>
