<svg width="41" height="40" viewBox="0 0 41 40" fill="none" xmlns="http://www.w3.org/2000/svg">
<path d="M40.0972 41.1364L34.8278 35.9214C34.1035 36.4284 33.2973 36.8087 32.4093 37.0622C31.5228 37.3157 30.6087 37.4425 29.6671 37.4425C26.9509 37.4425 24.6425 36.4914 22.7419 34.5894C20.8399 32.6888 19.8889 30.3804 19.8889 27.6642C19.8889 24.9481 20.8399 22.6389 22.7419 20.7369C24.6425 18.8363 26.9509 17.886 29.6671 17.886C32.3833 17.886 34.6924 18.8363 36.5944 20.7369C38.495 22.6389 39.4453 24.9481 39.4453 27.6642C39.4453 28.6058 39.3185 29.5199 39.065 30.4065C38.8115 31.2945 38.4313 32.1188 37.9242 32.8793L43.1393 38.0943C43.5739 38.5289 43.8006 39.0359 43.8194 39.6154C43.8368 40.1948 43.6282 40.7019 43.1936 41.1364C42.759 41.571 42.2426 41.7883 41.6443 41.7883C41.0475 41.7883 40.5318 41.571 40.0972 41.1364ZM29.6671 33.0966C31.1881 33.0966 32.4738 32.5714 33.524 31.5212C34.5743 30.4709 35.0994 29.1853 35.0994 27.6642C35.0994 26.1432 34.5743 24.8575 33.524 23.8073C32.4738 22.757 31.1881 22.2319 29.6671 22.2319C28.146 22.2319 26.8604 22.757 25.8101 23.8073C24.7599 24.8575 24.2347 26.1432 24.2347 27.6642C24.2347 29.1853 24.7599 30.4709 25.8101 31.5212C26.8604 32.5714 28.146 33.0966 29.6671 33.0966ZM-1.46026 30.8693C-1.93107 30.5434 -2.21138 30.1001 -2.30119 29.5395C-2.39246 28.9774 -2.29322 28.4429 -2.0035 27.9359L6.19934 14.7896C6.59772 14.1739 7.15036 13.8393 7.85729 13.7857C8.56278 13.7306 9.16902 13.9747 9.67604 14.518L14.2935 19.896L21.1926 8.65102C21.591 7.96292 22.198 7.61887 23.0135 7.61887C23.8277 7.61887 24.452 7.94482 24.8866 8.5967L28.9065 14.6266C28.0736 14.6628 27.2855 14.762 26.5424 14.9243C25.8007 15.088 25.0677 15.3147 24.3434 15.6044L23.1483 13.8117L16.4665 24.6764C16.0681 25.2921 15.5068 25.6362 14.7824 25.7086C14.0581 25.781 13.4425 25.5275 12.9355 24.9481L8.31796 19.57L1.6905 30.2718C1.36456 30.815 0.88506 31.1496 0.252011 31.2757C-0.382487 31.4031 -0.953246 31.2677 -1.46026 30.8693ZM34.5019 15.7131C33.8138 15.4233 33.0981 15.1879 32.355 15.0069C31.6133 14.8258 30.8441 14.7171 30.0473 14.6809L39.9342 -0.964233C40.2602 -1.47125 40.731 -1.79719 41.3466 -1.94205C41.9623 -2.08692 42.5236 -1.96016 43.0307 -1.56179C43.5015 -1.23585 43.7912 -0.792571 43.8998 -0.231953C44.0085 0.330114 43.9179 0.864657 43.6282 1.37168L34.5019 15.7131Z" fill="#275CF6"/>
</svg>
