<svg fill="none" viewBox="0 0 24 24" fit="" height="100%" width="100%">
    <g>
        <path fill="currentColor" d="M15.748 13.131c-.821 0-1.558.363-2.063.933l-1.293-.91a3.51 3.51 0 0 0 .216-1.203c0-.415-.076-.812-.209-1.183l1.29-.9a2.75 2.75 0 0 0 2.06.927A2.748 2.748 0 0 0 18.5 8.058a2.748 2.748 0 0 0-2.752-2.738 2.748 2.748 0 0 0-2.751 2.738c0 .27.041.53.115.777l-1.291.902a3.556 3.556 0 0 0-2.2-1.273V6.916a2.745 2.745 0 0 0 2.185-2.678A2.748 2.748 0 0 0 9.054 1.5a2.748 2.748 0 0 0-2.752 2.738c0 1.298.915 2.387 2.137 2.666v1.568C6.772 8.762 5.5 10.21 5.5 11.95c0 1.75 1.284 3.202 2.963 3.483v1.656a2.744 2.744 0 0 0-2.16 2.672 2.748 2.748 0 0 0 2.75 2.739 2.748 2.748 0 0 0 2.752-2.738 2.745 2.745 0 0 0-2.161-2.672v-1.656c.867-.145 1.63-.6 2.163-1.252l1.302.917a2.71 2.71 0 0 0-.113.77 2.748 2.748 0 0 0 2.752 2.738 2.748 2.748 0 0 0 2.751-2.738 2.748 2.748 0 0 0-2.752-2.738Zm0-6.4c.736 0 1.335.595 1.335 1.327 0 .731-.599 1.327-1.334 1.327a1.332 1.332 0 0 1-1.335-1.327c0-.732.599-1.328 1.335-1.328ZM7.72 4.237c0-.732.598-1.328 1.334-1.328.736 0 1.334.596 1.334 1.328 0 .731-.598 1.327-1.334 1.327A1.332 1.332 0 0 1 7.72 4.238Zm2.668 15.524c0 .732-.598 1.328-1.334 1.328a1.332 1.332 0 0 1-1.334-1.328c0-.731.598-1.327 1.334-1.327.736 0 1.334.596 1.334 1.327Zm-1.334-5.96c-1.026 0-1.86-.83-1.86-1.851 0-1.02.834-1.851 1.86-1.851 1.026 0 1.86.83 1.86 1.851 0 1.02-.834 1.851-1.86 1.851Zm6.694 3.394a1.332 1.332 0 0 1-1.334-1.327c0-.732.599-1.327 1.335-1.327.735 0 1.333.595 1.333 1.327s-.598 1.327-1.334 1.327Z"></path>
    </g>
</svg>
