<svg xmlns="http://www.w3.org/2000/svg" viewBox="0 0 90 90">
    <g transform="translate(-59,-80)">
        <g transform="matrix(0.35277777,0,0,-0.35277777,-15.526842,222.47817)">
            <path  d="m 330.10774,359.51207 v -159.9391 -20.0609 l 32,15.0609 v 180.5721 z"/>
            <path d="m 440.93004,306.71227 4.417,-45.864 -61.883,13.464"/>
            <path d="m 266.10774,248.01987 c 0,22.674 24.707,41.769 58.383,47.598 v 20.325 c -51.51,-6.226 -90.383,-34.267 -90.383,-67.923 0,-34.869 41.725,-63.709 96,-68.508 v 20.061 c -36.516,4.578 -64,24.528 -64,48.447 m 101.617,67.915 v -20.317 c 13.399,-2.319 25.385,-6.727 34.9511,-12.64 l 22.6269,13.984 c -15.42,9.531 -35.322,16.283 -57.578,18.973"/>
        </g>
    </g>
</svg>
