<svg fill="none" viewBox="0 0 24 24" fit="" height="100%" width="100%">
    <g>
        <path fill="currentColor" d="M12 1a11 11 0 1 0 11 11A11.01 11.01 0 0 0 12 1Zm9.087 10.043h-4.381a19.132 19.132 0 0 0-1.626-7.585 9.134 9.134 0 0 1 6.007 7.585ZM12 21.087c-1.052 0-2.611-3.205-2.793-8.13h5.586c-.182 4.925-1.74 8.13-2.793 8.13ZM9.207 11.043c.182-4.926 1.74-8.13 2.793-8.13 1.052 0 2.611 3.204 2.793 8.13H9.207ZM8.92 3.458a19.131 19.131 0 0 0-1.626 7.585H2.96a9.137 9.137 0 0 1 5.96-7.585Zm-5.96 9.498h4.334a19.132 19.132 0 0 0 1.626 7.585 9.135 9.135 0 0 1-5.96-7.585Zm12.12 7.585a19.132 19.132 0 0 0 1.626-7.585h4.38a9.136 9.136 0 0 1-6.006 7.585Z"></path>
    </g>
</svg>
