<svg width="24" height="24" viewBox="0 0 60 24" fill="none" xmlns="http://www.w3.org/2000/svg">
  <path d="M56.3928 23.9999L53.9667 17.1712H45.1561L42.73 23.9999H39.1547L47.8057 0.231995H51.381L60 23.9999H56.3928ZM50.7106 7.39221C50.6468 7.14912 50.5297 6.78448 50.3595 6.29829C50.2105 5.79 50.0615 5.28172 49.9125 4.77343C49.7636 4.24304 49.6465 3.8121 49.5614 3.48061C49.455 3.9226 49.3273 4.40879 49.1783 4.93917C49.0506 5.44746 48.923 5.9226 48.7953 6.36459C48.6676 6.78448 48.5612 7.12702 48.476 7.39221L46.1776 14.0552H53.009L50.7106 7.39221Z" fill="#da3b00"/>
  <path d="M37.6778 24H22.3551V21.2818L28.2288 15.0829C29.378 13.8674 30.3357 12.8177 31.1018 11.9337C31.868 11.0276 32.4426 10.1657 32.8256 9.34807C33.2087 8.50829 33.4002 7.60221 33.4002 6.62983C33.4002 5.41436 33.0597 4.50829 32.3787 3.9116C31.6977 3.29282 30.8145 2.98343 29.7292 2.98343C28.6864 2.98343 27.75 3.19337 26.92 3.61326C26.09 4.01105 25.2281 4.57459 24.3343 5.30387L22.5147 2.95028C23.1319 2.39779 23.7916 1.90055 24.4939 1.45857C25.2175 1.01658 26.0155 0.662984 26.8881 0.397791C27.7819 0.132598 28.7608 0 29.8249 0C31.2721 0 32.517 0.265194 33.5598 0.79558C34.6026 1.30387 35.4007 2.03315 35.954 2.98343C36.5286 3.9337 36.8159 5.04972 36.8159 6.33149C36.8159 7.28177 36.6776 8.1768 36.4009 9.01658C36.1243 9.83425 35.7199 10.6409 35.1879 11.4365C34.6771 12.232 34.0493 13.0387 33.3045 13.8564C32.5596 14.674 31.7403 15.5359 30.8464 16.442L26.6008 20.7182V20.884H37.6778V24Z" fill="#da3b00"/>
  <path d="M17.238 23.9999L14.812 17.1712H6.00139L3.5753 23.9999H0L8.65095 0.231995H12.2262L20.8453 23.9999H17.238ZM11.5559 7.39221C11.492 7.14912 11.375 6.78448 11.2047 6.29829C11.0558 5.79 10.9068 5.28172 10.7578 4.77343C10.6088 4.24304 10.4918 3.8121 10.4067 3.48061C10.3003 3.9226 10.1726 4.40879 10.0236 4.93917C9.89592 5.44746 9.76823 5.9226 9.64054 6.36459C9.51285 6.78448 9.40644 7.12702 9.32131 7.39221L7.02291 14.0552H13.8543L11.5559 7.39221Z" fill="#da3b00"/>
</svg>
