<svg width="25" height="24" viewBox="0 0 25 24" fill="none" xmlns="http://www.w3.org/2000/svg">
  <path fill-rule="evenodd" clip-rule="evenodd" d="M6.43306 12.0001L7.64306 13.2101L6.00223 14.8509C5.63115 15.2288 5.37962 15.7076 5.27904 16.2275C5.17847 16.7474 5.23331 17.2855 5.43671 17.7745C5.64012 18.2634 5.98308 18.6816 6.42275 18.9768C6.86242 19.272 7.37932 19.4311 7.90889 19.4343C8.26151 19.4343 8.61067 19.3647 8.9363 19.2294C9.26193 19.0942 9.55763 18.8959 9.80639 18.6459L11.4564 17.0051L12.6664 18.2334L11.0256 19.8743C10.6203 20.3015 10.1337 20.6432 9.59423 20.8792C9.05481 21.1153 8.47357 21.2409 7.88481 21.2486C7.29605 21.2564 6.7117 21.1462 6.16624 20.9244C5.62077 20.7027 5.12525 20.374 4.7089 19.9576C4.29254 19.5413 3.9638 19.0457 3.74207 18.5003C3.52033 17.9548 3.4101 17.3705 3.41786 16.7817C3.42563 16.1929 3.55124 15.6117 3.78729 15.0723C4.02334 14.5328 4.36504 14.0462 4.79223 13.6409L6.43306 12.0001Z" fill="#da3b00"/>
  <path fill-rule="evenodd" clip-rule="evenodd" d="M18.8998 12L17.6898 10.79L19.3307 9.14C19.805 8.62837 20.0624 7.95273 20.0488 7.25518C20.0352 6.55763 19.7516 5.89253 19.2577 5.39979C18.7638 4.90705 18.098 4.62506 17.4004 4.61313C16.7028 4.6012 16.0278 4.86027 15.5173 5.33583L13.8765 6.97667L12.6665 5.76667L14.3073 4.12583C14.7126 3.69864 15.1992 3.35695 15.7387 3.1209C16.2781 2.88485 16.8593 2.75924 17.4481 2.75147C18.0368 2.7437 18.6212 2.85394 19.1667 3.07568C19.7121 3.29741 20.2077 3.62615 20.624 4.0425C21.0404 4.45885 21.3691 4.95438 21.5908 5.49984C21.8126 6.04531 21.9228 6.62966 21.915 7.21842C21.9073 7.80717 21.7817 8.38841 21.5456 8.92784C21.3096 9.46726 20.9679 9.95394 20.5407 10.3592L18.8998 12Z" fill="#da3b00"/>
  <path fill-rule="evenodd" clip-rule="evenodd" d="M9.81556 5.33594C9.30988 4.83027 8.62403 4.54618 7.90889 4.54618C7.19375 4.54618 6.5079 4.83027 6.00223 5.33594C5.49655 5.84162 5.21246 6.52747 5.21246 7.24261C5.21246 7.95775 5.49655 8.6436 6.00223 9.14928L7.64306 10.7901L11.4564 6.97678L9.81556 5.33594ZM15.5264 18.6643C15.9026 19.0398 16.3817 19.2952 16.9031 19.3983C17.4245 19.5014 17.9648 19.4474 18.4555 19.2433C18.9462 19.0391 19.3654 18.694 19.6598 18.2515C19.9543 17.809 20.1109 17.2891 20.1097 16.7576C20.1044 16.0438 19.8217 15.3601 19.3214 14.8509L17.6806 13.2101L13.8764 17.0234L15.5264 18.6643ZM12.6664 9.07594C11.8916 9.07836 11.1492 9.38722 10.6014 9.93508C10.0535 10.4829 9.74464 11.2253 9.74223 12.0001C9.74703 12.7742 10.0567 13.5151 10.604 14.0625C11.1514 14.6098 11.8923 14.9195 12.6664 14.9243C13.4404 14.9195 14.1814 14.6098 14.7288 14.0625C15.2761 13.5151 15.5858 12.7742 15.5906 12.0001C15.5881 11.2253 15.2793 10.4829 14.7314 9.93508C14.1836 9.38722 13.4412 9.07836 12.6664 9.07594ZM18.8997 12.0001L20.5406 13.6409C20.9677 14.0462 21.3094 14.5328 21.5455 15.0723C21.7815 15.6117 21.9072 16.1929 21.9149 16.7817C21.9227 17.3705 21.8125 17.9548 21.5907 18.5003C21.369 19.0457 21.0402 19.5413 20.6239 19.9576C20.2075 20.374 19.712 20.7027 19.1665 20.9244C18.6211 21.1462 18.0367 21.2564 17.448 21.2486C16.8592 21.2409 16.278 21.1153 15.7386 20.8792C15.1991 20.6432 14.7124 20.3015 14.3072 19.8743L12.6664 18.2334L6.43306 12.0001L4.79223 10.3593C4.36504 9.95405 4.02334 9.46737 3.78729 8.92795C3.55124 8.38853 3.42563 7.80729 3.41786 7.21853C3.4101 6.62977 3.52033 6.04542 3.74207 5.49996C3.9638 4.95449 4.29254 4.45897 4.7089 4.04261C5.12525 3.62626 5.62077 3.29752 6.16624 3.07579C6.7117 2.85405 7.29605 2.74382 7.88481 2.75158C8.47357 2.75935 9.05481 2.88496 9.59423 3.12101C10.1337 3.35706 10.6203 3.69876 11.0256 4.12594L12.6664 5.76678L18.8997 12.0001Z" fill="#da3b00"/>
</svg>
