<svg width="24" height="24" viewBox="0 0 22 14" fill="none" xmlns="http://www.w3.org/2000/svg">
  <path d="M6.19984 4.87716C6.19984 5.1535 6.2291 5.37757 6.28032 5.54188C6.33886 5.7062 6.41203 5.88545 6.51447 6.07964C6.55105 6.13939 6.56568 6.19914 6.56568 6.25143C6.56568 6.32611 6.52178 6.4008 6.42666 6.47549L5.96569 6.78918C5.89984 6.834 5.83399 6.8564 5.77545 6.8564C5.70228 6.8564 5.62911 6.81906 5.55594 6.75184C5.45351 6.63981 5.3657 6.5203 5.29253 6.4008C5.21936 6.27383 5.14619 6.13192 5.06571 5.96014C4.49498 6.64727 3.77792 6.99084 2.91452 6.99084C2.29989 6.99084 1.80966 6.81159 1.45112 6.45308C1.09259 6.09458 0.909668 5.61657 0.909668 5.01907C0.909668 4.38421 1.12918 3.86886 1.57551 3.48048C2.02185 3.0921 2.61452 2.89791 3.36817 2.89791C3.61695 2.89791 3.87304 2.92032 4.14377 2.95766C4.4145 2.99501 4.69254 3.05476 4.98522 3.12198V2.57675C4.98522 2.00912 4.86815 1.61327 4.64132 1.38174C4.40718 1.1502 4.01206 1.03817 3.44866 1.03817C3.19256 1.03817 2.92915 1.06805 2.65842 1.13526C2.3877 1.20248 2.12428 1.28464 1.86819 1.38921C1.75112 1.44149 1.66332 1.47136 1.6121 1.4863C1.56088 1.50124 1.52429 1.50871 1.49503 1.50871C1.39259 1.50871 1.34137 1.43402 1.34137 1.27717V0.911199C1.34137 0.791698 1.356 0.702072 1.39259 0.64979C1.42917 0.597508 1.49503 0.545226 1.59746 0.492944C1.85356 0.358505 2.16087 0.246472 2.5194 0.156846C2.87793 0.0597508 3.25841 0.0149377 3.66085 0.0149377C4.53157 0.0149377 5.16814 0.216596 5.57789 0.619914C5.98033 1.02323 6.1852 1.63568 6.1852 2.45725V4.87716H6.19984ZM3.22915 6.01242C3.47061 6.01242 3.71938 5.96761 3.98279 5.87798C4.24621 5.78836 4.48035 5.62404 4.67791 5.39998C4.79498 5.25807 4.88278 5.10122 4.92668 4.92197C4.97059 4.74272 4.99985 4.52612 4.99985 4.27218V3.95849C4.78766 3.90621 4.56084 3.86139 4.32669 3.83152C4.09255 3.80164 3.86572 3.78671 3.6389 3.78671C3.14866 3.78671 2.79013 3.8838 2.54867 4.08546C2.30721 4.28712 2.19014 4.57093 2.19014 4.94438C2.19014 5.29541 2.27794 5.55682 2.46087 5.73607C2.63647 5.9228 2.89257 6.01242 3.22915 6.01242ZM9.10467 6.81906C8.97297 6.81906 8.88516 6.79665 8.82663 6.74437C8.76809 6.69956 8.71687 6.59499 8.67297 6.45308L6.95348 0.679665C6.90958 0.530288 6.88763 0.433193 6.88763 0.380911C6.88763 0.26141 6.94617 0.19419 7.06324 0.19419H7.7803C7.91932 0.19419 8.01444 0.216597 8.06566 0.268878C8.1242 0.313692 8.1681 0.418255 8.212 0.560164L9.44125 5.50454L10.5827 0.560164C10.6193 0.410787 10.6632 0.313692 10.7217 0.268878C10.7803 0.224065 10.8827 0.19419 11.0144 0.19419H11.5998C11.7388 0.19419 11.8339 0.216597 11.8924 0.268878C11.951 0.313692 12.0022 0.418255 12.0315 0.560164L13.1875 5.56429L14.4534 0.560164C14.4973 0.410787 14.5485 0.313692 14.5997 0.268878C14.6583 0.224065 14.7534 0.19419 14.8851 0.19419H15.5656C15.6826 0.19419 15.7485 0.253941 15.7485 0.380911C15.7485 0.418255 15.7412 0.4556 15.7338 0.500413C15.7265 0.545226 15.7119 0.604977 15.6826 0.687134L13.9192 6.46055C13.8753 6.60993 13.8241 6.70703 13.7656 6.75184C13.707 6.79665 13.6119 6.82653 13.4875 6.82653H12.8583C12.7193 6.82653 12.6241 6.80412 12.5656 6.75184C12.5071 6.69956 12.4558 6.60246 12.4266 6.45308L11.2924 1.63568L10.1656 6.44562C10.129 6.59499 10.0851 6.69209 10.0266 6.74437C9.96807 6.79665 9.86564 6.81906 9.73393 6.81906H9.10467ZM18.507 7.02072C18.1265 7.02072 17.746 6.9759 17.3802 6.88628C17.0143 6.79665 16.729 6.69956 16.5387 6.58752C16.4216 6.5203 16.3412 6.44562 16.3119 6.3784C16.2826 6.31118 16.268 6.23649 16.268 6.16927V5.78836C16.268 5.63151 16.3265 5.55682 16.4363 5.55682C16.4802 5.55682 16.5241 5.56429 16.568 5.57923C16.6119 5.59417 16.6777 5.62404 16.7509 5.65392C16.9997 5.76595 17.2704 5.85558 17.5558 5.91533C17.8484 5.97508 18.1338 6.00495 18.4265 6.00495C18.8875 6.00495 19.246 5.9228 19.4948 5.75848C19.7435 5.59417 19.8752 5.35516 19.8752 5.04894C19.8752 4.83981 19.8094 4.66803 19.6777 4.52612C19.546 4.38421 19.2972 4.25724 18.9387 4.13774L17.8777 3.80164C17.3436 3.62986 16.9485 3.37592 16.707 3.03982C16.4655 2.71119 16.3412 2.34522 16.3412 1.95684C16.3412 1.64315 16.407 1.3668 16.5387 1.1278C16.6704 0.888793 16.846 0.679665 17.0655 0.51535C17.285 0.343567 17.5338 0.216597 17.8265 0.12697C18.1192 0.0373442 18.4265 0 18.7484 0C18.9094 0 19.0777 0.00746884 19.2387 0.0298754C19.407 0.0522819 19.5606 0.0821573 19.7143 0.112033C19.8606 0.149377 19.9996 0.186721 20.1313 0.231534C20.263 0.276347 20.3655 0.32116 20.4387 0.365974C20.5411 0.425724 20.6143 0.485475 20.6582 0.552695C20.7021 0.612445 20.724 0.694603 20.724 0.799167V1.1502C20.724 1.30705 20.6655 1.38921 20.5557 1.38921C20.4972 1.38921 20.4021 1.35933 20.2777 1.29958C19.8606 1.10539 19.3923 1.00829 18.8728 1.00829C18.4558 1.00829 18.1265 1.07551 17.8997 1.21742C17.6728 1.35933 17.5558 1.57593 17.5558 1.88215C17.5558 2.09128 17.6289 2.27053 17.7753 2.41244C17.9216 2.55435 18.1923 2.69625 18.5801 2.82322L19.6192 3.15932C20.146 3.33111 20.5265 3.57011 20.7533 3.87633C20.9801 4.18255 21.0899 4.53359 21.0899 4.92197C21.0899 5.24313 21.024 5.53442 20.8996 5.78836C20.7679 6.0423 20.5923 6.26636 20.3655 6.44562C20.1387 6.63234 19.8679 6.76678 19.5533 6.86387C19.224 6.96843 18.8801 7.02072 18.507 7.02072Z" fill="#da3b00"/>
  <path fill-rule="evenodd" clip-rule="evenodd" d="M19.8899 10.6505C17.4826 12.4655 13.9851 13.4289 10.9778 13.4289C6.76322 13.4289 2.96571 11.8381 0.0974633 9.19411C-0.129363 8.98498 0.0755124 8.70117 0.34624 8.86548C3.44864 10.7028 7.27541 11.8157 11.2339 11.8157C13.9046 11.8157 16.8387 11.248 19.5387 10.0829C19.9411 9.89618 20.285 10.3518 19.8899 10.6505Z" fill="#da3b00"/>
  <path fill-rule="evenodd" clip-rule="evenodd" d="M20.8923 9.48551C20.585 9.08219 18.8582 9.29132 18.0752 9.38841C17.8411 9.41829 17.8045 9.20916 18.0167 9.05231C19.3923 8.06643 21.6532 8.35024 21.9167 8.67887C22.1801 9.01497 21.8435 11.3228 20.5557 12.4282C20.3581 12.6 20.1679 12.5104 20.2557 12.2863C20.5484 11.5469 21.1996 9.88136 20.8923 9.48551Z" fill="#da3b00"/>
</svg>
