<svg width="24" height="24" viewBox="0 0 24 24" fill="none" xmlns="http://www.w3.org/2000/svg">
  <path d="M7.19984 9.87716C7.19984 10.1535 7.2291 10.3776 7.28032 10.5419C7.33886 10.7062 7.41203 10.8855 7.51447 11.0796C7.55105 11.1394 7.56568 11.1991 7.56568 11.2514C7.56568 11.3261 7.52178 11.4008 7.42666 11.4755L6.96569 11.7892C6.89984 11.834 6.83399 11.8564 6.77545 11.8564C6.70228 11.8564 6.62911 11.8191 6.55594 11.7518C6.45351 11.6398 6.3657 11.5203 6.29253 11.4008C6.21936 11.2738 6.14619 11.1319 6.06571 10.9601C5.49498 11.6473 4.77792 11.9908 3.91452 11.9908C3.29989 11.9908 2.80966 11.8116 2.45112 11.4531C2.09259 11.0946 1.90967 10.6166 1.90967 10.0191C1.90967 9.38421 2.12918 8.86886 2.57551 8.48048C3.02185 8.0921 3.61452 7.89791 4.36817 7.89791C4.61695 7.89791 4.87304 7.92032 5.14377 7.95766C5.4145 7.99501 5.69254 8.05476 5.98522 8.12198V7.57675C5.98522 7.00912 5.86815 6.61327 5.64132 6.38174C5.40718 6.1502 5.01206 6.03817 4.44866 6.03817C4.19256 6.03817 3.92915 6.06805 3.65842 6.13526C3.3877 6.20248 3.12428 6.28464 2.86819 6.38921C2.75112 6.44149 2.66332 6.47136 2.6121 6.4863C2.56088 6.50124 2.52429 6.50871 2.49503 6.50871C2.39259 6.50871 2.34137 6.43402 2.34137 6.27717V5.9112C2.34137 5.7917 2.356 5.70207 2.39259 5.64979C2.42917 5.59751 2.49503 5.54523 2.59746 5.49294C2.85356 5.3585 3.16087 5.24647 3.5194 5.15685C3.87793 5.05975 4.25841 5.01494 4.66085 5.01494C5.53157 5.01494 6.16814 5.2166 6.57789 5.61991C6.98033 6.02323 7.1852 6.63568 7.1852 7.45725V9.87716H7.19984ZM4.22915 11.0124C4.47061 11.0124 4.71938 10.9676 4.98279 10.878C5.24621 10.7884 5.48035 10.624 5.67791 10.4C5.79498 10.2581 5.88278 10.1012 5.92668 9.92197C5.97059 9.74272 5.99985 9.52612 5.99985 9.27218V8.95849C5.78766 8.90621 5.56084 8.86139 5.32669 8.83152C5.09255 8.80164 4.86572 8.78671 4.6389 8.78671C4.14866 8.78671 3.79013 8.8838 3.54867 9.08546C3.30721 9.28712 3.19014 9.57093 3.19014 9.94438C3.19014 10.2954 3.27794 10.5568 3.46087 10.7361C3.63647 10.9228 3.89257 11.0124 4.22915 11.0124ZM10.1047 11.8191C9.97297 11.8191 9.88516 11.7967 9.82663 11.7444C9.76809 11.6996 9.71687 11.595 9.67297 11.4531L7.95348 5.67967C7.90958 5.53029 7.88763 5.43319 7.88763 5.38091C7.88763 5.26141 7.94617 5.19419 8.06324 5.19419H8.7803C8.91932 5.19419 9.01444 5.2166 9.06566 5.26888C9.1242 5.31369 9.1681 5.41826 9.212 5.56016L10.4413 10.5045L11.5827 5.56016C11.6193 5.41079 11.6632 5.31369 11.7217 5.26888C11.7803 5.22407 11.8827 5.19419 12.0144 5.19419H12.5998C12.7388 5.19419 12.8339 5.2166 12.8924 5.26888C12.951 5.31369 13.0022 5.41826 13.0315 5.56016L14.1875 10.5643L15.4534 5.56016C15.4973 5.41079 15.5485 5.31369 15.5997 5.26888C15.6583 5.22407 15.7534 5.19419 15.8851 5.19419H16.5656C16.6826 5.19419 16.7485 5.25394 16.7485 5.38091C16.7485 5.41826 16.7412 5.4556 16.7338 5.50041C16.7265 5.54523 16.7119 5.60498 16.6826 5.68713L14.9192 11.4606C14.8753 11.6099 14.8241 11.707 14.7656 11.7518C14.707 11.7967 14.6119 11.8265 14.4875 11.8265H13.8583C13.7193 11.8265 13.6241 11.8041 13.5656 11.7518C13.5071 11.6996 13.4558 11.6025 13.4266 11.4531L12.2924 6.63568L11.1656 11.4456C11.129 11.595 11.0851 11.6921 11.0266 11.7444C10.9681 11.7967 10.8656 11.8191 10.7339 11.8191H10.1047ZM19.507 12.0207C19.1265 12.0207 18.746 11.9759 18.3802 11.8863C18.0143 11.7967 17.729 11.6996 17.5387 11.5875C17.4216 11.5203 17.3412 11.4456 17.3119 11.3784C17.2826 11.3112 17.268 11.2365 17.268 11.1693V10.7884C17.268 10.6315 17.3265 10.5568 17.4363 10.5568C17.4802 10.5568 17.5241 10.5643 17.568 10.5792C17.6119 10.5942 17.6777 10.624 17.7509 10.6539C17.9997 10.766 18.2704 10.8556 18.5558 10.9153C18.8484 10.9751 19.1338 11.005 19.4265 11.005C19.8875 11.005 20.246 10.9228 20.4948 10.7585C20.7435 10.5942 20.8752 10.3552 20.8752 10.0489C20.8752 9.83981 20.8094 9.66803 20.6777 9.52612C20.546 9.38421 20.2972 9.25724 19.9387 9.13774L18.8777 8.80164C18.3436 8.62986 17.9485 8.37592 17.707 8.03982C17.4655 7.71119 17.3412 7.34522 17.3412 6.95684C17.3412 6.64315 17.407 6.3668 17.5387 6.1278C17.6704 5.88879 17.846 5.67967 18.0655 5.51535C18.285 5.34357 18.5338 5.2166 18.8265 5.12697C19.1192 5.03734 19.4265 5 19.7484 5C19.9094 5 20.0777 5.00747 20.2387 5.02988C20.407 5.05228 20.5606 5.08216 20.7143 5.11203C20.8606 5.14938 20.9996 5.18672 21.1313 5.23153C21.263 5.27635 21.3655 5.32116 21.4387 5.36597C21.5411 5.42572 21.6143 5.48548 21.6582 5.55269C21.7021 5.61245 21.724 5.6946 21.724 5.79917V6.1502C21.724 6.30705 21.6655 6.38921 21.5557 6.38921C21.4972 6.38921 21.4021 6.35933 21.2777 6.29958C20.8606 6.10539 20.3923 6.00829 19.8728 6.00829C19.4558 6.00829 19.1265 6.07551 18.8997 6.21742C18.6728 6.35933 18.5558 6.57593 18.5558 6.88215C18.5558 7.09128 18.6289 7.27053 18.7753 7.41244C18.9216 7.55435 19.1923 7.69625 19.5801 7.82322L20.6192 8.15932C21.146 8.33111 21.5265 8.57011 21.7533 8.87633C21.9801 9.18255 22.0899 9.53359 22.0899 9.92197C22.0899 10.2431 22.024 10.5344 21.8996 10.7884C21.7679 11.0423 21.5923 11.2664 21.3655 11.4456C21.1387 11.6323 20.8679 11.7668 20.5533 11.8639C20.224 11.9684 19.8801 12.0207 19.507 12.0207Z" fill="black"/>
  <path fill-rule="evenodd" clip-rule="evenodd" d="M20.8899 15.6505C18.4826 17.4655 14.9851 18.4289 11.9778 18.4289C7.76322 18.4289 3.96571 16.8381 1.09746 14.1941C0.870637 13.985 1.07551 13.7012 1.34624 13.8655C4.44864 15.7028 8.27541 16.8157 12.2339 16.8157C14.9046 16.8157 17.8387 16.248 20.5387 15.0829C20.9411 14.8962 21.285 15.3518 20.8899 15.6505Z" fill="black"/>
  <path fill-rule="evenodd" clip-rule="evenodd" d="M21.8923 14.4855C21.585 14.0822 19.8582 14.2913 19.0752 14.3884C18.8411 14.4183 18.8045 14.2092 19.0167 14.0523C20.3923 13.0664 22.6532 13.3502 22.9167 13.6789C23.1801 14.015 22.8435 16.3228 21.5557 17.4282C21.3581 17.6 21.1679 17.5104 21.2557 17.2863C21.5484 16.5469 22.1996 14.8814 21.8923 14.4855Z" fill="black"/>
</svg>
