<svg width="25" height="24" viewBox="0 0 25 24" fill="none" xmlns="http://www.w3.org/2000/svg">
  <path d="M16.3761 20.5611C16.427 20.4229 16.4566 20.2641 16.4566 20.0977C16.4566 19.9382 16.4291 19.7849 16.3796 19.6419L16.3823 19.6516L10.7386 2.92881H15.9224C16.1252 2.92881 16.2984 3.05875 16.361 3.24025L16.3617 3.24369L21.9992 19.9492C22.0143 19.9932 22.0233 20.0448 22.0233 20.0977C22.0233 20.3006 21.8933 20.4731 21.7118 20.5357L21.7084 20.5364L16.3761 20.5611ZM12.3886 10.723L15.5023 19.9492C15.5181 19.9932 15.5271 20.0448 15.5271 20.0977C15.5271 20.3535 15.3201 20.5611 15.0644 20.5618L15.0389 20.5611H15.0383C14.9344 20.5611 14.8382 20.5268 14.7612 20.469L14.7626 20.4697L6.78413 14.5414H10.9538L12.3886 10.723ZM21.5599 21.4893C21.5606 21.4893 21.5606 21.4893 21.5613 21.4893C22.3299 21.4893 22.9528 20.8664 22.9528 20.0977C22.9528 19.9376 22.9259 19.7843 22.8764 19.6413L22.8792 19.6509V19.6529L17.2389 2.94737C17.0478 2.39187 16.5301 2 15.921 2H9.36431C8.75519 2.00069 8.2375 2.39256 8.04913 2.93775L8.04638 2.94737L2.40681 19.6523C2.36006 19.7849 2.33325 19.9382 2.33325 20.0984C2.33325 20.8671 2.95613 21.4899 3.72475 21.4899C3.72544 21.4899 3.72544 21.4899 3.72613 21.4899H7.79888C8.40869 21.4899 8.92638 21.0981 9.11475 20.5522L9.1175 20.5426L9.95694 18.0579L14.2071 21.2149C14.436 21.3868 14.7241 21.4899 15.0369 21.4899L21.5599 21.4893Z" fill="black"/>
</svg>
