<svg width="24" height="24" viewBox="0 0 24 24" fill="none" xmlns="http://www.w3.org/2000/svg">
  <path fill-rule="evenodd" clip-rule="evenodd" d="M16.7581 12.6142C17.3209 12.563 17.8837 12.563 18.4465 12.5119V12.1025C17.8837 12.0514 17.3209 12.0514 16.7581 12.0002L15.0697 11.9491C14.0976 11.8979 13.0744 11.8979 12.1023 11.8979C12.1023 10.9258 12.1023 9.90255 12.0511 8.93046L11.9999 7.24208C11.9488 6.67929 11.9488 6.1165 11.8976 5.55371H11.4372C11.386 6.1165 11.386 6.67929 11.3348 7.24208L11.2837 8.93046C11.2837 9.39092 11.2837 9.85139 11.2837 10.3119C11.079 9.90255 10.9255 9.44208 10.7209 9.03278L10.0046 7.4979C9.74879 6.98627 9.54414 6.47464 9.28832 5.96301L8.87902 6.1165C9.08367 6.67929 9.23716 7.19092 9.44181 7.70255L10.0558 9.2886C10.2093 9.74906 10.4139 10.1584 10.5674 10.6188C10.2093 10.3119 9.90228 9.95371 9.54414 9.64673L8.31623 8.46999C7.90693 8.11185 7.49762 7.70255 7.03716 7.34441L6.67902 7.70255C7.03716 8.11185 7.44646 8.52115 7.8046 8.98162L8.98134 10.2095C9.28832 10.5677 9.64646 10.8746 9.95344 11.2328C9.54414 11.0793 9.08367 10.8746 8.6232 10.7212L7.03716 10.1072C6.52553 9.90255 5.96274 9.6979 5.45111 9.54441L5.24646 10.0049C5.75809 10.2607 6.26972 10.4653 6.78134 10.7212L8.31623 11.4374C8.72553 11.6421 9.186 11.7956 9.5953 12.0002C9.13483 12.0002 8.67437 12.0002 8.2139 12.0002L6.52553 12.0514C5.96274 12.1025 5.39995 12.1025 4.83716 12.1537V12.6142C5.39995 12.6653 5.96274 12.6653 6.52553 12.7165L8.2139 12.7677C9.23716 12.8188 10.2093 12.8188 11.1813 12.8188C11.1813 13.7909 11.1813 14.8142 11.2325 15.7863L11.2837 17.4746C11.3348 18.0374 11.3348 18.6002 11.386 19.163H11.7953C11.8465 18.6002 11.8465 18.0374 11.8976 17.4746L11.9488 15.7863C11.9488 15.3258 11.9488 14.8142 11.9999 14.3537C12.2046 14.8142 12.3581 15.2235 12.5627 15.6839L13.279 17.2188C13.5348 17.7305 13.7395 18.2421 13.9953 18.7537L14.4046 18.6002C14.2511 18.0374 14.0465 17.5258 13.8418 17.0142L13.3302 15.3258C13.1767 14.8653 12.972 14.456 12.8186 13.9956C13.1767 14.3537 13.4837 14.6607 13.8418 14.9677L15.0697 16.1444C15.479 16.5025 15.8883 16.9118 16.3488 17.27L16.6558 16.963C16.2976 16.5537 15.8883 16.1444 15.5302 15.6839L14.3534 14.456C14.0465 14.0979 13.6883 13.7398 13.3813 13.4328C13.8418 13.5863 14.2511 13.7909 14.7116 13.9444L16.2976 14.5584C16.8093 14.763 17.372 14.9677 17.8837 15.1212L18.0372 14.7119C17.5255 14.456 17.0139 14.2002 16.5023 13.9956L14.9674 13.2793C14.5069 13.0746 14.0976 12.87 13.6372 12.7165C14.0976 12.7165 14.6093 12.7165 15.0697 12.6653L16.7581 12.6142Z" fill="black"/>
  <path fill-rule="evenodd" clip-rule="evenodd" d="M12 23C5.91163 23 1 18.0884 1 12C1 5.91163 5.91163 1 12 1C18.0884 1 23 5.91163 23 12C23 18.0884 18.0884 23 12 23ZM12 2.02326C6.52558 2.02326 2.02326 6.52558 2.02326 12C2.02326 17.4744 6.52558 21.9767 12 21.9767C17.4744 21.9767 21.9767 17.4744 21.9767 12C21.9767 6.52558 17.4744 2.02326 12 2.02326Z" fill="black"/>
</svg>
