<svg width="107" height="24" viewBox="0 0 107 24" fill="none" xmlns="http://www.w3.org/2000/svg">
  <path d="M37.3165 2.40283H38.7026C39.1976 2.40283 39.687 2.44144 40.1766 2.48529C40.633 2.52878 41.0867 2.59869 41.5352 2.69439C41.9231 2.76909 42.2954 2.91047 42.6351 3.11243C43.2997 3.52036 43.8639 4.07306 44.285 4.7294C44.7626 5.48668 45.0022 6.37017 44.9726 7.2649C44.9973 8.238 44.729 9.19619 44.2026 10.015C43.6665 10.8014 42.897 11.3998 42.0025 11.7254V11.7858C43.1156 11.9695 44.1223 12.557 44.8296 13.436C45.4994 14.3371 45.8459 15.4376 45.814 16.5599C45.8142 17.2844 45.6801 18.0023 45.4181 18.6775C45.1603 19.3591 44.7655 19.9806 44.2576 20.5036C43.7146 21.0526 43.0676 21.4882 42.3546 21.785C41.5222 22.1232 40.6295 22.2879 39.7311 22.269H30.051V2.40283H37.3165ZM37.9216 10.8288C39.4286 10.8288 40.5066 10.5647 41.1666 10.0368C41.8553 9.44478 42.2228 8.56129 42.1567 7.6554C42.1823 7.08631 42.0672 6.51939 41.8212 6.00522C41.6119 5.59921 41.2888 5.26311 40.8916 5.03735C40.4741 4.8089 40.0167 4.66324 39.5442 4.60842C38.9969 4.53973 38.4458 4.50661 37.8942 4.50932H32.625V10.8288L37.9216 10.8288ZM39.1757 19.9589C40.1657 20.0173 41.1387 19.6811 41.8816 19.0237C42.5562 18.3381 42.9097 17.3992 42.8552 16.439C42.8776 15.8868 42.7544 15.3387 42.4976 14.8494C42.273 14.4388 41.9475 14.0923 41.5517 13.8428C41.1359 13.5788 40.6756 13.3925 40.1931 13.2929C39.6674 13.1928 39.1333 13.143 38.5982 13.1443H32.625V19.9589H39.1757Z" fill="black" fill-opacity="0.26"/>
  <path d="M47.7667 12.0716C48.0457 11.1873 48.5023 10.3694 49.1086 9.66797C49.7172 8.97972 50.4678 8.43199 51.3086 8.06206C53.2504 7.28465 55.4167 7.28465 57.3586 8.06206C58.198 8.43451 58.9481 8.98208 59.5586 9.66797C60.1628 10.3709 60.6192 11.1884 60.9006 12.0716C61.2037 13.0359 61.354 14.0417 61.346 15.0525C61.3548 16.0561 61.2045 17.0551 60.9006 18.0114C60.618 18.8909 60.1615 19.7045 59.5586 20.404C58.9518 21.0901 58.2002 21.633 57.3586 21.9934C55.4156 22.7635 53.2517 22.7635 51.3086 21.9934C50.4655 21.6351 49.7135 21.0919 49.1086 20.404C48.5036 19.7059 48.047 18.8917 47.7667 18.0114C47.4627 17.055 47.3124 16.056 47.3212 15.0525C47.3131 14.0417 47.4637 13.0359 47.7667 12.0716ZM50.1867 17.3846C50.3889 18.012 50.7164 18.5922 51.149 19.0896C51.549 19.5386 52.0403 19.8969 52.5901 20.14C53.7042 20.622 54.9683 20.622 56.0827 20.14C56.6323 19.8969 57.1235 19.5387 57.5235 19.0896C57.9562 18.5922 58.2837 18.012 58.4861 17.3846C58.7301 16.6315 58.8489 15.8438 58.838 15.0525C58.8492 14.2593 58.7304 13.4696 58.4861 12.7151C58.28 12.0859 57.9529 11.5028 57.5235 10.999C57.1269 10.5436 56.6351 10.1813 56.0827 9.93756C54.9683 9.45572 53.7042 9.45572 52.5901 9.93756C52.0375 10.1813 51.5455 10.5437 51.149 10.999C50.7198 11.5029 50.3926 12.0859 50.1867 12.7151C49.9396 13.4689 49.8205 14.2592 49.8346 15.0525C49.8209 15.844 49.94 16.6323 50.1867 17.3846Z" fill="black" fill-opacity="0.26"/>
  <path d="M63.1116 12.0718C63.3883 11.1866 63.8454 10.3683 64.4536 9.66816C65.0619 8.97974 65.8123 8.43174 66.6538 8.06225C68.5955 7.28589 70.7615 7.28589 72.7035 8.06225C73.5428 8.4347 74.2932 8.98227 74.9036 9.66816C75.5083 10.37 75.963 11.1879 76.2401 12.0718C76.5475 13.0352 76.6998 14.0415 76.6911 15.0527C76.7005 16.0569 76.5483 17.056 76.2401 18.0116C75.9616 18.8915 75.507 19.7057 74.9036 20.4042C74.2967 21.0902 73.5453 21.6332 72.7035 21.9936C70.7598 22.7599 68.5975 22.7599 66.6538 21.9936C65.8102 21.6359 65.0581 21.0928 64.4536 20.4042C63.8466 19.7074 63.39 18.8929 63.1116 18.0116C62.8079 17.0552 62.6573 16.0562 62.6661 15.0527C62.6584 14.0419 62.8084 13.0361 63.1116 12.0718ZM65.5315 17.3848C65.7318 18.0132 66.0595 18.5936 66.494 19.0898C66.8929 19.5399 67.3847 19.8983 67.9351 20.1402C69.0495 20.6222 70.3134 20.6222 71.4275 20.1402C71.9776 19.8971 72.4687 19.5389 72.8685 19.0898C73.2997 18.5912 73.6268 18.0115 73.8311 17.3848C74.0732 16.6315 74.1903 15.8438 74.1777 15.0527C74.1907 14.2598 74.0737 13.4701 73.8311 12.7153C73.6228 12.0869 73.2959 11.5045 72.8685 10.9992C72.4687 10.5424 71.9731 10.1801 71.4165 9.93776C70.3022 9.45592 69.0383 9.45592 67.9242 9.93776C67.3707 10.1801 66.8784 10.5426 66.4831 10.9992C66.0518 11.5018 65.7246 12.085 65.5206 12.7153C65.2736 13.4691 65.1546 14.2594 65.1687 15.0527C65.1586 15.8448 65.2811 16.6332 65.5315 17.3848Z" fill="black" fill-opacity="0.26"/>
  <path d="M81.0693 7.78708V9.89366H81.1245C82.686 7.57903 85.7113 6.76361 88.2247 7.9798C88.9739 8.38433 89.5272 9.07467 89.7594 9.89366C90.2234 9.12548 90.8841 8.49503 91.6733 8.06775C92.4744 7.63176 93.3738 7.40819 94.2858 7.41882C94.9497 7.41272 95.6114 7.49212 96.2547 7.6552C96.8051 7.79824 97.32 8.05285 97.7675 8.40325C98.1945 8.75277 98.5291 9.20254 98.7408 9.71227C98.991 10.3224 99.1107 10.9781 99.0931 11.6373V22.2963H96.7497V12.8254C96.7543 12.403 96.7174 11.9812 96.6397 11.5657C96.5762 11.1988 96.4336 10.8496 96.2218 10.5428C96.0035 10.2434 95.7091 10.0081 95.3695 9.86071C94.924 9.67453 94.4437 9.58823 93.9612 9.60776C92.9458 9.55424 91.9525 9.91788 91.2114 10.6142C90.5255 11.335 90.164 12.3044 90.2104 13.2983V22.2962H87.6363V12.8254C87.639 12.3932 87.5966 11.9617 87.5099 11.5384C87.4379 11.1709 87.2902 10.8223 87.0754 10.5154C86.8686 10.2254 86.5898 9.99424 86.267 9.84441C85.8462 9.67435 85.3948 9.59373 84.9414 9.60785C84.325 9.59277 83.7148 9.73659 83.1706 10.0258C82.7089 10.2796 82.3015 10.6216 81.9715 11.0323C81.6814 11.3972 81.4546 11.808 81.3006 12.2478C81.1779 12.5854 81.1074 12.9397 81.0915 13.2983V22.2963H78.7319V7.78708H81.0693Z" fill="black" fill-opacity="0.26"/>
  <path d="M102.134 5.21333V2.40283H104.477V5.21333H102.134ZM104.477 7.78719V22.2964H102.134V7.78719H104.477Z" fill="black" fill-opacity="0.26"/>
  <path d="M13.6665 1C7.59133 1 2.6665 5.92483 2.6665 12C2.6665 18.0753 7.59133 23 13.6665 23C19.7416 23 24.6665 18.0752 24.6665 12C24.6665 5.92492 19.7416 1 13.6665 1ZM13.6665 21.9001C8.19886 21.9001 3.76633 17.4677 3.76633 12C3.76633 6.53245 8.19886 2.09992 13.6665 2.09992C19.1341 2.09992 23.5666 6.53254 23.5666 12C23.5665 17.4677 19.134 21.9001 13.6665 21.9001ZM22.3235 13.4027V14.343H19.282V9.65709H20.2169V13.4027H22.3235ZM7.72635 14.343C8.83254 14.3621 9.8174 13.6462 10.1409 12.5885L12.9569 14.6567L15.7729 12.5885V14.343H18.8145V13.4027H16.7079V9.65709H15.7729V11.4116L13.0725 13.3915L12.4675 12.9514L13.7599 12L15.168 10.966L14.365 10.3776L11.6645 12.3575L11.0594 11.9175L13.7599 9.93209L12.9569 9.34339L10.1409 11.4116C9.8174 10.3537 8.83254 9.638 7.72635 9.65709H5.7079V14.343H7.72635ZM6.87938 13.4027V10.5976H7.70996C8.44711 10.636 9.01471 11.2626 8.98028 12C9.01471 12.7374 8.44702 13.364 7.70996 13.4027H6.87938Z" fill="black" fill-opacity="0.26"/>
</svg>
