<?xml version="1.0" encoding="UTF-8"?>
<svg id="a" xmlns="http://www.w3.org/2000/svg" width="29.29" height="24" viewBox="0 0 488.09 400">
  <path d="M344.3,272.88l39.78,87.06,61.04-133.3-100.85,46.24h.02ZM196.31,40.54L46.94,367.02l247.21-112.92L196.31,40.54ZM42.85,407.01c-9.26,0-18.52-3.54-25.35-10.62-10.62-10.62-13.63-26.66-7.35-40.54L163.61,20.96c5.72-12.78,18.27-20.96,32.7-20.96s26.71,8.16,32.7,20.96l99.49,217.37,105.47-48.15c13.9-6.25,29.72-3.54,40.61,7.35,10.62,10.62,13.63,26.66,7.35,40.54l-64.86,141.48c-6,13.05-18.52,20.96-32.7,20.96s-26.98-8.16-32.7-20.96l-41.69-90.87-251.85,115.08c-4.9,2.18-10.09,3.26-15.26,3.26l-.02-.02Z" fill="#1dc9d4" stroke-width="0"/>
</svg>
