<svg width="24" height="24" viewBox="0 0 24 24" fill="none" xmlns="http://www.w3.org/2000/svg">
  <path d="M13.8149 1.53919C13.9359 1.59419 14.0569 1.75919 14.0899 1.92419C14.1339 2.19919 14.3979 2.36419 16.2789 3.33219C17.7969 4.11319 18.4459 4.38819 18.5229 4.31119C18.9079 3.92619 19.6229 4.49819 19.3919 5.00419C19.3039 5.21319 19.3259 5.35619 19.5239 5.74119C21.2949 9.21719 21.3719 9.34919 21.7789 9.54719C22.2849 9.80019 22.3729 10.2292 21.9769 10.5372C21.7129 10.7462 21.7019 10.8122 21.5809 12.9462C21.5039 14.1452 21.4269 15.1902 21.4049 15.2672C21.3829 15.3332 21.4599 15.4762 21.5809 15.5862C21.8119 15.7952 21.8559 16.2902 21.6579 16.4882C21.5809 16.5652 21.3939 16.6202 21.2289 16.6202C20.9979 16.6202 20.8329 16.7632 20.4589 17.2472C20.1949 17.5992 19.8979 17.9842 19.7879 18.1052C18.4789 19.7002 18.0609 20.3272 18.0719 20.6792C18.0939 21.2512 17.5109 21.5702 17.1259 21.1852C16.9389 20.9982 16.6309 20.9762 15.8829 21.1192C15.5969 21.1742 14.9589 21.2842 14.4749 21.3502C13.9909 21.4162 13.3199 21.5152 12.9899 21.5702C12.6599 21.6252 11.9559 21.7242 11.4169 21.8012C10.8889 21.8782 10.4599 21.9772 10.4599 22.0212C10.4599 22.1972 10.1079 22.4502 9.87689 22.4502C9.51389 22.4502 9.33789 22.2962 9.32689 21.9772C9.30489 21.7572 9.16189 21.6142 8.69989 21.3282C8.36989 21.1302 7.47889 20.5802 6.71989 20.1072C5.48789 19.3372 5.30089 19.2602 4.94889 19.3152C4.66289 19.3702 4.49789 19.3372 4.36589 19.2052C4.16789 19.0072 4.12389 18.5452 4.29989 18.4352C4.43189 18.3472 4.37689 18.1162 4.02489 17.3352C3.50789 16.1912 3.33189 15.7842 3.15589 15.3552C2.66089 14.1562 2.49589 13.8702 2.29789 13.8702C1.98989 13.8702 1.73689 13.4082 1.86889 13.0562C1.93489 12.9022 2.05589 12.7702 2.15489 12.7702C2.24289 12.7702 2.31989 12.7592 2.33089 12.7372C2.33089 12.7262 2.47389 11.6482 2.63889 10.3502C2.93589 8.05119 2.94689 7.98519 2.74889 7.78719C2.50689 7.56719 2.47389 7.16019 2.67189 6.96219C2.74889 6.88519 2.97989 6.83019 3.19989 6.83019C3.56289 6.83019 4.17889 6.42319 5.39989 5.36719C5.55389 5.23519 6.01589 4.86119 6.42289 4.53119C7.01689 4.04719 7.15989 3.87119 7.15989 3.61819C7.15989 3.40919 7.24789 3.25519 7.44589 3.12319C7.72089 2.94719 7.75389 2.94719 8.06189 3.12319C8.40289 3.32119 8.33689 3.33219 11.7249 2.43019C12.9899 2.10019 12.9899 2.10019 12.9899 1.95719C13.0009 1.60519 13.4299 1.39619 13.8149 1.53919ZM11.3399 2.77119C10.6469 2.95819 9.77789 3.17819 9.41489 3.26619C8.40289 3.51919 8.39189 3.53019 8.58989 3.62919C8.67789 3.67319 9.64589 3.92619 10.7349 4.19019C11.8239 4.44319 13.2539 4.79519 13.9249 4.97119C14.5849 5.13619 15.1679 5.23519 15.2229 5.19119C15.2889 5.12519 15.0689 4.71819 14.0129 3.05719C13.8589 2.81519 13.6719 2.65019 13.5399 2.65019C13.4299 2.65019 13.2649 2.57319 13.1879 2.48519C13.1109 2.39719 12.9459 2.34219 12.8249 2.37519C12.7039 2.40819 12.0329 2.58419 11.3399 2.77119ZM14.3869 3.22219C14.6289 3.60719 14.9699 4.14619 15.1459 4.43219C15.3439 4.77319 15.5419 4.96019 15.6739 4.96019C15.7949 4.96019 15.9709 5.03719 16.0809 5.13619C16.2349 5.27919 16.3559 5.29019 16.6419 5.20219C16.8399 5.14719 17.2909 5.03719 17.6429 4.94919C17.9949 4.87219 18.2589 4.76219 18.2369 4.69619C18.2149 4.63019 17.7089 4.33319 17.1039 4.02519C16.5099 3.71719 15.5749 3.23319 15.0249 2.94719C14.4859 2.67219 14.0239 2.46319 13.9909 2.48519C13.9689 2.51819 14.1449 2.84819 14.3869 3.22219ZM8.20489 3.98119C8.16089 4.03619 8.20489 4.24519 8.29289 4.44319C8.38089 4.64119 8.57889 5.07019 8.73289 5.40019C8.87589 5.73019 9.15089 6.32419 9.32689 6.72019C9.51389 7.11619 9.74489 7.64419 9.85489 7.89719C10.0089 8.24919 10.1299 8.35919 10.3829 8.41419C10.7239 8.48019 10.8669 8.41419 13.1549 6.97319C13.6389 6.67619 14.2659 6.28019 14.5519 6.10419C14.8379 5.92819 15.0689 5.71919 15.0469 5.63119C15.0359 5.53219 14.2439 5.29019 12.6049 4.88319C11.2739 4.56419 9.83289 4.20119 9.41489 4.09119C8.49089 3.83819 8.29289 3.82719 8.20489 3.98119ZM7.48989 4.46519C7.43489 4.61919 7.29189 4.94919 7.17089 5.21319C7.06089 5.46619 6.86289 5.89519 6.74189 6.17019C6.62089 6.44519 6.41189 6.90719 6.27989 7.21519C6.14789 7.51219 5.91689 8.04019 5.76289 8.37019C5.61989 8.70019 5.41089 9.17319 5.28989 9.41519C5.13589 9.75619 5.11389 9.88819 5.21289 9.98719C5.34489 10.1192 5.63089 10.0532 8.39189 9.31619C8.98589 9.16219 9.49189 9.03019 9.51389 9.03019C9.53589 9.03019 9.61289 8.88719 9.68989 8.70019C9.79989 8.42519 9.79989 8.30419 9.65689 8.01819C9.56889 7.82019 9.35989 7.36919 9.20589 7.01719C9.05189 6.67619 8.79889 6.12619 8.65589 5.80719C8.51289 5.49919 8.29289 5.00419 8.16089 4.70719C7.89689 4.13519 7.65489 4.04719 7.48989 4.46519ZM5.83989 5.30119C3.65089 7.07219 3.65089 7.07219 3.71689 7.23719C3.74989 7.32519 3.71689 7.50119 3.65089 7.63319C3.54089 7.84219 3.58489 8.00719 4.01389 8.81019C4.28889 9.32719 4.58589 9.75619 4.67389 9.77819C4.86089 9.82219 4.92689 9.70119 6.16989 6.88519C6.27989 6.64319 6.47789 6.19219 6.60989 5.89519C6.74189 5.58719 6.95089 5.12519 7.07189 4.85019C7.19289 4.57519 7.31389 4.32219 7.34689 4.26719C7.48989 4.02519 7.07189 4.31119 5.83989 5.30119ZM17.2249 5.29019C17.0379 5.33419 16.7629 5.41119 16.5869 5.44419C16.1469 5.54319 16.2239 5.84019 16.8179 6.26919C18.0939 7.20419 20.8659 9.31619 20.9319 9.41519C20.9759 9.47019 21.0419 9.49219 21.0749 9.45919C21.1079 9.41519 20.7559 8.65619 20.2829 7.75419C19.0949 5.45519 19.1059 5.45519 18.8419 5.42219C18.7209 5.40019 18.5559 5.31219 18.4789 5.22419C18.3469 5.05919 17.9729 5.08119 17.2249 5.29019ZM13.5949 6.97319C10.8449 8.71119 10.8009 8.74419 10.7679 9.03019C10.7349 9.25019 10.9109 9.50319 11.5489 10.1852C13.6279 12.3962 14.5519 13.3092 14.6729 13.2542C14.7719 13.2212 14.8599 12.7152 14.9589 11.7472C15.1019 10.2182 15.2229 9.04119 15.4099 7.22619C15.5749 5.66419 15.6299 5.67519 13.5949 6.97319ZM15.6959 6.52219C15.6629 6.78619 15.5859 7.61119 15.5199 8.37019C15.4539 9.12919 15.3549 10.1632 15.2999 10.6802C15.0909 12.6052 15.0689 13.2982 15.1679 13.3642C15.2669 13.4192 17.2689 12.2312 18.3799 11.4502C19.0619 10.9662 18.9739 10.7132 17.3349 8.22719C16.5429 7.03919 15.8719 6.06019 15.8279 6.06019C15.7839 6.06019 15.7289 6.26919 15.6959 6.52219ZM16.7299 6.90719C16.9279 7.19319 17.5329 8.09519 18.0719 8.88719C18.6879 9.81119 19.1279 10.3502 19.2379 10.3502C19.3479 10.3502 19.5239 10.4162 19.6449 10.5042C19.8319 10.6362 19.9419 10.6252 20.4479 10.4272C20.9099 10.2512 21.0199 10.1632 21.0199 9.95419C21.0199 9.81119 20.9209 9.64619 20.8109 9.58019C20.6899 9.52519 20.5359 9.40419 20.4479 9.32719C20.3269 9.20619 19.2269 8.37019 17.0599 6.74219C16.7299 6.48919 16.4439 6.31319 16.4219 6.33519C16.3999 6.35719 16.5319 6.61019 16.7299 6.90719ZM3.05689 8.83219C3.01289 9.27219 2.93589 10.0092 2.86989 10.4602C2.81489 10.9112 2.73789 11.6042 2.69389 12.0002L2.63889 12.7152L2.86989 12.4402C3.00189 12.2862 3.22189 12.0442 3.35389 11.8902C3.90389 11.2522 4.20089 10.7902 4.17889 10.6032C4.15689 10.4932 4.17889 10.2952 4.23389 10.1632C4.28889 9.98719 4.17889 9.65719 3.80489 8.92019C3.52989 8.37019 3.26589 7.94119 3.21089 7.97419C3.16689 8.00719 3.08989 8.39219 3.05689 8.83219ZM8.28189 9.59119C7.85289 9.71219 7.12689 9.88819 6.68689 10.0092C6.25789 10.1192 5.76289 10.2512 5.58689 10.2842C5.10289 10.3942 5.22389 10.7022 6.02689 11.3512C6.44489 11.6702 6.79689 11.9672 6.82989 12.0002C6.86289 12.0332 7.39089 12.4622 8.01789 12.9682C9.27189 13.9912 9.57989 14.0682 9.57989 13.3752C9.57989 13.1662 9.62389 12.6382 9.68989 12.1982C10.0639 9.36019 10.0529 9.56919 9.83289 9.41519C9.62389 9.25019 9.55789 9.26119 8.28189 9.59119ZM10.1959 9.94319C10.1189 10.5152 9.92089 12.2202 9.84389 13.0122C9.78889 13.6392 9.81089 13.7712 9.98689 13.9692C10.1739 14.1672 10.2619 14.1782 11.1749 14.0902C11.7249 14.0352 12.4839 13.9582 12.8799 13.9252C14.1889 13.8042 14.3319 13.7712 14.2879 13.5512C14.2329 13.2542 10.5699 9.48119 10.3939 9.54719C10.3169 9.58019 10.2289 9.75619 10.1959 9.94319ZM20.5689 10.6362C20.1619 10.7682 19.9859 10.9002 19.9089 11.1092C19.8429 11.2632 19.7439 11.4172 19.6889 11.4612C19.6339 11.4942 19.6779 11.7362 19.7989 12.0662C19.9199 12.3632 20.2499 13.2322 20.5359 14.0022C20.8219 14.7832 21.0969 15.4102 21.1409 15.4102C21.1959 15.4102 21.2399 15.1022 21.2399 14.7172C21.2399 14.3432 21.2949 13.3092 21.3719 12.4182C21.4819 11.0982 21.4709 10.7792 21.3609 10.6362C21.1849 10.4272 21.2289 10.4272 20.5689 10.6362ZM5.00389 11.5272C5.04789 11.8792 5.17989 12.8802 5.31189 13.7602C5.49889 15.0802 5.57589 15.3882 5.76289 15.5422C6.00489 15.7292 6.20289 15.6852 7.43489 15.1352C7.61089 15.0582 8.01789 14.8822 8.33689 14.7502C9.17289 14.3762 9.16189 14.2002 8.22689 13.4302C5.80689 11.4612 5.11389 10.9112 5.02589 10.9112C4.98189 10.9002 4.97089 11.1862 5.00389 11.5272ZM3.67289 11.8682C3.00189 12.7152 2.90289 12.8912 2.92489 13.2432C2.94689 13.6172 3.05689 13.7492 4.01389 14.5852C4.60789 15.1022 5.13589 15.5202 5.19089 15.5202C5.30089 15.5202 5.28989 15.3662 5.06989 13.7602C4.65189 10.7242 4.68489 10.9002 4.54189 10.9002C4.49789 10.9002 4.10189 11.3402 3.67289 11.8682ZM17.2139 12.4842C16.3339 13.0562 15.5639 13.5402 15.4979 13.5622C15.2669 13.6392 15.5089 13.9692 15.8719 14.0792C16.2789 14.1892 18.2589 14.8822 19.6889 15.3992C20.1949 15.5862 20.6569 15.7402 20.7119 15.7402C20.8769 15.7402 20.7999 15.3662 20.4809 14.5302C20.3049 14.0792 19.9859 13.2322 19.7769 12.6602C19.4249 11.7142 19.2599 11.4942 18.8969 11.4612C18.8529 11.4502 18.0939 11.9122 17.2139 12.4842ZM12.5499 14.2002C10.2289 14.4202 10.1299 14.4422 10.1299 14.6292C10.1299 14.8052 10.2729 14.9702 12.0769 16.8842C13.2319 18.1162 13.3969 18.1602 13.6499 17.3132C13.7269 17.0162 13.9689 16.2682 14.1669 15.6302C14.4859 14.6402 14.5189 14.4422 14.3979 14.2222C14.2879 14.0132 14.1999 13.9802 13.9249 14.0242C13.7379 14.0682 13.1219 14.1342 12.5499 14.2002ZM3.04589 14.4862C3.14489 14.7172 3.34289 15.1792 3.48589 15.4982C3.62889 15.8172 3.74989 16.1032 3.74989 16.1252C3.74989 16.1472 3.87089 16.4332 4.01389 16.7522C4.15689 17.0712 4.35489 17.5332 4.45389 17.7642C4.67389 18.3032 4.79489 18.2042 5.02589 17.2912C5.15789 16.7852 5.16889 16.5652 5.08089 16.4772C5.01489 16.4112 4.95989 16.2022 4.94889 16.0152C4.94889 15.7402 4.78389 15.5532 3.94789 14.8272C3.39789 14.3542 2.93589 13.9912 2.91389 14.0132C2.89189 14.0352 2.94689 14.2442 3.04589 14.4862ZM15.2449 14.3102C15.2119 14.3652 15.0909 14.4202 14.9919 14.4202C14.7059 14.4202 13.6169 17.8192 13.8259 18.0392C13.9579 18.1932 14.3649 18.0942 16.1799 17.5002C16.3339 17.4452 16.9719 17.2472 17.6099 17.0602C18.2479 16.8622 18.9629 16.6422 19.2049 16.5652C19.4469 16.4882 19.8539 16.3672 20.1069 16.3012C20.3709 16.2242 20.5799 16.1252 20.5799 16.0702C20.5799 16.0042 20.5689 15.9602 20.5469 15.9602C20.5359 15.9602 20.1729 15.8282 19.7549 15.6742C19.3259 15.5202 18.6329 15.2782 18.2149 15.1242C17.7859 14.9812 17.0489 14.7172 16.5649 14.5412C15.5969 14.1892 15.3439 14.1452 15.2449 14.3102ZM8.44689 14.9592C8.19389 15.0692 7.78689 15.2452 7.54489 15.3442C6.38989 15.8282 6.04889 16.0152 6.08189 16.1582C6.10389 16.2462 6.49989 16.5652 6.97289 16.8512C7.63289 17.2692 7.89689 17.3792 8.11689 17.3242C8.40289 17.2472 8.43589 17.1922 8.91989 15.7952C9.32689 14.6512 9.28289 14.5852 8.44689 14.9592ZM9.53589 15.0362C9.43689 15.1242 9.35989 15.2232 9.35989 15.2342C9.35989 15.2562 9.20589 15.6962 9.01889 16.2352C8.74389 17.0382 8.71089 17.2582 8.80989 17.5002C8.91989 17.7752 8.99689 17.7972 10.1079 17.9292C10.7569 18.0062 11.5819 18.1162 11.9449 18.1712C13.0999 18.3472 13.0999 18.3252 12.3189 17.4892C12.0109 17.1592 11.3289 16.4332 10.8119 15.8722C10.2949 15.3222 9.83289 14.8602 9.78889 14.8602C9.74489 14.8602 9.62389 14.9372 9.53589 15.0362ZM19.8539 16.6092C19.5019 16.7192 18.6879 16.9722 18.0499 17.1702C17.4119 17.3682 16.6969 17.5882 16.4549 17.6652C16.2129 17.7422 15.5529 17.9402 14.9919 18.1162C14.4419 18.2812 13.9799 18.4792 13.9799 18.5452C13.9799 18.6112 14.1669 18.7762 14.3979 18.8972C14.6179 19.0292 14.9809 19.2272 15.1899 19.3372C15.3989 19.4582 15.9049 19.7332 16.3119 19.9642C16.8839 20.2832 17.0929 20.3492 17.2469 20.2612C17.3679 20.2062 17.5329 20.1622 17.6319 20.1732C17.7859 20.1952 18.6879 19.1282 20.7229 16.5322C20.8769 16.3452 20.6239 16.3562 19.8539 16.6092ZM5.56489 16.6202C5.43289 16.6202 5.28989 17.0382 5.10289 17.9512C5.06989 18.1272 5.11389 18.2812 5.22389 18.3692C5.37789 18.5012 5.54289 18.4792 6.31289 18.2702C7.69889 17.8962 7.75389 17.8742 7.78689 17.7642C7.83089 17.6212 6.03789 16.4992 5.86189 16.5652C5.77389 16.5982 5.64189 16.6202 5.56489 16.6202ZM8.76589 18.2482C8.69989 18.4352 8.97489 19.3042 9.55789 20.7452C9.90989 21.6362 10.0639 21.5812 11.6149 20.0412C12.5939 19.0512 12.8909 18.6772 12.8029 18.5892C12.7369 18.5232 12.2419 18.4132 11.7029 18.3582C11.1749 18.3032 10.4379 18.2152 10.0749 18.1602C8.97489 18.0282 8.83189 18.0282 8.76589 18.2482ZM6.52189 18.4462C5.93889 18.6002 5.41089 18.7652 5.36689 18.8202C5.25689 18.9192 5.52089 19.1172 7.21489 20.1402C9.06289 21.2622 9.46989 21.4932 9.52489 21.4382C9.55789 21.4162 9.30489 20.7232 8.98589 19.9092C8.55689 18.8422 8.33689 18.4242 8.18289 18.4022C8.07289 18.3802 7.94089 18.3142 7.87489 18.2592C7.74289 18.1272 7.73189 18.1272 6.52189 18.4462ZM11.6479 20.3382C10.9329 21.0422 10.3829 21.6362 10.4049 21.6582C10.4489 21.7022 11.3509 21.5922 12.8249 21.3612C14.1009 21.1632 15.0359 21.0202 15.8499 20.8992C16.9939 20.7342 17.0709 20.6682 16.4989 20.3382C16.0039 20.0522 14.7059 19.3372 14.2329 19.0952C14.0789 19.0182 13.7599 18.9852 13.4519 19.0072C12.9679 19.0622 12.8689 19.1392 11.6479 20.3382Z" fill="#876FEC" stroke="#876FEC" stroke-opacity="0.26" stroke-width="0.5"/>
</svg>
