<svg width="25" height="24" viewBox="0 0 25 24" fill="none" xmlns="http://www.w3.org/2000/svg">
  <path d="M8.60352 18.8663L9.12904 18.188H13.0179L15.045 20.7778L14.6846 21.6565H9.66959L9.78971 20.7778L8.60352 18.8663Z" fill="black" fill-opacity="0.26"/>
  <path d="M9.79272 10.0356L11.6705 6.7915H13.8587L23.6667 18.1839L22.9062 21.6564H18.7006L18.9644 20.6817L9.79272 10.0356Z" fill="black" fill-opacity="0.26"/>
  <path d="M12.072 6.17514L12.9712 4.51241L15.6686 2.33203L20.2904 5.95553L19.691 6.56729L20.4955 7.68101V8.87315L18.1924 10.7555L14.3277 6.17514H12.072Z" fill="black" fill-opacity="0.26"/>
  <path d="M4.92944 13.42H6.15111L9.33673 10.7554L13.5584 15.6608L12.3677 17.4473H8.47074L5.77997 20.869L5.1614 21.6563H1.6665V17.4625L4.92944 13.42Z" fill="black" fill-opacity="0.26"/>
</svg>
