<svg width="25" height="24" viewBox="0 0 25 24" fill="none" xmlns="http://www.w3.org/2000/svg">
  <path d="M12.3333 1C10.1577 1 8.03092 1.64514 6.22198 2.85383C4.41304 4.06253 3.00315 5.78049 2.17058 7.79048C1.33802 9.80047 1.12018 12.0122 1.54462 14.146C1.96906 16.2798 3.0167 18.2398 4.55508 19.7782C6.09346 21.3165 8.05347 22.3642 10.1873 22.7886C12.3211 23.2131 14.5328 22.9952 16.5428 22.1627C18.5528 21.3301 20.2707 19.9202 21.4794 18.1113C22.6881 16.3023 23.3333 14.1756 23.3333 12C23.3301 9.08359 22.1701 6.28755 20.1079 4.22534C18.0457 2.16313 15.2497 1.00318 12.3333 1ZM16.2176 19.3597C16.172 19.3836 16.1216 19.3969 16.0701 19.3987C16.0187 19.4005 15.9675 19.3907 15.9203 19.37C15.8729 19.3492 15.8309 19.318 15.7972 19.2788C15.7636 19.2395 15.7393 19.1931 15.7261 19.1431L15.0197 16.4997C15.0011 16.4303 15.0047 16.3569 15.03 16.2897C15.0552 16.2225 15.1009 16.1649 15.1606 16.125C16.1675 15.4477 16.9033 14.4369 17.2385 13.2705C17.5736 12.1042 17.4866 10.857 16.9928 9.74844L13.7564 14.6692C13.7251 14.7167 13.6825 14.7558 13.6324 14.7828C13.5823 14.8098 13.5263 14.8239 13.4693 14.8239H11.1954C11.1381 14.824 11.0816 14.8097 11.0312 14.7824C10.9807 14.7551 10.938 14.7156 10.9067 14.6675L7.69263 9.7089C7.1644 10.8721 7.08678 12.19 7.47482 13.4071C7.86287 14.6243 8.68893 15.6541 9.79294 16.2969C9.85774 16.3346 9.90843 16.3925 9.93728 16.4616C9.96614 16.5308 9.97159 16.6076 9.95279 16.6802L9.26529 19.2978C9.25276 19.3467 9.22963 19.3921 9.19755 19.4311C9.16547 19.47 9.12522 19.5013 9.07966 19.523C9.03395 19.5444 8.98407 19.5556 8.93357 19.5556C8.88307 19.5556 8.83319 19.5444 8.78747 19.523C7.39678 18.8684 6.2101 17.8482 5.35426 16.5714C4.49843 15.2947 4.0056 13.8094 3.92847 12.2743C3.85133 10.7391 4.19278 9.21192 4.91633 7.85582C5.63987 6.49972 6.71831 5.36571 8.03638 4.575L8.06904 4.55266L8.18419 4.48562C8.26132 4.44015 8.35313 4.42656 8.44012 4.44775C8.52711 4.46893 8.6024 4.52322 8.64997 4.59906L12.3333 10.5477L16.142 4.66266C16.1904 4.58814 16.2657 4.53524 16.3522 4.51505C16.4387 4.49487 16.5297 4.50896 16.6061 4.55437C17.4459 5.05227 18.1932 5.69194 18.8147 6.445C18.8416 6.4684 18.8643 6.49632 18.8817 6.5275C19.6666 7.5034 20.2258 8.64099 20.519 9.8586C20.8122 11.0762 20.8321 12.3436 20.5775 13.5699C20.3228 14.7961 19.7998 15.9507 19.046 16.9509C18.2922 17.9511 17.3263 18.7719 16.2176 19.3545V19.3597Z" fill="#da3b00"/>
</svg>
