<svg width="93" height="24" viewBox="0 0 93 24" fill="none" xmlns="http://www.w3.org/2000/svg">
  <path opacity="0.93" fill-rule="evenodd" clip-rule="evenodd" d="M28.9648 0.885254C30.8945 0.885254 32.8245 0.885254 34.7542 0.885254C34.9453 7.36182 35.0611 13.8549 35.1016 20.3644C35.4467 20.836 35.9098 21.1416 36.4911 21.2811C36.6046 21.5774 36.6432 21.883 36.6069 22.1978C33.9824 22.1978 31.3577 22.1978 28.7332 22.1978C28.6065 21.3292 28.9926 20.8709 29.8911 20.8228C30.065 20.622 30.1808 20.3928 30.2385 20.1353C30.3929 14.4061 30.3929 8.67692 30.2385 2.94775C29.9948 2.41815 29.5703 2.11259 28.9648 2.03109C28.6947 1.64899 28.6947 1.26705 28.9648 0.885254Z" fill="#da3b00"/>
  <path opacity="0.884" fill-rule="evenodd" clip-rule="evenodd" d="M2.33325 22.656C2.33325 20.8227 2.33325 18.9894 2.33325 17.156C2.65131 17.1201 2.96008 17.1583 3.25957 17.2706C3.86728 20.1667 5.64272 21.4653 8.58588 21.1664C10.0284 20.2106 10.1056 19.1412 8.81746 17.9581C6.56098 17.1287 4.59257 15.8683 2.9122 14.1769C2.73693 13.761 2.54395 13.3791 2.33325 13.031C2.33325 12.1907 2.33325 11.3505 2.33325 10.5102C3.20221 8.35928 4.82326 7.28983 7.19641 7.30186C8.3842 7.38417 9.5421 7.61334 10.6701 7.98936C11.1164 7.57837 11.6568 7.3492 12.2911 7.30186C12.2911 8.90602 12.2911 10.5102 12.2911 12.1144C11.9731 12.1503 11.6643 12.1121 11.3648 11.9998C10.6928 9.64901 9.14894 8.57955 6.73325 8.79144C5.60109 9.66816 5.5239 10.623 6.50167 11.656C7.85453 12.4401 9.24401 13.1658 10.6701 13.8331C13.8601 16.3115 14.0145 18.9851 11.1333 21.8539C8.80894 22.9262 6.49315 22.888 4.18588 21.7394C3.71725 22.3594 3.0997 22.665 2.33325 22.656Z" fill="#da3b00"/>
  <path opacity="0.908" fill-rule="evenodd" clip-rule="evenodd" d="M19.4702 7.30181C25.5414 7.23716 28.4362 10.2163 28.1544 16.2393C27.1479 21.0717 24.176 23.1724 19.2386 22.5414C16.3719 21.6909 14.635 19.8194 14.0281 16.9268C13.2703 12.2348 15.0843 9.02645 19.4702 7.30181ZM20.1649 8.67681C21.1152 8.50931 21.9257 8.73848 22.5965 9.36431C23.5778 12.9326 23.655 16.5229 22.8281 20.1351C21.7719 21.8435 20.614 21.9199 19.3544 20.3643C18.6707 17.0236 18.5935 13.6625 19.1228 10.281C19.3572 9.66182 19.7045 9.1271 20.1649 8.67681Z" fill="#da3b00"/>
  <path opacity="0.898" fill-rule="evenodd" clip-rule="evenodd" d="M42.3965 7.30213C44.8202 7.04269 47.0588 7.53922 49.1122 8.79171C49.6358 9.42687 49.9832 10.1525 50.1544 10.9688C50.2315 14.0243 50.3088 17.0799 50.3859 20.1355C50.7847 20.2412 51.2092 20.2794 51.6596 20.25C51.8581 20.408 52.0123 20.5989 52.1228 20.823C50.8607 22.3725 49.2396 22.9454 47.2596 22.5417C46.5181 22.1518 45.9778 21.5788 45.6386 20.823C43.7533 22.5276 41.592 23.0241 39.1544 22.3125C37.524 21.3373 36.9451 19.9241 37.4175 18.073C38.1039 16.6025 39.2231 15.5712 40.7754 14.9792C42.3617 14.4051 43.9441 13.8322 45.5228 13.2605C45.7198 11.942 45.6425 10.6434 45.2912 9.36463C44.7572 8.81736 44.1011 8.58819 43.3228 8.67713C42.6852 8.64351 42.1063 8.79627 41.5859 9.13546C41.4315 9.44101 41.4315 9.74658 41.5859 10.0521C42.6704 11.1153 42.632 12.1466 41.4701 13.1459C39.4813 13.9952 38.2463 13.3841 37.7649 11.3125C38.4142 8.95046 39.9582 7.61363 42.3965 7.30213ZM45.407 14.6355C45.674 16.0455 45.7127 17.4969 45.5228 18.9896C44.8695 19.9436 43.9816 20.2874 42.8596 20.0209C41.7536 18.2498 42.0623 16.7221 43.7859 15.4375C44.3475 15.1597 44.888 14.8923 45.407 14.6355Z" fill="#da3b00"/>
  <path opacity="0.897" fill-rule="evenodd" clip-rule="evenodd" d="M58.1437 7.30205C60.6625 6.87262 62.7854 7.56012 64.5121 9.36455C65.3657 11.3418 64.7481 12.5641 62.6594 13.0312C62.0648 12.9279 61.5242 12.6987 61.0384 12.3437C60.757 11.3008 60.6028 10.2314 60.5752 9.13539C58.7641 8.31284 57.6835 8.92396 57.3331 10.9687C56.6893 13.7912 57.0752 16.4648 58.491 18.9896C60.6334 20.8898 62.6402 20.737 64.5121 18.5312C64.7608 18.7875 65.0308 19.0167 65.3226 19.2187C62.7227 22.8531 59.4032 23.6552 55.3647 21.625C52.2074 18.6803 51.474 15.2046 53.1647 11.1979C54.2948 9.20991 55.9543 7.91132 58.1437 7.30205Z" fill="#da3b00"/>
  <path opacity="0.899" fill-rule="evenodd" clip-rule="evenodd" d="M71.1123 7.30176C75.9521 7.35492 78.4223 9.79938 78.5228 14.6351C75.821 14.6351 73.1194 14.6351 70.4175 14.6351C70.5118 16.4819 71.1294 18.1243 72.2702 19.5622C73.1312 20.0889 74.0575 20.2417 75.0491 20.0205C76.081 19.5669 76.9689 18.9176 77.7123 18.0726C78.0566 18.2227 78.3267 18.4519 78.5228 18.7601C76.4333 22.3147 73.4227 23.4223 69.4912 22.083C67.417 21.0729 66.2204 19.4306 65.9018 17.1559C64.9175 12.3686 66.6544 9.08387 71.1123 7.30176ZM71.5754 8.67676C72.4524 8.51964 73.1858 8.74881 73.7754 9.36426C74.0445 10.6527 74.2374 11.9513 74.3544 13.2601C73.042 13.2601 71.7299 13.2601 70.4175 13.2601C70.3115 11.5881 70.6975 10.0604 71.5754 8.67676Z" fill="#da3b00"/>
  <path opacity="0.946" fill-rule="evenodd" clip-rule="evenodd" d="M90.3332 16.0104C90.3332 16.9271 90.3332 17.8438 90.3332 18.7604C88.6396 22.516 85.8607 23.5473 81.9963 21.8542C79.4533 19.6474 79.0286 17.0883 80.7226 14.1771C83.7318 11.3575 86.6652 11.4339 89.5226 14.4063C89.8035 14.962 90.0736 15.4968 90.3332 16.0104Z" fill="#da3b00"/>
</svg>
