<svg fill="none" viewBox="0 0 24 24" fit="" height="100%" width="100%">
    <g>
        <path fill="currentColor" d="M11 18.17A3.008 3.008 0 0 0 9.17 20H5a1 1 0 1 0 0 2h4.17a3.001 3.001 0 0 0 5.66 0H19a1 1 0 1 0 0-2h-4.17A3.009 3.009 0 0 0 13 18.17V16a1 1 0 1 0-2 0v2.17Zm.303 2.113-.028.028a1 1 0 1 0 .028-.028Z"></path>
        <path fill="currentColor" d="M8.668 1.994A9 9 0 0 1 17.48 8h.518a6.003 6.003 0 0 1 5.725 4.188 6 6 0 0 1-2.269 6.72 1 1 0 1 1-1.15-1.636A4 4 0 0 0 18.001 10h-1.26a1 1 0 0 1-.97-.751A7 7 0 1 0 3.75 15.627a1 1 0 0 1-1.498 1.326A9 9 0 0 1 8.668 1.994Z"></path>
    </g>
</svg>
