<svg height="125.812" viewBox="0 0 624.303 125.812" width="624.303" xmlns="http://www.w3.org/2000/svg"><g fill="#1b1d3c"><rect height="11.404" rx="2.851" transform="matrix(0 -1 1 0 230.552 339.717)" width="67.546" x="251.361" y="48.88"/><rect height="11.404" rx="2.851" width="11.404" x="279.432" y=".015"/><rect height="11.404" rx="2.851" width="11.404" x="512.113" y="76.952"/><path d="m266.045 20.852-5.764-.011a4.129 4.129 0 0 0 -3.787 2.933l-14.294 50.685a3.836 3.836 0 0 1 -7.527-.112l-14.286-50.573a4.13 4.13 0 0 0 -3.788-2.933l-5.759.011a2.218 2.218 0 0 0 -2.24 2.948l15.124 53.841h.01a15.237 15.237 0 0 0 29.5-.3l15.047-53.541a2.218 2.218 0 0 0 -2.236-2.948z"/><rect height="11.404" rx="2.851" width="5.702" x="536.792" y="1.073"/><rect height="67.547" rx="2.851" width="5.702" x="536.792" y="21.868"/><path d="m607.341 26.645a11.3 11.3 0 0 1 11.293 11.292v33.094a11.306 11.306 0 0 1 -11.293 11.293h-34a11.3 11.3 0 0 1 -11.292-11.293v-33.094a11.3 11.3 0 0 1 11.292-11.292zm0-5.669h-34a16.961 16.961 0 0 0 -16.961 16.961v33.094a16.962 16.962 0 0 0 16.961 16.962h34a16.962 16.962 0 0 0 16.959-16.962v-33.094a16.961 16.961 0 0 0 -16.962-16.961z"/><path d="m79.682 20.976h-58.456a16.961 16.961 0 0 0 -16.962 16.961v25.548a16.877 16.877 0 0 0 4.13 11.071 15.817 15.817 0 0 0 -1.743 19.013 16.916 16.916 0 0 0 -6.651 13.447v1.835a16.961 16.961 0 0 0 16.961 16.961h46.533a16.962 16.962 0 0 0 16.962-16.961v-1.835a16.962 16.962 0 0 0 -16.962-16.962h-43.329v-.005a4.823 4.823 0 0 1 .017-9.645h.164c.293.015 38.884.045 38.884.045a16.962 16.962 0 0 0 16.962-16.964l.072-29.041a2.291 2.291 0 0 1 2.288-2.287h1.13a2.8 2.8 0 0 0 2.8-2.795v-5.591a2.8 2.8 0 0 0 -2.8-2.795zm-10.369 86.04v1.835a5.825 5.825 0 0 1 -5.819 5.818h-46.533a5.825 5.825 0 0 1 -5.818-5.818v-1.835a5.825 5.825 0 0 1 5.818-5.819h46.533a5.825 5.825 0 0 1 5.819 5.819zm-4.264-43.531a5.826 5.826 0 0 1 -5.819 5.815h-38a5.825 5.825 0 0 1 -5.819-5.819v-25.544a5.825 5.825 0 0 1 5.819-5.818h38a5.826 5.826 0 0 1 5.819 5.818z"/><path d="m123.584 20.965-14.311.01a16.962 16.962 0 0 0 -16.961 16.962v47.629a2.788 2.788 0 0 0 2.788 2.789h5.578a2.788 2.788 0 0 0 2.789-2.789l-.013-47.629a5.826 5.826 0 0 1 5.818-5.819h14.311a2.789 2.789 0 0 0 2.789-2.789v-5.575a2.789 2.789 0 0 0 -2.788-2.789z"/><path d="m338.427 32.2a2.851 2.851 0 0 0 2.851-2.852v-5.7a2.851 2.851 0 0 0 -2.851-2.851h-15.79v-18a2.789 2.789 0 0 0 -2.786-2.797h-5.578a2.789 2.789 0 0 0 -2.789 2.789v18h-5.675a2.851 2.851 0 0 0 -2.851 2.851v5.7a2.851 2.851 0 0 0 2.851 2.852h5.675v38.908a16.962 16.962 0 0 0 16.961 16.962l10.044.01a2.789 2.789 0 0 0 2.789-2.789v-5.583a2.789 2.789 0 0 0 -2.789-2.789h-10.044a5.826 5.826 0 0 1 -5.818-5.819l.007-38.9z"/><path d="m182.479 20.975-43.531-.01a2.789 2.789 0 0 0 -2.789 2.789v5.578a2.79 2.79 0 0 0 2.789 2.79h43.531a5.826 5.826 0 0 1 5.818 5.819v7.352a16.9 16.9 0 0 0 -5.814-1.044h-33.397a16.962 16.962 0 0 0 -16.962 16.961v9.95a16.962 16.962 0 0 0 16.962 16.962h33.393a16.962 16.962 0 0 0 16.961-16.962v-33.223a16.962 16.962 0 0 0 -16.961-16.962zm0 56h-33.393a5.825 5.825 0 0 1 -5.818-5.819v-9.95a5.825 5.825 0 0 1 5.818-5.818h33.393a5.821 5.821 0 0 1 5.806 5.576v2.685c0 .046.011.09.013.136v7.375a5.825 5.825 0 0 1 -5.819 5.819z"/><path d="m406.692 62.351a16.962 16.962 0 0 0 16.961-16.962v-7.474a16.962 16.962 0 0 0 -16.961-16.962h-37.392a16.962 16.962 0 0 0 -16.962 16.962v4.762h.019c0 .063-.019.123-.019.186v28.191a16.962 16.962 0 0 0 16.962 16.962l47.53.01a2.789 2.789 0 0 0 2.789-2.789v-5.579a2.789 2.789 0 0 0 -2.789-2.789h-47.53a5.826 5.826 0 0 1 -5.819-5.819v-8.7zm-43.212-19.674v-4.762a5.826 5.826 0 0 1 5.82-5.815h37.393a5.826 5.826 0 0 1 5.818 5.819v7.474a5.825 5.825 0 0 1 -5.818 5.819h-43.2v-8.345c0-.063-.015-.123-.019-.186z"/><path d="m489.048 62.351a16.962 16.962 0 0 0 16.962-16.962v-7.474a16.962 16.962 0 0 0 -16.962-16.962h-37.393a16.962 16.962 0 0 0 -16.962 16.962v4.762h.019c0 .063-.019.123-.019.186v28.191a16.962 16.962 0 0 0 16.962 16.962l47.531.01a2.789 2.789 0 0 0 2.789-2.789v-5.579a2.789 2.789 0 0 0 -2.789-2.789h-47.531a5.826 5.826 0 0 1 -5.818-5.819v-8.7zm-43.211-19.674v-4.762a5.826 5.826 0 0 1 5.818-5.819h37.393a5.826 5.826 0 0 1 5.819 5.819v7.474a5.826 5.826 0 0 1 -5.819 5.819h-43.2v-8.345c0-.063-.014-.123-.018-.186z"/></g></svg>