<svg width="871" height="157" viewBox="0 0 871 157" fill="none" xmlns="http://www.w3.org/2000/svg">
<path d="M78.5586 0.000244141C35.4061 0.000902124 0.424242 34.9829 0.423828 78.1354C0.423824 121.289 35.4053 156.271 78.5587 156.271H114.218V118.005H163.996L126.554 74.2978H76.529L113.935 117.963L78.5587 117.963C56.5629 117.963 38.7326 100.132 38.7322 78.1362C38.7322 56.1405 56.5632 38.3093 78.5587 38.3086C89.4891 38.309 99.3848 42.7066 106.586 49.8391L109.743 52.967L136.49 25.521L133.363 22.4437C119.265 8.56867 99.9074 0.000576035 78.5586 0.000244141Z" fill="#ECE7E3"/>
<path d="M78.5586 0.000244141C35.4061 0.000902124 0.424242 34.9829 0.423828 78.1354C0.423824 121.289 35.4053 156.271 78.5587 156.271H114.218V118.005H163.996L126.554 74.2978H76.529L113.935 117.963L78.5587 117.963C56.5629 117.963 38.7326 100.132 38.7322 78.1362C38.7322 56.1405 56.5632 38.3093 78.5587 38.3086C89.4891 38.309 99.3848 42.7066 106.586 49.8391L109.743 52.967L136.49 25.521L133.363 22.4437C119.265 8.56867 99.9074 0.000576035 78.5586 0.000244141Z" fill="url(#paint0_linear_10485_5717)"/>
<path d="M795.677 37.546H870.977V47.0433H813.621C809.58 47.0433 806.305 50.3187 806.305 54.3591V64.7145C806.305 68.7549 809.58 72.0303 813.621 72.0303H864.533V81.5277H813.621C809.58 81.5277 806.305 84.8031 806.305 88.8435V101.912C806.305 105.953 809.58 109.228 813.621 109.228H870.977V118.726H795.677V37.546Z" fill="#F7F1ED"/>
<path d="M704.397 37.546H779.698V47.0433H722.341C718.301 47.0433 715.025 50.3187 715.025 54.3591V64.7145C715.025 68.7549 718.301 72.0303 722.341 72.0303H773.253V81.5277H722.341C718.301 81.5277 715.025 84.8031 715.025 88.8435V101.912C715.025 105.953 718.301 109.228 722.341 109.228H779.698V118.726H704.397V37.546Z" fill="#F7F1ED"/>
<path d="M691.089 47.0433H660.076C656.035 47.0433 652.76 50.3187 652.76 54.3591V118.726H641.906V54.3591C641.906 50.3187 638.63 47.0433 634.59 47.0433H603.577V37.546H691.089V47.0433Z" fill="#F7F1ED"/>
<path d="M590.214 37.546V118.726H579.36V37.546H590.214Z" fill="#F7F1ED"/>
<path d="M525.489 118.726H513.052L470.427 37.546H482.073L515.067 100.334C516.894 103.812 521.874 103.812 523.701 100.334L556.695 37.546H568.227L525.489 118.726Z" fill="#F7F1ED"/>
<path d="M430.908 37.546H442.779L485.404 118.726H473.872L462.113 96.2259H411.574L399.702 118.726H388.17L430.908 37.546ZM441.206 56.3777C439.382 52.9017 434.407 52.896 432.575 56.3678L420.325 79.5746C418.61 82.8226 420.965 86.7286 424.638 86.7286H449.07C452.738 86.7286 455.093 82.8321 453.388 79.5845L441.206 56.3777Z" fill="#F7F1ED"/>
<path d="M313.91 84.6934V118.726H303.056V37.546H353.822C370.781 37.546 382.54 45.5735 382.54 61.0632C382.54 74.0655 373.947 82.093 360.832 84.1281L384.236 118.726H371.799L348.96 84.6934H313.91ZM313.91 70.4319C313.91 73.1256 316.094 75.3092 318.787 75.3092H353.256C364.789 75.3092 371.912 70.2213 371.912 61.0632C371.912 51.905 364.789 46.9302 353.256 46.9302H318.787C316.094 46.9302 313.91 49.1138 313.91 51.8075V70.4319Z" fill="#F7F1ED"/>
<path d="M242.141 36.3022C263.17 36.3022 278.66 46.7041 284.426 62.533L275.268 67.3947C270.406 54.1663 258.874 46.0257 242.141 46.0257C220.772 46.0257 205.621 58.9149 205.621 78.0227C205.621 97.2435 220.658 110.246 241.688 110.246C256.594 110.246 269.529 103.65 273.974 93.3766C275.614 89.5856 272.188 86.0502 268.057 86.0502H235.809V76.5529H273.025C279.759 76.5529 285.218 82.0119 285.218 88.7459V118.726H275.042V104.593C270.067 113.185 257.63 119.856 241.688 119.969C214.44 119.969 194.541 102.444 194.541 78.0227C194.541 53.601 214.779 36.3022 242.141 36.3022Z" fill="#F7F1ED"/>
<defs>
<linearGradient id="paint0_linear_10485_5717" x1="148.216" y1="8.47954" x2="18.0578" y2="156.271" gradientUnits="userSpaceOnUse">
<stop stop-color="#FF7200"/>
<stop offset="1" stop-color="#F01114"/>
</linearGradient>
</defs>
</svg>
