<svg width="330" height="66" viewBox="0 0 330 66" fill="none" xmlns="http://www.w3.org/2000/svg">
<g clip-path="url(#clip0_914_170)">
<path d="M147.705 12.4131V44.8559C147.705 45.6819 148.38 46.3516 149.212 46.3516H152.226C153.058 46.3516 153.733 45.6819 153.733 44.8559V12.4131C153.733 11.5871 153.058 10.9175 152.226 10.9175H149.212C148.38 10.9175 147.705 11.5871 147.705 12.4131Z" fill="white"/>
<path d="M152.226 0.0078125H149.212C148.38 0.0078125 147.705 0.677421 147.705 1.50342V4.49465C147.705 5.32065 148.38 5.99026 149.212 5.99026H152.226C153.058 5.99026 153.733 5.32065 153.733 4.49465V1.50342C153.733 0.677421 153.058 0.0078125 152.226 0.0078125Z" fill="white"/>
<path d="M275.22 40.3682H272.206C271.374 40.3682 270.699 41.0378 270.699 41.8638V44.855C270.699 45.681 271.374 46.3506 272.206 46.3506H275.22C276.053 46.3506 276.727 45.681 276.727 44.855V41.8638C276.727 41.0378 276.053 40.3682 275.22 40.3682Z" fill="white"/>
<path d="M140.63 10.9384L137.583 10.9326C137.13 10.9507 136.694 11.1086 136.335 11.3844C135.976 11.6602 135.713 12.0401 135.582 12.4712L128.026 39.0602C127.929 39.5164 127.674 39.9248 127.307 40.2156C126.94 40.5064 126.482 40.6616 126.012 40.6547C125.543 40.6478 125.09 40.4791 124.731 40.1776C124.373 39.876 124.131 39.4603 124.047 39.0014L116.496 12.4712C116.365 12.04 116.101 11.6601 115.743 11.3844C115.384 11.1086 114.947 10.9507 114.494 10.9326L111.449 10.9384C111.256 10.9256 111.062 10.9607 110.886 11.0404C110.709 11.1202 110.555 11.2422 110.438 11.3954C110.321 11.5487 110.244 11.7284 110.213 11.9186C110.183 12.1087 110.201 12.3033 110.265 12.4849L118.26 40.7295H118.265C118.73 42.4395 119.754 43.948 121.176 45.0179C122.598 46.0877 124.339 46.6585 126.123 46.6405C127.908 46.6225 129.636 46.0167 131.036 44.9183C132.436 43.82 133.429 42.2912 133.858 40.5721L141.812 12.4849C141.876 12.3035 141.894 12.1091 141.864 11.9191C141.834 11.7292 141.757 11.5496 141.64 11.3964C141.523 11.2432 141.369 11.1211 141.193 11.0412C141.017 10.9613 140.824 10.926 140.63 10.9384Z" fill="white"/>
<path d="M286.756 2.05811C286.756 1.23211 286.082 0.5625 285.249 0.5625C284.417 0.5625 283.742 1.23211 283.742 2.05811V5.04934C283.742 5.87534 284.417 6.54495 285.249 6.54495C286.082 6.54495 286.756 5.87534 286.756 5.04934V2.05811Z" fill="white"/>
<path d="M286.756 12.9683C286.756 12.1423 286.082 11.4727 285.249 11.4727C284.417 11.4727 283.742 12.1423 283.742 12.9683V45.4117C283.742 46.2377 284.417 46.9073 285.249 46.9073C286.082 46.9073 286.756 46.2377 286.756 45.4117V12.9683Z" fill="white"/>
<path d="M321.039 13.9768C322.622 13.9778 324.139 14.6022 325.259 15.7129C326.378 16.8236 327.007 18.3297 327.008 19.9005V37.2614C327.007 38.832 326.377 40.3378 325.258 41.4484C324.139 42.5591 322.622 43.1838 321.039 43.1856H303.067C301.484 43.1845 299.967 42.56 298.847 41.4492C297.728 40.3384 297.099 38.8322 297.098 37.2614V19.9005C297.099 18.3298 297.728 16.8237 298.848 15.7131C299.967 14.6024 301.484 13.978 303.067 13.9768H321.039ZM321.039 11.0029H303.067C300.689 11.0029 298.409 11.9404 296.727 13.609C295.046 15.2776 294.102 17.5407 294.102 19.9005V37.2614C294.102 39.6212 295.046 41.8844 296.727 43.5531C298.409 45.2218 300.689 46.1594 303.067 46.1595H321.039C323.417 46.1591 325.697 45.2214 327.378 43.5528C329.059 41.8841 330.003 39.621 330.003 37.2614V19.9005C330.003 18.732 329.771 17.575 329.321 16.4954C328.87 15.4159 328.21 14.435 327.377 13.6088C326.545 12.7826 325.556 12.1272 324.468 11.6801C323.381 11.233 322.215 11.0029 321.037 11.0029H321.039Z" fill="white"/>
<path d="M42.1191 11.0029H11.2198C10.0424 11.0029 8.87656 11.233 7.78876 11.6801C6.70097 12.1272 5.71257 12.7826 4.88 13.6088C4.04743 14.435 3.38699 15.4159 2.93641 16.4954C2.48582 17.575 2.2539 18.732 2.2539 19.9005V33.3028C2.25264 35.4366 3.02788 37.499 4.43698 39.1106C3.20947 40.4465 2.45519 42.1437 2.28888 43.9441C2.12257 45.7445 2.55334 47.5495 3.51565 49.0846C2.42246 49.9129 1.53654 50.9803 0.926781 52.2038C0.317026 53.4273 -0.00012385 54.7739 3.62807e-08 56.1388V57.1015C3.62807e-08 59.4613 0.944567 61.7244 2.62591 63.393C4.30725 65.0616 6.58763 65.9991 8.9654 65.9991H33.5622C35.9401 65.9991 38.2205 65.0617 39.9019 63.3931C41.5834 61.7244 42.528 59.4613 42.5282 57.1015V56.1388C42.5282 53.7789 41.5836 51.5156 39.9021 49.8469C38.2207 48.1782 35.9402 47.2407 33.5622 47.2407H10.659V47.2381C9.98926 47.2274 9.35066 46.9556 8.88125 46.4813C8.41185 46.0071 8.14937 45.3686 8.15055 44.7038C8.15173 44.0391 8.41648 43.4015 8.88756 42.9289C9.35865 42.4563 9.99821 42.1867 10.668 42.1784H10.7547C10.9096 42.1863 31.3083 42.202 31.3083 42.202C32.4859 42.202 33.6518 41.9718 34.7397 41.5246C35.8276 41.0773 36.816 40.4218 37.6486 39.5954C38.4812 38.769 39.1416 37.788 39.5921 36.7083C40.0426 35.6286 40.2744 34.4714 40.2743 33.3028L40.3123 18.0681C40.3129 17.75 40.4405 17.4451 40.6672 17.2202C40.8939 16.9953 41.2012 16.8688 41.5217 16.8684H42.1191C42.5111 16.8684 42.8872 16.714 43.1647 16.4391C43.4422 16.1642 43.5984 15.7913 43.5991 15.4022V12.4692C43.5984 12.0801 43.4422 11.7071 43.1647 11.4322C42.8872 11.1573 42.5111 11.0029 42.1191 11.0029ZM36.6381 56.1388V57.1015C36.6371 57.9107 36.3127 58.6865 35.7361 59.2587C35.1595 59.8309 34.3777 60.1527 33.5622 60.1535H8.9654C8.15007 60.1526 7.36842 59.8307 6.7919 59.2585C6.21537 58.6864 5.89105 57.9106 5.89007 57.1015V56.1388C5.89091 55.3296 6.21517 54.5537 6.79171 53.9814C7.36825 53.4091 8.14998 53.0872 8.9654 53.0862H33.5622C34.3778 53.0871 35.1596 53.4089 35.7363 53.9812C36.3129 54.5535 36.6373 55.3295 36.6381 56.1388ZM34.3842 33.3028C34.3827 34.1118 34.058 34.8871 33.4815 35.4589C32.9049 36.0307 32.1234 36.3524 31.3083 36.3533H11.222C10.4064 36.3525 9.62457 36.0306 9.04792 35.4583C8.47126 34.886 8.14693 34.1101 8.14609 33.3007V19.9005C8.14707 19.0913 8.47146 18.3155 9.0481 17.7433C9.62474 17.1711 10.4065 16.8493 11.222 16.8485H31.3083C32.1237 16.8494 32.9054 17.1713 33.482 17.7434C34.0586 18.3156 34.3831 19.0913 34.3842 19.9005V33.3028Z" fill="white"/>
<path d="M65.3269 10.9971L57.7623 11.0023C55.3845 11.0025 53.1041 11.94 51.4228 13.6087C49.7414 15.2774 48.7969 17.5406 48.7969 19.9005V44.8863C48.7968 45.0784 48.8349 45.2686 48.9089 45.4461C48.9829 45.6236 49.0915 45.7849 49.2283 45.9208C49.3652 46.0567 49.5277 46.1644 49.7065 46.238C49.8853 46.3115 50.077 46.3494 50.2706 46.3494H53.2191C53.4127 46.3494 53.6044 46.3116 53.7833 46.2381C53.9622 46.1646 54.1247 46.0569 54.2617 45.921C54.3986 45.7851 54.5072 45.6238 54.5812 45.4462C54.6553 45.2687 54.6934 45.0784 54.6933 44.8863L54.6864 19.9005C54.6874 19.0912 55.0117 18.3154 55.5882 17.7432C56.1647 17.1709 56.9464 16.849 57.7618 16.8478H65.3264C65.7174 16.8478 66.0924 16.6937 66.3689 16.4193C66.6453 16.1449 66.8006 15.7728 66.8006 15.3848V12.4602C66.8006 12.0722 66.6454 11.7002 66.369 11.4258C66.0927 11.1514 65.7178 10.9972 65.3269 10.9971Z" fill="white"/>
<path d="M178.887 16.8919C179.085 16.8919 179.281 16.8532 179.464 16.778C179.647 16.7028 179.813 16.5926 179.953 16.4536C180.093 16.3147 180.204 16.1498 180.28 15.9682C180.355 15.7867 180.394 15.5922 180.394 15.3957V12.4056C180.394 12.0089 180.235 11.6285 179.953 11.348C179.67 11.0675 179.287 10.9099 178.887 10.9099H170.541V1.46728C170.541 1.27493 170.504 1.08435 170.43 0.90646C170.356 0.728568 170.248 0.566853 170.111 0.430568C169.974 0.294284 169.812 0.186105 169.633 0.112223C169.454 0.0383413 169.262 0.000206118 169.068 0L166.12 0C165.729 0 165.354 0.154146 165.077 0.428529C164.801 0.702911 164.645 1.07505 164.645 1.46309V10.9057H161.646C161.246 10.9057 160.863 11.0633 160.58 11.3438C160.297 11.6243 160.139 12.0047 160.139 12.4014V15.3915C160.139 15.588 160.178 15.7825 160.253 15.964C160.329 16.1456 160.44 16.3105 160.58 16.4494C160.72 16.5884 160.886 16.6986 161.069 16.7738C161.252 16.849 161.448 16.8877 161.646 16.8877H164.645V37.2985C164.645 39.6584 165.59 41.9215 167.271 43.5903C168.953 45.259 171.233 46.1965 173.611 46.1966L178.92 46.2019C179.311 46.2019 179.686 46.0477 179.962 45.7734C180.239 45.499 180.394 45.1268 180.394 44.7388V41.81C180.394 41.422 180.239 41.0498 179.962 40.7754C179.686 40.5011 179.311 40.3469 178.92 40.3469H173.611C172.795 40.3458 172.014 40.0238 171.437 39.4516C170.861 38.8793 170.536 38.1035 170.535 37.2943L170.539 16.8877L178.887 16.8919Z" fill="white"/>
<path d="M96.457 11.0023L73.4469 10.9971C73.056 10.9971 72.681 11.1512 72.4045 11.4256C72.128 11.7 71.9727 12.0721 71.9727 12.4602V15.3863C71.9727 15.7744 72.128 16.1466 72.4045 16.4211C72.6809 16.6955 73.0559 16.8498 73.4469 16.8499H96.457C97.2724 16.8511 98.054 17.173 98.6305 17.7453C99.207 18.3175 99.5313 19.0933 99.5323 19.9025V23.7593C98.5483 23.3992 97.508 23.2138 96.4591 23.2117H78.8058C76.428 23.2117 74.1475 24.1491 72.4661 25.8177C70.7847 27.4863 69.84 29.7494 69.8398 32.1093V37.329C69.8398 39.6889 70.7845 41.9522 72.4659 43.6209C74.1474 45.2896 76.4279 46.2271 78.8058 46.2271H96.457C98.8348 46.227 101.115 45.2894 102.797 43.6207C104.478 41.952 105.422 39.6888 105.422 37.329V19.9004C105.422 17.5406 104.478 15.2774 102.797 13.6087C101.115 11.94 98.8348 11.0025 96.457 11.0023ZM96.457 40.3795H78.8058C77.9904 40.3785 77.2086 40.0566 76.6321 39.4843C76.0555 38.912 75.7313 38.1361 75.7305 37.3269V32.1072C75.7314 31.298 76.0558 30.5223 76.6323 29.9501C77.2088 29.3779 77.9905 29.0561 78.8058 29.0551H96.457C97.2497 29.0564 98.0113 29.3614 98.5831 29.9063C99.1549 30.4513 99.4926 31.1942 99.526 31.9802V33.3888C99.526 33.4129 99.5318 33.436 99.5328 33.4601V37.329C99.532 38.1383 99.2077 38.9143 98.631 39.4866C98.0544 40.0589 97.2725 40.3807 96.457 40.3816V40.3795Z" fill="white"/>
<path d="M214.973 32.7093C217.351 32.7091 219.631 31.7716 221.313 30.1029C222.994 28.4342 223.939 26.171 223.939 23.8111V19.8903C223.939 17.5305 222.994 15.2673 221.313 13.5986C219.631 11.9299 217.351 10.9923 214.973 10.9922H195.208C192.83 10.9922 190.55 11.9297 188.868 13.5984C187.187 15.2671 186.242 17.5304 186.242 19.8903V22.3884H186.252C186.252 22.4215 186.242 22.453 186.242 22.486V37.2748C186.242 39.6347 187.187 41.898 188.868 43.5667C190.55 45.2354 192.83 46.1729 195.208 46.1729L220.332 46.1782C220.723 46.1782 221.098 46.024 221.374 45.7496C221.651 45.4753 221.806 45.1031 221.806 44.7151V41.7884C221.806 41.4003 221.651 41.0282 221.374 40.7538C221.098 40.4794 220.723 40.3253 220.332 40.3253H195.208C194.393 40.3243 193.611 40.0024 193.034 39.4301C192.458 38.8579 192.133 38.082 192.132 37.2727V32.7087L214.973 32.7093ZM192.132 22.3884V19.8903C192.133 19.0813 192.458 18.3059 193.035 17.7341C193.611 17.1622 194.393 16.8407 195.208 16.8398H214.974C215.789 16.8409 216.571 17.1629 217.147 17.7352C217.724 18.3074 218.048 19.0832 218.049 19.8924V23.8132C218.048 24.6225 217.724 25.3984 217.147 25.9706C216.571 26.5429 215.789 26.8649 214.974 26.8658H192.139V22.4881C192.139 22.4551 192.131 22.4236 192.129 22.3905L192.132 22.3884Z" fill="white"/>
<path d="M258.505 32.7093C260.883 32.7093 263.163 31.7718 264.845 30.1031C266.526 28.4343 267.471 26.1711 267.471 23.8111V19.8903C267.471 17.5304 266.526 15.2671 264.845 13.5984C263.163 11.9297 260.883 10.9922 258.505 10.9922H238.739C236.361 10.9922 234.081 11.9297 232.399 13.5984C230.718 15.2671 229.773 17.5304 229.773 19.8903V22.3884H229.783C229.783 22.4215 229.773 22.453 229.773 22.486V37.2748C229.773 39.6347 230.718 41.898 232.399 43.5667C234.081 45.2354 236.361 46.1729 238.739 46.1729L263.864 46.1782C264.255 46.1782 264.63 46.024 264.906 45.7496C265.183 45.4753 265.338 45.1031 265.338 44.7151V41.7884C265.338 41.4003 265.183 41.0282 264.906 40.7538C264.63 40.4794 264.255 40.3253 263.864 40.3253H238.739C237.924 40.3242 237.142 40.0022 236.566 39.43C235.989 38.8577 235.665 38.0819 235.664 37.2727V32.7087L258.505 32.7093ZM235.664 22.3884V19.8903C235.665 19.0811 235.989 18.3053 236.566 17.7331C237.142 17.1608 237.924 16.8388 238.739 16.8377H258.505C259.32 16.8387 260.102 17.1606 260.679 17.7329C261.255 18.3051 261.58 19.081 261.581 19.8903V23.8111C261.58 24.6204 261.255 25.3963 260.679 25.9686C260.102 26.5408 259.32 26.8628 258.505 26.8637H235.67V22.486C235.67 22.453 235.662 22.4215 235.66 22.3884H235.664Z" fill="white"/>
</g>
<defs>
<clipPath id="clip0_914_170">
<rect width="330" height="66" fill="white"/>
</clipPath>
</defs>
</svg>
