<svg width="33" height="38" viewBox="0 0 33 38" fill="none" xmlns="http://www.w3.org/2000/svg">
<path d="M24.0003 17.3332C25.167 17.3332 26.2837 17.4998 27.3337 17.8165V15.6665C27.3337 13.8332 25.8337 12.3332 24.0003 12.3332H22.3337V8.99984C22.3337 4.39984 18.6003 0.666504 14.0003 0.666504C9.40033 0.666504 5.66699 4.39984 5.66699 8.99984V12.3332H4.00033C2.16699 12.3332 0.666992 13.8332 0.666992 15.6665V32.3332C0.666992 34.1665 2.16699 35.6665 4.00033 35.6665H14.4337C13.117 33.7832 12.3337 31.4832 12.3337 28.9998C12.3337 22.5498 17.5503 17.3332 24.0003 17.3332ZM8.83366 8.99984C8.83366 6.14984 11.1503 3.83317 14.0003 3.83317C16.8503 3.83317 19.167 6.14984 19.167 8.99984V12.3332H8.83366V8.99984Z" fill="#275CF6"/>
<path d="M24.0003 20.6665C19.4003 20.6665 15.667 24.3998 15.667 28.9998C15.667 33.5998 19.4003 37.3332 24.0003 37.3332C28.6003 37.3332 32.3337 33.5998 32.3337 28.9998C32.3337 24.3998 28.6003 20.6665 24.0003 20.6665ZM24.0003 23.9998C25.3837 23.9998 26.5003 25.1165 26.5003 26.4998C26.5003 27.8832 25.3837 28.9998 24.0003 28.9998C22.617 28.9998 21.5003 27.8832 21.5003 26.4998C21.5003 25.1165 22.617 23.9998 24.0003 23.9998ZM24.0003 33.9998C22.2837 33.9998 20.767 33.1332 19.867 31.7998C21.0837 31.0998 22.4837 30.6665 24.0003 30.6665C25.517 30.6665 26.917 31.0998 28.1337 31.7998C27.2337 33.1332 25.717 33.9998 24.0003 33.9998Z" fill="#275CF6"/>
</svg>
