<svg width="41" height="40" viewBox="0 0 41 40" fill="none" xmlns="http://www.w3.org/2000/svg">
<g clip-path="url(#clip0_20268_13470)">
<path d="M20.6667 3.3335C11.4667 3.3335 4 10.8002 4 20.0002C4 29.2002 11.4667 36.6668 20.6667 36.6668C29.8667 36.6668 37.3333 29.2002 37.3333 20.0002C37.3333 10.8002 29.8667 3.3335 20.6667 3.3335ZM33.1 15.2002L28.4667 17.1168C27.6167 14.8502 25.8333 13.0502 23.55 12.2168L25.4667 7.5835C28.9667 8.91683 31.75 11.7002 33.1 15.2002ZM20.6667 25.0002C17.9 25.0002 15.6667 22.7668 15.6667 20.0002C15.6667 17.2335 17.9 15.0002 20.6667 15.0002C23.4333 15.0002 25.6667 17.2335 25.6667 20.0002C25.6667 22.7668 23.4333 25.0002 20.6667 25.0002ZM15.8833 7.56683L17.8333 12.2002C15.5333 13.0335 13.7167 14.8502 12.8667 17.1502L8.23333 15.2168C9.58333 11.7002 12.3667 8.91683 15.8833 7.56683ZM8.23333 24.7835L12.8667 22.8668C13.7167 25.1668 15.5167 26.9668 17.8167 27.8002L15.8667 32.4335C12.3667 31.0835 9.58333 28.3002 8.23333 24.7835ZM25.4667 32.4335L23.55 27.8002C25.8333 26.9502 27.6333 25.1502 28.4667 22.8502L33.1 24.8002C31.75 28.3002 28.9667 31.0835 25.4667 32.4335Z" fill="#275CF6"/>
</g>
<defs>
<clipPath id="clip0_20268_13470">
<rect width="40" height="40" fill="white" transform="translate(0.666992)"/>
</clipPath>
</defs>
</svg>
