<svg width="48" height="48" viewBox="0 0 48 48" fill="none" xmlns="http://www.w3.org/2000/svg">
<rect opacity="0.3" x="30" y="22" width="4" height="24" rx="1" transform="rotate(90 30 22)" fill="white"/>
<path opacity="0.3" d="M20.0121 14C20.0121 15.1046 19.1171 16 18.013 16C16.9089 16 16.0139 15.1046 16.0139 14V12C16.0139 7.58172 19.594 4 24.0104 4H36.0035C40.4198 4 44 7.58172 44 12V36C44 40.4183 40.4198 44 36.0035 44H23.9965C19.5802 44 16 40.4183 16 36V34C16 32.8954 16.895 32 17.9991 32C19.1032 32 19.9983 32.8954 19.9983 34V36C19.9983 38.2091 21.7883 40 23.9965 40H36.0035C38.2117 40 40.0017 38.2091 40.0017 36V12C40.0017 9.79086 38.2117 8 36.0035 8H24.0104C21.8022 8 20.0121 9.79086 20.0121 12V14Z" fill="white"/>
<path d="M24.5858 19.4142C23.8047 18.6332 23.8047 17.3668 24.5858 16.5858C25.3668 15.8047 26.6332 15.8047 27.4142 16.5858L33.4142 22.5858C34.1953 23.3668 34.1953 24.6332 33.4142 25.4142L27.4142 31.4142C26.6332 32.1953 25.3668 32.1953 24.5858 31.4142C23.8047 30.6332 23.8047 29.3668 24.5858 28.5858L29.1716 24L24.5858 19.4142Z" fill="white"/>
</svg>
