<?xml version="1.0" encoding="iso-8859-1"?>
<!-- Generator: Adobe Illustrator 16.0.0, SVG Export Plug-In . SVG Version: 6.00 Build 0)  -->
<!DOCTYPE svg PUBLIC "-//W3C//DTD SVG 1.1//EN" "http://www.w3.org/Graphics/SVG/1.1/DTD/svg11.dtd">
<svg version="1.1" id="Capa_1" xmlns="http://www.w3.org/2000/svg" xmlns:xlink="http://www.w3.org/1999/xlink" x="0px" y="0px"
	 width="593.523px" height="593.523px" viewBox="0 0 593.523 593.523" style="enable-background:new 0 0 593.523 593.523;"
	 xml:space="preserve">
<g>
	<g>
		<path d="M584.344,133.083H275.342c-5.07,0-12.182-2.806-15.888-6.267L226.22,95.758c-3.706-3.461-10.817-6.267-15.888-6.267H9.18
			c-5.07,0-9.18,4.109-9.18,9.18v396.182c0,5.07,4.109,9.18,9.18,9.18h575.164c5.07,0,9.18-4.109,9.18-9.18V142.264
			C593.523,137.193,589.414,133.083,584.344,133.083z M225.363,304.925h35.701h71.399h35.701c19.715,0,35.701,15.984,35.701,35.701
			v89.248c0,19.715-15.986,35.699-35.701,35.699H225.363c-19.716,0-35.701-15.984-35.701-35.699v-89.252
			C189.662,320.907,205.647,304.925,225.363,304.925z M225.363,251.374c0-39.361,32.032-71.399,71.399-71.399
			c39.379,0,71.399,32.038,71.399,71.399v38.25H332.46v-38.25c0-19.697-16.02-35.701-35.701-35.701
			c-19.688,0-35.701,16-35.701,35.701v38.25h-35.695V251.374z"/>
		<path d="M287.836,391.437v29.51c0,4.934,3.993,8.928,8.926,8.928s8.926-3.99,8.926-8.928v-29.51
			c5.239-3.104,8.926-8.578,8.926-15.113c0-9.865-7.992-17.85-17.849-17.85c-9.856,0-17.849,7.984-17.849,17.85
			C278.913,382.858,282.597,388.333,287.836,391.437z"/>
	</g>
</g>
</svg>
