<?xml version="1.0" encoding="iso-8859-1"?>
<!-- Generator: Adobe Illustrator 18.1.1, SVG Export Plug-In . SVG Version: 6.00 Build 0)  -->
<svg version="1.1" id="Capa_1" xmlns="http://www.w3.org/2000/svg" xmlns:xlink="http://www.w3.org/1999/xlink" x="0px" y="0px"
	 viewBox="0 0 226.749 226.749" style="enable-background:new 0 0 226.749 226.749;" xml:space="preserve">
<g>
	<g>
		<path style="fill:#010002;" d="M194.908,162.623l-0.827,1.36l-1.539-0.394c-5.304-1.414-16.448-4.091-31.684-6.338l-2.212-0.326
			l0.433-2.197c0.537-2.824,1.031-5.658,1.471-8.507l-2.924-9.72c-0.723,6.002-1.668,11.978-2.834,17.898l-0.383,1.943l-1.972-0.24
			c-18.159-2.512-37.02-2.562-37.02-2.562V142.9l-2.129-7.891l-2.015,7.899l-0.129,10.618c0,0-18.195-0.104-37.75,2.244l-1.979,0.24
			l-0.376-1.954c-1.149-5.898-2.079-11.867-2.799-17.855l-3.013,9.344c0.462,2.967,0.97,5.927,1.539,8.876l0.419,2.176l-2.197,0.336
			c-10.5,1.603-20.911,3.829-30.928,6.635l-1.564,0.429l-0.837-1.392c-1.7-2.809-3.207-5.726-4.61-8.682h-4.724
			c15.561,34.772,50.469,59.069,90.964,59.069c40.488,0,75.399-24.297,90.967-59.069h-4.735
			C198.125,156.897,196.615,159.81,194.908,162.623z M81.347,203.404l0.068-0.032l-4.567-1.9
			c-15.883-6.599-29.733-17.397-40.04-31.24l-1.886-2.523l3.046-0.812c8.983-2.391,18.46-4.33,28.158-5.776l1.968-0.29l0.444,1.929
			c2.756,12.139,6.499,24.232,11.119,35.953l1.825,4.631l0.523,0.233L81.347,203.404z M111.148,208.722l-2.23-0.093
			c-7.34-0.34-14.663-1.542-21.77-3.568l-0.44-0.122c-5.132-12.476-10.826-29.314-13.839-42.341l-0.537-2.333l2.366-0.268
			c11.08-1.299,22.629-1.99,34.307-2.022l2.144-0.014V208.722z M117.662,208.622l-2.244,0.093v-50.737l2.176,0.054
			c11.08,0.247,22.346,1.056,33.502,2.391l2.384,0.279l-0.544,2.319c-3.038,13.002-9.183,29.887-14.319,42.252
			C131.78,207.165,124.719,208.303,117.662,208.622z M189.697,170.35c-10.482,14.022-24.583,24.898-40.781,31.44l-4.169,1.693
			l0.107,0.05l-0.165,0.054l1.435-4.549c4.627-11.706,8.385-23.771,11.145-35.86l0.444-1.915l1.961,0.279
			c12.734,1.836,22.693,3.983,28.799,5.458l3.146,0.759L189.697,170.35z"/>
		<path style="fill:#010002;" d="M32.847,62.283l0.834-1.306l1.492,0.383c5.776,1.482,15.285,3.65,27.765,5.597l2.079,0.326
			l-0.286,2.079c-0.812,5.816-1.399,11.696-1.822,17.59h2.641h1.61c0.415-5.69,0.981-11.363,1.757-16.974l0.301-2.101l2.097,0.276
			c12.483,1.639,25.184,2.595,37.732,2.838l2.097,0.043v15.919h4.273V71.069l2.119-0.021c12.751-0.072,25.231-0.888,37.123-2.419
			l2.101-0.261l0.301,2.094c0.748,5.447,1.285,10.962,1.682,16.488h2.498h1.768c-0.419-5.748-0.984-11.481-1.768-17.15l-0.286-2.072
			l2.072-0.333c9.473-1.507,18.989-3.568,28.273-6.116l1.521-0.419l0.848,1.331c7.272,11.399,11.993,24.232,13.922,37.535
			l2.63-9.258c-10.375-43.913-49.889-76.709-96.933-76.709c-46.783,0-86.114,32.428-96.761,75.979l2.505,9.645
			C20.997,86.222,25.668,73.56,32.847,62.283z M155.63,27.979c12.623,6.288,23.935,15.504,32.675,26.659l2.026,2.559l-3.157,0.827
			c-7.859,2.04-16.205,3.765-24.801,5.114l-2.072,0.326l-0.365-2.076c-2.316-13.578-5.25-24.279-7.304-30.86l-1.489-4.778
			L155.63,27.979z M115.418,18.037l2.237,0.104c9.312,0.419,18.474,2.205,27.228,5.297l0.956,0.329l0.344,0.952
			c1.779,4.849,6.277,18.198,9.545,37.138l0.372,2.205l-2.212,0.272c-11.749,1.471-23.971,2.244-36.315,2.301l-2.151,0.004
			L115.418,18.037L115.418,18.037z M79.973,24.028l0.945-0.344c8.979-3.25,18.402-5.114,27.994-5.547l2.237-0.104v48.583
			l-2.183-0.054C96.797,66.305,84.4,65.375,72.125,63.8l-2.208-0.283l0.383-2.205c3.092-17.758,7.183-30.392,9.337-36.34
			L79.973,24.028z M38.308,54.581c8.55-10.876,19.558-19.934,31.837-26.186l4.499-2.298l-1.492,4.828
			c-1.972,6.367-4.81,16.728-7.093,29.926l-0.361,2.065l-2.065-0.319c-10.644-1.636-19-3.418-24.136-4.624l-3.271-0.759
			L38.308,54.581z"/>
		<path style="fill:#010002;" d="M31.336,120.894c1.743-5.358,3.296-10.508,4.531-16.488h0.215
			c1.231,5.873,2.673,10.826,4.427,16.391l7.623,23.803h8.246l16.083-49.882h-8.969l-7.115,25.041
			c-1.653,5.88-2.985,11.134-3.819,16.184h-0.304c-1.127-5.05-2.577-10.311-4.423-16.28l-7.745-24.945h-7.619l-8.153,25.453
			c-1.643,5.365-3.293,10.715-4.423,15.765h-0.319c-0.916-5.154-2.262-10.311-3.704-15.872L9.276,94.707H0l15.045,49.882h8.246
			L31.336,120.894z"/>
		<path style="fill:#010002;" d="M129.701,135.939h-0.311c-1.127-5.043-2.58-10.307-4.431-16.277l-7.737-24.945h-7.609
			l-8.149,25.456c-1.646,5.358-3.307,10.719-4.434,15.761h-0.308c-0.923-5.15-2.269-10.307-3.715-15.872l-6.603-25.349h-9.273
			l15.053,49.882h8.246l8.042-23.706c1.754-5.358,3.303-10.508,4.542-16.488h0.2c1.242,5.873,2.684,10.826,4.434,16.391
			l7.612,23.803h8.256l16.087-49.882h-8.976l-7.111,25.041C131.866,125.632,130.528,130.896,129.701,135.939z"/>
		<path style="fill:#010002;" d="M217.759,94.718l-7.111,25.041c-1.657,5.88-2.988,11.134-3.804,16.184h-0.311
			c-1.127-5.05-2.573-10.311-4.434-16.28l-7.73-24.945h-7.616l-8.142,25.453c-1.65,5.365-3.307,10.715-4.431,15.765h-0.315
			c-0.923-5.154-2.276-10.311-3.711-15.872l-6.596-25.353h-9.273l15.035,49.882h8.256l8.038-23.703
			c1.746-5.361,3.3-10.511,4.542-16.491h0.211c1.242,5.876,2.677,10.826,4.427,16.398l7.619,23.796h8.246l16.09-49.882h-8.99V94.718
			z"/>
	</g>
</g>
<g>
</g>
<g>
</g>
<g>
</g>
<g>
</g>
<g>
</g>
<g>
</g>
<g>
</g>
<g>
</g>
<g>
</g>
<g>
</g>
<g>
</g>
<g>
</g>
<g>
</g>
<g>
</g>
<g>
</g>
</svg>
