<svg xmlns="http://www.w3.org/2000/svg" viewBox="20 10 85 100">
    <defs>
        <style>.cls-1{fill:#383e3f;}</style>
    </defs>
    <g>
        <path class="cls-1"
              d="M88.52,61.46a.26.26,0,0,0-.26-.28l-12.14-.47a1,1,0,0,0-1.06,1.17c.37,2.58,1.19,8.52,1.16,8.55A15.6,15.6,0,0,1,56,73.21a13.77,13.77,0,0,1-4.46-4.47A15.61,15.61,0,0,1,64.41,44.63a16.58,16.58,0,0,1,10.35,3.78A.6.6,0,0,0,75.82,48l0-7.56c-.07-1.32-.25-1.55-.8-1.82a24.85,24.85,0,0,0-19.67-.45A22.09,22.09,0,0,0,42.82,50.7c-6.57,17,5.82,33.14,22,33.14A23.77,23.77,0,0,0,88.52,61.46Z"/>
        <path class="cls-1"
              d="M25.13,32.25a26.34,26.34,0,0,1,5.67-.55,46.37,46.37,0,0,1,6.74.53,76,76,0,0,1,8.92,1.89c.43-.27.87-.53,1.3-.78a77,77,0,0,0-10.06-2.2C27.17,29.61,20,31.34,17.44,36c-1.49,2.75-1.24,6.29.64,10.37a4,4,0,0,0,2.48,7,3.92,3.92,0,0,0,1.74-.33c.65.84,1.35,1.69,2.12,2.56,1.78,2,6.18,6.29,8.41,8.3l-.11-1.59c-2.22-2-5.7-5.43-7.48-7.44-.72-.82-1.38-1.62-2-2.41a4,4,0,0,0-2.38-7.12,4.06,4.06,0,0,0-1.84.39c-.2-.43-.38-.85-.53-1.27-1.2-3.18-1.23-5.87-.08-8S21.81,33,25.13,32.25Z"/>
        <path class="cls-1"
              d="M101.14,66.44a56.32,56.32,0,0,0-5-5.06l0,1.44a41.47,41.47,0,0,1,4.21,4.35,35.08,35.08,0,0,1,6.75,10.41c1.2,3.18,1.23,5.87.08,8s-3.4,3.55-6.72,4.29a35,35,0,0,1-12.41,0,58.6,58.6,0,0,1-8.32-1.7l-1.4.7A62.43,62.43,0,0,0,87.86,91a48.82,48.82,0,0,0,6.91.54c6.77,0,11.42-1.85,13.35-5.42C110.66,81.4,108.18,74.43,101.14,66.44Z"/>
    </g>
</svg>
