<svg id="Layer_1" data-name="Layer 1" xmlns="http://www.w3.org/2000/svg" viewBox="0 0 35.668 49.944"><defs><style>.cls-1{fill:#4775b9;}.cls-2{fill:#63ba90;}</style></defs><path class="cls-1" d="M32.3,36.567h3.35a8.651,8.651,0,0,1-1.157,4.839,14.02,14.02,0,0,1-7.125,6.388c-7.844,3.321-15.422,2.925-22.481-2.1A11.435,11.435,0,0,1,.128,38.367a6.079,6.079,0,0,1-.1-.8c-.017-.3,0-.6,0-.977H3.5a8.346,8.346,0,0,0,3.329,6.148,16.289,16.289,0,0,0,8.365,3.385,19.548,19.548,0,0,0,9.116-.9C28.9,43.64,30.76,41.615,32.3,36.567Z"/><path class="cls-1" d="M32.276,13.259c-.813-5.411-4.665-7.742-9.4-9.041a18.714,18.714,0,0,0-12.221.693c-3.785,1.536-6.729,3.9-7.182,8.371H0A10.835,10.835,0,0,1,3.763,5.11,19.346,19.346,0,0,1,16.058.071,21.158,21.158,0,0,1,30.332,3.788a12.155,12.155,0,0,1,5.2,7.6,5.783,5.783,0,0,1,.12.792c.021.332.005.667.005,1.075Z"/><path class="cls-2" d="M33.463,30.144,31.4,32.989l-18.373-13.3,2.06-2.845Z"/><path class="cls-2" d="M2.37,19.709l2.056-2.848,18.381,13.3-2.06,2.849Z"/></svg>