<svg width="400" height="305" viewBox="0 0 400 305" fill="none" xmlns="http://www.w3.org/2000/svg">
<rect x="0.5" y="0.5" width="399" height="303.719" rx="7.5" fill="white"/>
<rect x="0.5" y="0.5" width="399" height="303.719" rx="7.5" stroke="#D3D5DC"/>
<rect x="19" y="13" width="12" height="12" rx="2.78" fill="#D3D5DC"/>
<path d="M37.218 14.2H40.62C41.8053 14.2 42.734 14.5593 43.406 15.278C44.078 15.9873 44.414 17.0607 44.414 18.498V19.618C44.414 21.0927 44.078 22.194 43.406 22.922C42.734 23.6407 41.8053 24 40.62 24H37.218V14.2ZM40.62 22.572C40.956 22.572 41.2547 22.5207 41.516 22.418C41.7773 22.306 41.9967 22.1333 42.174 21.9C42.3607 21.6667 42.5007 21.3633 42.594 20.99C42.6967 20.6073 42.748 20.15 42.748 19.618V18.498C42.748 17.4713 42.5567 16.734 42.174 16.286C41.8007 15.838 41.2827 15.614 40.62 15.614H38.884V22.572H40.62ZM49.3522 24.112C48.8855 24.112 48.4655 24.0373 48.0922 23.888C47.7189 23.7387 47.3969 23.5193 47.1262 23.23C46.8555 22.9407 46.6455 22.586 46.4962 22.166C46.3562 21.746 46.2862 21.2607 46.2862 20.71V19.716C46.2862 18.6707 46.5522 17.868 47.0842 17.308C47.6255 16.748 48.3582 16.468 49.2822 16.468C50.2062 16.468 50.9342 16.748 51.4662 17.308C52.0075 17.868 52.2782 18.68 52.2782 19.744V20.738H47.8682C47.8775 21.5033 48.0129 22.04 48.2742 22.348C48.5355 22.656 48.8949 22.81 49.3522 22.81C49.7349 22.81 50.0195 22.7167 50.2062 22.53C50.4022 22.3433 50.5235 22.1287 50.5702 21.886H52.1382C52.0075 22.586 51.7089 23.132 51.2422 23.524C50.7849 23.916 50.1549 24.112 49.3522 24.112ZM49.3102 17.77C48.8622 17.77 48.5122 17.9053 48.2602 18.176C48.0175 18.4467 47.8869 18.9087 47.8682 19.562H50.7942C50.7755 18.9087 50.6402 18.4467 50.3882 18.176C50.1362 17.9053 49.7769 17.77 49.3102 17.77ZM53.1688 16.58H54.9048L56.8508 22.124L58.6148 16.58H60.2808L57.6768 24H56.0528L53.1688 16.58ZM64.2479 24.112C63.7812 24.112 63.3612 24.0373 62.9879 23.888C62.6146 23.7387 62.2926 23.5193 62.0219 23.23C61.7512 22.9407 61.5412 22.586 61.3919 22.166C61.2519 21.746 61.1819 21.2607 61.1819 20.71V19.716C61.1819 18.6707 61.4479 17.868 61.9799 17.308C62.5212 16.748 63.2539 16.468 64.1779 16.468C65.1019 16.468 65.8299 16.748 66.3619 17.308C66.9032 17.868 67.1739 18.68 67.1739 19.744V20.738H62.7639C62.7732 21.5033 62.9086 22.04 63.1699 22.348C63.4312 22.656 63.7906 22.81 64.2479 22.81C64.6306 22.81 64.9152 22.7167 65.1019 22.53C65.2979 22.3433 65.4192 22.1287 65.4659 21.886H67.0339C66.9032 22.586 66.6046 23.132 66.1379 23.524C65.6806 23.916 65.0506 24.112 64.2479 24.112ZM64.2059 17.77C63.7579 17.77 63.4079 17.9053 63.1559 18.176C62.9132 18.4467 62.7826 18.9087 62.7639 19.562H65.6899C65.6712 18.9087 65.5359 18.4467 65.2839 18.176C65.0319 17.9053 64.6726 17.77 64.2059 17.77ZM71.6553 24C71.2167 24 70.8433 23.958 70.5353 23.874C70.2273 23.79 69.9753 23.6547 69.7793 23.468C69.5927 23.272 69.4573 23.02 69.3733 22.712C69.2893 22.3947 69.2473 22.012 69.2473 21.564V14.2H70.8293V21.564C70.8293 22.0027 70.8993 22.2967 71.0393 22.446C71.1793 22.5953 71.422 22.67 71.7673 22.67H72.0193V24H71.6553ZM76.5886 24.112C75.6273 24.112 74.8619 23.8227 74.2926 23.244C73.7326 22.656 73.4526 21.8113 73.4526 20.71V19.716C73.4526 19.212 73.5226 18.7593 73.6626 18.358C73.8119 17.9567 74.0219 17.616 74.2926 17.336C74.5726 17.056 74.9039 16.8413 75.2866 16.692C75.6786 16.5427 76.1126 16.468 76.5886 16.468C77.0646 16.468 77.4939 16.5427 77.8766 16.692C78.2686 16.8413 78.5999 17.056 78.8706 17.336C79.1506 17.616 79.3606 17.9567 79.5006 18.358C79.6499 18.7593 79.7246 19.212 79.7246 19.716V20.71C79.7246 21.8113 79.4399 22.656 78.8706 23.244C78.3106 23.8227 77.5499 24.112 76.5886 24.112ZM76.5886 22.754C77.0739 22.754 77.4519 22.5953 77.7226 22.278C78.0026 21.9607 78.1426 21.438 78.1426 20.71V19.716C78.1426 19.072 78.0026 18.596 77.7226 18.288C77.4519 17.98 77.0739 17.826 76.5886 17.826C76.1033 17.826 75.7206 17.98 75.4406 18.288C75.1699 18.596 75.0346 19.072 75.0346 19.716V20.71C75.0346 21.438 75.1699 21.9607 75.4406 22.278C75.7206 22.5953 76.1033 22.754 76.5886 22.754ZM81.7071 16.58H83.1351V17.77C83.3498 17.378 83.6251 17.07 83.9611 16.846C84.2971 16.6127 84.7311 16.496 85.2631 16.496C86.0565 16.496 86.6911 16.762 87.1671 17.294C87.6525 17.826 87.8951 18.6333 87.8951 19.716V20.71C87.8951 21.886 87.6525 22.7493 87.1671 23.3C86.6911 23.8413 86.0565 24.112 85.2631 24.112C84.7871 24.112 84.3811 24 84.0451 23.776C83.7091 23.552 83.4525 23.2627 83.2751 22.908V26.8H81.7071V16.58ZM84.8431 22.754C85.2911 22.754 85.6458 22.5953 85.9071 22.278C86.1778 21.9607 86.3131 21.438 86.3131 20.71V19.716C86.3131 19.072 86.1778 18.6007 85.9071 18.302C85.6458 18.0033 85.2911 17.854 84.8431 17.854C84.3578 17.854 83.9751 18.0033 83.6951 18.302C83.4151 18.6007 83.2751 19.072 83.2751 19.716V20.71C83.2751 21.438 83.4151 21.9607 83.6951 22.278C83.9751 22.5953 84.3578 22.754 84.8431 22.754ZM92.6448 24.112C92.1781 24.112 91.7581 24.0373 91.3848 23.888C91.0114 23.7387 90.6894 23.5193 90.4188 23.23C90.1481 22.9407 89.9381 22.586 89.7888 22.166C89.6488 21.746 89.5788 21.2607 89.5788 20.71V19.716C89.5788 18.6707 89.8448 17.868 90.3768 17.308C90.9181 16.748 91.6508 16.468 92.5748 16.468C93.4988 16.468 94.2268 16.748 94.7588 17.308C95.3001 17.868 95.5708 18.68 95.5708 19.744V20.738H91.1608C91.1701 21.5033 91.3054 22.04 91.5668 22.348C91.8281 22.656 92.1874 22.81 92.6448 22.81C93.0274 22.81 93.3121 22.7167 93.4988 22.53C93.6948 22.3433 93.8161 22.1287 93.8628 21.886H95.4308C95.3001 22.586 95.0014 23.132 94.5348 23.524C94.0774 23.916 93.4474 24.112 92.6448 24.112ZM92.6028 17.77C92.1548 17.77 91.8048 17.9053 91.5528 18.176C91.3101 18.4467 91.1794 18.9087 91.1608 19.562H94.0868C94.0681 18.9087 93.9328 18.4467 93.6808 18.176C93.4288 17.9053 93.0694 17.77 92.6028 17.77ZM97.6162 16.58H99.0582V17.77C99.2262 17.3967 99.4922 17.0887 99.8562 16.846C100.23 16.594 100.668 16.468 101.172 16.468C101.275 16.468 101.364 16.4727 101.438 16.482C101.522 16.4913 101.597 16.5007 101.662 16.51C101.737 16.5193 101.802 16.5287 101.858 16.538V17.994C101.756 17.9847 101.653 17.9707 101.55 17.952C101.448 17.9333 101.336 17.9193 101.214 17.91C101.093 17.9007 100.958 17.896 100.808 17.896C100.304 17.896 99.9075 18.0407 99.6182 18.33C99.3382 18.61 99.1982 19.002 99.1982 19.506V24H97.6162V16.58ZM107.581 14.2H111.025C112.267 14.2 113.195 14.4893 113.811 15.068C114.437 15.6373 114.749 16.412 114.749 17.392C114.749 18.3813 114.437 19.1653 113.811 19.744C113.195 20.3133 112.267 20.598 111.025 20.598H109.247V24H107.581V14.2ZM111.025 19.184C111.744 19.184 112.262 19.0347 112.579 18.736C112.906 18.428 113.069 17.98 113.069 17.392C113.069 16.8133 112.906 16.3747 112.579 16.076C112.262 15.768 111.744 15.614 111.025 15.614H109.247V19.184H111.025ZM119.225 24.112C118.264 24.112 117.498 23.8227 116.929 23.244C116.369 22.656 116.089 21.8113 116.089 20.71V19.716C116.089 19.212 116.159 18.7593 116.299 18.358C116.448 17.9567 116.658 17.616 116.929 17.336C117.209 17.056 117.54 16.8413 117.923 16.692C118.315 16.5427 118.749 16.468 119.225 16.468C119.701 16.468 120.13 16.5427 120.513 16.692C120.905 16.8413 121.236 17.056 121.507 17.336C121.787 17.616 121.997 17.9567 122.137 18.358C122.286 18.7593 122.361 19.212 122.361 19.716V20.71C122.361 21.8113 122.076 22.656 121.507 23.244C120.947 23.8227 120.186 24.112 119.225 24.112ZM119.225 22.754C119.71 22.754 120.088 22.5953 120.359 22.278C120.639 21.9607 120.779 21.438 120.779 20.71V19.716C120.779 19.072 120.639 18.596 120.359 18.288C120.088 17.98 119.71 17.826 119.225 17.826C118.74 17.826 118.357 17.98 118.077 18.288C117.806 18.596 117.671 19.072 117.671 19.716V20.71C117.671 21.438 117.806 21.9607 118.077 22.278C118.357 22.5953 118.74 22.754 119.225 22.754ZM124.413 16.58H125.855V17.77C126.023 17.3967 126.289 17.0887 126.653 16.846C127.027 16.594 127.465 16.468 127.969 16.468C128.072 16.468 128.161 16.4727 128.235 16.482C128.319 16.4913 128.394 16.5007 128.459 16.51C128.534 16.5193 128.599 16.5287 128.655 16.538V17.994C128.553 17.9847 128.45 17.9707 128.347 17.952C128.245 17.9333 128.133 17.9193 128.011 17.91C127.89 17.9007 127.755 17.896 127.605 17.896C127.101 17.896 126.705 18.0407 126.415 18.33C126.135 18.61 125.995 19.002 125.995 19.506V24H124.413V16.58ZM133.206 24C132.758 24 132.38 23.958 132.072 23.874C131.773 23.79 131.526 23.6547 131.33 23.468C131.143 23.272 131.008 23.02 130.924 22.712C130.84 22.3947 130.798 22.012 130.798 21.564V17.91H129.776V16.58H130.798V14.9H132.38V16.58H133.864V17.91H132.38V21.564C132.38 22.0027 132.45 22.2967 132.59 22.446C132.73 22.5953 132.973 22.67 133.318 22.67H133.864V24H133.206ZM137.489 24.084C136.808 24.084 136.276 23.8973 135.893 23.524C135.51 23.1413 135.319 22.6 135.319 21.9C135.319 21.172 135.534 20.6167 135.963 20.234C136.392 19.842 137.05 19.646 137.937 19.646H139.575V19.086C139.575 18.6287 139.477 18.302 139.281 18.106C139.085 17.9007 138.768 17.798 138.329 17.798C137.89 17.798 137.582 17.8773 137.405 18.036C137.228 18.1947 137.13 18.3907 137.111 18.624H135.683C135.692 18.2973 135.748 18.0033 135.851 17.742C135.963 17.4713 136.126 17.2427 136.341 17.056C136.556 16.8693 136.826 16.7247 137.153 16.622C137.489 16.5193 137.89 16.468 138.357 16.468C139.318 16.468 140.014 16.6827 140.443 17.112C140.882 17.532 141.101 18.19 141.101 19.086V24H139.715V22.796C139.631 22.964 139.528 23.1273 139.407 23.286C139.286 23.4353 139.136 23.5707 138.959 23.692C138.791 23.8133 138.586 23.9113 138.343 23.986C138.1 24.0513 137.816 24.084 137.489 24.084ZM137.965 22.782C138.469 22.782 138.861 22.642 139.141 22.362C139.43 22.0727 139.575 21.662 139.575 21.13V20.794H138.063C137.606 20.794 137.284 20.8827 137.097 21.06C136.92 21.228 136.831 21.48 136.831 21.816C136.831 22.1147 136.924 22.3527 137.111 22.53C137.298 22.698 137.582 22.782 137.965 22.782ZM145.796 24C145.357 24 144.984 23.958 144.676 23.874C144.368 23.79 144.116 23.6547 143.92 23.468C143.733 23.272 143.598 23.02 143.514 22.712C143.43 22.3947 143.388 22.012 143.388 21.564V14.2H144.97V21.564C144.97 22.0027 145.04 22.2967 145.18 22.446C145.32 22.5953 145.562 22.67 145.908 22.67H146.16V24H145.796Z" fill="#B4B5BB"/>
<rect x="250.973" y="10.5547" width="61.3889" height="16" rx="4" fill="#D3D5DC"/>
<rect x="323.195" y="10.5547" width="61.3889" height="16" rx="4" fill="#876FEC"/>
<rect x="16" y="46" width="32.0738" height="8.35952" rx="2.08988" fill="#876FEC"/>
<rect x="53.7344" y="46" width="32.0738" height="8.35952" rx="2.08988" fill="#D3D5DC"/>
<rect x="91.4688" y="46" width="32.0738" height="8.35952" rx="2.08988" fill="#D3D5DC"/>
<rect x="129.201" y="46" width="32.0738" height="8.35952" rx="2.08988" fill="#D3D5DC"/>
<rect x="16" y="75.1426" width="92.4771" height="6.79211" rx="1.50936" fill="#D3D5DC"/>
<rect x="293.361" y="71.0799" width="90.2778" height="15.2778" rx="3.63889" fill="#F7F8FD" stroke="#D3D5DC" stroke-width="0.722222"/>
<path d="M293 74.3594C293 72.1502 294.791 70.3594 297 70.3594H311V86.3594H297C294.791 86.3594 293 84.5685 293 82.3594V74.3594Z" fill="#D3D5DC"/>
<rect x="16.3611" y="103.08" width="111.278" height="84.2778" rx="5.41667" fill="#F7F8FD" stroke="#D3D5DC" stroke-width="0.722222"/>
<rect x="144.361" y="103.08" width="111.278" height="84.2778" rx="5.41667" fill="#F7F8FD" stroke="#D3D5DC" stroke-width="0.722222"/>
<rect x="272.361" y="103.08" width="111.278" height="84.2778" rx="5.41667" fill="#F7F8FD" stroke="#D3D5DC" stroke-width="0.722222"/>
<rect x="16.3611" y="204.08" width="111.278" height="84.2778" rx="5.41667" fill="#F7F8FD" stroke="#D3D5DC" stroke-width="0.722222"/>
<rect x="144.361" y="204.08" width="111.278" height="84.2778" rx="5.41667" fill="#F7F8FD" stroke="#D3D5DC" stroke-width="0.722222"/>
<rect x="272.361" y="204.08" width="111.278" height="84.2778" rx="5.41667" fill="#F7F8FD" stroke="#D3D5DC" stroke-width="0.722222"/>
</svg>
