<svg width="400" height="305" viewBox="0 0 400 305" fill="none" xmlns="http://www.w3.org/2000/svg">
<g clip-path="url(#clip0_2561_6421)">
<path d="M392 0.5H8C3.85786 0.5 0.5 3.85786 0.5 8V296.72C0.5 300.862 3.85786 304.22 8 304.22H392C396.142 304.22 399.5 300.862 399.5 296.72V8C399.5 3.85786 396.142 0.5 392 0.5Z" fill="white"/>
<path d="M392 0.5H8C3.85786 0.5 0.5 3.85786 0.5 8V296.72C0.5 300.862 3.85786 304.22 8 304.22H392C396.142 304.22 399.5 300.862 399.5 296.72V8C399.5 3.85786 396.142 0.5 392 0.5Z" stroke="#D3D5DC"/>
<path d="M28.22 13H21.78C20.2446 13 19 14.2446 19 15.78V22.22C19 23.7554 20.2446 25 21.78 25H28.22C29.7554 25 31 23.7554 31 22.22V15.78C31 14.2446 29.7554 13 28.22 13Z" fill="#D3D5DC"/>
<path d="M37.218 14.2002H40.62C41.8053 14.2002 42.734 14.5595 43.406 15.2782C44.078 15.9875 44.414 17.0609 44.414 18.4982V19.6182C44.414 21.0929 44.078 22.1942 43.406 22.9222C42.734 23.6409 41.8053 24.0002 40.62 24.0002H37.218V14.2002ZM40.62 22.5722C40.956 22.5722 41.2547 22.5209 41.516 22.4182C41.7773 22.3062 41.9967 22.1335 42.174 21.9002C42.3607 21.6669 42.5007 21.3635 42.594 20.9902C42.6967 20.6075 42.748 20.1502 42.748 19.6182V18.4982C42.748 17.4715 42.5567 16.7342 42.174 16.2862C41.8007 15.8382 41.2827 15.6142 40.62 15.6142H38.884V22.5722H40.62ZM49.3522 24.1122C48.8855 24.1122 48.4655 24.0375 48.0922 23.8882C47.7189 23.7389 47.3969 23.5195 47.1262 23.2302C46.8555 22.9409 46.6455 22.5862 46.4962 22.1662C46.3562 21.7462 46.2862 21.2609 46.2862 20.7102V19.7162C46.2862 18.6709 46.5522 17.8682 47.0842 17.3082C47.6255 16.7482 48.3582 16.4682 49.2822 16.4682C50.2062 16.4682 50.9342 16.7482 51.4662 17.3082C52.0075 17.8682 52.2782 18.6802 52.2782 19.7442V20.7382H47.8682C47.8775 21.5035 48.0129 22.0402 48.2742 22.3482C48.5355 22.6562 48.8949 22.8102 49.3522 22.8102C49.7349 22.8102 50.0195 22.7169 50.2062 22.5302C50.4022 22.3435 50.5235 22.1289 50.5702 21.8862H52.1382C52.0075 22.5862 51.7089 23.1322 51.2422 23.5242C50.7849 23.9162 50.1549 24.1122 49.3522 24.1122ZM49.3102 17.7702C48.8622 17.7702 48.5122 17.9055 48.2602 18.1762C48.0175 18.4469 47.8869 18.9089 47.8682 19.5622H50.7942C50.7755 18.9089 50.6402 18.4469 50.3882 18.1762C50.1362 17.9055 49.7769 17.7702 49.3102 17.7702ZM53.1688 16.5802H54.9048L56.8508 22.1242L58.6148 16.5802H60.2808L57.6768 24.0002H56.0528L53.1688 16.5802ZM64.2479 24.1122C63.7812 24.1122 63.3612 24.0375 62.9879 23.8882C62.6146 23.7389 62.2926 23.5195 62.0219 23.2302C61.7512 22.9409 61.5412 22.5862 61.3919 22.1662C61.2519 21.7462 61.1819 21.2609 61.1819 20.7102V19.7162C61.1819 18.6709 61.4479 17.8682 61.9799 17.3082C62.5212 16.7482 63.2539 16.4682 64.1779 16.4682C65.1019 16.4682 65.8299 16.7482 66.3619 17.3082C66.9032 17.8682 67.1739 18.6802 67.1739 19.7442V20.7382H62.7639C62.7732 21.5035 62.9086 22.0402 63.1699 22.3482C63.4312 22.6562 63.7906 22.8102 64.2479 22.8102C64.6306 22.8102 64.9152 22.7169 65.1019 22.5302C65.2979 22.3435 65.4192 22.1289 65.4659 21.8862H67.0339C66.9032 22.5862 66.6046 23.1322 66.1379 23.5242C65.6806 23.9162 65.0506 24.1122 64.2479 24.1122ZM64.2059 17.7702C63.7579 17.7702 63.4079 17.9055 63.1559 18.1762C62.9132 18.4469 62.7826 18.9089 62.7639 19.5622H65.6899C65.6712 18.9089 65.5359 18.4469 65.2839 18.1762C65.0319 17.9055 64.6726 17.7702 64.2059 17.7702ZM71.6553 24.0002C71.2167 24.0002 70.8433 23.9582 70.5353 23.8742C70.2273 23.7902 69.9753 23.6549 69.7793 23.4682C69.5927 23.2722 69.4573 23.0202 69.3733 22.7122C69.2893 22.3949 69.2473 22.0122 69.2473 21.5642V14.2002H70.8293V21.5642C70.8293 22.0029 70.8993 22.2969 71.0393 22.4462C71.1793 22.5955 71.422 22.6702 71.7673 22.6702H72.0193V24.0002H71.6553ZM76.5886 24.1122C75.6273 24.1122 74.8619 23.8229 74.2926 23.2442C73.7326 22.6562 73.4526 21.8115 73.4526 20.7102V19.7162C73.4526 19.2122 73.5226 18.7595 73.6626 18.3582C73.8119 17.9569 74.0219 17.6162 74.2926 17.3362C74.5726 17.0562 74.9039 16.8415 75.2866 16.6922C75.6786 16.5429 76.1126 16.4682 76.5886 16.4682C77.0646 16.4682 77.4939 16.5429 77.8766 16.6922C78.2686 16.8415 78.5999 17.0562 78.8706 17.3362C79.1506 17.6162 79.3606 17.9569 79.5006 18.3582C79.6499 18.7595 79.7246 19.2122 79.7246 19.7162V20.7102C79.7246 21.8115 79.4399 22.6562 78.8706 23.2442C78.3106 23.8229 77.5499 24.1122 76.5886 24.1122ZM76.5886 22.7542C77.0739 22.7542 77.4519 22.5955 77.7226 22.2782C78.0026 21.9609 78.1426 21.4382 78.1426 20.7102V19.7162C78.1426 19.0722 78.0026 18.5962 77.7226 18.2882C77.4519 17.9802 77.0739 17.8262 76.5886 17.8262C76.1033 17.8262 75.7206 17.9802 75.4406 18.2882C75.1699 18.5962 75.0346 19.0722 75.0346 19.7162V20.7102C75.0346 21.4382 75.1699 21.9609 75.4406 22.2782C75.7206 22.5955 76.1033 22.7542 76.5886 22.7542ZM81.7071 16.5802H83.1351V17.7702C83.3498 17.3782 83.6251 17.0702 83.9611 16.8462C84.2971 16.6129 84.7311 16.4962 85.2631 16.4962C86.0565 16.4962 86.6911 16.7622 87.1671 17.2942C87.6525 17.8262 87.8951 18.6335 87.8951 19.7162V20.7102C87.8951 21.8862 87.6525 22.7495 87.1671 23.3002C86.6911 23.8415 86.0565 24.1122 85.2631 24.1122C84.7871 24.1122 84.3811 24.0002 84.0451 23.7762C83.7091 23.5522 83.4525 23.2629 83.2751 22.9082V26.8002H81.7071V16.5802ZM84.8431 22.7542C85.2911 22.7542 85.6458 22.5955 85.9071 22.2782C86.1778 21.9609 86.3131 21.4382 86.3131 20.7102V19.7162C86.3131 19.0722 86.1778 18.6009 85.9071 18.3022C85.6458 18.0035 85.2911 17.8542 84.8431 17.8542C84.3578 17.8542 83.9751 18.0035 83.6951 18.3022C83.4151 18.6009 83.2751 19.0722 83.2751 19.7162V20.7102C83.2751 21.4382 83.4151 21.9609 83.6951 22.2782C83.9751 22.5955 84.3578 22.7542 84.8431 22.7542ZM92.6448 24.1122C92.1781 24.1122 91.7581 24.0375 91.3848 23.8882C91.0114 23.7389 90.6894 23.5195 90.4188 23.2302C90.1481 22.9409 89.9381 22.5862 89.7888 22.1662C89.6488 21.7462 89.5788 21.2609 89.5788 20.7102V19.7162C89.5788 18.6709 89.8448 17.8682 90.3768 17.3082C90.9181 16.7482 91.6508 16.4682 92.5748 16.4682C93.4988 16.4682 94.2268 16.7482 94.7588 17.3082C95.3001 17.8682 95.5708 18.6802 95.5708 19.7442V20.7382H91.1608C91.1701 21.5035 91.3054 22.0402 91.5668 22.3482C91.8281 22.6562 92.1874 22.8102 92.6448 22.8102C93.0274 22.8102 93.3121 22.7169 93.4988 22.5302C93.6948 22.3435 93.8161 22.1289 93.8628 21.8862H95.4308C95.3001 22.5862 95.0014 23.1322 94.5348 23.5242C94.0774 23.9162 93.4474 24.1122 92.6448 24.1122ZM92.6028 17.7702C92.1548 17.7702 91.8048 17.9055 91.5528 18.1762C91.3101 18.4469 91.1794 18.9089 91.1608 19.5622H94.0868C94.0681 18.9089 93.9328 18.4469 93.6808 18.1762C93.4288 17.9055 93.0694 17.7702 92.6028 17.7702ZM97.6162 16.5802H99.0582V17.7702C99.2262 17.3969 99.4922 17.0889 99.8562 16.8462C100.23 16.5942 100.668 16.4682 101.172 16.4682C101.275 16.4682 101.364 16.4729 101.438 16.4822C101.522 16.4915 101.597 16.5009 101.662 16.5102C101.737 16.5195 101.802 16.5289 101.858 16.5382V17.9942C101.756 17.9849 101.653 17.9709 101.55 17.9522C101.448 17.9335 101.336 17.9195 101.214 17.9102C101.093 17.9009 100.958 17.8962 100.808 17.8962C100.304 17.8962 99.9075 18.0409 99.6182 18.3302C99.3382 18.6102 99.1982 19.0022 99.1982 19.5062V24.0002H97.6162V16.5802ZM107.581 14.2002H111.025C112.267 14.2002 113.195 14.4895 113.811 15.0682C114.437 15.6375 114.749 16.4122 114.749 17.3922C114.749 18.3815 114.437 19.1655 113.811 19.7442C113.195 20.3135 112.267 20.5982 111.025 20.5982H109.247V24.0002H107.581V14.2002ZM111.025 19.1842C111.744 19.1842 112.262 19.0349 112.579 18.7362C112.906 18.4282 113.069 17.9802 113.069 17.3922C113.069 16.8135 112.906 16.3749 112.579 16.0762C112.262 15.7682 111.744 15.6142 111.025 15.6142H109.247V19.1842H111.025ZM119.225 24.1122C118.264 24.1122 117.498 23.8229 116.929 23.2442C116.369 22.6562 116.089 21.8115 116.089 20.7102V19.7162C116.089 19.2122 116.159 18.7595 116.299 18.3582C116.448 17.9569 116.658 17.6162 116.929 17.3362C117.209 17.0562 117.54 16.8415 117.923 16.6922C118.315 16.5429 118.749 16.4682 119.225 16.4682C119.701 16.4682 120.13 16.5429 120.513 16.6922C120.905 16.8415 121.236 17.0562 121.507 17.3362C121.787 17.6162 121.997 17.9569 122.137 18.3582C122.286 18.7595 122.361 19.2122 122.361 19.7162V20.7102C122.361 21.8115 122.076 22.6562 121.507 23.2442C120.947 23.8229 120.186 24.1122 119.225 24.1122ZM119.225 22.7542C119.71 22.7542 120.088 22.5955 120.359 22.2782C120.639 21.9609 120.779 21.4382 120.779 20.7102V19.7162C120.779 19.0722 120.639 18.5962 120.359 18.2882C120.088 17.9802 119.71 17.8262 119.225 17.8262C118.74 17.8262 118.357 17.9802 118.077 18.2882C117.806 18.5962 117.671 19.0722 117.671 19.7162V20.7102C117.671 21.4382 117.806 21.9609 118.077 22.2782C118.357 22.5955 118.74 22.7542 119.225 22.7542ZM124.413 16.5802H125.855V17.7702C126.023 17.3969 126.289 17.0889 126.653 16.8462C127.027 16.5942 127.465 16.4682 127.969 16.4682C128.072 16.4682 128.161 16.4729 128.235 16.4822C128.319 16.4915 128.394 16.5009 128.459 16.5102C128.534 16.5195 128.599 16.5289 128.655 16.5382V17.9942C128.553 17.9849 128.45 17.9709 128.347 17.9522C128.245 17.9335 128.133 17.9195 128.011 17.9102C127.89 17.9009 127.755 17.8962 127.605 17.8962C127.101 17.8962 126.705 18.0409 126.415 18.3302C126.135 18.6102 125.995 19.0022 125.995 19.5062V24.0002H124.413V16.5802ZM133.206 24.0002C132.758 24.0002 132.38 23.9582 132.072 23.8742C131.773 23.7902 131.526 23.6549 131.33 23.4682C131.143 23.2722 131.008 23.0202 130.924 22.7122C130.84 22.3949 130.798 22.0122 130.798 21.5642V17.9102H129.776V16.5802H130.798V14.9002H132.38V16.5802H133.864V17.9102H132.38V21.5642C132.38 22.0029 132.45 22.2969 132.59 22.4462C132.73 22.5955 132.973 22.6702 133.318 22.6702H133.864V24.0002H133.206ZM137.489 24.0842C136.808 24.0842 136.276 23.8975 135.893 23.5242C135.51 23.1415 135.319 22.6002 135.319 21.9002C135.319 21.1722 135.534 20.6169 135.963 20.2342C136.392 19.8422 137.05 19.6462 137.937 19.6462H139.575V19.0862C139.575 18.6289 139.477 18.3022 139.281 18.1062C139.085 17.9009 138.768 17.7982 138.329 17.7982C137.89 17.7982 137.582 17.8775 137.405 18.0362C137.228 18.1949 137.13 18.3909 137.111 18.6242H135.683C135.692 18.2975 135.748 18.0035 135.851 17.7422C135.963 17.4715 136.126 17.2429 136.341 17.0562C136.556 16.8695 136.826 16.7249 137.153 16.6222C137.489 16.5195 137.89 16.4682 138.357 16.4682C139.318 16.4682 140.014 16.6829 140.443 17.1122C140.882 17.5322 141.101 18.1902 141.101 19.0862V24.0002H139.715V22.7962C139.631 22.9642 139.528 23.1275 139.407 23.2862C139.286 23.4355 139.136 23.5709 138.959 23.6922C138.791 23.8135 138.586 23.9115 138.343 23.9862C138.1 24.0515 137.816 24.0842 137.489 24.0842ZM137.965 22.7822C138.469 22.7822 138.861 22.6422 139.141 22.3622C139.43 22.0729 139.575 21.6622 139.575 21.1302V20.7942H138.063C137.606 20.7942 137.284 20.8829 137.097 21.0602C136.92 21.2282 136.831 21.4802 136.831 21.8162C136.831 22.1149 136.924 22.3529 137.111 22.5302C137.298 22.6982 137.582 22.7822 137.965 22.7822ZM145.796 24.0002C145.357 24.0002 144.984 23.9582 144.676 23.8742C144.368 23.7902 144.116 23.6549 143.92 23.4682C143.733 23.2722 143.598 23.0202 143.514 22.7122C143.43 22.3949 143.388 22.0122 143.388 21.5642V14.2002H144.97V21.5642C144.97 22.0029 145.04 22.2969 145.18 22.4462C145.32 22.5955 145.562 22.6702 145.908 22.6702H146.16V24.0002H145.796Z" fill="#B4B5BB"/>
<path d="M308.362 10.5547H254.973C252.764 10.5547 250.973 12.3455 250.973 14.5547V22.5547C250.973 24.7638 252.764 26.5547 254.973 26.5547H308.362C310.571 26.5547 312.362 24.7638 312.362 22.5547V14.5547C312.362 12.3455 310.571 10.5547 308.362 10.5547Z" fill="#D3D5DC"/>
<path d="M380.584 10.5547H327.195C324.986 10.5547 323.195 12.3455 323.195 14.5547V22.5547C323.195 24.7638 324.986 26.5547 327.195 26.5547H380.584C382.793 26.5547 384.584 24.7638 384.584 22.5547V14.5547C384.584 12.3455 382.793 10.5547 380.584 10.5547Z" fill="#DA3B00"/>
<path d="M378.222 46.3613H21.7778C18.7862 46.3613 16.3611 48.7865 16.3611 51.778V116.222C16.3611 119.214 18.7862 121.639 21.7778 121.639H378.222C381.214 121.639 383.639 119.214 383.639 116.222V51.778C383.639 48.7865 381.214 46.3613 378.222 46.3613Z" fill="#F7F8FD" stroke="#D3D5DC" stroke-width="0.722222"/>
<path d="M117.983 57.5547H28.525C27.6914 57.5547 27.0156 58.2305 27.0156 59.064V62.8374C27.0156 63.671 27.6914 64.3468 28.525 64.3468H117.983C118.817 64.3468 119.493 63.671 119.493 62.8374V59.064C119.493 58.2305 118.817 57.5547 117.983 57.5547Z" fill="#D3D5DC"/>
<path d="M372.506 75.3184H28.525C27.6914 75.3184 27.0156 75.9941 27.0156 76.8277V78.809C27.0156 79.6426 27.6914 80.3184 28.525 80.3184H372.506C373.34 80.3184 374.016 79.6426 374.016 78.809V76.8277C374.016 75.9941 373.34 75.3184 372.506 75.3184Z" fill="#D3D5DC"/>
<path d="M372.506 86.0654H28.525C27.6914 86.0654 27.0156 86.7412 27.0156 87.5748V89.5561C27.0156 90.3897 27.6914 91.0654 28.525 91.0654H372.506C373.34 91.0654 374.016 90.3897 374.016 89.5561V87.5748C374.016 86.7412 373.34 86.0654 372.506 86.0654Z" fill="#D3D5DC"/>
<path d="M56.9995 102.038H29.1055C27.9513 102.038 27.0156 102.974 27.0156 104.128V108.308C27.0156 109.462 27.9513 110.398 29.1055 110.398H56.9995C58.1538 110.398 59.0894 109.462 59.0894 108.308V104.128C59.0894 102.974 58.1538 102.038 56.9995 102.038Z" fill="#DA3B00"/>
<path d="M94.7339 102.038H66.8399C65.6857 102.038 64.75 102.974 64.75 104.128V108.308C64.75 109.462 65.6857 110.398 66.8399 110.398H94.7339C95.8881 110.398 96.8238 109.462 96.8238 108.308V104.128C96.8238 102.974 95.8881 102.038 94.7339 102.038Z" fill="#D3D5DC"/>
<path d="M45.9839 138H18.0899C16.9357 138 16 138.936 16 140.09V144.27C16 145.424 16.9357 146.36 18.0899 146.36H45.9839C47.1381 146.36 48.0738 145.424 48.0738 144.27V140.09C48.0738 138.936 47.1381 138 45.9839 138Z" fill="#DA3B00"/>
<path d="M83.7183 138H55.8243C54.67 138 53.7344 138.936 53.7344 140.09V144.27C53.7344 145.424 54.67 146.36 55.8243 146.36H83.7183C84.8725 146.36 85.8082 145.424 85.8082 144.27V140.09C85.8082 138.936 84.8725 138 83.7183 138Z" fill="#D3D5DC"/>
<path d="M121.453 138H93.5586C92.4044 138 91.4688 138.936 91.4688 140.09V144.27C91.4688 145.424 92.4044 146.36 93.5586 146.36H121.453C122.607 146.36 123.543 145.424 123.543 144.27V140.09C123.543 138.936 122.607 138 121.453 138Z" fill="#D3D5DC"/>
<path d="M159.185 138H131.291C130.137 138 129.201 138.936 129.201 140.09V144.27C129.201 145.424 130.137 146.36 131.291 146.36H159.185C160.339 146.36 161.275 145.424 161.275 144.27V140.09C161.275 138.936 160.339 138 159.185 138Z" fill="#D3D5DC"/>
<path d="M106.968 172.143H17.5094C16.6758 172.143 16 172.818 16 173.652V177.425C16 178.259 16.6758 178.935 17.5094 178.935H106.968C107.801 178.935 108.477 178.259 108.477 177.425V173.652C108.477 172.818 107.801 172.143 106.968 172.143Z" fill="#D3D5DC"/>
<path d="M380 168.08H297C294.99 168.08 293.361 169.709 293.361 171.719V179.719C293.361 181.729 294.99 183.358 297 183.358H380C382.01 183.358 383.639 181.729 383.639 179.719V171.719C383.639 169.709 382.01 168.08 380 168.08Z" fill="#F7F8FD" stroke="#D3D5DC" stroke-width="0.722222"/>
<path d="M293 171.359C293 169.15 294.791 167.359 297 167.359H311V183.359H297C294.791 183.359 293 181.569 293 179.359V171.359Z" fill="#D3D5DC"/>
<path d="M122.222 205.08H21.7778C18.7862 205.08 16.3611 207.505 16.3611 210.497V283.941C16.3611 286.933 18.7862 289.358 21.7778 289.358H122.222C125.214 289.358 127.639 286.933 127.639 283.941V210.497C127.639 207.505 125.214 205.08 122.222 205.08Z" fill="#F7F8FD" stroke="#D3D5DC" stroke-width="0.722222"/>
<path d="M250.222 205.08H149.778C146.786 205.08 144.361 207.505 144.361 210.497V283.941C144.361 286.933 146.786 289.358 149.778 289.358H250.222C253.214 289.358 255.639 286.933 255.639 283.941V210.497C255.639 207.505 253.214 205.08 250.222 205.08Z" fill="#F7F8FD" stroke="#D3D5DC" stroke-width="0.722222"/>
<path d="M378.222 205.08H277.778C274.786 205.08 272.361 207.505 272.361 210.497V283.941C272.361 286.933 274.786 289.358 277.778 289.358H378.222C381.214 289.358 383.639 286.933 383.639 283.941V210.497C383.639 207.505 381.214 205.08 378.222 205.08Z" fill="#F7F8FD" stroke="#D3D5DC" stroke-width="0.722222"/>
</g>
<defs>
<clipPath id="clip0_2561_6421">
<rect width="400" height="305" fill="white"/>
</clipPath>
</defs>
</svg>
