<svg viewBox="0 0 108.26 138.53" xmlns="http://www.w3.org/2000/svg"><path d="m92.57 16.85h-58.45a17 17 0 0 0 -17 17v25.51a16.93 16.93 0 0 0 4.12 11.07 15.85 15.85 0 0 0 -1.74 19 16.93 16.93 0 0 0 -6.65 13.45v1.83a17 17 0 0 0 17 17h46.54a17 17 0 0 0 17-17v-1.83a17 17 0 0 0 -17-17h-43.33a4.83 4.83 0 0 1 0-9.65h.17 38.88a17 17 0 0 0 17-17l.08-29a2.28 2.28 0 0 1 2.25-2.23h1.13a2.8 2.8 0 0 0 2.8-2.8v-5.56a2.79 2.79 0 0 0 -2.8-2.79zm-10.37 86v1.83a5.82 5.82 0 0 1 -5.81 5.82h-46.54a5.83 5.83 0 0 1 -5.85-5.78v-1.83a5.83 5.83 0 0 1 5.82-5.82h46.57a5.82 5.82 0 0 1 5.81 5.82zm-4.26-43.49a5.82 5.82 0 0 1 -5.82 5.81h-38a5.82 5.82 0 0 1 -5.82-5.81v-25.55a5.83 5.83 0 0 1 5.82-5.81h38a5.83 5.83 0 0 1 5.82 5.82z"/></svg>
