<?xml version="1.0" encoding="utf-8"?>
<svg version="1.1" xmlns="http://www.w3.org/2000/svg" viewBox="0 0 512 512">
<g style="fill:#000">
	<path d="M451.8,128.4c3.4,3.4,5.4,8.1,5.4,12.9v352.4c0,10.1-8.2,18.3-18.3,18.3H73.1c-10.1,0-18.3-8.2-18.3-18.3V18.3
		C54.9,8.2,63,0,73.1,0h242.7c4.9,0,9.5,1.9,13,5.4L451.8,128.4z M415,149.7L307.4,42.2v107.5H415z M206.9,306.8l33.8,76
		c1.5,3.3,4.7,5.4,8.4,5.4h13.7c3.6,0,6.9-2.1,8.4-5.4l33.8-76.2v90c0,5,4.1,9.1,9.1,9.1h0h15.6c5,0,9.1-4.1,9.1-9.1V241.1
		c0-5-4.1-9.1-9.1-9.1h-19.9c-3.6,0-6.9,2.2-8.4,5.5l-45.4,104.3l-45.4-104.3c-1.5-3.3-4.7-5.5-8.4-5.5h-20c-5,0-9.1,4.1-9.1,9.1
		v155.4c0,5,4.1,9.1,9.1,9.1h15.5c5,0,9.1-4.1,9.1-9.1V306.8z"/>
</g>
</svg>
