<svg xmlns="http://www.w3.org/2000/svg" width="14" height="16" viewBox="0 0 14 16" fill="none">
  <path fill-rule="evenodd" clip-rule="evenodd" d="M10.6309 6.48807C10.6309 6.9776 10.2329 7.37593 9.74358 7.37593H3.94788C3.45855 7.37593 3.06053 6.9776 3.06053 6.48807V2.58899C3.06053 2.09929 3.45855 1.70078 3.94788 1.70078H9.74358C10.2329 1.70078 10.6309 2.09929 10.6309 2.58899V6.48807ZM11.2812 13.1316V13.4116C11.2812 13.9014 10.8832 14.2999 10.3937 14.2999H3.29765C2.80832 14.2999 2.4103 13.9014 2.4103 13.4116V13.1316C2.4103 12.6421 2.80832 12.2437 3.29765 12.2437H10.3937C10.8832 12.2437 11.2812 12.6421 11.2812 13.1316ZM12.8625 0H3.94788C2.51931 0 1.36117 1.15886 1.36117 2.58873V6.4878C1.36117 7.1342 1.5995 7.72379 1.99093 8.17736C1.60089 8.60818 1.36117 9.17763 1.36117 9.80474C1.36117 10.2729 1.49605 10.7084 1.72535 11.0791C1.10965 11.5523 0.710938 12.2944 0.710938 13.1312V13.4113C0.710938 14.8411 1.86907 16 3.29765 16H10.3936C11.8224 16 12.9805 14.8411 12.9805 13.4113V13.1312C12.9805 11.7017 11.8224 10.5427 10.3936 10.5427L3.7861 10.5423V10.5416C3.38114 10.5401 3.05307 10.2112 3.05307 9.80578C3.05307 9.39929 3.38253 9.06957 3.78871 9.06957H3.8137C3.85849 9.07201 9.74359 9.07635 9.74359 9.07635C11.1722 9.07635 12.3303 7.91731 12.3303 6.4878L12.3412 2.05559C12.3412 1.86311 12.4978 1.70642 12.6901 1.70642H12.8625C13.098 1.70642 13.2888 1.5155 13.2888 1.27977V0.426648C13.2888 0.191088 13.098 0 12.8625 0Z" fill="#100C27"/>
</svg>
