<svg width="72" height="72" viewBox="0 0 72 72" fill="none" xmlns="http://www.w3.org/2000/svg">
  <rect width="72" height="72" rx="36" fill="#D6FFFF"/>
  <path fill-rule="evenodd" clip-rule="evenodd" d="M35 28C31.134 28 28 31.134 28 35C28 38.866 31.134 42 35 42C38.866 42 42 38.866 42 35C42 31.134 38.866 28 35 28ZM26 35C26 30.0294 30.0294 26 35 26C39.9706 26 44 30.0294 44 35C44 39.9706 39.9706 44 35 44C30.0294 44 26 39.9706 26 35Z" fill="#009999"/>
  <path fill-rule="evenodd" clip-rule="evenodd" d="M39.9429 39.9429C40.3334 39.5524 40.9666 39.5524 41.3571 39.9429L45.7071 44.2929C46.0976 44.6834 46.0976 45.3166 45.7071 45.7071C45.3166 46.0977 44.6834 46.0977 44.2929 45.7071L39.9429 41.3571C39.5524 40.9666 39.5524 40.3334 39.9429 39.9429Z" fill="#009999"/>
</svg>
