<svg width="568" height="259" viewBox="0 0 568 259" fill="none" xmlns="http://www.w3.org/2000/svg">
<g filter="url(#filter0_dd_2016_5877)">
<rect x="134.139" y="24" width="299.722" height="195" rx="5.77778" fill="white"/>
<rect x="134.5" y="24.3611" width="299" height="194.278" rx="5.41667" stroke="#D3D5DC" stroke-width="0.722222"/>
</g>
<path d="M149.667 42.4112H152.483L157.046 55.5557H154.173L153.291 52.9456H148.784L147.883 55.5557H145.104L149.667 42.4112ZM152.54 50.6922L151.038 45.7537L149.517 50.6922H152.54ZM161.823 55.5557C161.185 55.5557 160.647 55.4993 160.208 55.3867C159.77 55.2615 159.42 55.0674 159.157 54.8046C158.894 54.5417 158.7 54.1974 158.575 53.7718C158.462 53.3336 158.406 52.7953 158.406 52.1569V42.4112H160.941V52.1569C160.941 52.6701 161.022 53.0207 161.185 53.2084C161.36 53.3837 161.648 53.4713 162.049 53.4713H162.368V55.5557H161.823ZM167.791 55.7247C167.153 55.7247 166.57 55.6245 166.045 55.4242C165.531 55.2239 165.093 54.9297 164.73 54.5417C164.367 54.1411 164.085 53.6528 163.885 53.077C163.685 52.5011 163.585 51.8439 163.585 51.1053V49.866C163.585 48.4514 163.954 47.3623 164.693 46.5987C165.444 45.8225 166.445 45.4344 167.697 45.4344C168.949 45.4344 169.944 45.8225 170.683 46.5987C171.434 47.3623 171.809 48.4577 171.809 49.8848V51.2556H166.12C166.132 52.1819 166.282 52.8204 166.57 53.1709C166.871 53.5214 167.278 53.6967 167.791 53.6967C168.204 53.6967 168.517 53.5965 168.73 53.3962C168.943 53.1834 169.08 52.933 169.143 52.6451H171.622C171.484 53.5715 171.096 54.3163 170.457 54.8797C169.819 55.443 168.93 55.7247 167.791 55.7247ZM167.772 47.4624C167.259 47.4624 166.865 47.6127 166.589 47.9131C166.314 48.201 166.157 48.7331 166.12 49.5092H169.425C169.387 48.7331 169.231 48.201 168.955 47.9131C168.68 47.6127 168.285 47.4624 167.772 47.4624ZM173.735 45.6034H176.063V47.162C176.301 46.6487 176.664 46.2356 177.152 45.9227C177.64 45.5972 178.198 45.4344 178.823 45.4344C178.949 45.4344 179.061 45.4407 179.161 45.4532C179.262 45.4657 179.349 45.4783 179.424 45.4908C179.512 45.5033 179.587 45.5158 179.65 45.5283V47.838C179.525 47.8255 179.393 47.8067 179.255 47.7817C179.13 47.7691 178.98 47.7566 178.805 47.7441C178.642 47.7316 178.454 47.7253 178.241 47.7253C177.603 47.7253 177.108 47.8943 176.758 48.2323C176.42 48.5578 176.251 49.021 176.251 49.6219V55.5557H173.735V45.6034ZM185.179 55.5557C184.541 55.5557 184.002 55.4993 183.564 55.3867C183.126 55.2615 182.775 55.0674 182.513 54.8046C182.25 54.5417 182.056 54.1974 181.93 53.7718C181.818 53.3336 181.761 52.7953 181.761 52.1569V47.6878H180.409V45.6034H181.761V43.3501H184.278V45.6034H186.231V47.6878H184.278V52.1569C184.278 52.6701 184.365 53.0207 184.541 53.2084C184.716 53.3837 185.004 53.4713 185.404 53.4713H186.231V55.5557H185.179ZM192.941 42.4112H201.485V44.6458H195.626V47.669H200.79V49.9223H195.626V53.3211H201.485V55.5557H192.941V42.4112ZM203.404 45.6034H205.751V47.162C205.976 46.6487 206.333 46.2356 206.821 45.9227C207.31 45.5972 207.867 45.4344 208.493 45.4344C209.494 45.4344 210.276 45.7474 210.84 46.3733C211.416 46.9867 211.704 47.9381 211.704 49.2276V55.5557H209.169V49.6219C209.169 48.8958 209.031 48.3763 208.755 48.0633C208.493 47.7504 208.123 47.5939 207.648 47.5939C207.122 47.5939 206.702 47.7629 206.389 48.1009C206.089 48.4389 205.939 48.9459 205.939 49.6219V55.5557H203.404V45.6034ZM216.937 55.5932C215.86 55.5932 215.015 55.2427 214.402 54.5417C213.788 53.8406 213.482 52.6952 213.482 51.1053V49.866C213.482 48.3262 213.788 47.2121 214.402 46.5236C215.015 45.835 215.86 45.4908 216.937 45.4908C217.65 45.4908 218.22 45.6473 218.645 45.9602C219.084 46.2607 219.428 46.6613 219.678 47.162V45.6034H222.025V55.5557C222.025 56.8576 221.681 57.834 220.993 58.485C220.317 59.1485 219.228 59.4802 217.725 59.4802C217.049 59.4802 216.467 59.4051 215.979 59.2549C215.503 59.1047 215.109 58.8981 214.796 58.6352C214.483 58.3723 214.239 58.0594 214.064 57.6963C213.901 57.3458 213.795 56.9577 213.744 56.5321H216.129C216.179 56.6448 216.236 56.7574 216.298 56.8701C216.361 56.9828 216.448 57.0829 216.561 57.1706C216.686 57.2582 216.837 57.327 217.012 57.3771C217.2 57.4272 217.437 57.4522 217.725 57.4522C218.364 57.4522 218.814 57.3083 219.077 57.0203C219.353 56.7449 219.49 56.2567 219.49 55.5557V54.1661C219.253 54.5667 218.921 54.9047 218.495 55.1801C218.07 55.4555 217.55 55.5932 216.937 55.5932ZM217.725 53.5652C218.289 53.5652 218.721 53.3837 219.021 53.0207C219.334 52.6451 219.49 52.0067 219.49 51.1053V49.866C219.49 49.0773 219.334 48.514 219.021 48.176C218.721 47.8255 218.289 47.6502 217.725 47.6502C217.2 47.6502 216.78 47.8255 216.467 48.176C216.167 48.514 216.017 49.0773 216.017 49.866V51.1053C216.017 52.0067 216.167 52.6451 216.467 53.0207C216.78 53.3837 217.2 53.5652 217.725 53.5652ZM224.498 45.6034H227.014V55.5557H224.498V45.6034ZM225.756 44.8523C225.343 44.8523 224.986 44.7084 224.686 44.4204C224.398 44.12 224.254 43.7632 224.254 43.3501C224.254 42.937 224.398 42.5865 224.686 42.2986C224.986 41.9981 225.343 41.8479 225.756 41.8479C226.169 41.8479 226.52 41.9981 226.808 42.2986C227.108 42.5865 227.259 42.937 227.259 43.3501C227.259 43.7632 227.108 44.12 226.808 44.4204C226.52 44.7084 226.169 44.8523 225.756 44.8523ZM229.498 45.6034H231.845V47.162C232.071 46.6487 232.428 46.2356 232.916 45.9227C233.404 45.5972 233.961 45.4344 234.587 45.4344C235.589 45.4344 236.371 45.7474 236.934 46.3733C237.51 46.9867 237.798 47.9381 237.798 49.2276V55.5557H235.263V49.6219C235.263 48.8958 235.125 48.3763 234.85 48.0633C234.587 47.7504 234.218 47.5939 233.742 47.5939C233.216 47.5939 232.797 47.7629 232.484 48.1009C232.183 48.4389 232.033 48.9459 232.033 49.6219V55.5557H229.498V45.6034ZM243.782 55.7247C243.144 55.7247 242.562 55.6245 242.036 55.4242C241.523 55.2239 241.085 54.9297 240.721 54.5417C240.358 54.1411 240.077 53.6528 239.876 53.077C239.676 52.5011 239.576 51.8439 239.576 51.1053V49.866C239.576 48.4514 239.945 47.3623 240.684 46.5987C241.435 45.8225 242.437 45.4344 243.688 45.4344C244.94 45.4344 245.935 45.8225 246.674 46.5987C247.425 47.3623 247.801 48.4577 247.801 49.8848V51.2556H242.111C242.124 52.1819 242.274 52.8204 242.562 53.1709C242.862 53.5214 243.269 53.6967 243.782 53.6967C244.195 53.6967 244.508 53.5965 244.721 53.3962C244.934 53.1834 245.072 52.933 245.134 52.6451H247.613C247.475 53.5715 247.087 54.3163 246.449 54.8797C245.81 55.443 244.921 55.7247 243.782 55.7247ZM243.763 47.4624C243.25 47.4624 242.856 47.6127 242.58 47.9131C242.305 48.201 242.149 48.7331 242.111 49.5092H245.416C245.378 48.7331 245.222 48.201 244.946 47.9131C244.671 47.6127 244.277 47.4624 243.763 47.4624Z" fill="#100C27"/>
<rect x="144.972" y="78.167" width="57" height="9" rx="2.88889" fill="#D3D5DC"/>
<rect x="212.806" y="78.167" width="54" height="9" rx="2.88889" fill="#D3D5DC"/>
<rect x="277.639" y="78.167" width="33.9444" height="8.66667" rx="2.88889" fill="#D3D5DC"/>
<rect x="389.083" y="78.5" width="33.9444" height="8.66667" rx="2.88889" fill="#FF5718"/>
<rect x="144.972" y="100.167" width="278.056" height="1.44444" rx="0.722222" fill="#E7E8EF"/>
<rect x="144.972" y="114.611" width="57" height="8" rx="2.88889" fill="#D3D5DC"/>
<rect x="212.806" y="114.611" width="54" height="9" rx="2.88889" fill="#D3D5DC"/>
<rect x="277.639" y="114.611" width="67.8889" height="8.66667" rx="2.88889" fill="#D3D5DC"/>
<rect x="389.083" y="114.944" width="33.9444" height="8.66667" rx="2.88889" fill="#FF5718"/>
<rect x="144.972" y="136.611" width="278.056" height="1.44444" rx="0.722222" fill="#E7E8EF"/>
<rect x="144.972" y="151.056" width="57" height="9" rx="2.88889" fill="#D3D5DC"/>
<rect x="212.806" y="151.056" width="54" height="9" rx="2.88889" fill="#D3D5DC"/>
<rect x="277.639" y="151.056" width="33.9444" height="8.66667" rx="2.88889" fill="#D3D5DC"/>
<rect x="389.083" y="151.389" width="33.9444" height="8.66667" rx="2.88889" fill="#FF5718"/>
<rect x="144.972" y="173.056" width="278.056" height="1.44444" rx="0.722222" fill="#E7E8EF"/>
<rect x="144.972" y="187.5" width="57" height="9" rx="2.88889" fill="#D3D5DC"/>
<rect x="212.806" y="187.5" width="54" height="8" rx="2.88889" fill="#D3D5DC"/>
<rect x="277.639" y="187.5" width="67.8889" height="8.66667" rx="2.88889" fill="#D3D5DC"/>
<rect x="389.083" y="187.833" width="33.9444" height="8.66667" rx="2.88889" fill="#FF5718"/>
<defs>
<filter id="filter0_dd_2016_5877" x="125.472" y="22.5556" width="317.056" height="212.333" filterUnits="userSpaceOnUse" color-interpolation-filters="sRGB">
<feFlood flood-opacity="0" result="BackgroundImageFix"/>
<feColorMatrix in="SourceAlpha" type="matrix" values="0 0 0 0 0 0 0 0 0 0 0 0 0 0 0 0 0 0 127 0" result="hardAlpha"/>
<feMorphology radius="2.16667" operator="erode" in="SourceAlpha" result="effect1_dropShadow_2016_5877"/>
<feOffset dy="7.22222"/>
<feGaussianBlur stdDeviation="5.41667"/>
<feComposite in2="hardAlpha" operator="out"/>
<feColorMatrix type="matrix" values="0 0 0 0 0.0666667 0 0 0 0 0.0941176 0 0 0 0 0.152941 0 0 0 0.1 0"/>
<feBlend mode="normal" in2="BackgroundImageFix" result="effect1_dropShadow_2016_5877"/>
<feColorMatrix in="SourceAlpha" type="matrix" values="0 0 0 0 0 0 0 0 0 0 0 0 0 0 0 0 0 0 127 0" result="hardAlpha"/>
<feMorphology radius="1.44444" operator="erode" in="SourceAlpha" result="effect2_dropShadow_2016_5877"/>
<feOffset dy="2.88889"/>
<feGaussianBlur stdDeviation="2.16667"/>
<feComposite in2="hardAlpha" operator="out"/>
<feColorMatrix type="matrix" values="0 0 0 0 0.0666667 0 0 0 0 0.0941176 0 0 0 0 0.152941 0 0 0 0.06 0"/>
<feBlend mode="normal" in2="effect1_dropShadow_2016_5877" result="effect2_dropShadow_2016_5877"/>
<feBlend mode="normal" in="SourceGraphic" in2="effect2_dropShadow_2016_5877" result="shape"/>
</filter>
</defs>
</svg>
