<svg width="568" height="259" viewBox="0 0 568 259" fill="none" xmlns="http://www.w3.org/2000/svg">
<g filter="url(#filter0_dd_9_5882)">
<path d="M428.083 24H139.917C136.726 24 134.139 26.5868 134.139 29.7778V213.222C134.139 216.413 136.726 219 139.917 219H428.083C431.274 219 433.861 216.413 433.861 213.222V29.7778C433.861 26.5868 431.274 24 428.083 24Z" fill="white"/>
<path d="M428.083 24.3611H139.917C136.925 24.3611 134.5 26.7862 134.5 29.7778V213.222C134.5 216.214 136.925 218.639 139.917 218.639H428.083C431.075 218.639 433.5 216.214 433.5 213.222V29.7778C433.5 26.7862 431.075 24.3611 428.083 24.3611Z" stroke="#D3D5DC" stroke-width="0.722222"/>
</g>
<path d="M144.558 56L148.986 44.408H152.118L156.546 56H153.522L152.478 53.372H148.608L147.582 56H144.558ZM149.004 51.23H152.082L150.534 47.198L149.004 51.23ZM158.014 56V44.408H163.72C164.644 44.408 165.406 44.594 166.006 44.966C166.606 45.326 167.05 45.818 167.338 46.442C167.638 47.066 167.788 47.768 167.788 48.548C167.788 49.34 167.62 50.042 167.284 50.654C166.948 51.266 166.468 51.746 165.844 52.094C165.232 52.43 164.5 52.598 163.648 52.598H160.912V56H158.014ZM160.912 50.366H163C163.612 50.366 164.068 50.198 164.368 49.862C164.68 49.526 164.836 49.082 164.836 48.53C164.836 47.93 164.692 47.468 164.404 47.144C164.128 46.808 163.69 46.64 163.09 46.64H160.912V50.366ZM168.93 56V44.408H171.828V56H168.93ZM177.525 56V44.408H183.231C184.155 44.408 184.917 44.594 185.517 44.966C186.117 45.326 186.561 45.818 186.849 46.442C187.149 47.066 187.299 47.768 187.299 48.548C187.299 49.34 187.131 50.042 186.795 50.654C186.459 51.266 185.979 51.746 185.355 52.094C184.743 52.43 184.011 52.598 183.159 52.598H180.423V56H177.525ZM180.423 50.366H182.511C183.123 50.366 183.579 50.198 183.879 49.862C184.191 49.526 184.347 49.082 184.347 48.53C184.347 47.93 184.203 47.468 183.915 47.144C183.639 46.808 183.201 46.64 182.601 46.64H180.423V50.366ZM188.441 56V47.468H191.195L191.285 48.26C191.657 48.032 192.119 47.828 192.671 47.648C193.223 47.456 193.775 47.336 194.327 47.288V49.466C194.015 49.502 193.667 49.562 193.283 49.646C192.911 49.718 192.551 49.808 192.203 49.916C191.867 50.024 191.579 50.138 191.339 50.258V56H188.441ZM199.514 56.18C197.87 56.18 196.658 55.802 195.878 55.046C195.098 54.278 194.708 53.174 194.708 51.734C194.708 50.306 195.098 49.208 195.878 48.44C196.67 47.672 197.882 47.288 199.514 47.288C201.158 47.288 202.37 47.672 203.15 48.44C203.942 49.208 204.338 50.306 204.338 51.734C204.338 53.174 203.948 54.278 203.168 55.046C202.388 55.802 201.17 56.18 199.514 56.18ZM199.514 53.912C200.186 53.912 200.666 53.744 200.954 53.408C201.242 53.072 201.386 52.514 201.386 51.734C201.386 50.954 201.242 50.396 200.954 50.06C200.666 49.724 200.186 49.556 199.514 49.556C198.854 49.556 198.38 49.724 198.092 50.06C197.804 50.396 197.66 50.954 197.66 51.734C197.66 52.514 197.804 53.072 198.092 53.408C198.38 53.744 198.854 53.912 199.514 53.912ZM209.391 56.18C208.563 56.18 207.855 56.048 207.267 55.784C206.679 55.52 206.229 55.088 205.917 54.488C205.605 53.876 205.449 53.06 205.449 52.04C205.449 51.008 205.629 50.144 205.989 49.448C206.349 48.74 206.841 48.206 207.465 47.846C208.101 47.474 208.827 47.288 209.643 47.288C210.087 47.288 210.483 47.336 210.831 47.432C211.191 47.528 211.527 47.672 211.839 47.864V43.868H214.737V56H212.235L212.073 55.28C211.725 55.58 211.335 55.808 210.903 55.964C210.471 56.108 209.967 56.18 209.391 56.18ZM210.219 54.074C210.855 54.074 211.395 53.858 211.839 53.426V49.97C211.431 49.598 210.909 49.412 210.273 49.412C209.661 49.412 209.193 49.646 208.869 50.114C208.557 50.57 208.401 51.218 208.401 52.058C208.401 52.874 208.551 53.414 208.851 53.678C209.163 53.942 209.619 54.074 210.219 54.074ZM219.5 56.18C218.492 56.18 217.706 55.898 217.142 55.334C216.578 54.758 216.296 53.924 216.296 52.832V47.468H219.194V52.67C219.194 53.15 219.308 53.504 219.536 53.732C219.776 53.948 220.13 54.056 220.598 54.056C220.946 54.056 221.276 53.984 221.588 53.84C221.9 53.696 222.158 53.516 222.362 53.3V47.468H225.26V56H222.56L222.47 55.28C222.122 55.544 221.702 55.76 221.21 55.928C220.718 56.096 220.148 56.18 219.5 56.18ZM231.596 56.18C230.072 56.18 228.878 55.808 228.014 55.064C227.162 54.32 226.736 53.21 226.736 51.734C226.736 50.234 227.18 49.118 228.068 48.386C228.968 47.654 230.162 47.288 231.65 47.288C232.274 47.288 232.814 47.336 233.27 47.432C233.738 47.516 234.188 47.66 234.62 47.864V49.916C233.948 49.592 233.162 49.43 232.262 49.43C231.422 49.43 230.78 49.598 230.336 49.934C229.904 50.27 229.688 50.87 229.688 51.734C229.688 52.538 229.892 53.126 230.3 53.498C230.708 53.858 231.356 54.038 232.244 54.038C233.12 54.038 233.918 53.858 234.638 53.498V55.64C234.206 55.832 233.738 55.97 233.234 56.054C232.742 56.138 232.196 56.18 231.596 56.18ZM239.623 56.18C238.567 56.18 237.787 55.91 237.283 55.37C236.791 54.83 236.545 54.086 236.545 53.138V49.664H235.393V47.468H236.545V45.686L239.443 44.912V47.468H241.513L241.387 49.664H239.443V52.94C239.443 53.348 239.545 53.636 239.749 53.804C239.953 53.96 240.259 54.038 240.667 54.038C241.015 54.038 241.369 53.978 241.729 53.858V55.82C241.165 56.06 240.463 56.18 239.623 56.18ZM246.014 56.18C245.33 56.18 244.682 56.132 244.07 56.036C243.458 55.94 242.972 55.82 242.612 55.676V53.462C243.032 53.642 243.518 53.78 244.07 53.876C244.622 53.972 245.114 54.02 245.546 54.02C246.062 54.02 246.434 53.996 246.662 53.948C246.902 53.9 247.022 53.768 247.022 53.552C247.022 53.312 246.83 53.132 246.446 53.012C246.062 52.892 245.534 52.718 244.862 52.49C244.082 52.214 243.488 51.896 243.08 51.536C242.684 51.164 242.486 50.618 242.486 49.898C242.486 49.058 242.798 48.416 243.422 47.972C244.058 47.516 245.066 47.288 246.446 47.288C246.986 47.288 247.52 47.33 248.048 47.414C248.576 47.498 249.008 47.594 249.344 47.702V49.88C249.008 49.724 248.624 49.61 248.192 49.538C247.76 49.466 247.37 49.43 247.022 49.43C246.578 49.43 246.2 49.46 245.888 49.52C245.588 49.568 245.438 49.694 245.438 49.898C245.438 50.126 245.606 50.288 245.942 50.384C246.278 50.468 246.764 50.612 247.4 50.816C248.072 51.02 248.594 51.242 248.966 51.482C249.338 51.71 249.602 51.986 249.758 52.31C249.914 52.634 249.992 53.042 249.992 53.534C249.992 54.386 249.656 55.04 248.984 55.496C248.312 55.952 247.322 56.18 246.014 56.18Z" fill="black"/>
<path d="M180.361 78.1667H147.861C146.265 78.1667 144.972 79.4601 144.972 81.0556V83.9445C144.972 85.54 146.265 86.8334 147.861 86.8334H180.361C181.956 86.8334 183.25 85.54 183.25 83.9445V81.0556C183.25 79.4601 181.956 78.1667 180.361 78.1667Z" fill="#D3D5DC"/>
<path d="M218.639 78.1667H196.972C195.376 78.1667 194.083 79.4601 194.083 81.0556V83.9445C194.083 85.54 195.376 86.8334 196.972 86.8334H218.639C220.234 86.8334 221.527 85.54 221.527 83.9445V81.0556C221.527 79.4601 220.234 78.1667 218.639 78.1667Z" fill="#D3D5DC"/>
<path d="M293.028 78.1667H235.25C233.654 78.1667 232.361 79.4601 232.361 81.0556V83.9445C232.361 85.54 233.654 86.8334 235.25 86.8334H293.028C294.623 86.8334 295.917 85.54 295.917 83.9445V81.0556C295.917 79.4601 294.623 78.1667 293.028 78.1667Z" fill="#D3D5DC"/>
<path d="M337.806 78.1667H309.639C308.043 78.1667 306.75 79.4601 306.75 81.0556V83.9445C306.75 85.54 308.043 86.8334 309.639 86.8334H337.806C339.401 86.8334 340.694 85.54 340.694 83.9445V81.0556C340.694 79.4601 339.401 78.1667 337.806 78.1667Z" fill="#D3D5DC"/>
<path d="M420.139 78.1667H391.972C390.376 78.1667 389.083 79.4601 389.083 81.0556V83.9445C389.083 85.54 390.376 86.8334 391.972 86.8334H420.139C421.734 86.8334 423.027 85.54 423.027 83.9445V81.0556C423.027 79.4601 421.734 78.1667 420.139 78.1667Z" fill="#FF5718"/>
<path d="M422.306 99.8335H145.694C145.295 99.8335 144.972 100.157 144.972 100.556C144.972 100.955 145.295 101.278 145.694 101.278H422.306C422.705 101.278 423.028 100.955 423.028 100.556C423.028 100.157 422.705 99.8335 422.306 99.8335Z" fill="#E7E8EF"/>
<path d="M180.361 114.278H147.861C146.265 114.278 144.972 115.571 144.972 117.167V120.056C144.972 121.651 146.265 122.945 147.861 122.945H180.361C181.956 122.945 183.25 121.651 183.25 120.056V117.167C183.25 115.571 181.956 114.278 180.361 114.278Z" fill="#D3D5DC"/>
<path d="M218.639 114.278H196.972C195.376 114.278 194.083 115.571 194.083 117.167V120.056C194.083 121.651 195.376 122.945 196.972 122.945H218.639C220.234 122.945 221.527 121.651 221.527 120.056V117.167C221.527 115.571 220.234 114.278 218.639 114.278Z" fill="#D3D5DC"/>
<path d="M293.028 114.278H235.25C233.654 114.278 232.361 115.571 232.361 117.167V120.056C232.361 121.651 233.654 122.945 235.25 122.945H293.028C294.623 122.945 295.917 121.651 295.917 120.056V117.167C295.917 115.571 294.623 114.278 293.028 114.278Z" fill="#D3D5DC"/>
<path d="M371.75 114.278H309.639C308.043 114.278 306.75 115.571 306.75 117.167V120.056C306.75 121.651 308.043 122.945 309.639 122.945H371.75C373.345 122.945 374.639 121.651 374.639 120.056V117.167C374.639 115.571 373.345 114.278 371.75 114.278Z" fill="#D3D5DC"/>
<path d="M420.139 114.278H391.972C390.376 114.278 389.083 115.571 389.083 117.167V120.056C389.083 121.651 390.376 122.945 391.972 122.945H420.139C421.734 122.945 423.027 121.651 423.027 120.056V117.167C423.027 115.571 421.734 114.278 420.139 114.278Z" fill="#FF5718"/>
<path d="M422.306 135.945H145.694C145.295 135.945 144.972 136.268 144.972 136.667C144.972 137.066 145.295 137.389 145.694 137.389H422.306C422.705 137.389 423.028 137.066 423.028 136.667C423.028 136.268 422.705 135.945 422.306 135.945Z" fill="#E7E8EF"/>
<path d="M180.361 150.389H147.861C146.265 150.389 144.972 151.682 144.972 153.278V156.167C144.972 157.762 146.265 159.056 147.861 159.056H180.361C181.956 159.056 183.25 157.762 183.25 156.167V153.278C183.25 151.682 181.956 150.389 180.361 150.389Z" fill="#D3D5DC"/>
<path d="M218.639 150.389H196.972C195.376 150.389 194.083 151.682 194.083 153.278V156.167C194.083 157.762 195.376 159.056 196.972 159.056H218.639C220.234 159.056 221.527 157.762 221.527 156.167V153.278C221.527 151.682 220.234 150.389 218.639 150.389Z" fill="#D3D5DC"/>
<path d="M293.028 150.389H235.25C233.654 150.389 232.361 151.682 232.361 153.278V156.167C232.361 157.762 233.654 159.056 235.25 159.056H293.028C294.623 159.056 295.917 157.762 295.917 156.167V153.278C295.917 151.682 294.623 150.389 293.028 150.389Z" fill="#D3D5DC"/>
<path d="M337.806 150.389H309.639C308.043 150.389 306.75 151.682 306.75 153.278V156.167C306.75 157.762 308.043 159.056 309.639 159.056H337.806C339.401 159.056 340.694 157.762 340.694 156.167V153.278C340.694 151.682 339.401 150.389 337.806 150.389Z" fill="#D3D5DC"/>
<path d="M420.139 150.389H391.972C390.376 150.389 389.083 151.682 389.083 153.278V156.167C389.083 157.762 390.376 159.056 391.972 159.056H420.139C421.734 159.056 423.027 157.762 423.027 156.167V153.278C423.027 151.682 421.734 150.389 420.139 150.389Z" fill="#FF5718"/>
<path d="M422.306 172.056H145.694C145.295 172.056 144.972 172.379 144.972 172.778C144.972 173.177 145.295 173.5 145.694 173.5H422.306C422.705 173.5 423.028 173.177 423.028 172.778C423.028 172.379 422.705 172.056 422.306 172.056Z" fill="#E7E8EF"/>
<path d="M180.361 186.5H147.861C146.265 186.5 144.972 187.793 144.972 189.389V192.278C144.972 193.873 146.265 195.167 147.861 195.167H180.361C181.956 195.167 183.25 193.873 183.25 192.278V189.389C183.25 187.793 181.956 186.5 180.361 186.5Z" fill="#D3D5DC"/>
<path d="M218.639 186.5H196.972C195.376 186.5 194.083 187.793 194.083 189.389V192.278C194.083 193.873 195.376 195.167 196.972 195.167H218.639C220.234 195.167 221.527 193.873 221.527 192.278V189.389C221.527 187.793 220.234 186.5 218.639 186.5Z" fill="#D3D5DC"/>
<path d="M293.028 186.5H235.25C233.654 186.5 232.361 187.793 232.361 189.389V192.278C232.361 193.873 233.654 195.167 235.25 195.167H293.028C294.623 195.167 295.917 193.873 295.917 192.278V189.389C295.917 187.793 294.623 186.5 293.028 186.5Z" fill="#D3D5DC"/>
<path d="M371.75 186.5H309.639C308.043 186.5 306.75 187.793 306.75 189.389V192.278C306.75 193.873 308.043 195.167 309.639 195.167H371.75C373.345 195.167 374.639 193.873 374.639 192.278V189.389C374.639 187.793 373.345 186.5 371.75 186.5Z" fill="#D3D5DC"/>
<path d="M420.139 186.5H391.972C390.376 186.5 389.083 187.793 389.083 189.389V192.278C389.083 193.873 390.376 195.167 391.972 195.167H420.139C421.734 195.167 423.027 193.873 423.027 192.278V189.389C423.027 187.793 421.734 186.5 420.139 186.5Z" fill="#FF5718"/>
<defs>
<filter id="filter0_dd_9_5882" x="123.306" y="20.3888" width="321.389" height="216.667" filterUnits="userSpaceOnUse" color-interpolation-filters="sRGB">
<feFlood flood-opacity="0" result="BackgroundImageFix"/>
<feColorMatrix in="SourceAlpha" type="matrix" values="0 0 0 0 0 0 0 0 0 0 0 0 0 0 0 0 0 0 127 0" result="hardAlpha"/>
<feOffset dy="7.22222"/>
<feGaussianBlur stdDeviation="5.41667"/>
<feComposite in2="hardAlpha" operator="out"/>
<feColorMatrix type="matrix" values="0 0 0 0 0.0666667 0 0 0 0 0.0941176 0 0 0 0 0.152941 0 0 0 0.1 0"/>
<feBlend mode="normal" in2="BackgroundImageFix" result="effect1_dropShadow_9_5882"/>
<feColorMatrix in="SourceAlpha" type="matrix" values="0 0 0 0 0 0 0 0 0 0 0 0 0 0 0 0 0 0 127 0" result="hardAlpha"/>
<feOffset dy="2.88889"/>
<feGaussianBlur stdDeviation="2.16667"/>
<feComposite in2="hardAlpha" operator="out"/>
<feColorMatrix type="matrix" values="0 0 0 0 0.0666667 0 0 0 0 0.0941176 0 0 0 0 0.152941 0 0 0 0.06 0"/>
<feBlend mode="normal" in2="effect1_dropShadow_9_5882" result="effect2_dropShadow_9_5882"/>
<feBlend mode="normal" in="SourceGraphic" in2="effect2_dropShadow_9_5882" result="shape"/>
</filter>
</defs>
</svg>
