<svg width="568" height="259" viewBox="0 0 568 259" fill="none" xmlns="http://www.w3.org/2000/svg">
<g filter="url(#filter0_dd_311_15729)">
<rect x="134.139" y="24" width="299.722" height="195" rx="5.77778" fill="white"/>
<rect x="134.5" y="24.3611" width="299" height="194.278" rx="5.41667" stroke="#D3D5DC" stroke-width="0.722222"/>
</g>
<path d="M149.667 42.4112H152.483L157.046 55.5557H154.173L153.291 52.9456H148.784L147.883 55.5557H145.104L149.667 42.4112ZM152.54 50.6922L151.038 45.7537L149.517 50.6922H152.54ZM161.354 55.7247C160.402 55.7247 159.639 55.418 159.063 54.8046C158.487 54.1786 158.199 53.221 158.199 51.9316V45.6034H160.734V51.5372C160.734 52.2633 160.859 52.7828 161.11 53.0958C161.373 53.4087 161.723 53.5652 162.161 53.5652C162.612 53.5652 162.994 53.39 163.307 53.0394C163.62 52.6889 163.776 52.1882 163.776 51.5372V45.6034H166.311V55.5557H163.964V53.9971C163.739 54.5104 163.394 54.9297 162.931 55.2552C162.481 55.5682 161.955 55.7247 161.354 55.7247ZM171.643 55.6683C171.104 55.6683 170.622 55.587 170.197 55.4242C169.771 55.249 169.408 54.9798 169.108 54.6168C168.807 54.2537 168.576 53.7843 168.413 53.2084C168.263 52.6201 168.187 51.919 168.187 51.1053V49.866C168.187 48.3137 168.494 47.187 169.108 46.486C169.721 45.785 170.566 45.4344 171.643 45.4344C172.256 45.4344 172.776 45.5784 173.201 45.8663C173.627 46.1417 173.959 46.5173 174.196 46.993V42.4112H176.731V55.5557H174.384V53.9971C174.134 54.4978 173.79 54.9047 173.351 55.2177C172.926 55.5181 172.356 55.6683 171.643 55.6683ZM172.431 53.5089C172.995 53.5089 173.426 53.3274 173.727 52.9643C174.04 52.6013 174.196 51.9816 174.196 51.1053V49.866C174.196 49.0523 174.04 48.4702 173.727 48.1197C173.426 47.7691 172.995 47.5939 172.431 47.5939C171.905 47.5939 171.486 47.7691 171.173 48.1197C170.873 48.4702 170.722 49.0523 170.722 49.866V51.1053C170.722 51.9816 170.873 52.6013 171.173 52.9643C171.486 53.3274 171.905 53.5089 172.431 53.5089ZM179.204 45.6034H181.72V55.5557H179.204V45.6034ZM180.462 44.8523C180.049 44.8523 179.692 44.7084 179.392 44.4204C179.104 44.12 178.96 43.7632 178.96 43.3501C178.96 42.937 179.104 42.5865 179.392 42.2986C179.692 41.9981 180.049 41.8479 180.462 41.8479C180.875 41.8479 181.226 41.9981 181.514 42.2986C181.814 42.5865 181.965 42.937 181.965 43.3501C181.965 43.7632 181.814 44.12 181.514 44.4204C181.226 44.7084 180.875 44.8523 180.462 44.8523ZM188.241 55.5557C187.603 55.5557 187.065 55.4993 186.627 55.3867C186.188 55.2615 185.838 55.0674 185.575 54.8046C185.312 54.5417 185.118 54.1974 184.993 53.7718C184.88 53.3336 184.824 52.7953 184.824 52.1569V47.6878H183.472V45.6034H184.824V43.3501H187.34V45.6034H189.293V47.6878H187.34V52.1569C187.34 52.6701 187.428 53.0207 187.603 53.2084C187.778 53.3837 188.066 53.4713 188.467 53.4713H189.293V55.5557H188.241Z" fill="#100C27"/>
<rect x="144.972" y="78.1667" width="38.2778" height="8.66667" rx="2.88889" fill="#D3D5DC"/>
<rect x="194.083" y="78.1667" width="27.4444" height="8.66667" rx="2.88889" fill="#D3D5DC"/>
<rect x="232.361" y="78.1667" width="63.5556" height="8.66667" rx="2.88889" fill="#D3D5DC"/>
<rect x="306.75" y="78.1667" width="33.9444" height="8.66667" rx="2.88889" fill="#D3D5DC"/>
<rect x="389.083" y="78.1667" width="33.9444" height="8.66667" rx="2.88889" fill="#876FEC"/>
<rect x="144.972" y="99.8335" width="278.056" height="1.44444" rx="0.722222" fill="#E7E8EF"/>
<rect x="144.972" y="114.278" width="38.2778" height="8.66667" rx="2.88889" fill="#D3D5DC"/>
<rect x="194.083" y="114.278" width="27.4444" height="8.66667" rx="2.88889" fill="#D3D5DC"/>
<rect x="232.361" y="114.278" width="63.5556" height="8.66667" rx="2.88889" fill="#D3D5DC"/>
<rect x="306.75" y="114.278" width="67.8889" height="8.66667" rx="2.88889" fill="#D3D5DC"/>
<rect x="389.083" y="114.278" width="33.9444" height="8.66667" rx="2.88889" fill="#876FEC"/>
<rect x="144.972" y="135.945" width="278.056" height="1.44444" rx="0.722222" fill="#E7E8EF"/>
<rect x="144.972" y="150.389" width="38.2778" height="8.66667" rx="2.88889" fill="#D3D5DC"/>
<rect x="194.083" y="150.389" width="27.4444" height="8.66667" rx="2.88889" fill="#D3D5DC"/>
<rect x="232.361" y="150.389" width="63.5556" height="8.66667" rx="2.88889" fill="#D3D5DC"/>
<rect x="306.75" y="150.389" width="33.9444" height="8.66667" rx="2.88889" fill="#D3D5DC"/>
<rect x="389.083" y="150.389" width="33.9444" height="8.66667" rx="2.88889" fill="#876FEC"/>
<rect x="144.972" y="172.056" width="278.056" height="1.44444" rx="0.722222" fill="#E7E8EF"/>
<rect x="144.972" y="186.5" width="38.2778" height="8.66667" rx="2.88889" fill="#D3D5DC"/>
<rect x="194.083" y="186.5" width="27.4444" height="8.66667" rx="2.88889" fill="#D3D5DC"/>
<rect x="232.361" y="186.5" width="63.5556" height="8.66667" rx="2.88889" fill="#D3D5DC"/>
<rect x="306.75" y="186.5" width="67.8889" height="8.66667" rx="2.88889" fill="#D3D5DC"/>
<rect x="389.083" y="186.5" width="33.9444" height="8.66667" rx="2.88889" fill="#876FEC"/>
<defs>
<filter id="filter0_dd_311_15729" x="125.472" y="22.5556" width="317.056" height="212.333" filterUnits="userSpaceOnUse" color-interpolation-filters="sRGB">
<feFlood flood-opacity="0" result="BackgroundImageFix"/>
<feColorMatrix in="SourceAlpha" type="matrix" values="0 0 0 0 0 0 0 0 0 0 0 0 0 0 0 0 0 0 127 0" result="hardAlpha"/>
<feMorphology radius="2.16667" operator="erode" in="SourceAlpha" result="effect1_dropShadow_311_15729"/>
<feOffset dy="7.22222"/>
<feGaussianBlur stdDeviation="5.41667"/>
<feComposite in2="hardAlpha" operator="out"/>
<feColorMatrix type="matrix" values="0 0 0 0 0.0666667 0 0 0 0 0.0941176 0 0 0 0 0.152941 0 0 0 0.1 0"/>
<feBlend mode="normal" in2="BackgroundImageFix" result="effect1_dropShadow_311_15729"/>
<feColorMatrix in="SourceAlpha" type="matrix" values="0 0 0 0 0 0 0 0 0 0 0 0 0 0 0 0 0 0 127 0" result="hardAlpha"/>
<feMorphology radius="1.44444" operator="erode" in="SourceAlpha" result="effect2_dropShadow_311_15729"/>
<feOffset dy="2.88889"/>
<feGaussianBlur stdDeviation="2.16667"/>
<feComposite in2="hardAlpha" operator="out"/>
<feColorMatrix type="matrix" values="0 0 0 0 0.0666667 0 0 0 0 0.0941176 0 0 0 0 0.152941 0 0 0 0.06 0"/>
<feBlend mode="normal" in2="effect1_dropShadow_311_15729" result="effect2_dropShadow_311_15729"/>
<feBlend mode="normal" in="SourceGraphic" in2="effect2_dropShadow_311_15729" result="shape"/>
</filter>
</defs>
</svg>
