<svg width="318" height="213" viewBox="0 0 318 213" fill="none" xmlns="http://www.w3.org/2000/svg">
<g filter="url(#filter0_dd_2569_4769)">
<rect x="9.13892" y="2" width="299.722" height="195" rx="5.77778" fill="white"/>
<rect x="9.50003" y="2.36111" width="299" height="194.278" rx="5.41667" stroke="#D3D5DC" stroke-width="0.722222"/>
</g>
<path d="M26.1691 33.7247C24.5542 33.7247 23.2773 33.2177 22.3384 32.2037C21.412 31.1897 20.9489 29.6374 20.9489 27.5468V26.0446C20.9489 24.1417 21.412 22.7021 22.3384 21.7257C23.2773 20.7367 24.5542 20.2422 26.1691 20.2422C26.9452 20.2422 27.6275 20.3424 28.2159 20.5427C28.8042 20.743 29.305 21.0309 29.7181 21.4064C30.1312 21.782 30.4567 22.2389 30.6945 22.7772C30.9324 23.303 31.0889 23.8976 31.164 24.5611H28.4787C28.3661 23.9227 28.1345 23.4282 27.784 23.0777C27.4334 22.7271 26.8952 22.5519 26.1691 22.5519C25.3804 22.5519 24.7607 22.821 24.3101 23.3593C23.8594 23.8851 23.6341 24.7802 23.6341 26.0446V27.5468C23.6341 28.2728 23.6904 28.8863 23.8031 29.387C23.9283 29.8752 24.0973 30.2696 24.3101 30.57C24.5229 30.8704 24.7858 31.0895 25.0987 31.2272C25.4117 31.3524 25.7685 31.415 26.1691 31.415C26.9077 31.415 27.4397 31.2397 27.7652 30.8892C28.1032 30.5262 28.341 30.0004 28.4787 29.3119H31.164C31.0012 30.714 30.513 31.8031 29.6993 32.5792C28.8856 33.3428 27.7089 33.7247 26.1691 33.7247ZM36.4383 33.5557C35.7999 33.5557 35.2616 33.4993 34.8234 33.3867C34.3853 33.2615 34.0348 33.0674 33.7719 32.8046C33.509 32.5417 33.315 32.1974 33.1898 31.7718C33.0771 31.3336 33.0208 30.7953 33.0208 30.1569V20.4112H35.5558V30.1569C35.5558 30.6701 35.6371 31.0207 35.7999 31.2084C35.9751 31.3837 36.2631 31.4713 36.6637 31.4713H36.9829V33.5557H36.4383ZM41.5985 33.7247C40.6471 33.7247 39.8835 33.418 39.3077 32.8046C38.7318 32.1786 38.4439 31.221 38.4439 29.9316V23.6034H40.9789V29.5372C40.9789 30.2633 41.1041 30.7828 41.3544 31.0958C41.6173 31.4087 41.9678 31.5652 42.406 31.5652C42.8567 31.5652 43.2385 31.39 43.5514 31.0394C43.8644 30.6889 44.0209 30.1882 44.0209 29.5372V23.6034H46.5559V33.5557H44.2087V31.9971C43.9833 32.5104 43.6391 32.9297 43.1759 33.2552C42.7252 33.5682 42.1994 33.7247 41.5985 33.7247ZM52.3567 33.7247C51.6557 33.7247 51.0548 33.6496 50.5541 33.4993C50.0659 33.3491 49.659 33.1426 49.3335 32.8797C49.0206 32.6043 48.7827 32.2788 48.62 31.9032C48.4572 31.5151 48.3633 31.0958 48.3383 30.6451H50.817C50.867 30.9581 50.9985 31.2147 51.2113 31.415C51.4241 31.6028 51.8059 31.6967 52.3567 31.6967C52.9576 31.6967 53.3645 31.6153 53.5773 31.4526C53.8026 31.2773 53.9153 31.052 53.9153 30.7766C53.9153 30.6388 53.8965 30.5137 53.859 30.401C53.8214 30.2883 53.74 30.1819 53.6149 30.0818C53.4897 29.9816 53.3144 29.8877 53.0891 29.8001C52.8637 29.7125 52.557 29.6311 52.169 29.556C50.8921 29.3056 49.9657 28.9488 49.3899 28.4857C48.8265 28.01 48.5449 27.3465 48.5449 26.4952C48.5449 25.5814 48.8578 24.8428 49.4837 24.2794C50.1097 23.7161 51.0673 23.4344 52.3567 23.4344C53.6336 23.4344 54.5725 23.7161 55.1734 24.2794C55.7868 24.8428 56.1186 25.5814 56.1686 26.4952H53.69C53.6399 26.1572 53.521 25.9006 53.3332 25.7253C53.1579 25.5501 52.8324 25.4624 52.3567 25.4624C51.856 25.4624 51.5055 25.5438 51.3052 25.7066C51.1174 25.8568 51.0235 26.0758 51.0235 26.3638C51.0235 26.6267 51.1299 26.852 51.3427 27.0398C51.5681 27.215 52.0187 27.3653 52.6947 27.4904C53.3707 27.6156 53.9403 27.7658 54.4035 27.9411C54.8792 28.1164 55.261 28.3292 55.549 28.5796C55.8494 28.8299 56.0622 29.1241 56.1874 29.4621C56.3126 29.8001 56.3752 30.1944 56.3752 30.6451C56.3752 31.559 56.0497 32.3038 55.3987 32.8797C54.7603 33.443 53.7463 33.7247 52.3567 33.7247ZM62.1963 33.5557C61.5579 33.5557 61.0196 33.4993 60.5814 33.3867C60.1433 33.2615 59.7927 33.0674 59.5299 32.8046C59.267 32.5417 59.0729 32.1974 58.9477 31.7718C58.8351 31.3336 58.7787 30.7953 58.7787 30.1569V25.6878H57.4267V23.6034H58.7787V21.3501H61.295V23.6034H63.2479V25.6878H61.295V30.1569C61.295 30.6701 61.3826 31.0207 61.5579 31.2084C61.7331 31.3837 62.021 31.4713 62.4216 31.4713H63.2479V33.5557H62.1963ZM68.7939 33.7247C68.1555 33.7247 67.5733 33.6245 67.0476 33.4242C66.5343 33.2239 66.0962 32.9297 65.7331 32.5417C65.3701 32.1411 65.0884 31.6528 64.8881 31.077C64.6878 30.5011 64.5877 29.8439 64.5877 29.1053V27.866C64.5877 26.4514 64.957 25.3623 65.6956 24.5987C66.4467 23.8225 67.4482 23.4344 68.7 23.4344C69.9519 23.4344 70.9471 23.8225 71.6857 24.5987C72.4368 25.3623 72.8123 26.4577 72.8123 27.8848V29.2556H67.1227C67.1352 30.1819 67.2854 30.8204 67.5733 31.1709C67.8738 31.5214 68.2806 31.6967 68.7939 31.6967C69.207 31.6967 69.52 31.5965 69.7328 31.3962C69.9456 31.1834 70.0833 30.933 70.1459 30.6451H72.6246C72.4869 31.5715 72.0988 32.3163 71.4603 32.8797C70.8219 33.443 69.9331 33.7247 68.7939 33.7247ZM68.7751 25.4624C68.2619 25.4624 67.8675 25.6127 67.5921 25.9131C67.3167 26.201 67.1602 26.7331 67.1227 27.5092H70.4276C70.39 26.7331 70.2335 26.201 69.9581 25.9131C69.6827 25.6127 69.2884 25.4624 68.7751 25.4624ZM74.7377 23.6034H77.0661V25.162C77.3039 24.6487 77.667 24.2356 78.1552 23.9227C78.6434 23.5972 79.2005 23.4344 79.8264 23.4344C79.9516 23.4344 80.0643 23.4407 80.1644 23.4532C80.2646 23.4657 80.3522 23.4783 80.4273 23.4908C80.5149 23.5033 80.5901 23.5158 80.6527 23.5283V25.838C80.5275 25.8255 80.396 25.8067 80.2583 25.7817C80.1331 25.7691 79.9829 25.7566 79.8077 25.7441C79.6449 25.7316 79.4571 25.7253 79.2443 25.7253C78.6059 25.7253 78.1114 25.8943 77.7609 26.2323C77.4229 26.5578 77.2539 27.021 77.2539 27.6219V33.5557H74.7377V23.6034ZM85.5846 33.7247C84.8836 33.7247 84.2827 33.6496 83.7819 33.4993C83.2937 33.3491 82.8869 33.1426 82.5614 32.8797C82.2484 32.6043 82.0106 32.2788 81.8478 31.9032C81.6851 31.5151 81.5912 31.0958 81.5662 30.6451H84.0448C84.0949 30.9581 84.2263 31.2147 84.4392 31.415C84.652 31.6028 85.0338 31.6967 85.5846 31.6967C86.1855 31.6967 86.5923 31.6153 86.8052 31.4526C87.0305 31.2773 87.1432 31.052 87.1432 30.7766C87.1432 30.6388 87.1244 30.5137 87.0868 30.401C87.0493 30.2883 86.9679 30.1819 86.8427 30.0818C86.7175 29.9816 86.5423 29.8877 86.3169 29.8001C86.0916 29.7125 85.7849 29.6311 85.3968 29.556C84.1199 29.3056 83.1936 28.9488 82.6177 28.4857C82.0544 28.01 81.7727 27.3465 81.7727 26.4952C81.7727 25.5814 82.0857 24.8428 82.7116 24.2794C83.3375 23.7161 84.2952 23.4344 85.5846 23.4344C86.8615 23.4344 87.8004 23.7161 88.4013 24.2794C89.0147 24.8428 89.3464 25.5814 89.3965 26.4952H86.9178C86.8678 26.1572 86.7488 25.9006 86.561 25.7253C86.3858 25.5501 86.0603 25.4624 85.5846 25.4624C85.0839 25.4624 84.7333 25.5438 84.533 25.7066C84.3453 25.8568 84.2514 26.0758 84.2514 26.3638C84.2514 26.6267 84.3578 26.852 84.5706 27.0398C84.7959 27.215 85.2466 27.3653 85.9226 27.4904C86.5986 27.6156 87.1682 27.7658 87.6314 27.9411C88.1071 28.1164 88.4889 28.3292 88.7768 28.5796C89.0773 28.8299 89.2901 29.1241 89.4153 29.4621C89.5405 29.8001 89.603 30.1944 89.603 30.6451C89.603 31.559 89.2776 32.3038 88.6266 32.8797C87.9882 33.443 86.9742 33.7247 85.5846 33.7247Z" fill="#100C27"/>
<rect x="19.9724" y="56.1667" width="38.2778" height="8.66667" rx="2.88889" fill="#D3D5DC"/>
<rect x="69.0835" y="56.1667" width="27.4444" height="8.66667" rx="2.88889" fill="#D3D5DC"/>
<rect x="107.361" y="56.1667" width="63.5556" height="8.66667" rx="2.88889" fill="#D3D5DC"/>
<rect x="181.75" y="56.1667" width="33.9444" height="8.66667" rx="2.88889" fill="#D3D5DC"/>
<rect x="264.083" y="56.1667" width="33.9444" height="8.66667" rx="2.88889" fill="#DA3B00"/>
<rect x="19.9724" y="77.8335" width="278.056" height="1.44444" rx="0.722222" fill="#E7E8EF"/>
<rect x="19.9724" y="92.2778" width="38.2778" height="8.66667" rx="2.88889" fill="#D3D5DC"/>
<rect x="69.0835" y="92.2778" width="27.4444" height="8.66667" rx="2.88889" fill="#D3D5DC"/>
<rect x="107.361" y="92.2778" width="63.5556" height="8.66667" rx="2.88889" fill="#D3D5DC"/>
<rect x="181.75" y="92.2778" width="67.8889" height="8.66667" rx="2.88889" fill="#D3D5DC"/>
<rect x="264.083" y="92.2778" width="33.9444" height="8.66667" rx="2.88889" fill="#DA3B00"/>
<rect x="19.9724" y="113.945" width="278.056" height="1.44444" rx="0.722222" fill="#E7E8EF"/>
<rect x="19.9724" y="128.389" width="38.2778" height="8.66667" rx="2.88889" fill="#D3D5DC"/>
<rect x="69.0835" y="128.389" width="27.4444" height="8.66667" rx="2.88889" fill="#D3D5DC"/>
<rect x="107.361" y="128.389" width="63.5556" height="8.66667" rx="2.88889" fill="#D3D5DC"/>
<rect x="181.75" y="128.389" width="33.9444" height="8.66667" rx="2.88889" fill="#D3D5DC"/>
<rect x="264.083" y="128.389" width="33.9444" height="8.66667" rx="2.88889" fill="#DA3B00"/>
<rect x="19.9724" y="150.056" width="278.056" height="1.44444" rx="0.722222" fill="#E7E8EF"/>
<rect x="19.9724" y="164.5" width="38.2778" height="8.66667" rx="2.88889" fill="#D3D5DC"/>
<rect x="69.0835" y="164.5" width="27.4444" height="8.66667" rx="2.88889" fill="#D3D5DC"/>
<rect x="107.361" y="164.5" width="63.5556" height="8.66667" rx="2.88889" fill="#D3D5DC"/>
<rect x="181.75" y="164.5" width="67.8889" height="8.66667" rx="2.88889" fill="#D3D5DC"/>
<rect x="264.083" y="164.5" width="33.9444" height="8.66667" rx="2.88889" fill="#DA3B00"/>
<defs>
<filter id="filter0_dd_2569_4769" x="0.47225" y="0.555556" width="317.056" height="212.333" filterUnits="userSpaceOnUse" color-interpolation-filters="sRGB">
<feFlood flood-opacity="0" result="BackgroundImageFix"/>
<feColorMatrix in="SourceAlpha" type="matrix" values="0 0 0 0 0 0 0 0 0 0 0 0 0 0 0 0 0 0 127 0" result="hardAlpha"/>
<feMorphology radius="2.16667" operator="erode" in="SourceAlpha" result="effect1_dropShadow_2569_4769"/>
<feOffset dy="7.22222"/>
<feGaussianBlur stdDeviation="5.41667"/>
<feComposite in2="hardAlpha" operator="out"/>
<feColorMatrix type="matrix" values="0 0 0 0 0.0666667 0 0 0 0 0.0941176 0 0 0 0 0.152941 0 0 0 0.1 0"/>
<feBlend mode="normal" in2="BackgroundImageFix" result="effect1_dropShadow_2569_4769"/>
<feColorMatrix in="SourceAlpha" type="matrix" values="0 0 0 0 0 0 0 0 0 0 0 0 0 0 0 0 0 0 127 0" result="hardAlpha"/>
<feMorphology radius="1.44444" operator="erode" in="SourceAlpha" result="effect2_dropShadow_2569_4769"/>
<feOffset dy="2.88889"/>
<feGaussianBlur stdDeviation="2.16667"/>
<feComposite in2="hardAlpha" operator="out"/>
<feColorMatrix type="matrix" values="0 0 0 0 0.0666667 0 0 0 0 0.0941176 0 0 0 0 0.152941 0 0 0 0.06 0"/>
<feBlend mode="normal" in2="effect1_dropShadow_2569_4769" result="effect2_dropShadow_2569_4769"/>
<feBlend mode="normal" in="SourceGraphic" in2="effect2_dropShadow_2569_4769" result="shape"/>
</filter>
</defs>
</svg>
