<svg width="568" height="259" viewBox="0 0 568 259" fill="none" xmlns="http://www.w3.org/2000/svg">
<g filter="url(#filter0_dd_828_18412)">
<rect x="134.139" y="24" width="299.722" height="195" rx="5.77778" fill="white"/>
<rect x="134.5" y="24.3611" width="299" height="194.278" rx="5.41667" stroke="#D3D5DC" stroke-width="0.722222"/>
</g>
<path d="M151.169 55.7247C149.554 55.7247 148.277 55.2177 147.338 54.2037C146.412 53.1897 145.949 51.6374 145.949 49.5468V48.0446C145.949 46.1417 146.412 44.7021 147.338 43.7257C148.277 42.7367 149.554 42.2422 151.169 42.2422C151.945 42.2422 152.627 42.3424 153.216 42.5427C153.804 42.743 154.305 43.0309 154.718 43.4064C155.131 43.782 155.457 44.2389 155.694 44.7772C155.932 45.303 156.089 45.8976 156.164 46.5611H153.479C153.366 45.9227 153.134 45.4282 152.784 45.0777C152.433 44.7271 151.895 44.5519 151.169 44.5519C150.38 44.5519 149.761 44.821 149.31 45.3593C148.859 45.8851 148.634 46.7802 148.634 48.0446V49.5468C148.634 50.2728 148.69 50.8863 148.803 51.387C148.928 51.8752 149.097 52.2696 149.31 52.57C149.523 52.8704 149.786 53.0895 150.099 53.2272C150.412 53.3524 150.768 53.415 151.169 53.415C151.908 53.415 152.44 53.2397 152.765 52.8892C153.103 52.5262 153.341 52.0004 153.479 51.3119H156.164C156.001 52.714 155.513 53.8031 154.699 54.5792C153.885 55.3428 152.709 55.7247 151.169 55.7247ZM161.87 55.7247C160.543 55.7247 159.492 55.3303 158.715 54.5417C157.952 53.7405 157.57 52.595 157.57 51.1053V49.866C157.57 49.1775 157.67 48.5578 157.87 48.007C158.071 47.4562 158.352 46.993 158.715 46.6174C159.091 46.2294 159.542 45.9352 160.067 45.7349C160.606 45.5346 161.207 45.4344 161.87 45.4344C162.534 45.4344 163.128 45.5346 163.654 45.7349C164.192 45.9352 164.643 46.2294 165.006 46.6174C165.382 46.993 165.669 47.4562 165.87 48.007C166.07 48.5578 166.17 49.1775 166.17 49.866V51.1053C166.17 52.595 165.782 53.7405 165.006 54.5417C164.242 55.3303 163.197 55.7247 161.87 55.7247ZM161.87 53.5652C162.433 53.5652 162.865 53.3837 163.166 53.0207C163.479 52.6451 163.635 52.0067 163.635 51.1053V49.866C163.635 49.0523 163.479 48.4702 163.166 48.1197C162.865 47.7691 162.433 47.5939 161.87 47.5939C161.307 47.5939 160.869 47.7691 160.556 48.1197C160.255 48.4702 160.105 49.0523 160.105 49.866V51.1053C160.105 52.0067 160.255 52.6451 160.556 53.0207C160.869 53.3837 161.307 53.5652 161.87 53.5652ZM168.049 45.6034H170.396V47.162C170.621 46.6487 170.978 46.2356 171.466 45.9227C171.954 45.5972 172.512 45.4344 173.137 45.4344C174.139 45.4344 174.921 45.7474 175.485 46.3733C176.061 46.9867 176.348 47.9381 176.348 49.2276V55.5557H173.813V49.6219C173.813 48.8958 173.676 48.3763 173.4 48.0633C173.137 47.7504 172.768 47.5939 172.292 47.5939C171.767 47.5939 171.347 47.7629 171.034 48.1009C170.734 48.4389 170.584 48.9459 170.584 49.6219V55.5557H168.049V45.6034ZM178.953 47.6878H177.676V45.6034H178.953V45.303C178.953 44.7897 179.009 44.3516 179.122 43.9886C179.234 43.613 179.428 43.3126 179.704 43.0872C179.979 42.8494 180.336 42.6804 180.774 42.5802C181.225 42.4676 181.788 42.4112 182.464 42.4112H183.234V44.4768H182.539C182.151 44.4768 181.876 44.5456 181.713 44.6833C181.563 44.821 181.488 45.0276 181.488 45.303V45.6034H183.234V47.6878H181.488V55.5557H178.953V47.6878ZM188.376 55.5557C187.738 55.5557 187.199 55.4993 186.761 55.3867C186.323 55.2615 185.973 55.0674 185.71 54.8046C185.447 54.5417 185.253 54.1974 185.128 53.7718C185.015 53.3336 184.959 52.7953 184.959 52.1569V42.4112H187.494V52.1569C187.494 52.6701 187.575 53.0207 187.738 53.2084C187.913 53.3837 188.201 53.4713 188.602 53.4713H188.921V55.5557H188.376ZM193.536 55.7247C192.585 55.7247 191.821 55.418 191.246 54.8046C190.67 54.1786 190.382 53.221 190.382 51.9316V45.6034H192.917V51.5372C192.917 52.2633 193.042 52.7828 193.292 53.0958C193.555 53.4087 193.906 53.5652 194.344 53.5652C194.795 53.5652 195.176 53.39 195.489 53.0394C195.802 52.6889 195.959 52.1882 195.959 51.5372V45.6034H198.494V55.5557H196.147V53.9971C195.921 54.5104 195.577 54.9297 195.114 55.2552C194.663 55.5682 194.137 55.7247 193.536 55.7247ZM204.576 55.7247C203.938 55.7247 203.356 55.6245 202.83 55.4242C202.317 55.2239 201.879 54.9297 201.516 54.5417C201.153 54.1411 200.871 53.6528 200.671 53.077C200.47 52.5011 200.37 51.8439 200.37 51.1053V49.866C200.37 48.4514 200.739 47.3623 201.478 46.5987C202.229 45.8225 203.231 45.4344 204.482 45.4344C205.734 45.4344 206.73 45.8225 207.468 46.5987C208.219 47.3623 208.595 48.4577 208.595 49.8848V51.2556H202.905C202.918 52.1819 203.068 52.8204 203.356 53.1709C203.656 53.5214 204.063 53.6967 204.576 53.6967C204.989 53.6967 205.302 53.5965 205.515 53.3962C205.728 53.1834 205.866 52.933 205.928 52.6451H208.407C208.269 53.5715 207.881 54.3163 207.243 54.8797C206.604 55.443 205.716 55.7247 204.576 55.7247ZM204.558 47.4624C204.044 47.4624 203.65 47.6127 203.375 47.9131C203.099 48.201 202.943 48.7331 202.905 49.5092H206.21C206.172 48.7331 206.016 48.201 205.741 47.9131C205.465 47.6127 205.071 47.4624 204.558 47.4624ZM210.464 45.6034H212.811V47.162C213.036 46.6487 213.393 46.2356 213.881 45.9227C214.37 45.5972 214.927 45.4344 215.553 45.4344C216.554 45.4344 217.336 45.7474 217.9 46.3733C218.476 46.9867 218.764 47.9381 218.764 49.2276V55.5557H216.229V49.6219C216.229 48.8958 216.091 48.3763 215.815 48.0633C215.553 47.7504 215.183 47.5939 214.708 47.5939C214.182 47.5939 213.762 47.7629 213.449 48.1009C213.149 48.4389 212.999 48.9459 212.999 49.6219V55.5557H210.464V45.6034ZM224.917 55.5557C224.278 55.5557 223.74 55.4993 223.302 55.3867C222.864 55.2615 222.513 55.0674 222.25 54.8046C221.987 54.5417 221.793 54.1974 221.668 53.7718C221.556 53.3336 221.499 52.7953 221.499 52.1569V47.6878H220.147V45.6034H221.499V43.3501H224.015V45.6034H225.968V47.6878H224.015V52.1569C224.015 52.6701 224.103 53.0207 224.278 53.2084C224.454 53.3837 224.742 53.4713 225.142 53.4713H225.968V55.5557H224.917ZM237.035 55.7247C236.159 55.7247 235.408 55.637 234.782 55.4618C234.156 55.274 233.643 55.0111 233.242 54.6731C232.841 54.3226 232.541 53.9032 232.341 53.415C232.14 52.9268 232.034 52.3822 232.021 51.7813H234.725C234.75 52.2946 234.926 52.6952 235.251 52.9831C235.589 53.271 236.184 53.415 237.035 53.415C237.886 53.415 238.481 53.2836 238.819 53.0207C239.169 52.7453 239.345 52.3947 239.345 51.9691C239.345 51.7187 239.301 51.4997 239.213 51.3119C239.126 51.1116 238.969 50.9363 238.744 50.7861C238.518 50.6359 238.218 50.4919 237.842 50.3542C237.467 50.2165 236.991 50.0788 236.415 49.9411C235.714 49.7658 235.107 49.5656 234.594 49.3402C234.093 49.1024 233.674 48.827 233.336 48.514C232.998 48.201 232.747 47.838 232.585 47.4249C232.422 46.9993 232.341 46.5048 232.341 45.9414C232.341 45.3906 232.434 44.8899 232.622 44.4392C232.81 43.9886 233.098 43.6005 233.486 43.275C233.874 42.9495 234.362 42.6991 234.951 42.5239C235.539 42.3361 236.234 42.2422 237.035 42.2422C238.637 42.2422 239.814 42.5927 240.565 43.2938C241.329 43.9948 241.723 44.94 241.748 46.1292H239.063C239.038 45.641 238.869 45.2592 238.556 44.9838C238.256 44.6958 237.749 44.5519 237.035 44.5519C236.321 44.5519 235.808 44.6833 235.495 44.9462C235.182 45.2091 235.026 45.5408 235.026 45.9414C235.026 46.1793 235.07 46.3858 235.157 46.5611C235.257 46.7364 235.414 46.8928 235.627 47.0306C235.84 47.1683 236.121 47.2997 236.472 47.4249C236.822 47.5376 237.26 47.6565 237.786 47.7817C238.537 47.9694 239.176 48.1885 239.701 48.4389C240.24 48.6767 240.678 48.9584 241.016 49.2839C241.366 49.6094 241.623 49.9912 241.786 50.4293C241.949 50.8675 242.03 51.3807 242.03 51.9691C242.03 52.5324 241.93 53.0457 241.729 53.5089C241.542 53.9596 241.241 54.3539 240.828 54.6919C240.428 55.0174 239.908 55.274 239.27 55.4618C238.644 55.637 237.899 55.7247 237.035 55.7247ZM247.853 55.7247C247.215 55.7247 246.633 55.6245 246.107 55.4242C245.594 55.2239 245.155 54.9297 244.792 54.5417C244.429 54.1411 244.148 53.6528 243.947 53.077C243.747 52.5011 243.647 51.8439 243.647 51.1053V49.866C243.647 49.1775 243.747 48.5578 243.947 48.007C244.148 47.4562 244.429 46.993 244.792 46.6174C245.155 46.2294 245.594 45.9352 246.107 45.7349C246.633 45.5346 247.215 45.4344 247.853 45.4344C248.492 45.4344 249.055 45.5221 249.543 45.6973C250.031 45.8726 250.445 46.1167 250.783 46.4297C251.121 46.7426 251.377 47.1119 251.552 47.5376C251.74 47.9632 251.847 48.4201 251.872 48.9083H249.318C249.255 48.5453 249.111 48.2386 248.886 47.9882C248.661 47.7253 248.316 47.5939 247.853 47.5939C247.34 47.5939 246.933 47.7691 246.633 48.1197C246.332 48.4702 246.182 49.0523 246.182 49.866V51.1053C246.182 52.0067 246.332 52.6451 246.633 53.0207C246.933 53.3837 247.34 53.5652 247.853 53.5652C248.316 53.5652 248.661 53.44 248.886 53.1897C249.111 52.9268 249.255 52.6138 249.318 52.2508H251.872C251.834 52.764 251.721 53.2335 251.534 53.6591C251.346 54.0722 251.083 54.4353 250.745 54.7482C250.42 55.0612 250.013 55.3053 249.524 55.4806C249.049 55.6433 248.492 55.7247 247.853 55.7247ZM253.557 42.4112H256.092V46.9367C256.318 46.4985 256.643 46.1417 257.069 45.8663C257.494 45.5784 258.02 45.4344 258.646 45.4344C259.648 45.4344 260.43 45.7474 260.993 46.3733C261.569 46.9867 261.857 47.9381 261.857 49.2276V55.5557H259.322V49.6219C259.322 48.8958 259.184 48.3763 258.909 48.0633C258.646 47.7504 258.277 47.5939 257.801 47.5939C257.275 47.5939 256.856 47.7629 256.543 48.1009C256.242 48.4389 256.092 48.9459 256.092 49.6219V55.5557H253.557V42.4112ZM267.841 55.7247C267.203 55.7247 266.621 55.6245 266.095 55.4242C265.582 55.2239 265.144 54.9297 264.781 54.5417C264.417 54.1411 264.136 53.6528 263.936 53.077C263.735 52.5011 263.635 51.8439 263.635 51.1053V49.866C263.635 48.4514 264.004 47.3623 264.743 46.5987C265.494 45.8225 266.496 45.4344 267.747 45.4344C268.999 45.4344 269.994 45.8225 270.733 46.5987C271.484 47.3623 271.86 48.4577 271.86 49.8848V51.2556H266.17C266.183 52.1819 266.333 52.8204 266.621 53.1709C266.921 53.5214 267.328 53.6967 267.841 53.6967C268.254 53.6967 268.567 53.5965 268.78 53.3962C268.993 53.1834 269.131 52.933 269.193 52.6451H271.672C271.534 53.5715 271.146 54.3163 270.508 54.8797C269.869 55.443 268.98 55.7247 267.841 55.7247ZM267.823 47.4624C267.309 47.4624 266.915 47.6127 266.64 47.9131C266.364 48.201 266.208 48.7331 266.17 49.5092H269.475C269.437 48.7331 269.281 48.201 269.006 47.9131C268.73 47.6127 268.336 47.4624 267.823 47.4624ZM273.729 45.6034H276.076V47.162C276.301 46.6487 276.652 46.2356 277.127 45.9227C277.603 45.5972 278.123 45.4344 278.686 45.4344C280.013 45.4344 280.946 45.9665 281.484 47.0306C281.797 46.5048 282.185 46.1104 282.648 45.8476C283.124 45.5721 283.643 45.4344 284.207 45.4344C285.133 45.4344 285.878 45.7474 286.441 46.3733C287.005 46.9993 287.286 47.9507 287.286 49.2276V55.5557H284.751V49.6219C284.751 48.8958 284.62 48.3763 284.357 48.0633C284.107 47.7504 283.781 47.5939 283.38 47.5939C282.917 47.5939 282.529 47.7629 282.216 48.1009C281.916 48.4389 281.766 48.9459 281.766 49.6219V55.5557H279.249V49.6219C279.249 48.8958 279.118 48.3763 278.855 48.0633C278.592 47.7504 278.26 47.5939 277.86 47.5939C277.397 47.5939 277.015 47.7629 276.714 48.1009C276.414 48.4389 276.264 48.9459 276.264 49.6219V55.5557H273.729V45.6034ZM291.792 55.6683C290.891 55.6683 290.177 55.418 289.652 54.9172C289.138 54.4165 288.882 53.6779 288.882 52.7014C288.882 51.7 289.176 50.9426 289.764 50.4293C290.353 49.9036 291.235 49.6407 292.412 49.6407H294.477V49.0586C294.477 48.4952 294.359 48.1009 294.121 47.8756C293.895 47.6377 293.507 47.5188 292.956 47.5188C292.431 47.5188 292.061 47.6064 291.849 47.7817C291.648 47.9569 291.536 48.201 291.511 48.514H289.314C289.339 47.5376 289.633 46.7802 290.196 46.2419C290.772 45.7036 291.711 45.4344 293.013 45.4344C294.377 45.4344 295.36 45.7224 295.961 46.2982C296.562 46.8741 296.862 47.7879 296.862 49.0398V55.5557H294.665V53.9971C294.54 54.2224 294.396 54.4415 294.233 54.6543C294.071 54.8546 293.877 55.0299 293.651 55.1801C293.426 55.3303 293.163 55.4493 292.863 55.5369C292.562 55.6245 292.205 55.6683 291.792 55.6683ZM292.562 53.6403C293.176 53.6403 293.645 53.4713 293.97 53.1333C294.308 52.7953 294.477 52.3071 294.477 51.6687V51.3307H292.694C292.168 51.3307 291.798 51.4371 291.586 51.6499C291.385 51.8502 291.285 52.1318 291.285 52.4949C291.285 53.2585 291.711 53.6403 292.562 53.6403ZM304.012 42.4112H308.838C309.702 42.4112 310.453 42.5114 311.091 42.7117C311.73 42.912 312.256 43.1999 312.669 43.5754C313.094 43.9385 313.414 44.3766 313.626 44.8899C313.839 45.3906 313.946 45.9477 313.946 46.5611C313.946 47.4249 313.745 48.176 313.345 48.8144C312.957 49.4529 312.362 49.9411 311.561 50.2791L314.321 55.5557H311.392L308.969 50.7486H306.697V55.5557H304.012V42.4112ZM308.838 48.4952C309.702 48.4952 310.321 48.3262 310.697 47.9882C311.073 47.6502 311.26 47.1745 311.26 46.5611C311.26 45.9602 311.073 45.4908 310.697 45.1528C310.321 44.8148 309.702 44.6458 308.838 44.6458H306.697V48.4952H308.838ZM319.425 55.7247C318.787 55.7247 318.205 55.6245 317.679 55.4242C317.166 55.2239 316.727 54.9297 316.364 54.5417C316.001 54.1411 315.72 53.6528 315.519 53.077C315.319 52.5011 315.219 51.8439 315.219 51.1053V49.866C315.219 48.4514 315.588 47.3623 316.327 46.5987C317.078 45.8225 318.079 45.4344 319.331 45.4344C320.583 45.4344 321.578 45.8225 322.317 46.5987C323.068 47.3623 323.444 48.4577 323.444 49.8848V51.2556H317.754C317.766 52.1819 317.917 52.8204 318.205 53.1709C318.505 53.5214 318.912 53.6967 319.425 53.6967C319.838 53.6967 320.151 53.5965 320.364 53.3962C320.577 53.1834 320.715 52.933 320.777 52.6451H323.256C323.118 53.5715 322.73 54.3163 322.092 54.8797C321.453 55.443 320.564 55.7247 319.425 55.7247ZM319.406 47.4624C318.893 47.4624 318.499 47.6127 318.223 47.9131C317.948 48.201 317.792 48.7331 317.754 49.5092H321.059C321.021 48.7331 320.865 48.201 320.589 47.9131C320.314 47.6127 319.92 47.4624 319.406 47.4624ZM328.43 55.5932C327.353 55.5932 326.508 55.2427 325.895 54.5417C325.281 53.8406 324.975 52.6952 324.975 51.1053V49.866C324.975 48.3262 325.281 47.2121 325.895 46.5236C326.508 45.835 327.353 45.4908 328.43 45.4908C329.143 45.4908 329.713 45.6473 330.138 45.9602C330.577 46.2607 330.921 46.6613 331.171 47.162V45.6034H333.518V55.5557C333.518 56.8576 333.174 57.834 332.486 58.485C331.81 59.1485 330.721 59.4802 329.218 59.4802C328.542 59.4802 327.96 59.4051 327.472 59.2549C326.996 59.1047 326.602 58.8981 326.289 58.6352C325.976 58.3723 325.732 58.0594 325.557 57.6963C325.394 57.3458 325.288 56.9577 325.237 56.5321H327.622C327.672 56.6448 327.729 56.7574 327.791 56.8701C327.854 56.9828 327.941 57.0829 328.054 57.1706C328.179 57.2582 328.33 57.327 328.505 57.3771C328.693 57.4272 328.93 57.4522 329.218 57.4522C329.857 57.4522 330.307 57.3083 330.57 57.0203C330.846 56.7449 330.983 56.2567 330.983 55.5557V54.1661C330.746 54.5667 330.414 54.9047 329.988 55.1801C329.563 55.4555 329.043 55.5932 328.43 55.5932ZM329.218 53.5652C329.782 53.5652 330.214 53.3837 330.514 53.0207C330.827 52.6451 330.983 52.0067 330.983 51.1053V49.866C330.983 49.0773 330.827 48.514 330.514 48.176C330.214 47.8255 329.782 47.6502 329.218 47.6502C328.693 47.6502 328.273 47.8255 327.96 48.176C327.66 48.514 327.51 49.0773 327.51 49.866V51.1053C327.51 52.0067 327.66 52.6451 327.96 53.0207C328.273 53.3837 328.693 53.5652 329.218 53.5652ZM335.991 45.6034H338.507V55.5557H335.991V45.6034ZM337.249 44.8523C336.836 44.8523 336.479 44.7084 336.179 44.4204C335.891 44.12 335.747 43.7632 335.747 43.3501C335.747 42.937 335.891 42.5865 336.179 42.2986C336.479 41.9981 336.836 41.8479 337.249 41.8479C337.662 41.8479 338.013 41.9981 338.301 42.2986C338.601 42.5865 338.752 42.937 338.752 43.3501C338.752 43.7632 338.601 44.12 338.301 44.4204C338.013 44.7084 337.662 44.8523 337.249 44.8523ZM344.578 55.7247C343.877 55.7247 343.276 55.6496 342.775 55.4993C342.287 55.3491 341.88 55.1426 341.555 54.8797C341.242 54.6043 341.004 54.2788 340.841 53.9032C340.678 53.5151 340.584 53.0958 340.559 52.6451H343.038C343.088 52.9581 343.22 53.2147 343.432 53.415C343.645 53.6028 344.027 53.6967 344.578 53.6967C345.179 53.6967 345.586 53.6153 345.798 53.4526C346.024 53.2773 346.136 53.052 346.136 52.7766C346.136 52.6388 346.118 52.5137 346.08 52.401C346.043 52.2883 345.961 52.1819 345.836 52.0818C345.711 51.9816 345.536 51.8877 345.31 51.8001C345.085 51.7125 344.778 51.6311 344.39 51.556C343.113 51.3056 342.187 50.9488 341.611 50.4857C341.048 50.01 340.766 49.3465 340.766 48.4952C340.766 47.5814 341.079 46.8428 341.705 46.2794C342.331 45.7161 343.288 45.4344 344.578 45.4344C345.855 45.4344 346.794 45.7161 347.395 46.2794C348.008 46.8428 348.34 47.5814 348.39 48.4952H345.911C345.861 48.1572 345.742 47.9006 345.554 47.7253C345.379 47.5501 345.054 47.4624 344.578 47.4624C344.077 47.4624 343.727 47.5438 343.526 47.7066C343.339 47.8568 343.245 48.0758 343.245 48.3638C343.245 48.6267 343.351 48.852 343.564 49.0398C343.789 49.215 344.24 49.3653 344.916 49.4904C345.592 49.6156 346.161 49.7658 346.625 49.9411C347.1 50.1164 347.482 50.3292 347.77 50.5796C348.071 50.8299 348.283 51.1241 348.409 51.4621C348.534 51.8001 348.596 52.1944 348.596 52.6451C348.596 53.559 348.271 54.3038 347.62 54.8797C346.981 55.443 345.967 55.7247 344.578 55.7247ZM354.417 55.5557C353.779 55.5557 353.241 55.4993 352.803 55.3867C352.364 55.2615 352.014 55.0674 351.751 54.8046C351.488 54.5417 351.294 54.1974 351.169 53.7718C351.056 53.3336 351 52.7953 351 52.1569V47.6878H349.648V45.6034H351V43.3501H353.516V45.6034H355.469V47.6878H353.516V52.1569C353.516 52.6701 353.604 53.0207 353.779 53.2084C353.954 53.3837 354.242 53.4713 354.643 53.4713H355.469V55.5557H354.417ZM357.203 45.6034H359.532V47.162C359.769 46.6487 360.132 46.2356 360.621 45.9227C361.109 45.5972 361.666 45.4344 362.292 45.4344C362.417 45.4344 362.53 45.4407 362.63 45.4532C362.73 45.4657 362.818 45.4783 362.893 45.4908C362.98 45.5033 363.056 45.5158 363.118 45.5283V47.838C362.993 47.8255 362.861 47.8067 362.724 47.7817C362.599 47.7691 362.448 47.7566 362.273 47.7441C362.11 47.7316 361.923 47.7253 361.71 47.7253C361.071 47.7253 360.577 47.8943 360.226 48.2323C359.888 48.5578 359.719 49.021 359.719 49.6219V55.5557H357.203V45.6034ZM365.008 57.2269C365.321 57.2269 365.596 57.1956 365.834 57.133C366.072 57.0829 366.279 56.9953 366.454 56.8701C366.629 56.7574 366.779 56.5947 366.905 56.3819C367.042 56.1816 367.161 55.9312 367.261 55.6308L363.468 45.6034H366.247L368.501 52.4573L370.51 45.6034H373.195L369.759 55.6308C369.496 56.4194 369.227 57.0516 368.951 57.5273C368.689 58.0156 368.376 58.3911 368.013 58.654C367.662 58.9169 367.243 59.0921 366.754 59.1798C366.279 59.2674 365.697 59.3112 365.008 59.3112V57.2269Z" fill="#100C27"/>
<rect x="144.972" y="78.167" width="168" height="9" rx="2.88889" fill="#D3D5DC"/>
<rect x="144.972" y="98" width="168" height="8" rx="2.88889" fill="#D3D5DC"/>
<rect x="144.972" y="116.834" width="168" height="9" rx="2.88889" fill="#D3D5DC"/>
<rect x="144.972" y="136.667" width="80" height="8" rx="2.88889" fill="#D3D5DC"/>
<rect x="232.972" y="136.667" width="80" height="8" rx="2.88889" fill="#D3D5DC"/>
<rect x="144.972" y="170.667" width="61.3889" height="20" rx="4" fill="#FF5718"/>
<rect x="217.195" y="170.667" width="61.3889" height="20" rx="4" fill="#D3D5DC"/>
<defs>
<filter id="filter0_dd_828_18412" x="125.472" y="22.5556" width="317.056" height="212.333" filterUnits="userSpaceOnUse" color-interpolation-filters="sRGB">
<feFlood flood-opacity="0" result="BackgroundImageFix"/>
<feColorMatrix in="SourceAlpha" type="matrix" values="0 0 0 0 0 0 0 0 0 0 0 0 0 0 0 0 0 0 127 0" result="hardAlpha"/>
<feMorphology radius="2.16667" operator="erode" in="SourceAlpha" result="effect1_dropShadow_828_18412"/>
<feOffset dy="7.22222"/>
<feGaussianBlur stdDeviation="5.41667"/>
<feComposite in2="hardAlpha" operator="out"/>
<feColorMatrix type="matrix" values="0 0 0 0 0.0666667 0 0 0 0 0.0941176 0 0 0 0 0.152941 0 0 0 0.1 0"/>
<feBlend mode="normal" in2="BackgroundImageFix" result="effect1_dropShadow_828_18412"/>
<feColorMatrix in="SourceAlpha" type="matrix" values="0 0 0 0 0 0 0 0 0 0 0 0 0 0 0 0 0 0 127 0" result="hardAlpha"/>
<feMorphology radius="1.44444" operator="erode" in="SourceAlpha" result="effect2_dropShadow_828_18412"/>
<feOffset dy="2.88889"/>
<feGaussianBlur stdDeviation="2.16667"/>
<feComposite in2="hardAlpha" operator="out"/>
<feColorMatrix type="matrix" values="0 0 0 0 0.0666667 0 0 0 0 0.0941176 0 0 0 0 0.152941 0 0 0 0.06 0"/>
<feBlend mode="normal" in2="effect1_dropShadow_828_18412" result="effect2_dropShadow_828_18412"/>
<feBlend mode="normal" in="SourceGraphic" in2="effect2_dropShadow_828_18412" result="shape"/>
</filter>
</defs>
</svg>
