<svg width="568" height="259" viewBox="0 0 568 259" fill="none" xmlns="http://www.w3.org/2000/svg">
<g filter="url(#filter0_dd_322_10289)">
<rect x="134.139" y="24" width="299.722" height="195" rx="5.77778" fill="white"/>
<rect x="134.5" y="24.3611" width="299" height="194.278" rx="5.41667" stroke="#D3D5DC" stroke-width="0.722222"/>
</g>
<path d="M146.418 42.4112H151.169C152.784 42.4112 154.054 42.8994 154.981 43.8759C155.92 44.8398 156.389 46.2669 156.389 48.1572V49.6594C156.389 51.6248 155.92 53.102 154.981 54.091C154.054 55.0674 152.784 55.5557 151.169 55.5557H146.418V42.4112ZM151.169 53.3211C151.958 53.3211 152.577 53.0394 153.028 52.4761C153.479 51.9128 153.704 50.9739 153.704 49.6594V48.1572C153.704 46.9179 153.479 46.0228 153.028 45.472C152.577 44.9212 151.958 44.6458 151.169 44.6458H149.103V53.3211H151.169ZM163.565 55.7247C161.95 55.7247 160.673 55.2177 159.735 54.2037C158.808 53.1897 158.345 51.6374 158.345 49.5468V48.0446C158.345 46.1417 158.808 44.7021 159.735 43.7257C160.673 42.7367 161.95 42.2422 163.565 42.2422C164.341 42.2422 165.024 42.3424 165.612 42.5427C166.2 42.743 166.701 43.0309 167.114 43.4064C167.527 43.782 167.853 44.2389 168.091 44.7772C168.329 45.303 168.485 45.8976 168.56 46.5611H165.875C165.762 45.9227 165.531 45.4282 165.18 45.0777C164.83 44.7271 164.291 44.5519 163.565 44.5519C162.777 44.5519 162.157 44.821 161.706 45.3593C161.256 45.8851 161.03 46.7802 161.03 48.0446V49.5468C161.03 50.2728 161.087 50.8863 161.199 51.387C161.324 51.8752 161.493 52.2696 161.706 52.57C161.919 52.8704 162.182 53.0895 162.495 53.2272C162.808 53.3524 163.165 53.415 163.565 53.415C164.304 53.415 164.836 53.2397 165.161 52.8892C165.499 52.5262 165.737 52.0004 165.875 51.3119H168.56C168.397 52.714 167.909 53.8031 167.095 54.5792C166.282 55.3428 165.105 55.7247 163.565 55.7247ZM170.642 42.4112H175.468C176.332 42.4112 177.083 42.5114 177.721 42.7117C178.36 42.912 178.886 43.1999 179.299 43.5754C179.724 43.9385 180.044 44.3766 180.256 44.8899C180.469 45.3906 180.576 45.9477 180.576 46.5611C180.576 47.4249 180.375 48.176 179.975 48.8144C179.587 49.4529 178.992 49.9411 178.191 50.2791L180.951 55.5557H178.022L175.6 50.7486H173.327V55.5557H170.642V42.4112ZM175.468 48.4952C176.332 48.4952 176.952 48.3262 177.327 47.9882C177.703 47.6502 177.89 47.1745 177.89 46.5611C177.89 45.9602 177.703 45.4908 177.327 45.1528C176.952 44.8148 176.332 44.6458 175.468 44.6458H173.327V48.4952H175.468ZM187.55 42.4112H192.319C194.059 42.4112 195.355 42.8056 196.206 43.5942C197.057 44.3829 197.483 45.447 197.483 46.7864C197.483 48.1384 197.057 49.2088 196.206 49.9974C195.355 50.7861 194.059 51.1804 192.319 51.1804H190.235V55.5557H187.55V42.4112ZM192.319 48.9271C193.208 48.9271 193.84 48.7518 194.216 48.4013C194.604 48.0383 194.798 47.5 194.798 46.7864C194.798 46.0729 194.604 45.5408 194.216 45.1903C193.84 44.8273 193.208 44.6458 192.319 44.6458H190.235V48.9271H192.319ZM199.279 45.6034H201.608V47.162C201.845 46.6487 202.208 46.2356 202.697 45.9227C203.185 45.5972 203.742 45.4344 204.368 45.4344C204.493 45.4344 204.606 45.4407 204.706 45.4532C204.806 45.4657 204.894 45.4783 204.969 45.4908C205.056 45.5033 205.131 45.5158 205.194 45.5283V47.838C205.069 47.8255 204.937 47.8067 204.8 47.7817C204.675 47.7691 204.524 47.7566 204.349 47.7441C204.186 47.7316 203.999 47.7253 203.786 47.7253C203.147 47.7253 202.653 47.8943 202.302 48.2323C201.964 48.5578 201.795 49.021 201.795 49.6219V55.5557H199.279V45.6034ZM210.318 55.7247C208.991 55.7247 207.94 55.3303 207.164 54.5417C206.4 53.7405 206.018 52.595 206.018 51.1053V49.866C206.018 49.1775 206.118 48.5578 206.319 48.007C206.519 47.4562 206.801 46.993 207.164 46.6174C207.539 46.2294 207.99 45.9352 208.516 45.7349C209.054 45.5346 209.655 45.4344 210.318 45.4344C210.982 45.4344 211.576 45.5346 212.102 45.7349C212.64 45.9352 213.091 46.2294 213.454 46.6174C213.83 46.993 214.118 47.4562 214.318 48.007C214.518 48.5578 214.618 49.1775 214.618 49.866V51.1053C214.618 52.595 214.23 53.7405 213.454 54.5417C212.69 55.3303 211.645 55.7247 210.318 55.7247ZM210.318 53.5652C210.882 53.5652 211.313 53.3837 211.614 53.0207C211.927 52.6451 212.083 52.0067 212.083 51.1053V49.866C212.083 49.0523 211.927 48.4702 211.614 48.1197C211.313 47.7691 210.882 47.5939 210.318 47.5939C209.755 47.5939 209.317 47.7691 209.004 48.1197C208.703 48.4702 208.553 49.0523 208.553 49.866V51.1053C208.553 52.0067 208.703 52.6451 209.004 53.0207C209.317 53.3837 209.755 53.5652 210.318 53.5652ZM215.098 45.6034H217.877L220.131 52.4573L222.14 45.6034H224.825L221.426 55.5557H218.873L215.098 45.6034ZM226.314 45.6034H228.83V55.5557H226.314V45.6034ZM227.572 44.8523C227.159 44.8523 226.802 44.7084 226.501 44.4204C226.214 44.12 226.07 43.7632 226.07 43.3501C226.07 42.937 226.214 42.5865 226.501 42.2986C226.802 41.9981 227.159 41.8479 227.572 41.8479C227.985 41.8479 228.335 41.9981 228.623 42.2986C228.924 42.5865 229.074 42.937 229.074 43.3501C229.074 43.7632 228.924 44.12 228.623 44.4204C228.335 44.7084 227.985 44.8523 227.572 44.8523ZM234.431 55.6683C233.892 55.6683 233.411 55.587 232.985 55.4242C232.559 55.249 232.196 54.9798 231.896 54.6168C231.595 54.2537 231.364 53.7843 231.201 53.2084C231.051 52.6201 230.976 51.919 230.976 51.1053V49.866C230.976 48.3137 231.282 47.187 231.896 46.486C232.509 45.785 233.354 45.4344 234.431 45.4344C235.044 45.4344 235.564 45.5784 235.989 45.8663C236.415 46.1417 236.747 46.5173 236.985 46.993V42.4112H239.52V55.5557H237.172V53.9971C236.922 54.4978 236.578 54.9047 236.14 55.2177C235.714 55.5181 235.144 55.6683 234.431 55.6683ZM235.219 53.5089C235.783 53.5089 236.215 53.3274 236.515 52.9643C236.828 52.6013 236.985 51.9816 236.985 51.1053V49.866C236.985 49.0523 236.828 48.4702 236.515 48.1197C236.215 47.7691 235.783 47.5939 235.219 47.5939C234.694 47.5939 234.274 47.7691 233.961 48.1197C233.661 48.4702 233.511 49.0523 233.511 49.866V51.1053C233.511 51.9816 233.661 52.6013 233.961 52.9643C234.274 53.3274 234.694 53.5089 235.219 53.5089ZM245.598 55.7247C244.959 55.7247 244.377 55.6245 243.851 55.4242C243.338 55.2239 242.9 54.9297 242.537 54.5417C242.174 54.1411 241.892 53.6528 241.692 53.077C241.492 52.5011 241.391 51.8439 241.391 51.1053V49.866C241.391 48.4514 241.761 47.3623 242.499 46.5987C243.25 45.8225 244.252 45.4344 245.504 45.4344C246.756 45.4344 247.751 45.8225 248.489 46.5987C249.241 47.3623 249.616 48.4577 249.616 49.8848V51.2556H243.926C243.939 52.1819 244.089 52.8204 244.377 53.1709C244.678 53.5214 245.084 53.6967 245.598 53.6967C246.011 53.6967 246.324 53.5965 246.537 53.3962C246.749 53.1834 246.887 52.933 246.95 52.6451H249.428C249.291 53.5715 248.903 54.3163 248.264 54.8797C247.626 55.443 246.737 55.7247 245.598 55.7247ZM245.579 47.4624C245.066 47.4624 244.671 47.6127 244.396 47.9131C244.121 48.201 243.964 48.7331 243.926 49.5092H247.231C247.194 48.7331 247.037 48.201 246.762 47.9131C246.487 47.6127 246.092 47.4624 245.579 47.4624ZM251.541 45.6034H253.87V47.162C254.108 46.6487 254.471 46.2356 254.959 45.9227C255.447 45.5972 256.004 45.4344 256.63 45.4344C256.755 45.4344 256.868 45.4407 256.968 45.4532C257.068 45.4657 257.156 45.4783 257.231 45.4908C257.319 45.5033 257.394 45.5158 257.456 45.5283V47.838C257.331 47.8255 257.2 47.8067 257.062 47.7817C256.937 47.7691 256.787 47.7566 256.611 47.7441C256.449 47.7316 256.261 47.7253 256.048 47.7253C255.41 47.7253 254.915 47.8943 254.565 48.2323C254.227 48.5578 254.058 49.021 254.058 49.6219V55.5557H251.541V45.6034ZM262.388 55.7247C261.687 55.7247 261.086 55.6496 260.586 55.4993C260.098 55.3491 259.691 55.1426 259.365 54.8797C259.052 54.6043 258.814 54.2788 258.652 53.9032C258.489 53.5151 258.395 53.0958 258.37 52.6451H260.849C260.899 52.9581 261.03 53.2147 261.243 53.415C261.456 53.6028 261.838 53.6967 262.388 53.6967C262.989 53.6967 263.396 53.6153 263.609 53.4526C263.834 53.2773 263.947 53.052 263.947 52.7766C263.947 52.6388 263.928 52.5137 263.891 52.401C263.853 52.2883 263.772 52.1819 263.647 52.0818C263.521 51.9816 263.346 51.8877 263.121 51.8001C262.895 51.7125 262.589 51.6311 262.201 51.556C260.924 51.3056 259.997 50.9488 259.422 50.4857C258.858 50.01 258.577 49.3465 258.577 48.4952C258.577 47.5814 258.889 46.8428 259.515 46.2794C260.141 45.7161 261.099 45.4344 262.388 45.4344C263.665 45.4344 264.604 45.7161 265.205 46.2794C265.818 46.8428 266.15 47.5814 266.2 48.4952H263.722C263.672 48.1572 263.553 47.9006 263.365 47.7253C263.19 47.5501 262.864 47.4624 262.388 47.4624C261.888 47.4624 261.537 47.5438 261.337 47.7066C261.149 47.8568 261.055 48.0758 261.055 48.3638C261.055 48.6267 261.162 48.852 261.374 49.0398C261.6 49.215 262.05 49.3653 262.726 49.4904C263.402 49.6156 263.972 49.7658 264.435 49.9411C264.911 50.1164 265.293 50.3292 265.581 50.5796C265.881 50.8299 266.094 51.1241 266.219 51.4621C266.344 51.8001 266.407 52.1944 266.407 52.6451C266.407 53.559 266.081 54.3038 265.43 54.8797C264.792 55.443 263.778 55.7247 262.388 55.7247Z" fill="#100C27"/>
<rect x="144.972" y="78.1665" width="57" height="9" rx="2.88889" fill="#D3D5DC"/>
<rect x="212.806" y="78.1665" width="54" height="9" rx="2.88889" fill="#D3D5DC"/>
<rect x="277.639" y="78.1665" width="33.9444" height="8.66667" rx="2.88889" fill="#D3D5DC"/>
<rect x="389.083" y="78.5" width="33.9444" height="8.66667" rx="2.88889" fill="#FF5718"/>
<rect x="144.972" y="100.167" width="278.056" height="1.44444" rx="0.722222" fill="#E7E8EF"/>
<rect x="144.972" y="114.611" width="57" height="8" rx="2.88889" fill="#D3D5DC"/>
<rect x="212.806" y="114.611" width="54" height="9" rx="2.88889" fill="#D3D5DC"/>
<rect x="277.639" y="114.611" width="67.8889" height="8.66667" rx="2.88889" fill="#D3D5DC"/>
<rect x="389.083" y="114.944" width="33.9444" height="8.66667" rx="2.88889" fill="#FF5718"/>
<rect x="144.972" y="136.611" width="278.056" height="1.44444" rx="0.722222" fill="#E7E8EF"/>
<rect x="144.972" y="151.055" width="57" height="9" rx="2.88889" fill="#D3D5DC"/>
<rect x="212.806" y="151.055" width="54" height="9" rx="2.88889" fill="#D3D5DC"/>
<rect x="277.639" y="151.055" width="33.9444" height="8.66667" rx="2.88889" fill="#D3D5DC"/>
<rect x="389.083" y="151.389" width="33.9444" height="8.66667" rx="2.88889" fill="#FF5718"/>
<rect x="144.972" y="173.055" width="278.056" height="1.44444" rx="0.722222" fill="#E7E8EF"/>
<rect x="144.972" y="187.5" width="57" height="9" rx="2.88889" fill="#D3D5DC"/>
<rect x="212.806" y="187.5" width="54" height="8" rx="2.88889" fill="#D3D5DC"/>
<rect x="277.639" y="187.5" width="67.8889" height="8.66667" rx="2.88889" fill="#D3D5DC"/>
<rect x="389.083" y="187.833" width="33.9444" height="8.66667" rx="2.88889" fill="#FF5718"/>
<defs>
<filter id="filter0_dd_322_10289" x="125.472" y="22.5556" width="317.056" height="212.333" filterUnits="userSpaceOnUse" color-interpolation-filters="sRGB">
<feFlood flood-opacity="0" result="BackgroundImageFix"/>
<feColorMatrix in="SourceAlpha" type="matrix" values="0 0 0 0 0 0 0 0 0 0 0 0 0 0 0 0 0 0 127 0" result="hardAlpha"/>
<feMorphology radius="2.16667" operator="erode" in="SourceAlpha" result="effect1_dropShadow_322_10289"/>
<feOffset dy="7.22222"/>
<feGaussianBlur stdDeviation="5.41667"/>
<feComposite in2="hardAlpha" operator="out"/>
<feColorMatrix type="matrix" values="0 0 0 0 0.0666667 0 0 0 0 0.0941176 0 0 0 0 0.152941 0 0 0 0.1 0"/>
<feBlend mode="normal" in2="BackgroundImageFix" result="effect1_dropShadow_322_10289"/>
<feColorMatrix in="SourceAlpha" type="matrix" values="0 0 0 0 0 0 0 0 0 0 0 0 0 0 0 0 0 0 127 0" result="hardAlpha"/>
<feMorphology radius="1.44444" operator="erode" in="SourceAlpha" result="effect2_dropShadow_322_10289"/>
<feOffset dy="2.88889"/>
<feGaussianBlur stdDeviation="2.16667"/>
<feComposite in2="hardAlpha" operator="out"/>
<feColorMatrix type="matrix" values="0 0 0 0 0.0666667 0 0 0 0 0.0941176 0 0 0 0 0.152941 0 0 0 0.06 0"/>
<feBlend mode="normal" in2="effect1_dropShadow_322_10289" result="effect2_dropShadow_322_10289"/>
<feBlend mode="normal" in="SourceGraphic" in2="effect2_dropShadow_322_10289" result="shape"/>
</filter>
</defs>
</svg>
