<svg width="568" height="259" viewBox="0 0 568 259" fill="none" xmlns="http://www.w3.org/2000/svg">
<g filter="url(#filter0_dd_344_9757)">
<rect x="134.139" y="24" width="299.722" height="195" rx="5.77778" fill="white"/>
<rect x="134.5" y="24.3611" width="299" height="194.278" rx="5.41667" stroke="#D3D5DC" stroke-width="0.722222"/>
</g>
<path d="M146.418 42.4111H151.169C152.784 42.4111 154.054 42.8993 154.981 43.8758C155.92 44.8397 156.389 46.2668 156.389 48.1571V49.6593C156.389 51.6247 155.92 53.1019 154.981 54.0909C154.054 55.0673 152.784 55.5555 151.169 55.5555H146.418V42.4111ZM151.169 53.321C151.958 53.321 152.577 53.0393 153.028 52.476C153.479 51.9127 153.704 50.9738 153.704 49.6593V48.1571C153.704 46.9178 153.479 46.0227 153.028 45.4719C152.577 44.9211 151.958 44.6457 151.169 44.6457H149.103V53.321H151.169ZM162.345 55.7245C161.706 55.7245 161.124 55.6244 160.598 55.4241C160.085 55.2238 159.647 54.9296 159.284 54.5415C158.921 54.1409 158.639 53.6527 158.439 53.0769C158.239 52.501 158.138 51.8438 158.138 51.1052V49.8659C158.138 48.4513 158.508 47.3622 159.246 46.5985C159.997 45.8224 160.999 45.4343 162.251 45.4343C163.503 45.4343 164.498 45.8224 165.236 46.5985C165.988 47.3622 166.363 48.4575 166.363 49.8847V51.2554H160.673C160.686 52.1818 160.836 52.8202 161.124 53.1708C161.425 53.5213 161.831 53.6965 162.345 53.6965C162.758 53.6965 163.071 53.5964 163.284 53.3961C163.496 53.1833 163.634 52.9329 163.697 52.645H166.175C166.038 53.5714 165.65 54.3162 165.011 54.8795C164.373 55.4429 163.484 55.7245 162.345 55.7245ZM162.326 47.4623C161.813 47.4623 161.418 47.6125 161.143 47.913C160.867 48.2009 160.711 48.7329 160.673 49.5091H163.978C163.941 48.7329 163.784 48.2009 163.509 47.913C163.233 47.6125 162.839 47.4623 162.326 47.4623ZM173.321 55.6682C172.607 55.6682 172.031 55.518 171.593 55.2175C171.168 54.9046 170.83 54.4977 170.579 53.997V55.5555H168.232V42.4111H170.767V46.9929C171.005 46.5172 171.337 46.1416 171.762 45.8662C172.188 45.5783 172.707 45.4343 173.321 45.4343C174.397 45.4343 175.242 45.7848 175.856 46.4859C176.469 47.1869 176.776 48.3136 176.776 49.8659V51.1052C176.776 51.9189 176.695 52.6199 176.532 53.2083C176.382 53.7842 176.156 54.2536 175.856 54.6167C175.555 54.9797 175.192 55.2488 174.767 55.4241C174.341 55.5868 173.859 55.6682 173.321 55.6682ZM172.532 53.5088C173.058 53.5088 173.471 53.3272 173.772 52.9642C174.084 52.6012 174.241 51.9815 174.241 51.1052V49.8659C174.241 49.0522 174.084 48.4701 173.772 48.1195C173.471 47.769 173.058 47.5938 172.532 47.5938C171.969 47.5938 171.531 47.769 171.218 48.1195C170.917 48.4701 170.767 49.0522 170.767 49.8659V51.1052C170.767 51.9815 170.917 52.6012 171.218 52.9642C171.531 53.3272 171.969 53.5088 172.532 53.5088ZM181.709 55.7245C180.757 55.7245 179.994 55.4178 179.418 54.8044C178.842 54.1785 178.554 53.2208 178.554 51.9314V45.6033H181.089V51.5371C181.089 52.2632 181.214 52.7827 181.465 53.0957C181.727 53.4086 182.078 53.5651 182.516 53.5651C182.967 53.5651 183.349 53.3898 183.662 53.0393C183.975 52.6888 184.131 52.1881 184.131 51.5371V45.6033H186.666V55.5555H184.319V53.997C184.093 54.5102 183.749 54.9296 183.286 55.2551C182.835 55.5681 182.31 55.7245 181.709 55.7245ZM191.997 55.5931C190.921 55.5931 190.076 55.2426 189.462 54.5415C188.849 53.8405 188.542 52.6951 188.542 51.1052V49.8659C188.542 48.3261 188.849 47.2119 189.462 46.5234C190.076 45.8349 190.921 45.4907 191.997 45.4907C192.711 45.4907 193.281 45.6471 193.706 45.9601C194.144 46.2605 194.489 46.6611 194.739 47.1619V45.6033H197.086V55.5555C197.086 56.8575 196.742 57.8339 196.053 58.4849C195.377 59.1484 194.288 59.4801 192.786 59.4801C192.11 59.4801 191.528 59.405 191.04 59.2548C190.564 59.1045 190.17 58.898 189.857 58.6351C189.544 58.3722 189.3 58.0592 189.124 57.6962C188.962 57.3457 188.855 56.9576 188.805 56.532H191.19C191.24 56.6447 191.296 56.7573 191.359 56.87C191.422 56.9827 191.509 57.0828 191.622 57.1704C191.747 57.2581 191.897 57.3269 192.073 57.377C192.26 57.4271 192.498 57.4521 192.786 57.4521C193.425 57.4521 193.875 57.3081 194.138 57.0202C194.413 56.7448 194.551 56.2566 194.551 55.5555V54.166C194.313 54.5666 193.982 54.9046 193.556 55.18C193.13 55.4554 192.611 55.5931 191.997 55.5931ZM192.786 53.5651C193.349 53.5651 193.781 53.3836 194.082 53.0205C194.395 52.645 194.551 52.0065 194.551 51.1052V49.8659C194.551 49.0772 194.395 48.5139 194.082 48.1759C193.781 47.8254 193.349 47.6501 192.786 47.6501C192.26 47.6501 191.841 47.8254 191.528 48.1759C191.228 48.5139 191.077 49.0772 191.077 49.8659V51.1052C191.077 52.0065 191.228 52.645 191.528 53.0205C191.841 53.3836 192.26 53.5651 192.786 53.5651ZM204.329 42.4111H207.033L210.751 49.9034L214.469 42.4111H217.022V55.5555H214.469V46.9178L211.633 52.7577H209.718L206.882 46.9178V55.5555H204.329V42.4111ZM223.54 55.7245C222.213 55.7245 221.161 55.3302 220.385 54.5415C219.621 53.7404 219.24 52.5949 219.24 51.1052V49.8659C219.24 49.1774 219.34 48.5577 219.54 48.0069C219.74 47.4561 220.022 46.9929 220.385 46.6173C220.761 46.2292 221.211 45.9351 221.737 45.7348C222.275 45.5345 222.876 45.4343 223.54 45.4343C224.203 45.4343 224.798 45.5345 225.324 45.7348C225.862 45.9351 226.313 46.2292 226.676 46.6173C227.051 46.9929 227.339 47.4561 227.539 48.0069C227.74 48.5577 227.84 49.1774 227.84 49.8659V51.1052C227.84 52.5949 227.452 53.7404 226.676 54.5415C225.912 55.3302 224.867 55.7245 223.54 55.7245ZM223.54 53.5651C224.103 53.5651 224.535 53.3836 224.835 53.0205C225.148 52.645 225.305 52.0065 225.305 51.1052V49.8659C225.305 49.0522 225.148 48.4701 224.835 48.1195C224.535 47.769 224.103 47.5938 223.54 47.5938C222.976 47.5938 222.538 47.769 222.225 48.1195C221.925 48.4701 221.775 49.0522 221.775 49.8659V51.1052C221.775 52.0065 221.925 52.645 222.225 53.0205C222.538 53.3836 222.976 53.5651 223.54 53.5651ZM232.835 55.6682C232.297 55.6682 231.815 55.5868 231.39 55.4241C230.964 55.2488 230.601 54.9797 230.3 54.6167C230 54.2536 229.768 53.7842 229.606 53.2083C229.455 52.6199 229.38 51.9189 229.38 51.1052V49.8659C229.38 48.3136 229.687 47.1869 230.3 46.4859C230.914 45.7848 231.759 45.4343 232.835 45.4343C233.449 45.4343 233.968 45.5783 234.394 45.8662C234.82 46.1416 235.151 46.5172 235.389 46.9929V42.4111H237.924V55.5555H235.577V53.997C235.327 54.4977 234.982 54.9046 234.544 55.2175C234.119 55.518 233.549 55.6682 232.835 55.6682ZM233.624 53.5088C234.187 53.5088 234.619 53.3272 234.92 52.9642C235.233 52.6012 235.389 51.9815 235.389 51.1052V49.8659C235.389 49.0522 235.233 48.4701 234.92 48.1195C234.619 47.769 234.187 47.5938 233.624 47.5938C233.098 47.5938 232.679 47.769 232.366 48.1195C232.066 48.4701 231.915 49.0522 231.915 49.8659V51.1052C231.915 51.9815 232.066 52.6012 232.366 52.9642C232.679 53.3272 233.098 53.5088 233.624 53.5088ZM244.002 55.7245C243.364 55.7245 242.782 55.6244 242.256 55.4241C241.743 55.2238 241.305 54.9296 240.942 54.5415C240.579 54.1409 240.297 53.6527 240.097 53.0769C239.896 52.501 239.796 51.8438 239.796 51.1052V49.8659C239.796 48.4513 240.165 47.3622 240.904 46.5985C241.655 45.8224 242.657 45.4343 243.908 45.4343C245.16 45.4343 246.156 45.8224 246.894 46.5985C247.645 47.3622 248.021 48.4575 248.021 49.8847V51.2554H242.331C242.344 52.1818 242.494 52.8202 242.782 53.1708C243.082 53.5213 243.489 53.6965 244.002 53.6965C244.415 53.6965 244.728 53.5964 244.941 53.3961C245.154 53.1833 245.292 52.9329 245.354 52.645H247.833C247.695 53.5714 247.307 54.3162 246.669 54.8795C246.03 55.4429 245.142 55.7245 244.002 55.7245ZM243.984 47.4623C243.47 47.4623 243.076 47.6125 242.801 47.913C242.525 48.2009 242.369 48.7329 242.331 49.5091H245.636C245.598 48.7329 245.442 48.2009 245.167 47.913C244.891 47.6125 244.497 47.4623 243.984 47.4623Z" fill="#100C27"/>
<rect x="145" y="87" width="54" height="8" rx="2.88889" fill="#D3D5DC"/>
<rect x="145" y="105.833" width="54" height="9" rx="2.88889" fill="#D3D5DC"/>
<rect x="145" y="125.667" width="21.5" height="9" rx="2.88889" fill="#D3D5DC"/>
<rect x="177.5" y="125.667" width="21.5" height="9" rx="2.88889" fill="#D3D5DC"/>
<rect x="145" y="145.5" width="21.5" height="9" rx="2.88889" fill="#D3D5DC"/>
<rect x="177.5" y="145.5" width="21.5" height="9" rx="2.88889" fill="#D3D5DC"/>
<rect x="145" y="165.333" width="54" height="8" rx="2.88889" fill="#FF5718"/>
<rect x="240" y="126" width="53" height="9" rx="2.88889" fill="#D3D5DC"/>
<rect x="240" y="145.833" width="39" height="8" rx="2.88889" fill="#D3D5DC"/>
<rect x="240" y="164.667" width="65" height="9" rx="2.88889" fill="#D3D5DC"/>
<rect x="240" y="184.5" width="47" height="9" rx="2.88889" fill="#D3D5DC"/>
<rect x="241" y="87" width="35" height="20" rx="4" fill="#D3D5DC"/>
<rect x="286.833" y="87" width="35" height="20" rx="4" fill="#D3D5DC"/>
<rect x="332.667" y="87" width="35" height="20" rx="4" fill="#D3D5DC"/>
<rect x="378.5" y="87" width="35" height="20" rx="4" fill="#D3D5DC"/>
<rect width="2" height="127" rx="1" transform="matrix(1 0 0 -1 219 204)" fill="#E7E8EF"/>
<defs>
<filter id="filter0_dd_344_9757" x="125.472" y="22.5556" width="317.056" height="212.333" filterUnits="userSpaceOnUse" color-interpolation-filters="sRGB">
<feFlood flood-opacity="0" result="BackgroundImageFix"/>
<feColorMatrix in="SourceAlpha" type="matrix" values="0 0 0 0 0 0 0 0 0 0 0 0 0 0 0 0 0 0 127 0" result="hardAlpha"/>
<feMorphology radius="2.16667" operator="erode" in="SourceAlpha" result="effect1_dropShadow_344_9757"/>
<feOffset dy="7.22222"/>
<feGaussianBlur stdDeviation="5.41667"/>
<feComposite in2="hardAlpha" operator="out"/>
<feColorMatrix type="matrix" values="0 0 0 0 0.0666667 0 0 0 0 0.0941176 0 0 0 0 0.152941 0 0 0 0.1 0"/>
<feBlend mode="normal" in2="BackgroundImageFix" result="effect1_dropShadow_344_9757"/>
<feColorMatrix in="SourceAlpha" type="matrix" values="0 0 0 0 0 0 0 0 0 0 0 0 0 0 0 0 0 0 127 0" result="hardAlpha"/>
<feMorphology radius="1.44444" operator="erode" in="SourceAlpha" result="effect2_dropShadow_344_9757"/>
<feOffset dy="2.88889"/>
<feGaussianBlur stdDeviation="2.16667"/>
<feComposite in2="hardAlpha" operator="out"/>
<feColorMatrix type="matrix" values="0 0 0 0 0.0666667 0 0 0 0 0.0941176 0 0 0 0 0.152941 0 0 0 0.06 0"/>
<feBlend mode="normal" in2="effect1_dropShadow_344_9757" result="effect2_dropShadow_344_9757"/>
<feBlend mode="normal" in="SourceGraphic" in2="effect2_dropShadow_344_9757" result="shape"/>
</filter>
</defs>
</svg>
