<svg width="568" height="259" viewBox="0 0 568 259" fill="none" xmlns="http://www.w3.org/2000/svg">
<g filter="url(#filter0_dd_902_13699)">
<rect x="134.139" y="24" width="299.722" height="195" rx="5.77778" fill="white"/>
<rect x="134.5" y="24.3611" width="299" height="194.278" rx="5.41667" stroke="#D3D5DC" stroke-width="0.722222"/>
</g>
<path d="M151.169 55.7245C149.554 55.7245 148.277 55.2175 147.338 54.2035C146.412 53.1895 145.949 51.6372 145.949 49.5467V48.0257C145.949 47.0742 146.068 46.2418 146.305 45.5282C146.543 44.8021 146.888 44.195 147.338 43.7068C147.789 43.2185 148.333 42.8555 148.972 42.6177C149.623 42.3673 150.355 42.2421 151.169 42.2421C151.945 42.2421 152.627 42.3485 153.216 42.5613C153.804 42.7616 154.305 43.0495 154.718 43.4251C155.143 43.8007 155.481 44.2576 155.732 44.7959C155.995 45.3217 156.183 45.91 156.295 46.561H153.572C153.41 45.9351 153.147 45.4468 152.784 45.0963C152.433 44.7333 151.895 44.5518 151.169 44.5518C150.38 44.5518 149.761 44.8209 149.31 45.3592C148.859 45.885 148.634 46.7801 148.634 48.0444V49.5467C148.634 50.2727 148.69 50.8861 148.803 51.3869C148.928 51.8751 149.097 52.2694 149.31 52.5699C149.523 52.8703 149.786 53.0894 150.099 53.2271C150.411 53.3523 150.768 53.4149 151.169 53.4149C152.033 53.4149 152.671 53.2021 153.084 52.7764C153.497 52.3383 153.704 51.7249 153.704 50.9362H151.169V48.8331H156.389V49.6969C156.389 50.7359 156.264 51.6372 156.014 52.4009C155.776 53.152 155.431 53.7779 154.981 54.2787C154.53 54.7669 153.979 55.1299 153.328 55.3678C152.69 55.6056 151.97 55.7245 151.169 55.7245ZM158.533 45.6033H160.861V47.1619C161.099 46.6486 161.462 46.2355 161.95 45.9225C162.438 45.5971 162.996 45.4343 163.621 45.4343C163.747 45.4343 163.859 45.4406 163.959 45.4531C164.06 45.4656 164.147 45.4781 164.222 45.4907C164.31 45.5032 164.385 45.5157 164.448 45.5282V47.8379C164.322 47.8254 164.191 47.8066 164.053 47.7815C163.928 47.769 163.778 47.7565 163.603 47.744C163.44 47.7315 163.252 47.7252 163.039 47.7252C162.401 47.7252 161.906 47.8942 161.556 48.2322C161.218 48.5577 161.049 49.0209 161.049 49.6218V55.5555H158.533V45.6033ZM168.068 55.6682C167.166 55.6682 166.453 55.4178 165.927 54.9171C165.414 54.4164 165.157 53.6778 165.157 52.7013C165.157 51.6998 165.451 50.9425 166.04 50.4292C166.628 49.9034 167.511 49.6405 168.687 49.6405H170.753V49.0584C170.753 48.4951 170.634 48.1008 170.396 47.8754C170.171 47.6376 169.783 47.5187 169.232 47.5187C168.706 47.5187 168.337 47.6063 168.124 47.7815C167.924 47.9568 167.811 48.2009 167.786 48.5139H165.589C165.614 47.5374 165.908 46.7801 166.472 46.2418C167.048 45.7035 167.986 45.4343 169.288 45.4343C170.653 45.4343 171.636 45.7222 172.236 46.2981C172.837 46.8739 173.138 47.7878 173.138 49.0397V55.5555H170.941V53.997C170.816 54.2223 170.672 54.4414 170.509 54.6542C170.346 54.8545 170.152 55.0298 169.927 55.18C169.701 55.3302 169.439 55.4491 169.138 55.5368C168.838 55.6244 168.481 55.6682 168.068 55.6682ZM168.838 53.6402C169.451 53.6402 169.921 53.4712 170.246 53.1332C170.584 52.7952 170.753 52.307 170.753 51.6685V51.3305H168.969C168.443 51.3305 168.074 51.4369 167.861 51.6498C167.661 51.8501 167.561 52.1317 167.561 52.4948C167.561 53.2584 167.986 53.6402 168.838 53.6402ZM174.003 45.6033H176.782L179.036 52.4572L181.045 45.6033H183.73L180.331 55.5555H177.778L174.003 45.6033ZM185.219 45.6033H187.735V55.5555H185.219V45.6033ZM186.477 44.8522C186.064 44.8522 185.707 44.7082 185.407 44.4203C185.119 44.1199 184.975 43.7631 184.975 43.35C184.975 42.9369 185.119 42.5864 185.407 42.2984C185.707 41.998 186.064 41.8478 186.477 41.8478C186.89 41.8478 187.241 41.998 187.528 42.2984C187.829 42.5864 187.979 42.9369 187.979 43.35C187.979 43.7631 187.829 44.1199 187.528 44.4203C187.241 44.7082 186.89 44.8522 186.477 44.8522ZM194.256 55.5555C193.618 55.5555 193.079 55.4992 192.641 55.3865C192.203 55.2614 191.853 55.0673 191.59 54.8044C191.327 54.5415 191.133 54.1973 191.008 53.7717C190.895 53.3335 190.839 52.7952 190.839 52.1568V47.6877H189.487V45.6033H190.839V43.35H193.355V45.6033H195.308V47.6877H193.355V52.1568C193.355 52.67 193.442 53.0205 193.618 53.2083C193.793 53.3836 194.081 53.4712 194.481 53.4712H195.308V55.5555H194.256ZM200.854 55.7245C200.215 55.7245 199.633 55.6244 199.107 55.4241C198.594 55.2238 198.156 54.9296 197.793 54.5415C197.43 54.1409 197.148 53.6527 196.948 53.0769C196.748 52.501 196.647 51.8438 196.647 51.1052V49.8659C196.647 48.4513 197.017 47.3622 197.755 46.5985C198.506 45.8224 199.508 45.4343 200.76 45.4343C202.012 45.4343 203.007 45.8224 203.745 46.5985C204.497 47.3622 204.872 48.4575 204.872 49.8847V51.2554H199.182C199.195 52.1818 199.345 52.8202 199.633 53.1708C199.934 53.5213 200.34 53.6965 200.854 53.6965C201.267 53.6965 201.58 53.5964 201.793 53.3961C202.005 53.1833 202.143 52.9329 202.206 52.645H204.684C204.547 53.5714 204.159 54.3162 203.52 54.8795C202.882 55.4429 201.993 55.7245 200.854 55.7245ZM200.835 47.4623C200.322 47.4623 199.927 47.6125 199.652 47.913C199.376 48.2009 199.22 48.7329 199.182 49.5091H202.487C202.45 48.7329 202.293 48.2009 202.018 47.913C201.742 47.6125 201.348 47.4623 200.835 47.4623ZM210.609 55.7245C209.971 55.7245 209.389 55.6244 208.863 55.4241C208.35 55.2238 207.912 54.9296 207.549 54.5415C207.185 54.1409 206.904 53.6527 206.704 53.0769C206.503 52.501 206.403 51.8438 206.403 51.1052V49.8659C206.403 48.4513 206.772 47.3622 207.511 46.5985C208.262 45.8224 209.264 45.4343 210.515 45.4343C211.767 45.4343 212.762 45.8224 213.501 46.5985C214.252 47.3622 214.628 48.4575 214.628 49.8847V51.2554H208.938C208.951 52.1818 209.101 52.8202 209.389 53.1708C209.689 53.5213 210.096 53.6965 210.609 53.6965C211.022 53.6965 211.335 53.5964 211.548 53.3961C211.761 53.1833 211.899 52.9329 211.961 52.645H214.44C214.302 53.5714 213.914 54.3162 213.276 54.8795C212.637 55.4429 211.748 55.7245 210.609 55.7245ZM210.591 47.4623C210.077 47.4623 209.683 47.6125 209.408 47.913C209.132 48.2009 208.976 48.7329 208.938 49.5091H212.243C212.205 48.7329 212.049 48.2009 211.774 47.913C211.498 47.6125 211.104 47.4623 210.591 47.4623ZM225.059 55.7245C224.421 55.7245 223.839 55.6244 223.313 55.4241C222.8 55.2238 222.362 54.9296 221.999 54.5415C221.636 54.1409 221.354 53.6527 221.154 53.0769C220.953 52.501 220.853 51.8438 220.853 51.1052V49.8659C220.853 48.4513 221.222 47.3622 221.961 46.5985C222.712 45.8224 223.714 45.4343 224.965 45.4343C226.217 45.4343 227.213 45.8224 227.951 46.5985C228.702 47.3622 229.078 48.4575 229.078 49.8847V51.2554H223.388C223.401 52.1818 223.551 52.8202 223.839 53.1708C224.139 53.5213 224.546 53.6965 225.059 53.6965C225.472 53.6965 225.785 53.5964 225.998 53.3961C226.211 53.1833 226.349 52.9329 226.411 52.645H228.89C228.752 53.5714 228.364 54.3162 227.726 54.8795C227.087 55.4429 226.199 55.7245 225.059 55.7245ZM225.041 47.4623C224.527 47.4623 224.133 47.6125 223.858 47.913C223.582 48.2009 223.426 48.7329 223.388 49.5091H226.693C226.655 48.7329 226.499 48.2009 226.224 47.913C225.948 47.6125 225.554 47.4623 225.041 47.4623ZM230.947 45.6033H233.294V47.1619C233.519 46.6486 233.876 46.2355 234.364 45.9225C234.853 45.5971 235.41 45.4343 236.036 45.4343C237.037 45.4343 237.819 45.7473 238.383 46.3732C238.959 46.9866 239.247 47.938 239.247 49.2274V55.5555H236.712V49.6218C236.712 48.8957 236.574 48.3762 236.298 48.0632C236.036 47.7502 235.666 47.5938 235.191 47.5938C234.665 47.5938 234.245 47.7628 233.932 48.1008C233.632 48.4388 233.482 48.9458 233.482 49.6218V55.5555H230.947V45.6033ZM245.4 55.5555C244.761 55.5555 244.223 55.4992 243.785 55.3865C243.347 55.2614 242.996 55.0673 242.733 54.8044C242.47 54.5415 242.276 54.1973 242.151 53.7717C242.039 53.3335 241.982 52.7952 241.982 52.1568V47.6877H240.63V45.6033H241.982V43.35H244.498V45.6033H246.451V47.6877H244.498V52.1568C244.498 52.67 244.586 53.0205 244.761 53.2083C244.937 53.3836 245.225 53.4712 245.625 53.4712H246.451V55.5555H245.4ZM251.997 55.7245C251.359 55.7245 250.777 55.6244 250.251 55.4241C249.738 55.2238 249.3 54.9296 248.937 54.5415C248.574 54.1409 248.292 53.6527 248.092 53.0769C247.891 52.501 247.791 51.8438 247.791 51.1052V49.8659C247.791 48.4513 248.161 47.3622 248.899 46.5985C249.65 45.8224 250.652 45.4343 251.904 45.4343C253.155 45.4343 254.151 45.8224 254.889 46.5985C255.64 47.3622 256.016 48.4575 256.016 49.8847V51.2554H250.326C250.339 52.1818 250.489 52.8202 250.777 53.1708C251.077 53.5213 251.484 53.6965 251.997 53.6965C252.411 53.6965 252.724 53.5964 252.936 53.3961C253.149 53.1833 253.287 52.9329 253.349 52.645H255.828C255.69 53.5714 255.302 54.3162 254.664 54.8795C254.025 55.4429 253.137 55.7245 251.997 55.7245ZM251.979 47.4623C251.465 47.4623 251.071 47.6125 250.796 47.913C250.52 48.2009 250.364 48.7329 250.326 49.5091H253.631C253.594 48.7329 253.437 48.2009 253.162 47.913C252.886 47.6125 252.492 47.4623 251.979 47.4623ZM257.941 45.6033H260.27V47.1619C260.507 46.6486 260.871 46.2355 261.359 45.9225C261.847 45.5971 262.404 45.4343 263.03 45.4343C263.155 45.4343 263.268 45.4406 263.368 45.4531C263.468 45.4656 263.556 45.4781 263.631 45.4907C263.718 45.5032 263.794 45.5157 263.856 45.5282V47.8379C263.731 47.8254 263.6 47.8066 263.462 47.7815C263.337 47.769 263.186 47.7565 263.011 47.744C262.848 47.7315 262.661 47.7252 262.448 47.7252C261.809 47.7252 261.315 47.8942 260.964 48.2322C260.626 48.5577 260.457 49.0209 260.457 49.6218V55.5555H257.941V45.6033ZM265.202 45.6033H267.549V47.1619C267.799 46.6611 268.137 46.2605 268.563 45.9601C269.001 45.6471 269.577 45.4907 270.29 45.4907C271.367 45.4907 272.212 45.8349 272.825 46.5234C273.439 47.2119 273.745 48.3261 273.745 49.8659V51.1052C273.745 51.9314 273.664 52.6387 273.501 53.2271C273.351 53.8029 273.126 54.2787 272.825 54.6542C272.525 55.0298 272.162 55.3052 271.736 55.4804C271.311 55.6432 270.829 55.7245 270.29 55.7245C269.677 55.7245 269.157 55.5868 268.732 55.3114C268.306 55.0235 267.974 54.6417 267.737 54.166V59.3111H265.202V45.6033ZM269.502 53.5651C270.027 53.5651 270.441 53.3836 270.741 53.0205C271.054 52.645 271.21 52.0065 271.21 51.1052V49.8659C271.21 49.0772 271.054 48.5139 270.741 48.1759C270.441 47.8254 270.027 47.6501 269.502 47.6501C268.938 47.6501 268.5 47.8254 268.187 48.1759C267.887 48.5139 267.737 49.0772 267.737 49.8659V51.1052C267.737 52.0065 267.887 52.645 268.187 53.0205C268.5 53.3836 268.938 53.5651 269.502 53.5651ZM275.674 45.6033H278.002V47.1619C278.24 46.6486 278.603 46.2355 279.091 45.9225C279.579 45.5971 280.137 45.4343 280.762 45.4343C280.888 45.4343 281 45.4406 281.1 45.4531C281.201 45.4656 281.288 45.4781 281.363 45.4907C281.451 45.5032 281.526 45.5157 281.589 45.5282V47.8379C281.464 47.8254 281.332 47.8066 281.194 47.7815C281.069 47.769 280.919 47.7565 280.744 47.744C280.581 47.7315 280.393 47.7252 280.18 47.7252C279.542 47.7252 279.047 47.8942 278.697 48.2322C278.359 48.5577 278.19 49.0209 278.19 49.6218V55.5555H275.674V45.6033ZM283.197 45.6033H285.713V55.5555H283.197V45.6033ZM284.455 44.8522C284.042 44.8522 283.685 44.7082 283.385 44.4203C283.097 44.1199 282.953 43.7631 282.953 43.35C282.953 42.9369 283.097 42.5864 283.385 42.2984C283.685 41.998 284.042 41.8478 284.455 41.8478C284.868 41.8478 285.219 41.998 285.507 42.2984C285.807 42.5864 285.957 42.9369 285.957 43.35C285.957 43.7631 285.807 44.1199 285.507 44.4203C285.219 44.7082 284.868 44.8522 284.455 44.8522ZM291.784 55.7245C291.083 55.7245 290.482 55.6494 289.981 55.4992C289.493 55.349 289.086 55.1424 288.76 54.8795C288.447 54.6041 288.21 54.2787 288.047 53.9031C287.884 53.515 287.79 53.0957 287.765 52.645H290.244C290.294 52.9579 290.425 53.2146 290.638 53.4149C290.851 53.6027 291.233 53.6965 291.784 53.6965C292.384 53.6965 292.791 53.6152 293.004 53.4524C293.229 53.2772 293.342 53.0518 293.342 52.7764C293.342 52.6387 293.323 52.5135 293.286 52.4009C293.248 52.2882 293.167 52.1818 293.042 52.0817C292.916 51.9815 292.741 51.8876 292.516 51.8C292.291 51.7124 291.984 51.631 291.596 51.5559C290.319 51.3055 289.393 50.9487 288.817 50.4855C288.253 50.0098 287.972 49.3464 287.972 48.4951C287.972 47.5812 288.285 46.8427 288.911 46.2793C289.536 45.716 290.494 45.4343 291.784 45.4343C293.06 45.4343 293.999 45.716 294.6 46.2793C295.214 46.8427 295.545 47.5812 295.595 48.4951H293.117C293.067 48.1571 292.948 47.9005 292.76 47.7252C292.585 47.5499 292.259 47.4623 291.784 47.4623C291.283 47.4623 290.932 47.5437 290.732 47.7064C290.544 47.8567 290.45 48.0757 290.45 48.3637C290.45 48.6265 290.557 48.8519 290.77 49.0397C290.995 49.2149 291.446 49.3651 292.122 49.4903C292.798 49.6155 293.367 49.7657 293.83 49.941C294.306 50.1162 294.688 50.3291 294.976 50.5794C295.276 50.8298 295.489 51.124 295.614 51.462C295.739 51.8 295.802 52.1943 295.802 52.645C295.802 53.5588 295.477 54.3037 294.826 54.8795C294.187 55.4429 293.173 55.7245 291.784 55.7245ZM301.454 55.7245C300.816 55.7245 300.234 55.6244 299.708 55.4241C299.195 55.2238 298.756 54.9296 298.393 54.5415C298.03 54.1409 297.749 53.6527 297.548 53.0769C297.348 52.501 297.248 51.8438 297.248 51.1052V49.8659C297.248 48.4513 297.617 47.3622 298.356 46.5985C299.107 45.8224 300.108 45.4343 301.36 45.4343C302.612 45.4343 303.607 45.8224 304.346 46.5985C305.097 47.3622 305.473 48.4575 305.473 49.8847V51.2554H299.783C299.795 52.1818 299.946 52.8202 300.234 53.1708C300.534 53.5213 300.941 53.6965 301.454 53.6965C301.867 53.6965 302.18 53.5964 302.393 53.3961C302.606 53.1833 302.744 52.9329 302.806 52.645H305.285C305.147 53.5714 304.759 54.3162 304.121 54.8795C303.482 55.4429 302.593 55.7245 301.454 55.7245ZM301.435 47.4623C300.922 47.4623 300.528 47.6125 300.252 47.913C299.977 48.2009 299.82 48.7329 299.783 49.5091H303.088C303.05 48.7329 302.894 48.2009 302.618 47.913C302.343 47.6125 301.949 47.4623 301.435 47.4623ZM311.041 45.6033H313.82L316.073 52.4572L318.082 45.6033H320.768L317.369 55.5555H314.815L311.041 45.6033ZM325.458 55.7245C324.82 55.7245 324.238 55.6244 323.712 55.4241C323.199 55.2238 322.76 54.9296 322.397 54.5415C322.034 54.1409 321.753 53.6527 321.552 53.0769C321.352 52.501 321.252 51.8438 321.252 51.1052V49.8659C321.252 48.4513 321.621 47.3622 322.36 46.5985C323.111 45.8224 324.112 45.4343 325.364 45.4343C326.616 45.4343 327.611 45.8224 328.35 46.5985C329.101 47.3622 329.477 48.4575 329.477 49.8847V51.2554H323.787C323.799 52.1818 323.95 52.8202 324.238 53.1708C324.538 53.5213 324.945 53.6965 325.458 53.6965C325.871 53.6965 326.184 53.5964 326.397 53.3961C326.61 53.1833 326.748 52.9329 326.81 52.645H329.289C329.151 53.5714 328.763 54.3162 328.125 54.8795C327.486 55.4429 326.597 55.7245 325.458 55.7245ZM325.439 47.4623C324.926 47.4623 324.532 47.6125 324.256 47.913C323.981 48.2009 323.824 48.7329 323.787 49.5091H327.092C327.054 48.7329 326.898 48.2009 326.622 47.913C326.347 47.6125 325.953 47.4623 325.439 47.4623ZM331.402 45.6033H333.73V47.1619C333.968 46.6486 334.331 46.2355 334.819 45.9225C335.308 45.5971 335.865 45.4343 336.491 45.4343C336.616 45.4343 336.729 45.4406 336.829 45.4531C336.929 45.4656 337.016 45.4781 337.092 45.4907C337.179 45.5032 337.254 45.5157 337.317 45.5282V47.8379C337.192 47.8254 337.06 47.8066 336.923 47.7815C336.797 47.769 336.647 47.7565 336.472 47.744C336.309 47.7315 336.121 47.7252 335.909 47.7252C335.27 47.7252 334.776 47.8942 334.425 48.2322C334.087 48.5577 333.918 49.0209 333.918 49.6218V55.5555H331.402V45.6033ZM342.249 55.7245C341.548 55.7245 340.947 55.6494 340.446 55.4992C339.958 55.349 339.551 55.1424 339.226 54.8795C338.913 54.6041 338.675 54.2787 338.512 53.9031C338.349 53.515 338.255 53.0957 338.23 52.645H340.709C340.759 52.9579 340.891 53.2146 341.103 53.4149C341.316 53.6027 341.698 53.6965 342.249 53.6965C342.85 53.6965 343.257 53.6152 343.469 53.4524C343.695 53.2772 343.807 53.0518 343.807 52.7764C343.807 52.6387 343.789 52.5135 343.751 52.4009C343.714 52.2882 343.632 52.1818 343.507 52.0817C343.382 51.9815 343.207 51.8876 342.981 51.8C342.756 51.7124 342.449 51.631 342.061 51.5559C340.784 51.3055 339.858 50.9487 339.282 50.4855C338.719 50.0098 338.437 49.3464 338.437 48.4951C338.437 47.5812 338.75 46.8427 339.376 46.2793C340.002 45.716 340.959 45.4343 342.249 45.4343C343.526 45.4343 344.465 45.716 345.066 46.2793C345.679 46.8427 346.011 47.5812 346.061 48.4951H343.582C343.532 48.1571 343.413 47.9005 343.225 47.7252C343.05 47.5499 342.725 47.4623 342.249 47.4623C341.748 47.4623 341.398 47.5437 341.197 47.7064C341.01 47.8567 340.916 48.0757 340.916 48.3637C340.916 48.6265 341.022 48.8519 341.235 49.0397C341.46 49.2149 341.911 49.3651 342.587 49.4903C343.263 49.6155 343.832 49.7657 344.296 49.941C344.771 50.1162 345.153 50.3291 345.441 50.5794C345.742 50.8298 345.954 51.124 346.08 51.462C346.205 51.8 346.267 52.1943 346.267 52.645C346.267 53.5588 345.942 54.3037 345.291 54.8795C344.652 55.4429 343.638 55.7245 342.249 55.7245ZM348.314 45.6033H350.83V55.5555H348.314V45.6033ZM349.572 44.8522C349.159 44.8522 348.802 44.7082 348.502 44.4203C348.214 44.1199 348.07 43.7631 348.07 43.35C348.07 42.9369 348.214 42.5864 348.502 42.2984C348.802 41.998 349.159 41.8478 349.572 41.8478C349.985 41.8478 350.336 41.998 350.624 42.2984C350.924 42.5864 351.074 42.9369 351.074 43.35C351.074 43.7631 350.924 44.1199 350.624 44.4203C350.336 44.7082 349.985 44.8522 349.572 44.8522ZM357.276 55.7245C355.949 55.7245 354.898 55.3302 354.122 54.5415C353.358 53.7404 352.976 52.5949 352.976 51.1052V49.8659C352.976 49.1774 353.076 48.5577 353.277 48.0069C353.477 47.4561 353.759 46.9929 354.122 46.6173C354.497 46.2292 354.948 45.9351 355.474 45.7348C356.012 45.5345 356.613 45.4343 357.276 45.4343C357.94 45.4343 358.534 45.5345 359.06 45.7348C359.598 45.9351 360.049 46.2292 360.412 46.6173C360.788 46.9929 361.076 47.4561 361.276 48.0069C361.476 48.5577 361.576 49.1774 361.576 49.8659V51.1052C361.576 52.5949 361.188 53.7404 360.412 54.5415C359.648 55.3302 358.603 55.7245 357.276 55.7245ZM357.276 53.5651C357.84 53.5651 358.271 53.3836 358.572 53.0205C358.885 52.645 359.041 52.0065 359.041 51.1052V49.8659C359.041 49.0522 358.885 48.4701 358.572 48.1195C358.271 47.769 357.84 47.5938 357.276 47.5938C356.713 47.5938 356.275 47.769 355.962 48.1195C355.661 48.4701 355.511 49.0522 355.511 49.8659V51.1052C355.511 52.0065 355.661 52.645 355.962 53.0205C356.275 53.3836 356.713 53.5651 357.276 53.5651ZM363.455 45.6033H365.802V47.1619C366.027 46.6486 366.384 46.2355 366.872 45.9225C367.361 45.5971 367.918 45.4343 368.544 45.4343C369.545 45.4343 370.327 45.7473 370.891 46.3732C371.467 46.9866 371.755 47.938 371.755 49.2274V55.5555H369.22V49.6218C369.22 48.8957 369.082 48.3762 368.806 48.0632C368.544 47.7502 368.174 47.5938 367.699 47.5938C367.173 47.5938 366.753 47.7628 366.44 48.1008C366.14 48.4388 365.99 48.9458 365.99 49.6218V55.5555H363.455V45.6033Z" fill="#100C27"/>
<path fill-rule="evenodd" clip-rule="evenodd" d="M156.972 78.6665C157.353 78.6665 157.7 78.8826 157.869 79.2239L160.726 85.013L167.117 85.947C167.493 86.0021 167.806 86.2661 167.923 86.6281C168.041 86.9901 167.943 87.3873 167.67 87.6529L163.047 92.1559L164.138 98.5175C164.202 98.8926 164.048 99.2718 163.74 99.4956C163.432 99.7193 163.024 99.7488 162.687 99.5716L156.972 96.5664L151.258 99.5716C150.921 99.7488 150.512 99.7193 150.204 99.4956C149.896 99.2718 149.742 98.8926 149.807 98.5175L150.898 92.1559L146.274 87.6529C146.002 87.3873 145.904 86.9901 146.021 86.6281C146.138 86.2661 146.451 86.0021 146.828 85.947L153.218 85.013L156.075 79.2239C156.244 78.8826 156.592 78.6665 156.972 78.6665ZM156.972 81.9258L154.779 86.3691C154.633 86.664 154.352 86.8684 154.027 86.916L149.121 87.6331L152.67 91.0901C152.906 91.3199 153.013 91.651 152.958 91.9755L152.12 96.8582L156.507 94.5514C156.798 94.3982 157.146 94.3982 157.438 94.5514L161.824 96.8582L160.987 91.9755C160.931 91.651 161.039 91.3199 161.274 91.0901L164.824 87.6331L159.918 86.916C159.592 86.8684 159.311 86.664 159.165 86.3691L156.972 81.9258Z" fill="#876FEC"/>
<rect x="144.972" y="112.667" width="177" height="9" rx="2.88889" fill="#D3D5DC"/>
<rect x="144.972" y="132.667" width="216" height="8" rx="2.88889" fill="#D3D5DC"/>
<rect x="144.972" y="151.667" width="177" height="9" rx="2.88889" fill="#D3D5DC"/>
<rect x="144.972" y="186.667" width="61.3889" height="20" rx="4" fill="#876FEC"/>
<rect x="217.194" y="186.667" width="61.3889" height="20" rx="4" fill="#D3D5DC"/>
<defs>
<filter id="filter0_dd_902_13699" x="125.472" y="22.5556" width="317.056" height="212.333" filterUnits="userSpaceOnUse" color-interpolation-filters="sRGB">
<feFlood flood-opacity="0" result="BackgroundImageFix"/>
<feColorMatrix in="SourceAlpha" type="matrix" values="0 0 0 0 0 0 0 0 0 0 0 0 0 0 0 0 0 0 127 0" result="hardAlpha"/>
<feMorphology radius="2.16667" operator="erode" in="SourceAlpha" result="effect1_dropShadow_902_13699"/>
<feOffset dy="7.22222"/>
<feGaussianBlur stdDeviation="5.41667"/>
<feComposite in2="hardAlpha" operator="out"/>
<feColorMatrix type="matrix" values="0 0 0 0 0.0666667 0 0 0 0 0.0941176 0 0 0 0 0.152941 0 0 0 0.1 0"/>
<feBlend mode="normal" in2="BackgroundImageFix" result="effect1_dropShadow_902_13699"/>
<feColorMatrix in="SourceAlpha" type="matrix" values="0 0 0 0 0 0 0 0 0 0 0 0 0 0 0 0 0 0 127 0" result="hardAlpha"/>
<feMorphology radius="1.44444" operator="erode" in="SourceAlpha" result="effect2_dropShadow_902_13699"/>
<feOffset dy="2.88889"/>
<feGaussianBlur stdDeviation="2.16667"/>
<feComposite in2="hardAlpha" operator="out"/>
<feColorMatrix type="matrix" values="0 0 0 0 0.0666667 0 0 0 0 0.0941176 0 0 0 0 0.152941 0 0 0 0.06 0"/>
<feBlend mode="normal" in2="effect1_dropShadow_902_13699" result="effect2_dropShadow_902_13699"/>
<feBlend mode="normal" in="SourceGraphic" in2="effect2_dropShadow_902_13699" result="shape"/>
</filter>
</defs>
</svg>
