<svg width="568" height="260" viewBox="0 0 568 260" fill="none" xmlns="http://www.w3.org/2000/svg">
<g filter="url(#filter0_dd_2365_2075)">
<path d="M428.083 24.5H139.917C136.726 24.5 134.139 27.0868 134.139 30.2778V213.722C134.139 216.913 136.726 219.5 139.917 219.5H428.083C431.274 219.5 433.861 216.913 433.861 213.722V30.2778C433.861 27.0868 431.274 24.5 428.083 24.5Z" fill="white"/>
<path d="M428.083 24.8613H139.917C136.925 24.8613 134.5 27.2865 134.5 30.278V213.723C134.5 216.714 136.925 219.139 139.917 219.139H428.083C431.075 219.139 433.5 216.714 433.5 213.723V30.278C433.5 27.2865 431.075 24.8613 428.083 24.8613Z" stroke="#D3D5DC" stroke-width="0.722222"/>
</g>
<path d="M151.169 56.2244C149.554 56.2244 148.277 55.7174 147.338 54.7034C146.412 53.6894 145.949 52.1371 145.949 50.0466V48.5256C145.949 47.5741 146.068 46.7417 146.305 46.0281C146.543 45.302 146.888 44.6949 147.338 44.2067C147.789 43.7184 148.333 43.3554 148.972 43.1176C149.623 42.8672 150.355 42.742 151.169 42.742C151.945 42.742 152.627 42.8484 153.216 43.0612C153.804 43.2615 154.305 43.5494 154.718 43.925C155.143 44.3006 155.481 44.7575 155.732 45.2958C155.995 45.8216 156.183 46.4099 156.295 47.0609H153.572C153.41 46.435 153.147 45.9467 152.784 45.5962C152.433 45.2332 151.895 45.0517 151.169 45.0517C150.38 45.0517 149.761 45.3208 149.31 45.8591C148.859 46.3849 148.634 47.28 148.634 48.5443V50.0466C148.634 50.7726 148.69 51.386 148.803 51.8868C148.928 52.375 149.097 52.7693 149.31 53.0698C149.523 53.3702 149.786 53.5893 150.099 53.727C150.411 53.8522 150.768 53.9148 151.169 53.9148C152.033 53.9148 152.671 53.702 153.084 53.2763C153.497 52.8382 153.704 52.2248 153.704 51.4361H151.169V49.333H156.389V50.1968C156.389 51.2358 156.264 52.1371 156.014 52.9008C155.776 53.6519 155.431 54.2778 154.981 54.7786C154.53 55.2668 153.979 55.6298 153.328 55.8677C152.69 56.1055 151.97 56.2244 151.169 56.2244ZM158.533 46.1032H160.861V47.6618C161.099 47.1485 161.462 46.7354 161.95 46.4224C162.438 46.097 162.996 45.9342 163.621 45.9342C163.747 45.9342 163.859 45.9405 163.959 45.953C164.06 45.9655 164.147 45.978 164.222 45.9906C164.31 46.0031 164.385 46.0156 164.448 46.0281V48.3378C164.322 48.3253 164.191 48.3065 164.053 48.2814C163.928 48.2689 163.778 48.2564 163.603 48.2439C163.44 48.2314 163.252 48.2251 163.039 48.2251C162.401 48.2251 161.906 48.3941 161.556 48.7321C161.218 49.0576 161.049 49.5208 161.049 50.1217V56.0554H158.533V46.1032ZM168.068 56.1681C167.166 56.1681 166.453 55.9177 165.927 55.417C165.414 54.9163 165.157 54.1777 165.157 53.2012C165.157 52.1997 165.451 51.4424 166.04 50.9291C166.628 50.4033 167.511 50.1404 168.687 50.1404H170.753V49.5583C170.753 48.995 170.634 48.6007 170.396 48.3753C170.171 48.1375 169.783 48.0186 169.232 48.0186C168.706 48.0186 168.337 48.1062 168.124 48.2814C167.924 48.4567 167.811 48.7008 167.786 49.0138H165.589C165.614 48.0373 165.908 47.28 166.472 46.7417C167.048 46.2034 167.986 45.9342 169.288 45.9342C170.653 45.9342 171.636 46.2221 172.236 46.798C172.837 47.3738 173.138 48.2877 173.138 49.5396V56.0554H170.941V54.4969C170.816 54.7222 170.672 54.9413 170.509 55.1541C170.346 55.3544 170.152 55.5297 169.927 55.6799C169.701 55.8301 169.439 55.949 169.138 56.0367C168.838 56.1243 168.481 56.1681 168.068 56.1681ZM168.838 54.1401C169.451 54.1401 169.921 53.9711 170.246 53.6331C170.584 53.2951 170.753 52.8069 170.753 52.1684V51.8304H168.969C168.443 51.8304 168.074 51.9368 167.861 52.1497C167.661 52.35 167.561 52.6316 167.561 52.9947C167.561 53.7583 167.986 54.1401 168.838 54.1401ZM174.003 46.1032H176.782L179.036 52.9571L181.045 46.1032H183.73L180.331 56.0554H177.778L174.003 46.1032ZM185.219 46.1032H187.735V56.0554H185.219V46.1032ZM186.477 45.3521C186.064 45.3521 185.707 45.2081 185.407 44.9202C185.119 44.6198 184.975 44.263 184.975 43.8499C184.975 43.4368 185.119 43.0863 185.407 42.7983C185.707 42.4979 186.064 42.3477 186.477 42.3477C186.89 42.3477 187.241 42.4979 187.528 42.7983C187.829 43.0863 187.979 43.4368 187.979 43.8499C187.979 44.263 187.829 44.6198 187.528 44.9202C187.241 45.2081 186.89 45.3521 186.477 45.3521ZM194.256 56.0554C193.618 56.0554 193.079 55.9991 192.641 55.8864C192.203 55.7613 191.853 55.5672 191.59 55.3043C191.327 55.0414 191.133 54.6972 191.008 54.2716C190.895 53.8334 190.839 53.2951 190.839 52.6567V48.1876H189.487V46.1032H190.839V43.8499H193.355V46.1032H195.308V48.1876H193.355V52.6567C193.355 53.1699 193.442 53.5204 193.618 53.7082C193.793 53.8835 194.081 53.9711 194.481 53.9711H195.308V56.0554H194.256ZM200.854 56.2244C200.215 56.2244 199.633 56.1243 199.107 55.924C198.594 55.7237 198.156 55.4295 197.793 55.0414C197.43 54.6408 197.148 54.1526 196.948 53.5768C196.748 53.0009 196.647 52.3437 196.647 51.6051V50.3658C196.647 48.9512 197.017 47.8621 197.755 47.0984C198.506 46.3223 199.508 45.9342 200.76 45.9342C202.012 45.9342 203.007 46.3223 203.745 47.0984C204.497 47.8621 204.872 48.9574 204.872 50.3846V51.7553H199.182C199.195 52.6817 199.345 53.3201 199.633 53.6707C199.934 54.0212 200.34 54.1964 200.854 54.1964C201.267 54.1964 201.58 54.0963 201.793 53.896C202.005 53.6832 202.143 53.4328 202.206 53.1449H204.684C204.547 54.0713 204.159 54.8161 203.52 55.3794C202.882 55.9428 201.993 56.2244 200.854 56.2244ZM200.835 47.9622C200.322 47.9622 199.927 48.1124 199.652 48.4129C199.376 48.7008 199.22 49.2328 199.182 50.009H202.487C202.45 49.2328 202.293 48.7008 202.018 48.4129C201.742 48.1124 201.348 47.9622 200.835 47.9622ZM210.609 56.2244C209.971 56.2244 209.389 56.1243 208.863 55.924C208.35 55.7237 207.912 55.4295 207.549 55.0414C207.185 54.6408 206.904 54.1526 206.704 53.5768C206.503 53.0009 206.403 52.3437 206.403 51.6051V50.3658C206.403 48.9512 206.772 47.8621 207.511 47.0984C208.262 46.3223 209.264 45.9342 210.515 45.9342C211.767 45.9342 212.762 46.3223 213.501 47.0984C214.252 47.8621 214.628 48.9574 214.628 50.3846V51.7553H208.938C208.951 52.6817 209.101 53.3201 209.389 53.6707C209.689 54.0212 210.096 54.1964 210.609 54.1964C211.022 54.1964 211.335 54.0963 211.548 53.896C211.761 53.6832 211.899 53.4328 211.961 53.1449H214.44C214.302 54.0713 213.914 54.8161 213.276 55.3794C212.637 55.9428 211.748 56.2244 210.609 56.2244ZM210.591 47.9622C210.077 47.9622 209.683 48.1124 209.408 48.4129C209.132 48.7008 208.976 49.2328 208.938 50.009H212.243C212.205 49.2328 212.049 48.7008 211.774 48.4129C211.498 48.1124 211.104 47.9622 210.591 47.9622ZM225.059 56.2244C224.421 56.2244 223.839 56.1243 223.313 55.924C222.8 55.7237 222.362 55.4295 221.999 55.0414C221.636 54.6408 221.354 54.1526 221.154 53.5768C220.953 53.0009 220.853 52.3437 220.853 51.6051V50.3658C220.853 48.9512 221.222 47.8621 221.961 47.0984C222.712 46.3223 223.714 45.9342 224.965 45.9342C226.217 45.9342 227.213 46.3223 227.951 47.0984C228.702 47.8621 229.078 48.9574 229.078 50.3846V51.7553H223.388C223.401 52.6817 223.551 53.3201 223.839 53.6707C224.139 54.0212 224.546 54.1964 225.059 54.1964C225.472 54.1964 225.785 54.0963 225.998 53.896C226.211 53.6832 226.349 53.4328 226.411 53.1449H228.89C228.752 54.0713 228.364 54.8161 227.726 55.3794C227.087 55.9428 226.199 56.2244 225.059 56.2244ZM225.041 47.9622C224.527 47.9622 224.133 48.1124 223.858 48.4129C223.582 48.7008 223.426 49.2328 223.388 50.009H226.693C226.655 49.2328 226.499 48.7008 226.224 48.4129C225.948 48.1124 225.554 47.9622 225.041 47.9622ZM230.947 46.1032H233.294V47.6618C233.519 47.1485 233.876 46.7354 234.364 46.4224C234.853 46.097 235.41 45.9342 236.036 45.9342C237.037 45.9342 237.819 46.2472 238.383 46.8731C238.959 47.4865 239.247 48.4379 239.247 49.7273V56.0554H236.712V50.1217C236.712 49.3956 236.574 48.8761 236.298 48.5631C236.036 48.2501 235.666 48.0937 235.191 48.0937C234.665 48.0937 234.245 48.2627 233.932 48.6007C233.632 48.9387 233.482 49.4457 233.482 50.1217V56.0554H230.947V46.1032ZM245.4 56.0554C244.761 56.0554 244.223 55.9991 243.785 55.8864C243.347 55.7613 242.996 55.5672 242.733 55.3043C242.47 55.0414 242.276 54.6972 242.151 54.2716C242.039 53.8334 241.982 53.2951 241.982 52.6567V48.1876H240.63V46.1032H241.982V43.8499H244.498V46.1032H246.451V48.1876H244.498V52.6567C244.498 53.1699 244.586 53.5204 244.761 53.7082C244.937 53.8835 245.225 53.9711 245.625 53.9711H246.451V56.0554H245.4ZM251.997 56.2244C251.359 56.2244 250.777 56.1243 250.251 55.924C249.738 55.7237 249.3 55.4295 248.937 55.0414C248.574 54.6408 248.292 54.1526 248.092 53.5768C247.891 53.0009 247.791 52.3437 247.791 51.6051V50.3658C247.791 48.9512 248.161 47.8621 248.899 47.0984C249.65 46.3223 250.652 45.9342 251.904 45.9342C253.155 45.9342 254.151 46.3223 254.889 47.0984C255.64 47.8621 256.016 48.9574 256.016 50.3846V51.7553H250.326C250.339 52.6817 250.489 53.3201 250.777 53.6707C251.077 54.0212 251.484 54.1964 251.997 54.1964C252.411 54.1964 252.724 54.0963 252.936 53.896C253.149 53.6832 253.287 53.4328 253.349 53.1449H255.828C255.69 54.0713 255.302 54.8161 254.664 55.3794C254.025 55.9428 253.137 56.2244 251.997 56.2244ZM251.979 47.9622C251.465 47.9622 251.071 48.1124 250.796 48.4129C250.52 48.7008 250.364 49.2328 250.326 50.009H253.631C253.594 49.2328 253.437 48.7008 253.162 48.4129C252.886 48.1124 252.492 47.9622 251.979 47.9622ZM257.941 46.1032H260.27V47.6618C260.507 47.1485 260.871 46.7354 261.359 46.4224C261.847 46.097 262.404 45.9342 263.03 45.9342C263.155 45.9342 263.268 45.9405 263.368 45.953C263.468 45.9655 263.556 45.978 263.631 45.9906C263.718 46.0031 263.794 46.0156 263.856 46.0281V48.3378C263.731 48.3253 263.6 48.3065 263.462 48.2814C263.337 48.2689 263.186 48.2564 263.011 48.2439C262.848 48.2314 262.661 48.2251 262.448 48.2251C261.809 48.2251 261.315 48.3941 260.964 48.7321C260.626 49.0576 260.457 49.5208 260.457 50.1217V56.0554H257.941V46.1032ZM265.202 46.1032H267.549V47.6618C267.799 47.161 268.137 46.7604 268.563 46.46C269.001 46.147 269.577 45.9906 270.29 45.9906C271.367 45.9906 272.212 46.3348 272.825 47.0233C273.439 47.7118 273.745 48.826 273.745 50.3658V51.6051C273.745 52.4313 273.664 53.1386 273.501 53.727C273.351 54.3028 273.126 54.7786 272.825 55.1541C272.525 55.5297 272.162 55.8051 271.736 55.9803C271.311 56.1431 270.829 56.2244 270.29 56.2244C269.677 56.2244 269.157 56.0867 268.732 55.8113C268.306 55.5234 267.974 55.1416 267.737 54.6659V59.811H265.202V46.1032ZM269.502 54.065C270.027 54.065 270.441 53.8835 270.741 53.5204C271.054 53.1449 271.21 52.5064 271.21 51.6051V50.3658C271.21 49.5771 271.054 49.0138 270.741 48.6758C270.441 48.3253 270.027 48.15 269.502 48.15C268.938 48.15 268.5 48.3253 268.187 48.6758C267.887 49.0138 267.737 49.5771 267.737 50.3658V51.6051C267.737 52.5064 267.887 53.1449 268.187 53.5204C268.5 53.8835 268.938 54.065 269.502 54.065ZM275.674 46.1032H278.002V47.6618C278.24 47.1485 278.603 46.7354 279.091 46.4224C279.579 46.097 280.137 45.9342 280.762 45.9342C280.888 45.9342 281 45.9405 281.1 45.953C281.201 45.9655 281.288 45.978 281.363 45.9906C281.451 46.0031 281.526 46.0156 281.589 46.0281V48.3378C281.464 48.3253 281.332 48.3065 281.194 48.2814C281.069 48.2689 280.919 48.2564 280.744 48.2439C280.581 48.2314 280.393 48.2251 280.18 48.2251C279.542 48.2251 279.047 48.3941 278.697 48.7321C278.359 49.0576 278.19 49.5208 278.19 50.1217V56.0554H275.674V46.1032ZM283.197 46.1032H285.713V56.0554H283.197V46.1032ZM284.455 45.3521C284.042 45.3521 283.685 45.2081 283.385 44.9202C283.097 44.6198 282.953 44.263 282.953 43.8499C282.953 43.4368 283.097 43.0863 283.385 42.7983C283.685 42.4979 284.042 42.3477 284.455 42.3477C284.868 42.3477 285.219 42.4979 285.507 42.7983C285.807 43.0863 285.957 43.4368 285.957 43.8499C285.957 44.263 285.807 44.6198 285.507 44.9202C285.219 45.2081 284.868 45.3521 284.455 45.3521ZM291.784 56.2244C291.083 56.2244 290.482 56.1493 289.981 55.9991C289.493 55.8489 289.086 55.6423 288.76 55.3794C288.447 55.104 288.21 54.7786 288.047 54.403C287.884 54.0149 287.79 53.5956 287.765 53.1449H290.244C290.294 53.4578 290.425 53.7145 290.638 53.9148C290.851 54.1026 291.233 54.1964 291.784 54.1964C292.384 54.1964 292.791 54.1151 293.004 53.9523C293.229 53.7771 293.342 53.5517 293.342 53.2763C293.342 53.1386 293.323 53.0134 293.286 52.9008C293.248 52.7881 293.167 52.6817 293.042 52.5816C292.916 52.4814 292.741 52.3875 292.516 52.2999C292.291 52.2123 291.984 52.1309 291.596 52.0558C290.319 51.8054 289.393 51.4486 288.817 50.9854C288.253 50.5097 287.972 49.8463 287.972 48.995C287.972 48.0811 288.285 47.3426 288.911 46.7792C289.536 46.2159 290.494 45.9342 291.784 45.9342C293.06 45.9342 293.999 46.2159 294.6 46.7792C295.214 47.3426 295.545 48.0811 295.595 48.995H293.117C293.067 48.657 292.948 48.4004 292.76 48.2251C292.585 48.0498 292.259 47.9622 291.784 47.9622C291.283 47.9622 290.932 48.0436 290.732 48.2063C290.544 48.3566 290.45 48.5756 290.45 48.8636C290.45 49.1264 290.557 49.3518 290.77 49.5396C290.995 49.7148 291.446 49.865 292.122 49.9902C292.798 50.1154 293.367 50.2656 293.83 50.4409C294.306 50.6161 294.688 50.829 294.976 51.0793C295.276 51.3297 295.489 51.6239 295.614 51.9619C295.739 52.2999 295.802 52.6942 295.802 53.1449C295.802 54.0587 295.477 54.8036 294.826 55.3794C294.187 55.9428 293.173 56.2244 291.784 56.2244ZM301.454 56.2244C300.816 56.2244 300.234 56.1243 299.708 55.924C299.195 55.7237 298.756 55.4295 298.393 55.0414C298.03 54.6408 297.749 54.1526 297.548 53.5768C297.348 53.0009 297.248 52.3437 297.248 51.6051V50.3658C297.248 48.9512 297.617 47.8621 298.356 47.0984C299.107 46.3223 300.108 45.9342 301.36 45.9342C302.612 45.9342 303.607 46.3223 304.346 47.0984C305.097 47.8621 305.473 48.9574 305.473 50.3846V51.7553H299.783C299.795 52.6817 299.946 53.3201 300.234 53.6707C300.534 54.0212 300.941 54.1964 301.454 54.1964C301.867 54.1964 302.18 54.0963 302.393 53.896C302.606 53.6832 302.744 53.4328 302.806 53.1449H305.285C305.147 54.0713 304.759 54.8161 304.121 55.3794C303.482 55.9428 302.593 56.2244 301.454 56.2244ZM301.435 47.9622C300.922 47.9622 300.528 48.1124 300.252 48.4129C299.977 48.7008 299.82 49.2328 299.783 50.009H303.088C303.05 49.2328 302.894 48.7008 302.618 48.4129C302.343 48.1124 301.949 47.9622 301.435 47.9622ZM311.041 46.1032H313.82L316.073 52.9571L318.082 46.1032H320.768L317.369 56.0554H314.815L311.041 46.1032ZM325.458 56.2244C324.82 56.2244 324.238 56.1243 323.712 55.924C323.199 55.7237 322.76 55.4295 322.397 55.0414C322.034 54.6408 321.753 54.1526 321.552 53.5768C321.352 53.0009 321.252 52.3437 321.252 51.6051V50.3658C321.252 48.9512 321.621 47.8621 322.36 47.0984C323.111 46.3223 324.112 45.9342 325.364 45.9342C326.616 45.9342 327.611 46.3223 328.35 47.0984C329.101 47.8621 329.477 48.9574 329.477 50.3846V51.7553H323.787C323.799 52.6817 323.95 53.3201 324.238 53.6707C324.538 54.0212 324.945 54.1964 325.458 54.1964C325.871 54.1964 326.184 54.0963 326.397 53.896C326.61 53.6832 326.748 53.4328 326.81 53.1449H329.289C329.151 54.0713 328.763 54.8161 328.125 55.3794C327.486 55.9428 326.597 56.2244 325.458 56.2244ZM325.439 47.9622C324.926 47.9622 324.532 48.1124 324.256 48.4129C323.981 48.7008 323.824 49.2328 323.787 50.009H327.092C327.054 49.2328 326.898 48.7008 326.622 48.4129C326.347 48.1124 325.953 47.9622 325.439 47.9622ZM331.402 46.1032H333.73V47.6618C333.968 47.1485 334.331 46.7354 334.819 46.4224C335.308 46.097 335.865 45.9342 336.491 45.9342C336.616 45.9342 336.729 45.9405 336.829 45.953C336.929 45.9655 337.016 45.978 337.092 45.9906C337.179 46.0031 337.254 46.0156 337.317 46.0281V48.3378C337.192 48.3253 337.06 48.3065 336.923 48.2814C336.797 48.2689 336.647 48.2564 336.472 48.2439C336.309 48.2314 336.121 48.2251 335.909 48.2251C335.27 48.2251 334.776 48.3941 334.425 48.7321C334.087 49.0576 333.918 49.5208 333.918 50.1217V56.0554H331.402V46.1032ZM342.249 56.2244C341.548 56.2244 340.947 56.1493 340.446 55.9991C339.958 55.8489 339.551 55.6423 339.226 55.3794C338.913 55.104 338.675 54.7786 338.512 54.403C338.349 54.0149 338.255 53.5956 338.23 53.1449H340.709C340.759 53.4578 340.891 53.7145 341.103 53.9148C341.316 54.1026 341.698 54.1964 342.249 54.1964C342.85 54.1964 343.257 54.1151 343.469 53.9523C343.695 53.7771 343.807 53.5517 343.807 53.2763C343.807 53.1386 343.789 53.0134 343.751 52.9008C343.714 52.7881 343.632 52.6817 343.507 52.5816C343.382 52.4814 343.207 52.3875 342.981 52.2999C342.756 52.2123 342.449 52.1309 342.061 52.0558C340.784 51.8054 339.858 51.4486 339.282 50.9854C338.719 50.5097 338.437 49.8463 338.437 48.995C338.437 48.0811 338.75 47.3426 339.376 46.7792C340.002 46.2159 340.959 45.9342 342.249 45.9342C343.526 45.9342 344.465 46.2159 345.066 46.7792C345.679 47.3426 346.011 48.0811 346.061 48.995H343.582C343.532 48.657 343.413 48.4004 343.225 48.2251C343.05 48.0498 342.725 47.9622 342.249 47.9622C341.748 47.9622 341.398 48.0436 341.197 48.2063C341.01 48.3566 340.916 48.5756 340.916 48.8636C340.916 49.1264 341.022 49.3518 341.235 49.5396C341.46 49.7148 341.911 49.865 342.587 49.9902C343.263 50.1154 343.832 50.2656 344.296 50.4409C344.771 50.6161 345.153 50.829 345.441 51.0793C345.742 51.3297 345.954 51.6239 346.08 51.9619C346.205 52.2999 346.267 52.6942 346.267 53.1449C346.267 54.0587 345.942 54.8036 345.291 55.3794C344.652 55.9428 343.638 56.2244 342.249 56.2244ZM348.314 46.1032H350.83V56.0554H348.314V46.1032ZM349.572 45.3521C349.159 45.3521 348.802 45.2081 348.502 44.9202C348.214 44.6198 348.07 44.263 348.07 43.8499C348.07 43.4368 348.214 43.0863 348.502 42.7983C348.802 42.4979 349.159 42.3477 349.572 42.3477C349.985 42.3477 350.336 42.4979 350.624 42.7983C350.924 43.0863 351.074 43.4368 351.074 43.8499C351.074 44.263 350.924 44.6198 350.624 44.9202C350.336 45.2081 349.985 45.3521 349.572 45.3521ZM357.276 56.2244C355.949 56.2244 354.898 55.8301 354.122 55.0414C353.358 54.2403 352.976 53.0948 352.976 51.6051V50.3658C352.976 49.6773 353.076 49.0576 353.277 48.5068C353.477 47.956 353.759 47.4928 354.122 47.1172C354.497 46.7291 354.948 46.435 355.474 46.2347C356.012 46.0344 356.613 45.9342 357.276 45.9342C357.94 45.9342 358.534 46.0344 359.06 46.2347C359.598 46.435 360.049 46.7291 360.412 47.1172C360.788 47.4928 361.076 47.956 361.276 48.5068C361.476 49.0576 361.576 49.6773 361.576 50.3658V51.6051C361.576 53.0948 361.188 54.2403 360.412 55.0414C359.648 55.8301 358.603 56.2244 357.276 56.2244ZM357.276 54.065C357.84 54.065 358.271 53.8835 358.572 53.5204C358.885 53.1449 359.041 52.5064 359.041 51.6051V50.3658C359.041 49.5521 358.885 48.97 358.572 48.6194C358.271 48.2689 357.84 48.0937 357.276 48.0937C356.713 48.0937 356.275 48.2689 355.962 48.6194C355.661 48.97 355.511 49.5521 355.511 50.3658V51.6051C355.511 52.5064 355.661 53.1449 355.962 53.5204C356.275 53.8835 356.713 54.065 357.276 54.065ZM363.455 46.1032H365.802V47.6618C366.027 47.1485 366.384 46.7354 366.872 46.4224C367.361 46.097 367.918 45.9342 368.544 45.9342C369.545 45.9342 370.327 46.2472 370.891 46.8731C371.467 47.4865 371.755 48.4379 371.755 49.7273V56.0554H369.22V50.1217C369.22 49.3956 369.082 48.8761 368.806 48.5631C368.544 48.2501 368.174 48.0937 367.699 48.0937C367.173 48.0937 366.753 48.2627 366.44 48.6007C366.14 48.9387 365.99 49.4457 365.99 50.1217V56.0554H363.455V46.1032Z" fill="#100C27"/>
<path fill-rule="evenodd" clip-rule="evenodd" d="M156.972 79.1665C157.353 79.1665 157.7 79.3826 157.869 79.7239L160.726 85.513L167.117 86.447C167.493 86.5021 167.806 86.7661 167.923 87.1281C168.041 87.4901 167.943 87.8873 167.67 88.1529L163.047 92.6559L164.138 99.0175C164.202 99.3926 164.048 99.7718 163.74 99.9956C163.432 100.219 163.024 100.249 162.687 100.072L156.972 97.0664L151.258 100.072C150.921 100.249 150.512 100.219 150.204 99.9956C149.896 99.7718 149.742 99.3926 149.807 99.0175L150.898 92.6559L146.274 88.1529C146.002 87.8873 145.904 87.4901 146.021 87.1281C146.138 86.7661 146.451 86.5021 146.828 86.447L153.218 85.513L156.075 79.7239C156.244 79.3826 156.592 79.1665 156.972 79.1665ZM156.972 82.4258L154.779 86.8691C154.633 87.164 154.352 87.3684 154.027 87.416L149.121 88.1331L152.67 91.5901C152.906 91.8199 153.013 92.151 152.958 92.4755L152.12 97.3582L156.507 95.0514C156.798 94.8982 157.146 94.8982 157.438 95.0514L161.824 97.3582L160.987 92.4755C160.931 92.151 161.039 91.8199 161.274 91.5901L164.824 88.1331L159.918 87.416C159.592 87.3684 159.311 87.164 159.165 86.8691L156.972 82.4258Z" fill="#DA3B00"/>
<path d="M319.083 113.167H147.861C146.265 113.167 144.972 114.46 144.972 116.056V119.278C144.972 120.874 146.265 122.167 147.861 122.167H319.083C320.679 122.167 321.972 120.874 321.972 119.278V116.056C321.972 114.46 320.679 113.167 319.083 113.167Z" fill="#D3D5DC"/>
<path d="M358.083 133.167H147.861C146.265 133.167 144.972 134.46 144.972 136.056V138.278C144.972 139.874 146.265 141.167 147.861 141.167H358.083C359.679 141.167 360.972 139.874 360.972 138.278V136.056C360.972 134.46 359.679 133.167 358.083 133.167Z" fill="#D3D5DC"/>
<path d="M319.083 152.167H147.861C146.265 152.167 144.972 153.46 144.972 155.056V158.278C144.972 159.874 146.265 161.167 147.861 161.167H319.083C320.679 161.167 321.972 159.874 321.972 158.278V155.056C321.972 153.46 320.679 152.167 319.083 152.167Z" fill="#D3D5DC"/>
<path d="M202.361 187.167H148.972C146.763 187.167 144.972 188.958 144.972 191.167V203.167C144.972 205.376 146.763 207.167 148.972 207.167H202.361C204.57 207.167 206.361 205.376 206.361 203.167V191.167C206.361 188.958 204.57 187.167 202.361 187.167Z" fill="#DA3B00"/>
<path d="M274.583 187.167H221.194C218.985 187.167 217.194 188.958 217.194 191.167V203.167C217.194 205.376 218.985 207.167 221.194 207.167H274.583C276.792 207.167 278.583 205.376 278.583 203.167V191.167C278.583 188.958 276.792 187.167 274.583 187.167Z" fill="#D3D5DC"/>
<defs>
<filter id="filter0_dd_2365_2075" x="123.306" y="20.8889" width="321.389" height="216.667" filterUnits="userSpaceOnUse" color-interpolation-filters="sRGB">
<feFlood flood-opacity="0" result="BackgroundImageFix"/>
<feColorMatrix in="SourceAlpha" type="matrix" values="0 0 0 0 0 0 0 0 0 0 0 0 0 0 0 0 0 0 127 0" result="hardAlpha"/>
<feOffset dy="7.22222"/>
<feGaussianBlur stdDeviation="5.41667"/>
<feComposite in2="hardAlpha" operator="out"/>
<feColorMatrix type="matrix" values="0 0 0 0 0.0666667 0 0 0 0 0.0941176 0 0 0 0 0.152941 0 0 0 0.1 0"/>
<feBlend mode="normal" in2="BackgroundImageFix" result="effect1_dropShadow_2365_2075"/>
<feColorMatrix in="SourceAlpha" type="matrix" values="0 0 0 0 0 0 0 0 0 0 0 0 0 0 0 0 0 0 127 0" result="hardAlpha"/>
<feOffset dy="2.88889"/>
<feGaussianBlur stdDeviation="2.16667"/>
<feComposite in2="hardAlpha" operator="out"/>
<feColorMatrix type="matrix" values="0 0 0 0 0.0666667 0 0 0 0 0.0941176 0 0 0 0 0.152941 0 0 0 0.06 0"/>
<feBlend mode="normal" in2="effect1_dropShadow_2365_2075" result="effect2_dropShadow_2365_2075"/>
<feBlend mode="normal" in="SourceGraphic" in2="effect2_dropShadow_2365_2075" result="shape"/>
</filter>
</defs>
</svg>
