<svg width="318" height="213" viewBox="0 0 318 213" fill="none" xmlns="http://www.w3.org/2000/svg">

  <g filter="url(#filter0_dd_2569_4769)">
    <rect x="9.13892" y="2" width="299.722" height="195" rx="5.77778" fill="white"/>
    <rect x="9.50003" y="2.36111" width="299" height="194.278" rx="5.41667" stroke="#D3D5DC" stroke-width="0.722222"/>
  </g>
  <text
    x="20"
    y="32"
    fill="#100C27"
    font-family="Kanit, 'Helvetica Neue', sans-serif"
    font-size="18"
    font-weight="600">
    Kafka Explorer
  </text>

  <rect x="19.9724" y="56.1667" width="38.2778" height="8.66667" rx="2.88889" fill="#D3D5DC"/>
  <rect x="69.0835" y="56.1667" width="27.4444" height="8.66667" rx="2.88889" fill="#D3D5DC"/>
  <rect x="107.361" y="56.1667" width="63.5556" height="8.66667" rx="2.88889" fill="#D3D5DC"/>
  <rect x="181.75" y="56.1667" width="33.9444" height="8.66667" rx="2.88889" fill="#D3D5DC"/>
  <rect x="264.083" y="56.1667" width="33.9444" height="8.66667" rx="2.88889" fill="#DA3B00"/>
  <rect x="19.9724" y="77.8335" width="278.056" height="1.44444" rx="0.722222" fill="#E7E8EF"/>
  <rect x="19.9724" y="92.2778" width="38.2778" height="8.66667" rx="2.88889" fill="#D3D5DC"/>
  <rect x="69.0835" y="92.2778" width="27.4444" height="8.66667" rx="2.88889" fill="#D3D5DC"/>
  <rect x="107.361" y="92.2778" width="63.5556" height="8.66667" rx="2.88889" fill="#D3D5DC"/>
  <rect x="181.75" y="92.2778" width="67.8889" height="8.66667" rx="2.88889" fill="#D3D5DC"/>
  <rect x="264.083" y="92.2778" width="33.9444" height="8.66667" rx="2.88889" fill="#DA3B00"/>
  <rect x="19.9724" y="113.945" width="278.056" height="1.44444" rx="0.722222" fill="#E7E8EF"/>
  <rect x="19.9724" y="128.389" width="38.2778" height="8.66667" rx="2.88889" fill="#D3D5DC"/>
  <rect x="69.0835" y="128.389" width="27.4444" height="8.66667" rx="2.88889" fill="#D3D5DC"/>
  <rect x="107.361" y="128.389" width="63.5556" height="8.66667" rx="2.88889" fill="#D3D5DC"/>
  <rect x="181.75" y="128.389" width="33.9444" height="8.66667" rx="2.88889" fill="#D3D5DC"/>
  <rect x="264.083" y="128.389" width="33.9444" height="8.66667" rx="2.88889" fill="#DA3B00"/>
  <rect x="19.9724" y="150.056" width="278.056" height="1.44444" rx="0.722222" fill="#E7E8EF"/>
  <rect x="19.9724" y="164.5" width="38.2778" height="8.66667" rx="2.88889" fill="#D3D5DC"/>
  <rect x="69.0835" y="164.5" width="27.4444" height="8.66667" rx="2.88889" fill="#D3D5DC"/>
  <rect x="107.361" y="164.5" width="63.5556" height="8.66667" rx="2.88889" fill="#D3D5DC"/>
  <rect x="181.75" y="164.5" width="67.8889" height="8.66667" rx="2.88889" fill="#D3D5DC"/>
  <rect x="264.083" y="164.5" width="33.9444" height="8.66667" rx="2.88889" fill="#DA3B00"/>

  <filter id="filter0_dd_2569_4769" x="0.47225" y="0.555556" width="317.056" height="212.333" filterUnits="userSpaceOnUse" color-interpolation-filters="sRGB">
    <feFlood flood-opacity="0" result="BackgroundImageFix"/>
    <feColorMatrix in="SourceAlpha" type="matrix" values="0 0 0 0 0 0 0 0 0 0 0 0 0 0 0 0 0 0 127 0" result="hardAlpha"/>
    <feMorphology radius="2.16667" operator="erode" in="SourceAlpha" result="effect1_dropShadow_2569_4769"/>
    <feOffset dy="7.22222"/>
    <feGaussianBlur stdDeviation="5.41667"/>
    <feComposite in2="hardAlpha" operator="out"/>
    <feColorMatrix type="matrix" values="0 0 0 0 0.0666667 0 0 0 0 0.0941176 0 0 0 0 0.152941 0 0 0 0.1 0"/>
    <feBlend mode="normal" in2="BackgroundImageFix" result="effect1_dropShadow_2569_4769"/>
    <feColorMatrix in="SourceAlpha" type="matrix" values="0 0 0 0 0 0 0 0 0 0 0 0 0 0 0 0 0 0 127 0" result="hardAlpha"/>
    <feMorphology radius="1.44444" operator="erode" in="SourceAlpha" result="effect2_dropShadow_2569_4769"/>
    <feOffset dy="2.88889"/>
    <feGaussianBlur stdDeviation="2.16667"/>
    <feComposite in2="hardAlpha" operator="out"/>
    <feColorMatrix type="matrix" values="0 0 0 0 0.0666667 0 0 0 0 0.0941176 0 0 0 0 0.152941 0 0 0 0.06 0"/>
    <feBlend mode="normal" in2="effect1_dropShadow_2569_4769" result="effect2_dropShadow_2569_4769"/>
    <feBlend mode="normal" in="SourceGraphic" in2="effect2_dropShadow_2569_4769" result="shape"/>
  </filter>

</svg>
