<svg width="568" height="260" viewBox="0 0 568 260" fill="none" xmlns="http://www.w3.org/2000/svg">
<g filter="url(#filter0_dd_2365_2062)">
<path d="M428.083 24.5H139.917C136.726 24.5 134.139 27.0868 134.139 30.2778V213.722C134.139 216.913 136.726 219.5 139.917 219.5H428.083C431.274 219.5 433.861 216.913 433.861 213.722V30.2778C433.861 27.0868 431.274 24.5 428.083 24.5Z" fill="white"/>
<path d="M428.083 24.8613H139.917C136.925 24.8613 134.5 27.2865 134.5 30.278V213.723C134.5 216.714 136.925 219.139 139.917 219.139H428.083C431.075 219.139 433.5 216.714 433.5 213.723V30.278C433.5 27.2865 431.075 24.8613 428.083 24.8613Z" stroke="#D3D5DC" stroke-width="0.722222"/>
</g>
<path d="M151.169 56.2246C149.554 56.2246 148.277 55.7239 147.338 54.7224C146.412 53.7084 145.949 52.1561 145.949 50.0655V48.5633C145.949 46.648 146.412 45.2021 147.338 44.2256C148.277 43.2367 149.554 42.7422 151.169 42.7422C152.784 42.7422 154.054 43.2367 154.981 44.2256C155.92 45.2021 156.389 46.648 156.389 48.5633V50.0655C156.389 52.1561 155.92 53.7084 154.981 54.7224C154.054 55.7239 152.784 56.2246 151.169 56.2246ZM151.169 53.915C151.557 53.915 151.908 53.8524 152.221 53.7272C152.546 53.602 152.815 53.3892 153.028 53.0888C153.241 52.7883 153.404 52.394 153.516 51.9058C153.641 51.405 153.704 50.7916 153.704 50.0655V48.5633C153.704 47.2989 153.479 46.3976 153.028 45.8593C152.577 45.321 151.958 45.0519 151.169 45.0519C150.38 45.0519 149.761 45.321 149.31 45.8593C148.859 46.3976 148.634 47.2989 148.634 48.5633V50.0655C148.634 50.7916 148.69 51.405 148.803 51.9058C148.928 52.394 149.097 52.7883 149.31 53.0888C149.523 53.3892 149.786 53.602 150.099 53.7272C150.412 53.8524 150.768 53.915 151.169 53.915ZM158.476 46.1034H160.824V47.662C161.074 47.1612 161.412 46.7606 161.838 46.4602C162.276 46.1472 162.852 45.9908 163.565 45.9908C164.642 45.9908 165.487 46.335 166.1 47.0235C166.714 47.712 167.02 48.8262 167.02 50.366V51.6053C167.02 52.4315 166.939 53.1388 166.776 53.7272C166.626 54.303 166.401 54.7788 166.1 55.1543C165.8 55.5299 165.437 55.8053 165.011 55.9805C164.585 56.1433 164.104 56.2246 163.565 56.2246C162.952 56.2246 162.432 56.0869 162.007 55.8115C161.581 55.5236 161.249 55.1418 161.011 54.6661V59.8112H158.476V46.1034ZM162.777 54.0652C163.302 54.0652 163.715 53.8837 164.016 53.5206C164.329 53.1451 164.485 52.5066 164.485 51.6053V50.366C164.485 49.5773 164.329 49.014 164.016 48.676C163.715 48.3255 163.302 48.1502 162.777 48.1502C162.213 48.1502 161.775 48.3255 161.462 48.676C161.162 49.014 161.011 49.5773 161.011 50.366V51.6053C161.011 52.5066 161.162 53.1451 161.462 53.5206C161.775 53.8837 162.213 54.0652 162.777 54.0652ZM172.76 56.2246C172.122 56.2246 171.54 56.1245 171.014 55.9242C170.501 55.7239 170.063 55.4297 169.7 55.0416C169.337 54.641 169.055 54.1528 168.855 53.577C168.654 53.0011 168.554 52.3439 168.554 51.6053V50.366C168.554 48.9514 168.924 47.8623 169.662 47.0986C170.413 46.3225 171.415 45.9344 172.667 45.9344C173.918 45.9344 174.914 46.3225 175.652 47.0986C176.403 47.8623 176.779 48.9576 176.779 50.3848V51.7555H171.089C171.102 52.6819 171.252 53.3203 171.54 53.6709C171.84 54.0214 172.247 54.1966 172.76 54.1966C173.174 54.1966 173.487 54.0965 173.699 53.8962C173.912 53.6834 174.05 53.433 174.112 53.1451H176.591C176.453 54.0715 176.065 54.8163 175.427 55.3796C174.788 55.943 173.9 56.2246 172.76 56.2246ZM172.742 47.9624C172.228 47.9624 171.834 48.1126 171.559 48.4131C171.283 48.701 171.127 49.233 171.089 50.0092H174.394C174.357 49.233 174.2 48.701 173.925 48.4131C173.649 48.1126 173.255 47.9624 172.742 47.9624ZM178.648 46.1034H180.995V47.662C181.22 47.1487 181.577 46.7356 182.065 46.4226C182.554 46.0972 183.111 45.9344 183.737 45.9344C184.738 45.9344 185.521 46.2474 186.084 46.8733C186.66 47.4867 186.948 48.4381 186.948 49.7275V56.0556H184.413V50.1219C184.413 49.3958 184.275 48.8763 184 48.5633C183.737 48.2503 183.367 48.0939 182.892 48.0939C182.366 48.0939 181.947 48.2629 181.634 48.6009C181.333 48.9389 181.183 49.4459 181.183 50.1219V56.0556H178.648V46.1034ZM189.533 42.9112H192.2V56.0556H189.533V42.9112ZM195.215 42.9112H199.966C201.58 42.9112 202.851 43.3994 203.777 44.3759C204.716 45.3398 205.186 46.7669 205.186 48.6572V50.1594C205.186 52.1248 204.716 53.602 203.777 54.591C202.851 55.5674 201.58 56.0556 199.966 56.0556H195.215V42.9112ZM199.966 53.8211C200.754 53.8211 201.374 53.5394 201.825 52.9761C202.275 52.4128 202.501 51.4739 202.501 50.1594V48.6572C202.501 47.4179 202.275 46.5228 201.825 45.972C201.374 45.4212 200.754 45.1458 199.966 45.1458H197.9V53.8211H199.966ZM217.056 56.2246C215.441 56.2246 214.164 55.7176 213.226 54.7036C212.299 53.6896 211.836 52.1373 211.836 50.0468V48.5445C211.836 46.6417 212.299 45.2021 213.226 44.2256C214.164 43.2367 215.441 42.7422 217.056 42.7422C217.832 42.7422 218.515 42.8423 219.103 43.0426C219.691 43.2429 220.192 43.5309 220.605 43.9064C221.018 44.282 221.344 44.7389 221.582 45.2772C221.82 45.803 221.976 46.3976 222.051 47.0611H219.366C219.253 46.4226 219.022 45.9282 218.671 45.5776C218.321 45.2271 217.782 45.0519 217.056 45.0519C216.268 45.0519 215.648 45.321 215.197 45.8593C214.747 46.3851 214.521 47.2802 214.521 48.5445V50.0468C214.521 50.7728 214.578 51.3862 214.69 51.887C214.815 52.3752 214.984 52.7695 215.197 53.07C215.41 53.3704 215.673 53.5895 215.986 53.7272C216.299 53.8524 216.656 53.915 217.056 53.915C217.795 53.915 218.327 53.7397 218.652 53.3892C218.99 53.0262 219.228 52.5004 219.366 51.8119H222.051C221.888 53.2139 221.4 54.303 220.586 55.0792C219.773 55.8428 218.596 56.2246 217.056 56.2246ZM227.757 56.2246C226.43 56.2246 225.379 55.8303 224.603 55.0416C223.839 54.2405 223.457 53.095 223.457 51.6053V50.366C223.457 49.6775 223.557 49.0578 223.758 48.507C223.958 47.9562 224.24 47.493 224.603 47.1174C224.978 46.7293 225.429 46.4352 225.955 46.2349C226.493 46.0346 227.094 45.9344 227.757 45.9344C228.421 45.9344 229.015 46.0346 229.541 46.2349C230.08 46.4352 230.53 46.7293 230.893 47.1174C231.269 47.493 231.557 47.9562 231.757 48.507C231.957 49.0578 232.057 49.6775 232.057 50.366V51.6053C232.057 53.095 231.669 54.2405 230.893 55.0416C230.13 55.8303 229.084 56.2246 227.757 56.2246ZM227.757 54.0652C228.321 54.0652 228.753 53.8837 229.053 53.5206C229.366 53.1451 229.522 52.5066 229.522 51.6053V50.366C229.522 49.5523 229.366 48.9702 229.053 48.6196C228.753 48.2691 228.321 48.0939 227.757 48.0939C227.194 48.0939 226.756 48.2691 226.443 48.6196C226.142 48.9702 225.992 49.5523 225.992 50.366V51.6053C225.992 52.5066 226.142 53.1451 226.443 53.5206C226.756 53.8837 227.194 54.0652 227.757 54.0652ZM233.936 46.1034H236.283V47.662C236.509 47.1487 236.865 46.7356 237.354 46.4226C237.842 46.0972 238.399 45.9344 239.025 45.9344C240.026 45.9344 240.809 46.2474 241.372 46.8733C241.948 47.4867 242.236 48.4381 242.236 49.7275V56.0556H239.701V50.1219C239.701 49.3958 239.563 48.8763 239.288 48.5633C239.025 48.2503 238.655 48.0939 238.18 48.0939C237.654 48.0939 237.235 48.2629 236.922 48.6009C236.621 48.9389 236.471 49.4459 236.471 50.1219V56.0556H233.936V46.1034ZM244.352 46.1034H246.699V47.662C246.924 47.1487 247.281 46.7356 247.769 46.4226C248.258 46.0972 248.815 45.9344 249.441 45.9344C250.442 45.9344 251.224 46.2474 251.788 46.8733C252.364 47.4867 252.652 48.4381 252.652 49.7275V56.0556H250.117V50.1219C250.117 49.3958 249.979 48.8763 249.703 48.5633C249.441 48.2503 249.071 48.0939 248.596 48.0939C248.07 48.0939 247.65 48.2629 247.337 48.6009C247.037 48.9389 246.887 49.4459 246.887 50.1219V56.0556H244.352V46.1034ZM258.636 56.2246C257.997 56.2246 257.415 56.1245 256.889 55.9242C256.376 55.7239 255.938 55.4297 255.575 55.0416C255.212 54.641 254.93 54.1528 254.73 53.577C254.53 53.0011 254.43 52.3439 254.43 51.6053V50.366C254.43 48.9514 254.799 47.8623 255.537 47.0986C256.289 46.3225 257.29 45.9344 258.542 45.9344C259.794 45.9344 260.789 46.3225 261.528 47.0986C262.279 47.8623 262.654 48.9576 262.654 50.3848V51.7555H256.965C256.977 52.6819 257.127 53.3203 257.415 53.6709C257.716 54.0214 258.123 54.1966 258.636 54.1966C259.049 54.1966 259.362 54.0965 259.575 53.8962C259.787 53.6834 259.925 53.433 259.988 53.1451H262.466C262.329 54.0715 261.941 54.8163 261.302 55.3796C260.664 55.943 259.775 56.2246 258.636 56.2246ZM258.617 47.9624C258.104 47.9624 257.709 48.1126 257.434 48.4131C257.159 48.701 257.002 49.233 256.965 50.0092H260.269C260.232 49.233 260.075 48.701 259.8 48.4131C259.525 48.1126 259.13 47.9624 258.617 47.9624ZM268.391 56.2246C267.753 56.2246 267.171 56.1245 266.645 55.9242C266.132 55.7239 265.694 55.4297 265.331 55.0416C264.968 54.641 264.686 54.1528 264.486 53.577C264.285 53.0011 264.185 52.3439 264.185 51.6053V50.366C264.185 49.6775 264.285 49.0578 264.486 48.507C264.686 47.9562 264.968 47.493 265.331 47.1174C265.694 46.7293 266.132 46.4352 266.645 46.2349C267.171 46.0346 267.753 45.9344 268.391 45.9344C269.03 45.9344 269.593 46.022 270.081 46.1973C270.57 46.3726 270.983 46.6167 271.321 46.9296C271.659 47.2426 271.915 47.6119 272.091 48.0375C272.278 48.4632 272.385 48.9201 272.41 49.4083H269.856C269.794 49.0453 269.65 48.7386 269.424 48.4882C269.199 48.2253 268.855 48.0939 268.391 48.0939C267.878 48.0939 267.471 48.2691 267.171 48.6196C266.87 48.9702 266.72 49.5523 266.72 50.366V51.6053C266.72 52.5066 266.87 53.1451 267.171 53.5206C267.471 53.8837 267.878 54.0652 268.391 54.0652C268.855 54.0652 269.199 53.94 269.424 53.6896C269.65 53.4268 269.794 53.1138 269.856 52.7508H272.41C272.372 53.264 272.26 53.7335 272.072 54.1591C271.884 54.5722 271.621 54.9352 271.283 55.2482C270.958 55.5612 270.551 55.8053 270.063 55.9805C269.587 56.1433 269.03 56.2246 268.391 56.2246ZM278.133 56.0556C277.494 56.0556 276.956 55.9993 276.518 55.8866C276.08 55.7615 275.729 55.5674 275.466 55.3045C275.203 55.0416 275.009 54.6974 274.884 54.2718C274.771 53.8336 274.715 53.2953 274.715 52.6569V48.1878H273.363V46.1034H274.715V43.8501H277.231V46.1034H279.184V48.1878H277.231V52.6569C277.231 53.1701 277.319 53.5206 277.494 53.7084C277.67 53.8837 277.957 53.9713 278.358 53.9713H279.184V56.0556H278.133Z" fill="#100C27"/>
<path d="M202.361 78.6665H148.972C146.763 78.6665 144.972 80.4574 144.972 82.6665V94.6665C144.972 96.8756 146.763 98.6665 148.972 98.6665H202.361C204.57 98.6665 206.361 96.8756 206.361 94.6665V82.6665C206.361 80.4574 204.57 78.6665 202.361 78.6665Z" fill="#D3D5DC"/>
<path d="M274.584 78.6665H221.195C218.986 78.6665 217.195 80.4574 217.195 82.6665V94.6665C217.195 96.8756 218.986 98.6665 221.195 98.6665H274.584C276.793 98.6665 278.584 96.8756 278.584 94.6665V82.6665C278.584 80.4574 276.793 78.6665 274.584 78.6665Z" fill="#DA3B00"/>
<path d="M346.806 78.6665H293.417C291.208 78.6665 289.417 80.4574 289.417 82.6665V94.6665C289.417 96.8756 291.208 98.6665 293.417 98.6665H346.806C349.015 98.6665 350.806 96.8756 350.806 94.6665V82.6665C350.806 80.4574 349.015 78.6665 346.806 78.6665Z" fill="#D3D5DC"/>
<path d="M419.028 78.6665H365.639C363.43 78.6665 361.639 80.4574 361.639 82.6665V94.6665C361.639 96.8756 363.43 98.6665 365.639 98.6665H419.028C421.237 98.6665 423.028 96.8756 423.028 94.6665V82.6665C423.028 80.4574 421.237 78.6665 419.028 78.6665Z" fill="#D3D5DC"/>
<path d="M243.083 124.667H147.861C146.265 124.667 144.972 125.96 144.972 127.556V130.778C144.972 132.374 146.265 133.667 147.861 133.667H243.083C244.679 133.667 245.972 132.374 245.972 130.778V127.556C245.972 125.96 244.679 124.667 243.083 124.667Z" fill="#D3D5DC"/>
<path d="M215.083 144.5H147.861C146.265 144.5 144.972 145.793 144.972 147.389V149.611C144.972 151.207 146.265 152.5 147.861 152.5H215.083C216.679 152.5 217.972 151.207 217.972 149.611V147.389C217.972 145.793 216.679 144.5 215.083 144.5Z" fill="#D3D5DC"/>
<path d="M310.083 163.333H147.861C146.265 163.333 144.972 164.626 144.972 166.222V169.444C144.972 171.04 146.265 172.333 147.861 172.333H310.083C311.679 172.333 312.972 171.04 312.972 169.444V166.222C312.972 164.626 311.679 163.333 310.083 163.333Z" fill="#D3D5DC"/>
<path d="M232.083 183.167H147.861C146.265 183.167 144.972 184.46 144.972 186.056V188.278C144.972 189.874 146.265 191.167 147.861 191.167H232.083C233.679 191.167 234.972 189.874 234.972 188.278V186.056C234.972 184.46 233.679 183.167 232.083 183.167Z" fill="#D3D5DC"/>
<defs>
<filter id="filter0_dd_2365_2062" x="123.306" y="20.8889" width="321.389" height="216.667" filterUnits="userSpaceOnUse" color-interpolation-filters="sRGB">
<feFlood flood-opacity="0" result="BackgroundImageFix"/>
<feColorMatrix in="SourceAlpha" type="matrix" values="0 0 0 0 0 0 0 0 0 0 0 0 0 0 0 0 0 0 127 0" result="hardAlpha"/>
<feOffset dy="7.22222"/>
<feGaussianBlur stdDeviation="5.41667"/>
<feComposite in2="hardAlpha" operator="out"/>
<feColorMatrix type="matrix" values="0 0 0 0 0.0666667 0 0 0 0 0.0941176 0 0 0 0 0.152941 0 0 0 0.1 0"/>
<feBlend mode="normal" in2="BackgroundImageFix" result="effect1_dropShadow_2365_2062"/>
<feColorMatrix in="SourceAlpha" type="matrix" values="0 0 0 0 0 0 0 0 0 0 0 0 0 0 0 0 0 0 127 0" result="hardAlpha"/>
<feOffset dy="2.88889"/>
<feGaussianBlur stdDeviation="2.16667"/>
<feComposite in2="hardAlpha" operator="out"/>
<feColorMatrix type="matrix" values="0 0 0 0 0.0666667 0 0 0 0 0.0941176 0 0 0 0 0.152941 0 0 0 0.06 0"/>
<feBlend mode="normal" in2="effect1_dropShadow_2365_2062" result="effect2_dropShadow_2365_2062"/>
<feBlend mode="normal" in="SourceGraphic" in2="effect2_dropShadow_2365_2062" result="shape"/>
</filter>
</defs>
</svg>
