<svg width="568" height="259" viewBox="0 0 568 259" fill="none" xmlns="http://www.w3.org/2000/svg">
<g filter="url(#filter0_dd_311_13725)">
<rect x="134.139" y="24" width="299.722" height="195" rx="5.77778" fill="white"/>
<rect x="134.5" y="24.3611" width="299" height="194.278" rx="5.41667" stroke="#D3D5DC" stroke-width="0.722222"/>
</g>
<path d="M151.169 55.7245C149.554 55.7245 148.277 55.2238 147.338 54.2223C146.412 53.2083 145.949 51.656 145.949 49.5654V48.0632C145.949 46.1479 146.412 44.702 147.338 43.7255C148.277 42.7366 149.554 42.2421 151.169 42.2421C152.784 42.2421 154.054 42.7366 154.981 43.7255C155.92 44.702 156.389 46.1479 156.389 48.0632V49.5654C156.389 51.656 155.92 53.2083 154.981 54.2223C154.054 55.2238 152.784 55.7245 151.169 55.7245ZM151.169 53.4149C151.557 53.4149 151.908 53.3523 152.221 53.2271C152.546 53.1019 152.815 52.8891 153.028 52.5887C153.241 52.2882 153.404 51.8939 153.516 51.4057C153.641 50.9049 153.704 50.2915 153.704 49.5654V48.0632C153.704 46.7988 153.479 45.8975 153.028 45.3592C152.577 44.8209 151.958 44.5518 151.169 44.5518C150.38 44.5518 149.761 44.8209 149.31 45.3592C148.859 45.8975 148.634 46.7988 148.634 48.0632V49.5654C148.634 50.2915 148.69 50.9049 148.803 51.4057C148.928 51.8939 149.097 52.2882 149.31 52.5887C149.523 52.8891 149.786 53.1019 150.099 53.2271C150.412 53.3523 150.768 53.4149 151.169 53.4149ZM158.476 45.6033H160.824V47.1619C161.074 46.6611 161.412 46.2605 161.838 45.9601C162.276 45.6471 162.852 45.4907 163.565 45.4907C164.642 45.4907 165.487 45.8349 166.1 46.5234C166.714 47.2119 167.02 48.3261 167.02 49.8659V51.1052C167.02 51.9314 166.939 52.6387 166.776 53.2271C166.626 53.8029 166.401 54.2787 166.1 54.6542C165.8 55.0298 165.437 55.3052 165.011 55.4804C164.585 55.6432 164.104 55.7245 163.565 55.7245C162.952 55.7245 162.432 55.5868 162.007 55.3114C161.581 55.0235 161.249 54.6417 161.011 54.166V59.3111H158.476V45.6033ZM162.777 53.5651C163.302 53.5651 163.715 53.3836 164.016 53.0205C164.329 52.645 164.485 52.0065 164.485 51.1052V49.8659C164.485 49.0772 164.329 48.5139 164.016 48.1759C163.715 47.8254 163.302 47.6501 162.777 47.6501C162.213 47.6501 161.775 47.8254 161.462 48.1759C161.162 48.5139 161.011 49.0772 161.011 49.8659V51.1052C161.011 52.0065 161.162 52.645 161.462 53.0205C161.775 53.3836 162.213 53.5651 162.777 53.5651ZM172.76 55.7245C172.122 55.7245 171.54 55.6244 171.014 55.4241C170.501 55.2238 170.063 54.9296 169.7 54.5415C169.337 54.1409 169.055 53.6527 168.855 53.0769C168.654 52.501 168.554 51.8438 168.554 51.1052V49.8659C168.554 48.4513 168.924 47.3622 169.662 46.5985C170.413 45.8224 171.415 45.4343 172.667 45.4343C173.918 45.4343 174.914 45.8224 175.652 46.5985C176.403 47.3622 176.779 48.4575 176.779 49.8847V51.2554H171.089C171.102 52.1818 171.252 52.8202 171.54 53.1708C171.84 53.5213 172.247 53.6965 172.76 53.6965C173.174 53.6965 173.487 53.5964 173.699 53.3961C173.912 53.1833 174.05 52.9329 174.112 52.645H176.591C176.453 53.5714 176.065 54.3162 175.427 54.8795C174.788 55.4429 173.9 55.7245 172.76 55.7245ZM172.742 47.4623C172.228 47.4623 171.834 47.6125 171.559 47.913C171.283 48.2009 171.127 48.7329 171.089 49.5091H174.394C174.357 48.7329 174.2 48.2009 173.925 47.913C173.649 47.6125 173.255 47.4623 172.742 47.4623ZM178.648 45.6033H180.995V47.1619C181.22 46.6486 181.577 46.2355 182.065 45.9225C182.554 45.5971 183.111 45.4343 183.737 45.4343C184.738 45.4343 185.521 45.7473 186.084 46.3732C186.66 46.9866 186.948 47.938 186.948 49.2274V55.5555H184.413V49.6218C184.413 48.8957 184.275 48.3762 184 48.0632C183.737 47.7502 183.367 47.5938 182.892 47.5938C182.366 47.5938 181.947 47.7628 181.634 48.1008C181.333 48.4388 181.183 48.9458 181.183 49.6218V55.5555H178.648V45.6033ZM189.533 42.4111H192.2V55.5555H189.533V42.4111ZM195.215 42.4111H199.966C201.58 42.4111 202.851 42.8993 203.777 43.8758C204.716 44.8397 205.186 46.2668 205.186 48.1571V49.6593C205.186 51.6247 204.716 53.1019 203.777 54.0909C202.851 55.0673 201.58 55.5555 199.966 55.5555H195.215V42.4111ZM199.966 53.321C200.754 53.321 201.374 53.0393 201.825 52.476C202.275 51.9127 202.501 50.9738 202.501 49.6593V48.1571C202.501 46.9178 202.275 46.0227 201.825 45.4719C201.374 44.9211 200.754 44.6457 199.966 44.6457H197.9V53.321H199.966ZM217.056 55.7245C215.441 55.7245 214.164 55.2175 213.226 54.2035C212.299 53.1895 211.836 51.6372 211.836 49.5467V48.0444C211.836 46.1416 212.299 44.702 213.226 43.7255C214.164 42.7366 215.441 42.2421 217.056 42.2421C217.832 42.2421 218.515 42.3422 219.103 42.5425C219.691 42.7428 220.192 43.0308 220.605 43.4063C221.018 43.7819 221.344 44.2388 221.582 44.7771C221.82 45.3029 221.976 45.8975 222.051 46.561H219.366C219.253 45.9225 219.022 45.4281 218.671 45.0775C218.321 44.727 217.782 44.5518 217.056 44.5518C216.268 44.5518 215.648 44.8209 215.197 45.3592C214.747 45.885 214.521 46.7801 214.521 48.0444V49.5467C214.521 50.2727 214.578 50.8861 214.69 51.3869C214.815 51.8751 214.984 52.2694 215.197 52.5699C215.41 52.8703 215.673 53.0894 215.986 53.2271C216.299 53.3523 216.656 53.4149 217.056 53.4149C217.795 53.4149 218.327 53.2396 218.652 52.8891C218.99 52.5261 219.228 52.0003 219.366 51.3118H222.051C221.888 52.7138 221.4 53.8029 220.586 54.5791C219.773 55.3427 218.596 55.7245 217.056 55.7245ZM227.757 55.7245C226.43 55.7245 225.379 55.3302 224.603 54.5415C223.839 53.7404 223.457 52.5949 223.457 51.1052V49.8659C223.457 49.1774 223.557 48.5577 223.758 48.0069C223.958 47.4561 224.24 46.9929 224.603 46.6173C224.978 46.2292 225.429 45.9351 225.955 45.7348C226.493 45.5345 227.094 45.4343 227.757 45.4343C228.421 45.4343 229.015 45.5345 229.541 45.7348C230.08 45.9351 230.53 46.2292 230.893 46.6173C231.269 46.9929 231.557 47.4561 231.757 48.0069C231.957 48.5577 232.057 49.1774 232.057 49.8659V51.1052C232.057 52.5949 231.669 53.7404 230.893 54.5415C230.13 55.3302 229.084 55.7245 227.757 55.7245ZM227.757 53.5651C228.321 53.5651 228.753 53.3836 229.053 53.0205C229.366 52.645 229.522 52.0065 229.522 51.1052V49.8659C229.522 49.0522 229.366 48.4701 229.053 48.1195C228.753 47.769 228.321 47.5938 227.757 47.5938C227.194 47.5938 226.756 47.769 226.443 48.1195C226.142 48.4701 225.992 49.0522 225.992 49.8659V51.1052C225.992 52.0065 226.142 52.645 226.443 53.0205C226.756 53.3836 227.194 53.5651 227.757 53.5651ZM233.936 45.6033H236.283V47.1619C236.509 46.6486 236.865 46.2355 237.354 45.9225C237.842 45.5971 238.399 45.4343 239.025 45.4343C240.026 45.4343 240.809 45.7473 241.372 46.3732C241.948 46.9866 242.236 47.938 242.236 49.2274V55.5555H239.701V49.6218C239.701 48.8957 239.563 48.3762 239.288 48.0632C239.025 47.7502 238.655 47.5938 238.18 47.5938C237.654 47.5938 237.235 47.7628 236.922 48.1008C236.621 48.4388 236.471 48.9458 236.471 49.6218V55.5555H233.936V45.6033ZM244.352 45.6033H246.699V47.1619C246.924 46.6486 247.281 46.2355 247.769 45.9225C248.258 45.5971 248.815 45.4343 249.441 45.4343C250.442 45.4343 251.224 45.7473 251.788 46.3732C252.364 46.9866 252.652 47.938 252.652 49.2274V55.5555H250.117V49.6218C250.117 48.8957 249.979 48.3762 249.703 48.0632C249.441 47.7502 249.071 47.5938 248.596 47.5938C248.07 47.5938 247.65 47.7628 247.337 48.1008C247.037 48.4388 246.887 48.9458 246.887 49.6218V55.5555H244.352V45.6033ZM258.636 55.7245C257.997 55.7245 257.415 55.6244 256.889 55.4241C256.376 55.2238 255.938 54.9296 255.575 54.5415C255.212 54.1409 254.93 53.6527 254.73 53.0769C254.53 52.501 254.43 51.8438 254.43 51.1052V49.8659C254.43 48.4513 254.799 47.3622 255.537 46.5985C256.289 45.8224 257.29 45.4343 258.542 45.4343C259.794 45.4343 260.789 45.8224 261.528 46.5985C262.279 47.3622 262.654 48.4575 262.654 49.8847V51.2554H256.965C256.977 52.1818 257.127 52.8202 257.415 53.1708C257.716 53.5213 258.123 53.6965 258.636 53.6965C259.049 53.6965 259.362 53.5964 259.575 53.3961C259.787 53.1833 259.925 52.9329 259.988 52.645H262.466C262.329 53.5714 261.941 54.3162 261.302 54.8795C260.664 55.4429 259.775 55.7245 258.636 55.7245ZM258.617 47.4623C258.104 47.4623 257.709 47.6125 257.434 47.913C257.159 48.2009 257.002 48.7329 256.965 49.5091H260.269C260.232 48.7329 260.075 48.2009 259.8 47.913C259.525 47.6125 259.13 47.4623 258.617 47.4623ZM268.391 55.7245C267.753 55.7245 267.171 55.6244 266.645 55.4241C266.132 55.2238 265.694 54.9296 265.331 54.5415C264.968 54.1409 264.686 53.6527 264.486 53.0769C264.285 52.501 264.185 51.8438 264.185 51.1052V49.8659C264.185 49.1774 264.285 48.5577 264.486 48.0069C264.686 47.4561 264.968 46.9929 265.331 46.6173C265.694 46.2292 266.132 45.9351 266.645 45.7348C267.171 45.5345 267.753 45.4343 268.391 45.4343C269.03 45.4343 269.593 45.5219 270.081 45.6972C270.57 45.8725 270.983 46.1166 271.321 46.4295C271.659 46.7425 271.915 47.1118 272.091 47.5374C272.278 47.9631 272.385 48.42 272.41 48.9082H269.856C269.794 48.5452 269.65 48.2385 269.424 47.9881C269.199 47.7252 268.855 47.5938 268.391 47.5938C267.878 47.5938 267.471 47.769 267.171 48.1195C266.87 48.4701 266.72 49.0522 266.72 49.8659V51.1052C266.72 52.0065 266.87 52.645 267.171 53.0205C267.471 53.3836 267.878 53.5651 268.391 53.5651C268.855 53.5651 269.199 53.4399 269.424 53.1895C269.65 52.9267 269.794 52.6137 269.856 52.2507H272.41C272.372 52.7639 272.26 53.2334 272.072 53.659C271.884 54.0721 271.621 54.4351 271.283 54.7481C270.958 55.0611 270.551 55.3052 270.063 55.4804C269.587 55.6432 269.03 55.7245 268.391 55.7245ZM278.133 55.5555C277.494 55.5555 276.956 55.4992 276.518 55.3865C276.08 55.2614 275.729 55.0673 275.466 54.8044C275.203 54.5415 275.009 54.1973 274.884 53.7717C274.771 53.3335 274.715 52.7952 274.715 52.1568V47.6877H273.363V45.6033H274.715V43.35H277.231V45.6033H279.184V47.6877H277.231V52.1568C277.231 52.67 277.319 53.0205 277.494 53.2083C277.67 53.3836 277.957 53.4712 278.358 53.4712H279.184V55.5555H278.133Z" fill="#100C27"/>
<rect x="144.972" y="78.1667" width="61.3889" height="20" rx="4" fill="#D3D5DC"/>
<rect x="217.195" y="78.1667" width="61.3889" height="20" rx="4" fill="#876FEC"/>
<rect x="289.417" y="78.1667" width="61.3889" height="20" rx="4" fill="#D3D5DC"/>
<rect x="361.639" y="78.1667" width="61.3889" height="20" rx="4" fill="#D3D5DC"/>
<rect x="144.972" y="124.167" width="101" height="9" rx="2.88889" fill="#D3D5DC"/>
<rect x="144.972" y="144" width="73" height="8" rx="2.88889" fill="#D3D5DC"/>
<rect x="144.972" y="162.833" width="168" height="9" rx="2.88889" fill="#D3D5DC"/>
<rect x="144.972" y="182.667" width="90" height="8" rx="2.88889" fill="#D3D5DC"/>
<defs>
<filter id="filter0_dd_311_13725" x="125.472" y="22.5556" width="317.056" height="212.333" filterUnits="userSpaceOnUse" color-interpolation-filters="sRGB">
<feFlood flood-opacity="0" result="BackgroundImageFix"/>
<feColorMatrix in="SourceAlpha" type="matrix" values="0 0 0 0 0 0 0 0 0 0 0 0 0 0 0 0 0 0 127 0" result="hardAlpha"/>
<feMorphology radius="2.16667" operator="erode" in="SourceAlpha" result="effect1_dropShadow_311_13725"/>
<feOffset dy="7.22222"/>
<feGaussianBlur stdDeviation="5.41667"/>
<feComposite in2="hardAlpha" operator="out"/>
<feColorMatrix type="matrix" values="0 0 0 0 0.0666667 0 0 0 0 0.0941176 0 0 0 0 0.152941 0 0 0 0.1 0"/>
<feBlend mode="normal" in2="BackgroundImageFix" result="effect1_dropShadow_311_13725"/>
<feColorMatrix in="SourceAlpha" type="matrix" values="0 0 0 0 0 0 0 0 0 0 0 0 0 0 0 0 0 0 127 0" result="hardAlpha"/>
<feMorphology radius="1.44444" operator="erode" in="SourceAlpha" result="effect2_dropShadow_311_13725"/>
<feOffset dy="2.88889"/>
<feGaussianBlur stdDeviation="2.16667"/>
<feComposite in2="hardAlpha" operator="out"/>
<feColorMatrix type="matrix" values="0 0 0 0 0.0666667 0 0 0 0 0.0941176 0 0 0 0 0.152941 0 0 0 0.06 0"/>
<feBlend mode="normal" in2="effect1_dropShadow_311_13725" result="effect2_dropShadow_311_13725"/>
<feBlend mode="normal" in="SourceGraphic" in2="effect2_dropShadow_311_13725" result="shape"/>
</filter>
</defs>
</svg>
