<svg width="418" height="255" viewBox="0 0 418 255" fill="none" xmlns="http://www.w3.org/2000/svg">
<g filter="url(#filter0_d_4249_10681)">
<rect x="5" y="2" width="408" height="245" rx="8" fill="white"/>
<rect x="5.5" y="2.5" width="407" height="244" rx="7.5" stroke="#D2CECD"/>
<path d="M21.558 36L25.986 24.408H29.118L33.546 36H30.522L29.478 33.372H25.608L24.582 36H21.558ZM26.004 31.23H29.082L27.534 27.198L26.004 31.23ZM34.6537 36V34.65C34.9777 33.978 35.3917 33.378 35.8957 32.85C36.4117 32.322 36.9697 31.788 37.5697 31.248C38.1217 30.744 38.5597 30.342 38.8837 30.042C39.2077 29.742 39.4357 29.454 39.5677 29.178C39.7117 28.902 39.7837 28.572 39.7837 28.188C39.7837 27.204 39.1477 26.712 37.8757 26.712C37.3837 26.712 36.8977 26.772 36.4177 26.892C35.9377 27 35.4817 27.138 35.0497 27.306V24.804C35.5177 24.636 36.0637 24.498 36.6877 24.39C37.3237 24.282 37.9537 24.228 38.5777 24.228C39.9337 24.228 40.9657 24.57 41.6737 25.254C42.3817 25.938 42.7357 26.898 42.7357 28.134C42.7357 28.83 42.5737 29.436 42.2497 29.952C41.9257 30.456 41.4397 30.99 40.7917 31.554C40.3117 31.962 39.8797 32.34 39.4957 32.688C39.1237 33.024 38.8057 33.384 38.5417 33.768H42.8437V36H34.6537ZM43.9525 36L48.3805 24.408H51.5125L55.9405 36H52.9165L51.8725 33.372H48.0025L46.9765 36H43.9525ZM48.3985 31.23H51.4765L49.9285 27.198L48.3985 31.23ZM61.2754 36V24.408H66.9814C67.9054 24.408 68.6674 24.594 69.2674 24.966C69.8674 25.326 70.3114 25.818 70.5994 26.442C70.8994 27.066 71.0494 27.768 71.0494 28.548C71.0494 29.34 70.8814 30.042 70.5454 30.654C70.2094 31.266 69.7294 31.746 69.1054 32.094C68.4934 32.43 67.7614 32.598 66.9094 32.598H64.1734V36H61.2754ZM64.1734 30.366H66.2614C66.8734 30.366 67.3294 30.198 67.6294 29.862C67.9414 29.526 68.0974 29.082 68.0974 28.53C68.0974 27.93 67.9534 27.468 67.6654 27.144C67.3894 26.808 66.9514 26.64 66.3514 26.64H64.1734V30.366ZM72.1914 36V27.468H74.9454L75.0354 28.26C75.4074 28.032 75.8694 27.828 76.4214 27.648C76.9734 27.456 77.5254 27.336 78.0774 27.288V29.466C77.7654 29.502 77.4174 29.562 77.0334 29.646C76.6614 29.718 76.3014 29.808 75.9534 29.916C75.6174 30.024 75.3294 30.138 75.0894 30.258V36H72.1914ZM83.2644 36.18C81.6204 36.18 80.4084 35.802 79.6284 35.046C78.8484 34.278 78.4584 33.174 78.4584 31.734C78.4584 30.306 78.8484 29.208 79.6284 28.44C80.4204 27.672 81.6324 27.288 83.2644 27.288C84.9084 27.288 86.1204 27.672 86.9004 28.44C87.6924 29.208 88.0884 30.306 88.0884 31.734C88.0884 33.174 87.6984 34.278 86.9184 35.046C86.1384 35.802 84.9204 36.18 83.2644 36.18ZM83.2644 33.912C83.9364 33.912 84.4164 33.744 84.7044 33.408C84.9924 33.072 85.1364 32.514 85.1364 31.734C85.1364 30.954 84.9924 30.396 84.7044 30.06C84.4164 29.724 83.9364 29.556 83.2644 29.556C82.6044 29.556 82.1304 29.724 81.8424 30.06C81.5544 30.396 81.4104 30.954 81.4104 31.734C81.4104 32.514 81.5544 33.072 81.8424 33.408C82.1304 33.744 82.6044 33.912 83.2644 33.912ZM88.3 36L91.576 31.662L88.426 27.468H91.576L93.16 29.61L94.744 27.468H97.894L94.744 31.662L98.02 36H94.852L93.16 33.75L91.468 36H88.3ZM101.308 39.168C100.876 39.168 100.504 39.144 100.192 39.096C99.8916 39.06 99.5916 38.982 99.2916 38.862V36.846C99.4956 36.918 99.6816 36.966 99.8496 36.99C100.03 37.014 100.21 37.026 100.39 37.026C100.882 37.026 101.248 36.936 101.488 36.756C101.74 36.588 101.992 36.282 102.244 35.838L98.4096 27.468H101.452L103.702 32.886L105.916 27.468H108.94L105.682 35.298C105.358 36.078 104.998 36.756 104.602 37.332C104.206 37.92 103.744 38.37 103.216 38.682C102.688 39.006 102.052 39.168 101.308 39.168Z" fill="#1E1B1B"/>
<rect x="21" y="66" width="176" height="12" rx="6" fill="#D9D9D9"/>
<rect x="221" y="66" width="176" height="12" rx="6" fill="#D9D9D9"/>
<rect x="21" y="90" width="176" height="12" rx="6" fill="#D9D9D9"/>
<rect x="221" y="90" width="176" height="12" rx="6" fill="#D9D9D9"/>
<rect x="21" y="114" width="176" height="12" rx="6" fill="#D9D9D9"/>
<rect x="221" y="114" width="176" height="12" rx="6" fill="#D9D9D9"/>
<rect x="21" y="138" width="176" height="12" rx="6" fill="#D9D9D9"/>
<rect x="221" y="138" width="176" height="12" rx="6" fill="#D9D9D9"/>
<rect x="21" y="174" width="106" height="41" rx="8" fill="#F15115"/>
<rect x="135" y="174" width="106" height="41" rx="8" fill="#D9D9D9"/>
</g>
<defs>
<filter id="filter0_d_4249_10681" x="0" y="0" width="418" height="255" filterUnits="userSpaceOnUse" color-interpolation-filters="sRGB">
<feFlood flood-opacity="0" result="BackgroundImageFix"/>
<feColorMatrix in="SourceAlpha" type="matrix" values="0 0 0 0 0 0 0 0 0 0 0 0 0 0 0 0 0 0 127 0" result="hardAlpha"/>
<feOffset dy="3"/>
<feGaussianBlur stdDeviation="2.5"/>
<feColorMatrix type="matrix" values="0 0 0 0 0 0 0 0 0 0 0 0 0 0 0 0 0 0 0.2 0"/>
<feBlend mode="normal" in2="BackgroundImageFix" result="effect1_dropShadow_4249_10681"/>
<feBlend mode="normal" in="SourceGraphic" in2="effect1_dropShadow_4249_10681" result="shape"/>
</filter>
</defs>
</svg>
