<svg width="568" height="259" viewBox="0 0 568 259" fill="none" xmlns="http://www.w3.org/2000/svg">
<g filter="url(#filter0_dd_828_19638)">
<rect x="134.139" y="24" width="299.722" height="195" rx="5.77778" fill="white"/>
<rect x="134.5" y="24.3611" width="299" height="194.278" rx="5.41667" stroke="#D3D5DC" stroke-width="0.722222"/>
</g>
<path d="M146.418 42.4112H154.962V44.6458H149.104V47.669H154.267V49.9223H149.104V53.3211H154.962V55.5557H146.418V42.4112ZM156.881 45.6034H159.228V47.162C159.454 46.6487 159.811 46.2356 160.299 45.9227C160.787 45.5972 161.344 45.4344 161.97 45.4344C162.971 45.4344 163.754 45.7474 164.317 46.3733C164.893 46.9867 165.181 47.9381 165.181 49.2276V55.5557H162.646V49.6219C162.646 48.8958 162.508 48.3763 162.233 48.0633C161.97 47.7504 161.601 47.5939 161.125 47.5939C160.599 47.5939 160.18 47.7629 159.867 48.1009C159.566 48.4389 159.416 48.9459 159.416 49.6219V55.5557H156.881V45.6034ZM171.334 55.5557C170.696 55.5557 170.157 55.4993 169.719 55.3867C169.281 55.2615 168.931 55.0674 168.668 54.8046C168.405 54.5417 168.211 54.1974 168.086 53.7718C167.973 53.3336 167.917 52.7953 167.917 52.1569V47.6878H166.565V45.6034H167.917V43.3501H170.433V45.6034H172.386V47.6878H170.433V52.1569C170.433 52.6701 170.521 53.0207 170.696 53.2084C170.871 53.3837 171.159 53.4713 171.56 53.4713H172.386V55.5557H171.334ZM177.932 55.7247C177.293 55.7247 176.711 55.6245 176.185 55.4242C175.672 55.2239 175.234 54.9297 174.871 54.5417C174.508 54.1411 174.226 53.6528 174.026 53.077C173.826 52.5011 173.726 51.8439 173.726 51.1053V49.866C173.726 48.4514 174.095 47.3623 174.833 46.5987C175.585 45.8225 176.586 45.4344 177.838 45.4344C179.09 45.4344 180.085 45.8225 180.824 46.5987C181.575 47.3623 181.95 48.4577 181.95 49.8848V51.2556H176.261C176.273 52.1819 176.423 52.8204 176.711 53.1709C177.012 53.5214 177.419 53.6967 177.932 53.6967C178.345 53.6967 178.658 53.5965 178.871 53.3962C179.084 53.1834 179.221 52.933 179.284 52.6451H181.762C181.625 53.5715 181.237 54.3163 180.598 54.8797C179.96 55.443 179.071 55.7247 177.932 55.7247ZM177.913 47.4624C177.4 47.4624 177.005 47.6127 176.73 47.9131C176.455 48.201 176.298 48.7331 176.261 49.5092H179.565C179.528 48.7331 179.371 48.201 179.096 47.9131C178.821 47.6127 178.426 47.4624 177.913 47.4624ZM183.876 45.6034H186.204V47.162C186.442 46.6487 186.805 46.2356 187.293 45.9227C187.781 45.5972 188.338 45.4344 188.964 45.4344C189.09 45.4344 189.202 45.4407 189.302 45.4532C189.402 45.4657 189.49 45.4783 189.565 45.4908C189.653 45.5033 189.728 45.5158 189.791 45.5283V47.838C189.665 47.8255 189.534 47.8067 189.396 47.7817C189.271 47.7691 189.121 47.7566 188.946 47.7441C188.783 47.7316 188.595 47.7253 188.382 47.7253C187.744 47.7253 187.249 47.8943 186.899 48.2323C186.561 48.5578 186.392 49.021 186.392 49.6219V55.5557H183.876V45.6034ZM191.136 45.6034H193.483V47.162C193.734 46.6613 194.072 46.2607 194.497 45.9602C194.935 45.6473 195.511 45.4908 196.225 45.4908C197.301 45.4908 198.146 45.835 198.76 46.5236C199.373 47.2121 199.68 48.3262 199.68 49.866V51.1053C199.68 51.9316 199.598 52.6388 199.436 53.2272C199.286 53.8031 199.06 54.2788 198.76 54.6543C198.459 55.0299 198.096 55.3053 197.671 55.4806C197.245 55.6433 196.763 55.7247 196.225 55.7247C195.611 55.7247 195.092 55.587 194.666 55.3116C194.241 55.0236 193.909 54.6418 193.671 54.1661V59.3112H191.136V45.6034ZM195.436 53.5652C195.962 53.5652 196.375 53.3837 196.675 53.0207C196.988 52.6451 197.145 52.0067 197.145 51.1053V49.866C197.145 49.0773 196.988 48.514 196.675 48.176C196.375 47.8255 195.962 47.6502 195.436 47.6502C194.873 47.6502 194.435 47.8255 194.122 48.176C193.821 48.514 193.671 49.0773 193.671 49.866V51.1053C193.671 52.0067 193.821 52.6451 194.122 53.0207C194.435 53.3837 194.873 53.5652 195.436 53.5652ZM201.608 45.6034H203.937V47.162C204.174 46.6487 204.537 46.2356 205.026 45.9227C205.514 45.5972 206.071 45.4344 206.697 45.4344C206.822 45.4344 206.935 45.4407 207.035 45.4532C207.135 45.4657 207.223 45.4783 207.298 45.4908C207.385 45.5033 207.46 45.5158 207.523 45.5283V47.838C207.398 47.8255 207.266 47.8067 207.129 47.7817C207.004 47.7691 206.853 47.7566 206.678 47.7441C206.515 47.7316 206.328 47.7253 206.115 47.7253C205.476 47.7253 204.982 47.8943 204.631 48.2323C204.293 48.5578 204.124 49.021 204.124 49.6219V55.5557H201.608V45.6034ZM209.131 45.6034H211.648V55.5557H209.131V45.6034ZM210.389 44.8523C209.976 44.8523 209.62 44.7084 209.319 44.4204C209.031 44.12 208.887 43.7632 208.887 43.3501C208.887 42.937 209.031 42.5865 209.319 42.2986C209.62 41.9981 209.976 41.8479 210.389 41.8479C210.803 41.8479 211.153 41.9981 211.441 42.2986C211.741 42.5865 211.892 42.937 211.892 43.3501C211.892 43.7632 211.741 44.12 211.441 44.4204C211.153 44.7084 210.803 44.8523 210.389 44.8523ZM217.718 55.7247C217.017 55.7247 216.416 55.6496 215.915 55.4993C215.427 55.3491 215.02 55.1426 214.695 54.8797C214.382 54.6043 214.144 54.2788 213.981 53.9032C213.818 53.5151 213.725 53.0958 213.7 52.6451H216.178C216.228 52.9581 216.36 53.2147 216.573 53.415C216.785 53.6028 217.167 53.6967 217.718 53.6967C218.319 53.6967 218.726 53.6153 218.939 53.4526C219.164 53.2773 219.277 53.052 219.277 52.7766C219.277 52.6388 219.258 52.5137 219.22 52.401C219.183 52.2883 219.101 52.1819 218.976 52.0818C218.851 51.9816 218.676 51.8877 218.45 51.8001C218.225 51.7125 217.918 51.6311 217.53 51.556C216.253 51.3056 215.327 50.9488 214.751 50.4857C214.188 50.01 213.906 49.3465 213.906 48.4952C213.906 47.5814 214.219 46.8428 214.845 46.2794C215.471 45.7161 216.429 45.4344 217.718 45.4344C218.995 45.4344 219.934 45.7161 220.535 46.2794C221.148 46.8428 221.48 47.5814 221.53 48.4952H219.051C219.001 48.1572 218.882 47.9006 218.694 47.7253C218.519 47.5501 218.194 47.4624 217.718 47.4624C217.217 47.4624 216.867 47.5438 216.666 47.7066C216.479 47.8568 216.385 48.0758 216.385 48.3638C216.385 48.6267 216.491 48.852 216.704 49.0398C216.929 49.215 217.38 49.3653 218.056 49.4904C218.732 49.6156 219.302 49.7658 219.765 49.9411C220.24 50.1164 220.622 50.3292 220.91 50.5796C221.211 50.8299 221.423 51.1241 221.549 51.4621C221.674 51.8001 221.736 52.1944 221.736 52.6451C221.736 53.559 221.411 54.3038 220.76 54.8797C220.122 55.443 219.108 55.7247 217.718 55.7247ZM227.389 55.7247C226.75 55.7247 226.168 55.6245 225.642 55.4242C225.129 55.2239 224.691 54.9297 224.328 54.5417C223.965 54.1411 223.683 53.6528 223.483 53.077C223.282 52.5011 223.182 51.8439 223.182 51.1053V49.866C223.182 48.4514 223.552 47.3623 224.29 46.5987C225.041 45.8225 226.043 45.4344 227.295 45.4344C228.546 45.4344 229.542 45.8225 230.28 46.5987C231.031 47.3623 231.407 48.4577 231.407 49.8848V51.2556H225.717C225.73 52.1819 225.88 52.8204 226.168 53.1709C226.468 53.5214 226.875 53.6967 227.389 53.6967C227.802 53.6967 228.115 53.5965 228.327 53.3962C228.54 53.1834 228.678 52.933 228.741 52.6451H231.219C231.081 53.5715 230.693 54.3163 230.055 54.8797C229.417 55.443 228.528 55.7247 227.389 55.7247ZM227.37 47.4624C226.856 47.4624 226.462 47.6127 226.187 47.9131C225.911 48.201 225.755 48.7331 225.717 49.5092H229.022C228.985 48.7331 228.828 48.201 228.553 47.9131C228.277 47.6127 227.883 47.4624 227.37 47.4624ZM237.97 45.6034H240.318V47.162C240.568 46.6613 240.906 46.2607 241.332 45.9602C241.77 45.6473 242.346 45.4908 243.059 45.4908C244.136 45.4908 244.981 45.835 245.594 46.5236C246.208 47.2121 246.514 48.3262 246.514 49.866V51.1053C246.514 51.9316 246.433 52.6388 246.27 53.2272C246.12 53.8031 245.895 54.2788 245.594 54.6543C245.294 55.0299 244.931 55.3053 244.505 55.4806C244.079 55.6433 243.597 55.7247 243.059 55.7247C242.446 55.7247 241.926 55.587 241.501 55.3116C241.075 55.0236 240.743 54.6418 240.505 54.1661V59.3112H237.97V45.6034ZM242.27 53.5652C242.796 53.5652 243.209 53.3837 243.51 53.0207C243.823 52.6451 243.979 52.0067 243.979 51.1053V49.866C243.979 49.0773 243.823 48.514 243.51 48.176C243.209 47.8255 242.796 47.6502 242.27 47.6502C241.707 47.6502 241.269 47.8255 240.956 48.176C240.656 48.514 240.505 49.0773 240.505 49.866V51.1053C240.505 52.0067 240.656 52.6451 240.956 53.0207C241.269 53.3837 241.707 53.5652 242.27 53.5652ZM252.348 55.7247C251.021 55.7247 249.97 55.3303 249.194 54.5417C248.43 53.7405 248.048 52.595 248.048 51.1053V49.866C248.048 49.1775 248.148 48.5578 248.349 48.007C248.549 47.4562 248.831 46.993 249.194 46.6174C249.569 46.2294 250.02 45.9352 250.546 45.7349C251.084 45.5346 251.685 45.4344 252.348 45.4344C253.012 45.4344 253.606 45.5346 254.132 45.7349C254.67 45.9352 255.121 46.2294 255.484 46.6174C255.86 46.993 256.148 47.4562 256.348 48.007C256.548 48.5578 256.648 49.1775 256.648 49.866V51.1053C256.648 52.595 256.26 53.7405 255.484 54.5417C254.721 55.3303 253.675 55.7247 252.348 55.7247ZM252.348 53.5652C252.912 53.5652 253.344 53.3837 253.644 53.0207C253.957 52.6451 254.113 52.0067 254.113 51.1053V49.866C254.113 49.0523 253.957 48.4702 253.644 48.1197C253.344 47.7691 252.912 47.5939 252.348 47.5939C251.785 47.5939 251.347 47.7691 251.034 48.1197C250.733 48.4702 250.583 49.0523 250.583 49.866V51.1053C250.583 52.0067 250.733 52.6451 251.034 53.0207C251.347 53.3837 251.785 53.5652 252.348 53.5652ZM262.057 55.5557C261.419 55.5557 260.88 55.4993 260.442 55.3867C260.004 55.2615 259.654 55.0674 259.391 54.8046C259.128 54.5417 258.934 54.1974 258.809 53.7718C258.696 53.3336 258.64 52.7953 258.64 52.1569V42.4112H261.175V52.1569C261.175 52.6701 261.256 53.0207 261.419 53.2084C261.594 53.3837 261.882 53.4713 262.282 53.4713H262.602V55.5557H262.057ZM264.419 45.6034H266.936V55.5557H264.419V45.6034ZM265.678 44.8523C265.264 44.8523 264.908 44.7084 264.607 44.4204C264.319 44.12 264.175 43.7632 264.175 43.3501C264.175 42.937 264.319 42.5865 264.607 42.2986C264.908 41.9981 265.264 41.8479 265.678 41.8479C266.091 41.8479 266.441 41.9981 266.729 42.2986C267.03 42.5865 267.18 42.937 267.18 43.3501C267.18 43.7632 267.03 44.12 266.729 44.4204C266.441 44.7084 266.091 44.8523 265.678 44.8523ZM273.288 55.7247C272.649 55.7247 272.067 55.6245 271.541 55.4242C271.028 55.2239 270.59 54.9297 270.227 54.5417C269.864 54.1411 269.582 53.6528 269.382 53.077C269.182 52.5011 269.081 51.8439 269.081 51.1053V49.866C269.081 49.1775 269.182 48.5578 269.382 48.007C269.582 47.4562 269.864 46.993 270.227 46.6174C270.59 46.2294 271.028 45.9352 271.541 45.7349C272.067 45.5346 272.649 45.4344 273.288 45.4344C273.926 45.4344 274.489 45.5221 274.978 45.6973C275.466 45.8726 275.879 46.1167 276.217 46.4297C276.555 46.7426 276.812 47.1119 276.987 47.5376C277.175 47.9632 277.281 48.4201 277.306 48.9083H274.752C274.69 48.5453 274.546 48.2386 274.32 47.9882C274.095 47.7253 273.751 47.5939 273.288 47.5939C272.774 47.5939 272.368 47.7691 272.067 48.1197C271.767 48.4702 271.616 49.0523 271.616 49.866V51.1053C271.616 52.0067 271.767 52.6451 272.067 53.0207C272.368 53.3837 272.774 53.5652 273.288 53.5652C273.751 53.5652 274.095 53.44 274.32 53.1897C274.546 52.9268 274.69 52.6138 274.752 52.2508H277.306C277.269 52.764 277.156 53.2335 276.968 53.6591C276.78 54.0722 276.517 54.4353 276.179 54.7482C275.854 55.0612 275.447 55.3053 274.959 55.4806C274.483 55.6433 273.926 55.7247 273.288 55.7247ZM279.536 57.2269C279.849 57.2269 280.125 57.1956 280.363 57.133C280.6 57.0829 280.807 56.9953 280.982 56.8701C281.157 56.7574 281.308 56.5947 281.433 56.3819C281.571 56.1816 281.689 55.9312 281.79 55.6308L277.997 45.6034H280.776L283.029 52.4573L285.038 45.6034H287.723L284.287 55.6308C284.024 56.4194 283.755 57.0516 283.48 57.5273C283.217 58.0156 282.904 58.3911 282.541 58.654C282.19 58.9169 281.771 59.0921 281.283 59.1798C280.807 59.2674 280.225 59.3112 279.536 59.3112V57.2269Z" fill="#100C27"/>
<rect x="144.972" y="78.167" width="119" height="9" rx="2.88889" fill="#D3D5DC"/>
<rect x="144.972" y="98.167" width="119" height="8" rx="2.88889" fill="#D3D5DC"/>
<rect x="144.972" y="117.167" width="119" height="9" rx="2.88889" fill="#D3D5DC"/>
<rect x="144.972" y="137.167" width="119" height="8" rx="2.88889" fill="#D3D5DC"/>
<rect x="289.417" y="78.167" width="119" height="9" rx="2.88889" fill="#D3D5DC"/>
<rect x="289.417" y="98.167" width="119" height="8" rx="2.88889" fill="#D3D5DC"/>
<rect x="289.417" y="117.167" width="119" height="9" rx="2.88889" fill="#D3D5DC"/>
<rect x="289.417" y="137.167" width="119" height="8" rx="2.88889" fill="#D3D5DC"/>
<rect x="144.972" y="171.167" width="61.3889" height="20" rx="4" fill="#876FEC"/>
<rect x="217.195" y="171.167" width="61.3889" height="20" rx="4" fill="#D3D5DC"/>
<defs>
<filter id="filter0_dd_828_19638" x="125.472" y="22.5556" width="317.056" height="212.333" filterUnits="userSpaceOnUse" color-interpolation-filters="sRGB">
<feFlood flood-opacity="0" result="BackgroundImageFix"/>
<feColorMatrix in="SourceAlpha" type="matrix" values="0 0 0 0 0 0 0 0 0 0 0 0 0 0 0 0 0 0 127 0" result="hardAlpha"/>
<feMorphology radius="2.16667" operator="erode" in="SourceAlpha" result="effect1_dropShadow_828_19638"/>
<feOffset dy="7.22222"/>
<feGaussianBlur stdDeviation="5.41667"/>
<feComposite in2="hardAlpha" operator="out"/>
<feColorMatrix type="matrix" values="0 0 0 0 0.0666667 0 0 0 0 0.0941176 0 0 0 0 0.152941 0 0 0 0.1 0"/>
<feBlend mode="normal" in2="BackgroundImageFix" result="effect1_dropShadow_828_19638"/>
<feColorMatrix in="SourceAlpha" type="matrix" values="0 0 0 0 0 0 0 0 0 0 0 0 0 0 0 0 0 0 127 0" result="hardAlpha"/>
<feMorphology radius="1.44444" operator="erode" in="SourceAlpha" result="effect2_dropShadow_828_19638"/>
<feOffset dy="2.88889"/>
<feGaussianBlur stdDeviation="2.16667"/>
<feComposite in2="hardAlpha" operator="out"/>
<feColorMatrix type="matrix" values="0 0 0 0 0.0666667 0 0 0 0 0.0941176 0 0 0 0 0.152941 0 0 0 0.06 0"/>
<feBlend mode="normal" in2="effect1_dropShadow_828_19638" result="effect2_dropShadow_828_19638"/>
<feBlend mode="normal" in="SourceGraphic" in2="effect2_dropShadow_828_19638" result="shape"/>
</filter>
</defs>
</svg>
