<svg width="568" height="246" viewBox="0 0 568 246" fill="none" xmlns="http://www.w3.org/2000/svg">
<g filter="url(#filter0_dd_817_14804)">
<rect x="134.139" y="10.5" width="299.722" height="195" rx="5.77778" fill="white"/>
<rect x="134.5" y="10.8611" width="299" height="194.278" rx="5.41667" stroke="#D3D5DC" stroke-width="0.722222"/>
</g>
<path d="M146.418 28.9112H154.962V31.1458H149.103V34.169H154.267V36.4223H149.103V39.8211H154.962V42.0557H146.418V28.9112ZM156.881 32.1034H159.228V33.662C159.454 33.1487 159.81 32.7356 160.299 32.4227C160.787 32.0972 161.344 31.9344 161.97 31.9344C162.971 31.9344 163.754 32.2474 164.317 32.8733C164.893 33.4867 165.181 34.4381 165.181 35.7276V42.0557H162.646V36.1219C162.646 35.3958 162.508 34.8763 162.233 34.5633C161.97 34.2504 161.601 34.0939 161.125 34.0939C160.599 34.0939 160.18 34.2629 159.867 34.6009C159.566 34.9389 159.416 35.4459 159.416 36.1219V42.0557H156.881V32.1034ZM171.334 42.0557C170.696 42.0557 170.157 41.9993 169.719 41.8867C169.281 41.7615 168.931 41.5674 168.668 41.3046C168.405 41.0417 168.211 40.6974 168.086 40.2718C167.973 39.8336 167.917 39.2953 167.917 38.6569V34.1878H166.565V32.1034H167.917V29.8501H170.433V32.1034H172.386V34.1878H170.433V38.6569C170.433 39.1701 170.52 39.5207 170.696 39.7084C170.871 39.8837 171.159 39.9713 171.559 39.9713H172.386V42.0557H171.334ZM177.932 42.2247C177.293 42.2247 176.711 42.1245 176.185 41.9242C175.672 41.7239 175.234 41.4297 174.871 41.0417C174.508 40.6411 174.226 40.1528 174.026 39.577C173.826 39.0011 173.725 38.3439 173.725 37.6053V36.366C173.725 34.9514 174.095 33.8623 174.833 33.0987C175.584 32.3225 176.586 31.9344 177.838 31.9344C179.09 31.9344 180.085 32.3225 180.823 33.0987C181.575 33.8623 181.95 34.9577 181.95 36.3848V37.7556H176.26C176.273 38.6819 176.423 39.3204 176.711 39.6709C177.012 40.0214 177.418 40.1967 177.932 40.1967C178.345 40.1967 178.658 40.0965 178.871 39.8962C179.083 39.6834 179.221 39.433 179.284 39.1451H181.762C181.625 40.0715 181.237 40.8163 180.598 41.3797C179.96 41.943 179.071 42.2247 177.932 42.2247ZM177.913 33.9624C177.4 33.9624 177.005 34.1127 176.73 34.4131C176.455 34.701 176.298 35.2331 176.26 36.0092H179.565C179.528 35.2331 179.371 34.701 179.096 34.4131C178.821 34.1127 178.426 33.9624 177.913 33.9624ZM183.875 32.1034H186.204V33.662C186.442 33.1487 186.805 32.7356 187.293 32.4227C187.781 32.0972 188.338 31.9344 188.964 31.9344C189.089 31.9344 189.202 31.9407 189.302 31.9532C189.402 31.9657 189.49 31.9783 189.565 31.9908C189.653 32.0033 189.728 32.0158 189.79 32.0283V34.338C189.665 34.3255 189.534 34.3067 189.396 34.2817C189.271 34.2691 189.121 34.2566 188.945 34.2441C188.783 34.2316 188.595 34.2253 188.382 34.2253C187.744 34.2253 187.249 34.3943 186.899 34.7323C186.561 35.0578 186.392 35.521 186.392 36.1219V42.0557H183.875V32.1034ZM191.136 32.1034H193.483V33.662C193.733 33.1613 194.071 32.7607 194.497 32.4602C194.935 32.1473 195.511 31.9908 196.225 31.9908C197.301 31.9908 198.146 32.335 198.76 33.0236C199.373 33.7121 199.68 34.8262 199.68 36.366V37.6053C199.68 38.4316 199.598 39.1388 199.436 39.7272C199.285 40.3031 199.06 40.7788 198.76 41.1543C198.459 41.5299 198.096 41.8053 197.671 41.9806C197.245 42.1433 196.763 42.2247 196.225 42.2247C195.611 42.2247 195.092 42.087 194.666 41.8116C194.24 41.5236 193.909 41.1418 193.671 40.6661V45.8112H191.136V32.1034ZM195.436 40.0652C195.962 40.0652 196.375 39.8837 196.675 39.5207C196.988 39.1451 197.145 38.5067 197.145 37.6053V36.366C197.145 35.5773 196.988 35.014 196.675 34.676C196.375 34.3255 195.962 34.1502 195.436 34.1502C194.873 34.1502 194.434 34.3255 194.122 34.676C193.821 35.014 193.671 35.5773 193.671 36.366V37.6053C193.671 38.5067 193.821 39.1451 194.122 39.5207C194.434 39.8837 194.873 40.0652 195.436 40.0652ZM201.608 32.1034H203.936V33.662C204.174 33.1487 204.537 32.7356 205.026 32.4227C205.514 32.0972 206.071 31.9344 206.697 31.9344C206.822 31.9344 206.935 31.9407 207.035 31.9532C207.135 31.9657 207.223 31.9783 207.298 31.9908C207.385 32.0033 207.46 32.0158 207.523 32.0283V34.338C207.398 34.3255 207.266 34.3067 207.129 34.2817C207.003 34.2691 206.853 34.2566 206.678 34.2441C206.515 34.2316 206.327 34.2253 206.115 34.2253C205.476 34.2253 204.982 34.3943 204.631 34.7323C204.293 35.0578 204.124 35.521 204.124 36.1219V42.0557H201.608V32.1034ZM209.131 32.1034H211.647V42.0557H209.131V32.1034ZM210.389 31.3523C209.976 31.3523 209.619 31.2084 209.319 30.9204C209.031 30.62 208.887 30.2632 208.887 29.8501C208.887 29.437 209.031 29.0865 209.319 28.7986C209.619 28.4981 209.976 28.3479 210.389 28.3479C210.802 28.3479 211.153 28.4981 211.441 28.7986C211.741 29.0865 211.892 29.437 211.892 29.8501C211.892 30.2632 211.741 30.62 211.441 30.9204C211.153 31.2084 210.802 31.3523 210.389 31.3523ZM217.718 42.2247C217.017 42.2247 216.416 42.1496 215.915 41.9993C215.427 41.8491 215.02 41.6426 214.695 41.3797C214.382 41.1043 214.144 40.7788 213.981 40.4032C213.818 40.0151 213.724 39.5958 213.699 39.1451H216.178C216.228 39.4581 216.36 39.7147 216.572 39.915C216.785 40.1028 217.167 40.1967 217.718 40.1967C218.319 40.1967 218.726 40.1153 218.938 39.9526C219.164 39.7773 219.276 39.552 219.276 39.2766C219.276 39.1388 219.258 39.0137 219.22 38.901C219.183 38.7883 219.101 38.6819 218.976 38.5818C218.851 38.4816 218.676 38.3877 218.45 38.3001C218.225 38.2125 217.918 38.1311 217.53 38.056C216.253 37.8056 215.327 37.4488 214.751 36.9857C214.188 36.51 213.906 35.8465 213.906 34.9952C213.906 34.0814 214.219 33.3428 214.845 32.7794C215.471 32.2161 216.428 31.9344 217.718 31.9344C218.995 31.9344 219.934 32.2161 220.535 32.7794C221.148 33.3428 221.48 34.0814 221.53 34.9952H219.051C219.001 34.6572 218.882 34.4006 218.694 34.2253C218.519 34.0501 218.194 33.9624 217.718 33.9624C217.217 33.9624 216.867 34.0438 216.666 34.2066C216.479 34.3568 216.385 34.5758 216.385 34.8638C216.385 35.1267 216.491 35.352 216.704 35.5398C216.929 35.715 217.38 35.8653 218.056 35.9904C218.732 36.1156 219.301 36.2658 219.765 36.4411C220.24 36.6164 220.622 36.8292 220.91 37.0796C221.211 37.3299 221.423 37.6241 221.549 37.9621C221.674 38.3001 221.736 38.6944 221.736 39.1451C221.736 40.059 221.411 40.8038 220.76 41.3797C220.121 41.943 219.107 42.2247 217.718 42.2247ZM227.388 42.2247C226.75 42.2247 226.168 42.1245 225.642 41.9242C225.129 41.7239 224.691 41.4297 224.328 41.0417C223.965 40.6411 223.683 40.1528 223.483 39.577C223.282 39.0011 223.182 38.3439 223.182 37.6053V36.366C223.182 34.9514 223.551 33.8623 224.29 33.0987C225.041 32.3225 226.043 31.9344 227.295 31.9344C228.546 31.9344 229.542 32.3225 230.28 33.0987C231.031 33.8623 231.407 34.9577 231.407 36.3848V37.7556H225.717C225.73 38.6819 225.88 39.3204 226.168 39.6709C226.468 40.0214 226.875 40.1967 227.388 40.1967C227.802 40.1967 228.114 40.0965 228.327 39.8962C228.54 39.6834 228.678 39.433 228.74 39.1451H231.219C231.081 40.0715 230.693 40.8163 230.055 41.3797C229.416 41.943 228.528 42.2247 227.388 42.2247ZM227.37 33.9624C226.856 33.9624 226.462 34.1127 226.187 34.4131C225.911 34.701 225.755 35.2331 225.717 36.0092H229.022C228.985 35.2331 228.828 34.701 228.553 34.4131C228.277 34.1127 227.883 33.9624 227.37 33.9624ZM237.97 32.1034H240.317V33.662C240.568 33.1613 240.906 32.7607 241.331 32.4602C241.77 32.1473 242.345 31.9908 243.059 31.9908C244.136 31.9908 244.981 32.335 245.594 33.0236C246.207 33.7121 246.514 34.8262 246.514 36.366V37.6053C246.514 38.4316 246.433 39.1388 246.27 39.7272C246.12 40.3031 245.894 40.7788 245.594 41.1543C245.294 41.5299 244.931 41.8053 244.505 41.9806C244.079 42.1433 243.597 42.2247 243.059 42.2247C242.446 42.2247 241.926 42.087 241.5 41.8116C241.075 41.5236 240.743 41.1418 240.505 40.6661V45.8112H237.97V32.1034ZM242.27 40.0652C242.796 40.0652 243.209 39.8837 243.51 39.5207C243.823 39.1451 243.979 38.5067 243.979 37.6053V36.366C243.979 35.5773 243.823 35.014 243.51 34.676C243.209 34.3255 242.796 34.1502 242.27 34.1502C241.707 34.1502 241.269 34.3255 240.956 34.676C240.655 35.014 240.505 35.5773 240.505 36.366V37.6053C240.505 38.5067 240.655 39.1451 240.956 39.5207C241.269 39.8837 241.707 40.0652 242.27 40.0652ZM252.348 42.2247C251.021 42.2247 249.97 41.8303 249.194 41.0417C248.43 40.2405 248.048 39.095 248.048 37.6053V36.366C248.048 35.6775 248.148 35.0578 248.349 34.507C248.549 33.9562 248.83 33.493 249.194 33.1174C249.569 32.7294 250.02 32.4352 250.546 32.2349C251.084 32.0346 251.685 31.9344 252.348 31.9344C253.012 31.9344 253.606 32.0346 254.132 32.2349C254.67 32.4352 255.121 32.7294 255.484 33.1174C255.86 33.493 256.148 33.9562 256.348 34.507C256.548 35.0578 256.648 35.6775 256.648 36.366V37.6053C256.648 39.095 256.26 40.2405 255.484 41.0417C254.72 41.8303 253.675 42.2247 252.348 42.2247ZM252.348 40.0652C252.912 40.0652 253.343 39.8837 253.644 39.5207C253.957 39.1451 254.113 38.5067 254.113 37.6053V36.366C254.113 35.5523 253.957 34.9702 253.644 34.6197C253.343 34.2691 252.912 34.0939 252.348 34.0939C251.785 34.0939 251.347 34.2691 251.034 34.6197C250.733 34.9702 250.583 35.5523 250.583 36.366V37.6053C250.583 38.5067 250.733 39.1451 251.034 39.5207C251.347 39.8837 251.785 40.0652 252.348 40.0652ZM262.057 42.0557C261.419 42.0557 260.88 41.9993 260.442 41.8867C260.004 41.7615 259.653 41.5674 259.391 41.3046C259.128 41.0417 258.934 40.6974 258.808 40.2718C258.696 39.8336 258.639 39.2953 258.639 38.6569V28.9112H261.174V38.6569C261.174 39.1701 261.256 39.5207 261.419 39.7084C261.594 39.8837 261.882 39.9713 262.282 39.9713H262.602V42.0557H262.057ZM264.419 32.1034H266.936V42.0557H264.419V32.1034ZM265.677 31.3523C265.264 31.3523 264.908 31.2084 264.607 30.9204C264.319 30.62 264.175 30.2632 264.175 29.8501C264.175 29.437 264.319 29.0865 264.607 28.7986C264.908 28.4981 265.264 28.3479 265.677 28.3479C266.091 28.3479 266.441 28.4981 266.729 28.7986C267.029 29.0865 267.18 29.437 267.18 29.8501C267.18 30.2632 267.029 30.62 266.729 30.9204C266.441 31.2084 266.091 31.3523 265.677 31.3523ZM273.288 42.2247C272.649 42.2247 272.067 42.1245 271.541 41.9242C271.028 41.7239 270.59 41.4297 270.227 41.0417C269.864 40.6411 269.582 40.1528 269.382 39.577C269.182 39.0011 269.081 38.3439 269.081 37.6053V36.366C269.081 35.6775 269.182 35.0578 269.382 34.507C269.582 33.9562 269.864 33.493 270.227 33.1174C270.59 32.7294 271.028 32.4352 271.541 32.2349C272.067 32.0346 272.649 31.9344 273.288 31.9344C273.926 31.9344 274.489 32.0221 274.978 32.1973C275.466 32.3726 275.879 32.6167 276.217 32.9297C276.555 33.2426 276.812 33.6119 276.987 34.0376C277.175 34.4632 277.281 34.9201 277.306 35.4083H274.752C274.69 35.0453 274.546 34.7386 274.32 34.4882C274.095 34.2253 273.751 34.0939 273.288 34.0939C272.774 34.0939 272.367 34.2691 272.067 34.6197C271.767 34.9702 271.616 35.5523 271.616 36.366V37.6053C271.616 38.5067 271.767 39.1451 272.067 39.5207C272.367 39.8837 272.774 40.0652 273.288 40.0652C273.751 40.0652 274.095 39.94 274.32 39.6897C274.546 39.4268 274.69 39.1138 274.752 38.7508H277.306C277.268 39.264 277.156 39.7335 276.968 40.1591C276.78 40.5722 276.517 40.9353 276.179 41.2482C275.854 41.5612 275.447 41.8053 274.959 41.9806C274.483 42.1433 273.926 42.2247 273.288 42.2247ZM279.536 43.7269C279.849 43.7269 280.125 43.6956 280.362 43.633C280.6 43.5829 280.807 43.4953 280.982 43.3701C281.157 43.2574 281.308 43.0947 281.433 42.8819C281.57 42.6816 281.689 42.4312 281.79 42.1308L277.996 32.1034H280.776L283.029 38.9573L285.038 32.1034H287.723L284.287 42.1308C284.024 42.9194 283.755 43.5516 283.48 44.0273C283.217 44.5156 282.904 44.8911 282.541 45.154C282.19 45.4169 281.771 45.5921 281.283 45.6798C280.807 45.7674 280.225 45.8112 279.536 45.8112V43.7269Z" fill="#100C27"/>
<rect x="144.972" y="64.667" width="119" height="9" rx="2.88889" fill="#D3D5DC"/>
<rect x="144.972" y="84.667" width="119" height="8" rx="2.88889" fill="#D3D5DC"/>
<rect x="144.972" y="103.667" width="119" height="9" rx="2.88889" fill="#D3D5DC"/>
<rect x="144.972" y="123.667" width="119" height="8" rx="2.88889" fill="#D3D5DC"/>
<rect x="289.417" y="64.667" width="119" height="9" rx="2.88889" fill="#D3D5DC"/>
<rect x="289.417" y="84.667" width="119" height="8" rx="2.88889" fill="#D3D5DC"/>
<rect x="289.417" y="103.667" width="119" height="9" rx="2.88889" fill="#D3D5DC"/>
<rect x="289.417" y="123.667" width="119" height="8" rx="2.88889" fill="#D3D5DC"/>
<rect x="144.972" y="157.667" width="61.3889" height="20" rx="4" fill="#FF5718"/>
<rect x="217.195" y="157.667" width="61.3889" height="20" rx="4" fill="#D3D5DC"/>
<defs>
<filter id="filter0_dd_817_14804" x="125.472" y="9.05556" width="317.056" height="212.333" filterUnits="userSpaceOnUse" color-interpolation-filters="sRGB">
<feFlood flood-opacity="0" result="BackgroundImageFix"/>
<feColorMatrix in="SourceAlpha" type="matrix" values="0 0 0 0 0 0 0 0 0 0 0 0 0 0 0 0 0 0 127 0" result="hardAlpha"/>
<feMorphology radius="2.16667" operator="erode" in="SourceAlpha" result="effect1_dropShadow_817_14804"/>
<feOffset dy="7.22222"/>
<feGaussianBlur stdDeviation="5.41667"/>
<feComposite in2="hardAlpha" operator="out"/>
<feColorMatrix type="matrix" values="0 0 0 0 0.0666667 0 0 0 0 0.0941176 0 0 0 0 0.152941 0 0 0 0.1 0"/>
<feBlend mode="normal" in2="BackgroundImageFix" result="effect1_dropShadow_817_14804"/>
<feColorMatrix in="SourceAlpha" type="matrix" values="0 0 0 0 0 0 0 0 0 0 0 0 0 0 0 0 0 0 127 0" result="hardAlpha"/>
<feMorphology radius="1.44444" operator="erode" in="SourceAlpha" result="effect2_dropShadow_817_14804"/>
<feOffset dy="2.88889"/>
<feGaussianBlur stdDeviation="2.16667"/>
<feComposite in2="hardAlpha" operator="out"/>
<feColorMatrix type="matrix" values="0 0 0 0 0.0666667 0 0 0 0 0.0941176 0 0 0 0 0.152941 0 0 0 0.06 0"/>
<feBlend mode="normal" in2="effect1_dropShadow_817_14804" result="effect2_dropShadow_817_14804"/>
<feBlend mode="normal" in="SourceGraphic" in2="effect2_dropShadow_817_14804" result="shape"/>
</filter>
</defs>
</svg>
