<svg width="568" height="259" viewBox="0 0 568 259" fill="none" xmlns="http://www.w3.org/2000/svg">
<g filter="url(#filter0_dd_323_10010)">
<rect x="134.139" y="24" width="299.722" height="195" rx="5.77778" fill="white"/>
<rect x="134.5" y="24.3611" width="299" height="194.278" rx="5.41667" stroke="#D3D5DC" stroke-width="0.722222"/>
</g>
<path d="M146.418 42.4112H151.244C152.108 42.4112 152.859 42.5114 153.497 42.7117C154.136 42.912 154.662 43.1999 155.075 43.5754C155.5 43.9385 155.82 44.3766 156.032 44.8899C156.245 45.3906 156.352 45.9477 156.352 46.5611C156.352 47.4249 156.151 48.176 155.751 48.8144C155.363 49.4529 154.768 49.9411 153.967 50.2791L156.727 55.5557H153.798L151.376 50.7486H149.103V55.5557H146.418V42.4112ZM151.244 48.4952C152.108 48.4952 152.728 48.3262 153.103 47.9882C153.479 47.6502 153.666 47.1745 153.666 46.5611C153.666 45.9602 153.479 45.4908 153.103 45.1528C152.728 44.8148 152.108 44.6458 151.244 44.6458H149.103V48.4952H151.244ZM161.925 55.7247C160.598 55.7247 159.547 55.3303 158.77 54.5417C158.007 53.7405 157.625 52.595 157.625 51.1053V49.866C157.625 49.1775 157.725 48.5578 157.925 48.007C158.126 47.4562 158.407 46.993 158.77 46.6174C159.146 46.2294 159.597 45.9352 160.122 45.7349C160.661 45.5346 161.262 45.4344 161.925 45.4344C162.589 45.4344 163.183 45.5346 163.709 45.7349C164.247 45.9352 164.698 46.2294 165.061 46.6174C165.437 46.993 165.724 47.4562 165.925 48.007C166.125 48.5578 166.225 49.1775 166.225 49.866V51.1053C166.225 52.595 165.837 53.7405 165.061 54.5417C164.297 55.3303 163.252 55.7247 161.925 55.7247ZM161.925 53.5652C162.488 53.5652 162.92 53.3837 163.221 53.0207C163.534 52.6451 163.69 52.0067 163.69 51.1053V49.866C163.69 49.0523 163.534 48.4702 163.221 48.1197C162.92 47.7691 162.488 47.5939 161.925 47.5939C161.362 47.5939 160.924 47.7691 160.611 48.1197C160.31 48.4702 160.16 49.0523 160.16 49.866V51.1053C160.16 52.0067 160.31 52.6451 160.611 53.0207C160.924 53.3837 161.362 53.5652 161.925 53.5652ZM171.634 55.5557C170.996 55.5557 170.457 55.4993 170.019 55.3867C169.581 55.2615 169.23 55.0674 168.968 54.8046C168.705 54.5417 168.511 54.1974 168.385 53.7718C168.273 53.3336 168.216 52.7953 168.216 52.1569V42.4112H170.751V52.1569C170.751 52.6701 170.833 53.0207 170.996 53.2084C171.171 53.3837 171.459 53.4713 171.859 53.4713H172.179V55.5557H171.634ZM177.602 55.7247C176.963 55.7247 176.381 55.6245 175.855 55.4242C175.342 55.2239 174.904 54.9297 174.541 54.5417C174.178 54.1411 173.896 53.6528 173.696 53.077C173.496 52.5011 173.395 51.8439 173.395 51.1053V49.866C173.395 48.4514 173.765 47.3623 174.503 46.5987C175.254 45.8225 176.256 45.4344 177.508 45.4344C178.76 45.4344 179.755 45.8225 180.493 46.5987C181.244 47.3623 181.62 48.4577 181.62 49.8848V51.2556H175.93C175.943 52.1819 176.093 52.8204 176.381 53.1709C176.681 53.5214 177.088 53.6967 177.602 53.6967C178.015 53.6967 178.328 53.5965 178.54 53.3962C178.753 53.1834 178.891 52.933 178.954 52.6451H181.432C181.295 53.5715 180.906 54.3163 180.268 54.8797C179.63 55.443 178.741 55.7247 177.602 55.7247ZM177.583 47.4624C177.07 47.4624 176.675 47.6127 176.4 47.9131C176.124 48.201 175.968 48.7331 175.93 49.5092H179.235C179.198 48.7331 179.041 48.201 178.766 47.9131C178.49 47.6127 178.096 47.4624 177.583 47.4624ZM187.076 55.7247C186.375 55.7247 185.774 55.6496 185.273 55.4993C184.785 55.3491 184.378 55.1426 184.052 54.8797C183.739 54.6043 183.502 54.2788 183.339 53.9032C183.176 53.5151 183.082 53.0958 183.057 52.6451H185.536C185.586 52.9581 185.717 53.2147 185.93 53.415C186.143 53.6028 186.525 53.6967 187.076 53.6967C187.676 53.6967 188.083 53.6153 188.296 53.4526C188.521 53.2773 188.634 53.052 188.634 52.7766C188.634 52.6388 188.615 52.5137 188.578 52.401C188.54 52.2883 188.459 52.1819 188.334 52.0818C188.209 51.9816 188.033 51.8877 187.808 51.8001C187.583 51.7125 187.276 51.6311 186.888 51.556C185.611 51.3056 184.685 50.9488 184.109 50.4857C183.545 50.01 183.264 49.3465 183.264 48.4952C183.264 47.5814 183.577 46.8428 184.203 46.2794C184.829 45.7161 185.786 45.4344 187.076 45.4344C188.352 45.4344 189.291 45.7161 189.892 46.2794C190.506 46.8428 190.837 47.5814 190.887 48.4952H188.409C188.359 48.1572 188.24 47.9006 188.052 47.7253C187.877 47.5501 187.551 47.4624 187.076 47.4624C186.575 47.4624 186.224 47.5438 186.024 47.7066C185.836 47.8568 185.742 48.0758 185.742 48.3638C185.742 48.6267 185.849 48.852 186.062 49.0398C186.287 49.215 186.738 49.3653 187.414 49.4904C188.09 49.6156 188.659 49.7658 189.122 49.9411C189.598 50.1164 189.98 50.3292 190.268 50.5796C190.568 50.8299 190.781 51.1241 190.906 51.4621C191.031 51.8001 191.094 52.1944 191.094 52.6451C191.094 53.559 190.769 54.3038 190.118 54.8797C189.479 55.443 188.465 55.7247 187.076 55.7247Z" fill="#100C27"/>
<rect x="144.972" y="78.1665" width="57" height="9" rx="2.88889" fill="#D3D5DC"/>
<rect x="212.806" y="78.1665" width="14" height="9" rx="4.5" fill="#D3D5DC"/>
<rect x="237.639" y="78.1665" width="33.9444" height="8.66667" rx="2.88889" fill="#D3D5DC"/>
<rect x="378.315" y="78.5" width="16.94" height="8.66667" rx="2.88889" fill="#FF5718"/>
<rect x="406.088" y="78.5" width="16.94" height="8.66667" rx="2.88889" fill="#FF5718"/>
<rect x="144.972" y="100.167" width="278.056" height="1.44444" rx="0.722222" fill="#E7E8EF"/>
<rect x="144.972" y="114.611" width="57" height="8" rx="2.88889" fill="#D3D5DC"/>
<rect x="212.806" y="114.611" width="14" height="9" rx="4.5" fill="#D3D5DC"/>
<rect x="237.639" y="114.611" width="67.8889" height="8.66667" rx="2.88889" fill="#D3D5DC"/>
<rect x="378.315" y="114.944" width="16.94" height="8.66667" rx="2.88889" fill="#FF5718"/>
<rect x="406.088" y="114.944" width="16.94" height="8.66667" rx="2.88889" fill="#FF5718"/>
<rect x="144.972" y="136.611" width="278.056" height="1.44444" rx="0.722222" fill="#E7E8EF"/>
<rect x="144.972" y="151.055" width="57" height="9" rx="2.88889" fill="#D3D5DC"/>
<rect x="212.806" y="151.055" width="14" height="9" rx="4.5" fill="#D3D5DC"/>
<rect x="237.639" y="151.055" width="33.9444" height="8.66667" rx="2.88889" fill="#D3D5DC"/>
<rect x="378.315" y="151.389" width="16.94" height="8.66667" rx="2.88889" fill="#FF5718"/>
<rect x="406.088" y="151.389" width="16.94" height="8.66667" rx="2.88889" fill="#FF5718"/>
<rect x="144.972" y="173.055" width="278.056" height="1.44444" rx="0.722222" fill="#E7E8EF"/>
<rect x="144.972" y="187.5" width="57" height="9" rx="2.88889" fill="#D3D5DC"/>
<rect x="212.806" y="187.5" width="14" height="8" rx="4" fill="#D3D5DC"/>
<rect x="237.639" y="187.5" width="67.8889" height="8.66667" rx="2.88889" fill="#D3D5DC"/>
<rect x="378.315" y="187.833" width="16.94" height="8.66667" rx="2.88889" fill="#FF5718"/>
<rect x="406.088" y="187.833" width="16.94" height="8.66667" rx="2.88889" fill="#FF5718"/>
<defs>
<filter id="filter0_dd_323_10010" x="125.472" y="22.5556" width="317.056" height="212.333" filterUnits="userSpaceOnUse" color-interpolation-filters="sRGB">
<feFlood flood-opacity="0" result="BackgroundImageFix"/>
<feColorMatrix in="SourceAlpha" type="matrix" values="0 0 0 0 0 0 0 0 0 0 0 0 0 0 0 0 0 0 127 0" result="hardAlpha"/>
<feMorphology radius="2.16667" operator="erode" in="SourceAlpha" result="effect1_dropShadow_323_10010"/>
<feOffset dy="7.22222"/>
<feGaussianBlur stdDeviation="5.41667"/>
<feComposite in2="hardAlpha" operator="out"/>
<feColorMatrix type="matrix" values="0 0 0 0 0.0666667 0 0 0 0 0.0941176 0 0 0 0 0.152941 0 0 0 0.1 0"/>
<feBlend mode="normal" in2="BackgroundImageFix" result="effect1_dropShadow_323_10010"/>
<feColorMatrix in="SourceAlpha" type="matrix" values="0 0 0 0 0 0 0 0 0 0 0 0 0 0 0 0 0 0 127 0" result="hardAlpha"/>
<feMorphology radius="1.44444" operator="erode" in="SourceAlpha" result="effect2_dropShadow_323_10010"/>
<feOffset dy="2.88889"/>
<feGaussianBlur stdDeviation="2.16667"/>
<feComposite in2="hardAlpha" operator="out"/>
<feColorMatrix type="matrix" values="0 0 0 0 0.0666667 0 0 0 0 0.0941176 0 0 0 0 0.152941 0 0 0 0.06 0"/>
<feBlend mode="normal" in2="effect1_dropShadow_323_10010" result="effect2_dropShadow_323_10010"/>
<feBlend mode="normal" in="SourceGraphic" in2="effect2_dropShadow_323_10010" result="shape"/>
</filter>
</defs>
</svg>
