<svg width="568" height="259" viewBox="0 0 568 259" fill="none" xmlns="http://www.w3.org/2000/svg">
<g filter="url(#filter0_dd_334_9907)">
<rect x="134.139" y="24" width="299.722" height="195" rx="5.77778" fill="white"/>
<rect x="134.5" y="24.3611" width="299" height="194.278" rx="5.41667" stroke="#D3D5DC" stroke-width="0.722222"/>
</g>
<path d="M150.775 55.7247C149.898 55.7247 149.147 55.637 148.521 55.4618C147.895 55.274 147.382 55.0111 146.982 54.6731C146.581 54.3226 146.28 53.9032 146.08 53.415C145.88 52.9268 145.773 52.3822 145.761 51.7813H148.465C148.49 52.2946 148.665 52.6952 148.991 52.9831C149.329 53.271 149.923 53.415 150.775 53.415C151.626 53.415 152.221 53.2836 152.559 53.0207C152.909 52.7453 153.084 52.3947 153.084 51.9691C153.084 51.7187 153.04 51.4997 152.953 51.3119C152.865 51.1116 152.709 50.9363 152.483 50.7861C152.258 50.6359 151.958 50.4919 151.582 50.3542C151.207 50.2165 150.731 50.0788 150.155 49.9411C149.454 49.7658 148.847 49.5656 148.334 49.3402C147.833 49.1024 147.413 48.827 147.075 48.514C146.737 48.201 146.487 47.838 146.324 47.4249C146.162 46.9993 146.08 46.5048 146.08 45.9414C146.08 45.3906 146.174 44.8899 146.362 44.4392C146.55 43.9886 146.838 43.6005 147.226 43.275C147.614 42.9495 148.102 42.6991 148.69 42.5239C149.279 42.3361 149.973 42.2422 150.775 42.2422C152.377 42.2422 153.554 42.5927 154.305 43.2938C155.068 43.9948 155.463 44.94 155.488 46.1292H152.803C152.778 45.641 152.609 45.2592 152.296 44.9838C151.995 44.6958 151.488 44.5519 150.775 44.5519C150.061 44.5519 149.548 44.6833 149.235 44.9462C148.922 45.2091 148.765 45.5408 148.765 45.9414C148.765 46.1793 148.809 46.3858 148.897 46.5611C148.997 46.7364 149.153 46.8928 149.366 47.0306C149.579 47.1683 149.861 47.2997 150.211 47.4249C150.562 47.5376 151 47.6565 151.526 47.7817C152.277 47.9694 152.915 48.1885 153.441 48.4389C153.979 48.6767 154.418 48.9584 154.756 49.2839C155.106 49.6094 155.363 49.9912 155.525 50.4293C155.688 50.8675 155.77 51.3807 155.77 51.9691C155.77 52.5324 155.669 53.0457 155.469 53.5089C155.281 53.9596 154.981 54.3539 154.568 54.6919C154.167 55.0174 153.648 55.274 153.009 55.4618C152.383 55.637 151.638 55.7247 150.775 55.7247ZM157.725 42.4112H160.26V46.9367C160.485 46.4985 160.81 46.1417 161.236 45.8663C161.662 45.5784 162.187 45.4344 162.813 45.4344C163.815 45.4344 164.597 45.7474 165.161 46.3733C165.736 46.9867 166.024 47.9381 166.024 49.2276V55.5557H163.489V49.6219C163.489 48.8958 163.352 48.3763 163.076 48.0633C162.813 47.7504 162.444 47.5939 161.968 47.5939C161.443 47.5939 161.023 47.7629 160.71 48.1009C160.41 48.4389 160.26 48.9459 160.26 49.6219V55.5557H157.725V42.4112ZM170.525 55.6683C169.624 55.6683 168.91 55.418 168.385 54.9172C167.871 54.4165 167.615 53.6779 167.615 52.7014C167.615 51.7 167.909 50.9426 168.497 50.4293C169.086 49.9036 169.968 49.6407 171.145 49.6407H173.21V49.0586C173.21 48.4952 173.091 48.1009 172.854 47.8756C172.628 47.6377 172.24 47.5188 171.689 47.5188C171.164 47.5188 170.794 47.6064 170.582 47.7817C170.381 47.9569 170.269 48.201 170.244 48.514H168.047C168.072 47.5376 168.366 46.7802 168.929 46.2419C169.505 45.7036 170.444 45.4344 171.746 45.4344C173.11 45.4344 174.093 45.7224 174.694 46.2982C175.295 46.8741 175.595 47.7879 175.595 49.0398V55.5557H173.398V53.9971C173.273 54.2224 173.129 54.4415 172.966 54.6543C172.804 54.8546 172.61 55.0299 172.384 55.1801C172.159 55.3303 171.896 55.4493 171.596 55.5369C171.295 55.6245 170.938 55.6683 170.525 55.6683ZM171.295 53.6403C171.908 53.6403 172.378 53.4713 172.703 53.1333C173.041 52.7953 173.21 52.3071 173.21 51.6687V51.3307H171.427C170.901 51.3307 170.531 51.4371 170.319 51.6499C170.118 51.8502 170.018 52.1318 170.018 52.4949C170.018 53.2585 170.444 53.6403 171.295 53.6403ZM177.769 45.6034H180.097V47.162C180.335 46.6487 180.698 46.2356 181.187 45.9227C181.675 45.5972 182.232 45.4344 182.858 45.4344C182.983 45.4344 183.096 45.4407 183.196 45.4532C183.296 45.4657 183.384 45.4783 183.459 45.4908C183.546 45.5033 183.621 45.5158 183.684 45.5283V47.838C183.559 47.8255 183.427 47.8067 183.29 47.7817C183.164 47.7691 183.014 47.7566 182.839 47.7441C182.676 47.7316 182.488 47.7253 182.276 47.7253C181.637 47.7253 181.143 47.8943 180.792 48.2323C180.454 48.5578 180.285 49.021 180.285 49.6219V55.5557H177.769V45.6034ZM187.963 55.6683C187.425 55.6683 186.943 55.587 186.517 55.4242C186.092 55.249 185.729 54.9798 185.428 54.6168C185.128 54.2537 184.896 53.7843 184.733 53.2084C184.583 52.6201 184.508 51.919 184.508 51.1053V49.866C184.508 48.3137 184.815 47.187 185.428 46.486C186.042 45.785 186.887 45.4344 187.963 45.4344C188.577 45.4344 189.096 45.5784 189.522 45.8663C189.947 46.1417 190.279 46.5173 190.517 46.993V42.4112H193.052V55.5557H190.705V53.9971C190.454 54.4978 190.11 54.9047 189.672 55.2177C189.246 55.5181 188.677 55.6683 187.963 55.6683ZM188.752 53.5089C189.315 53.5089 189.747 53.3274 190.047 52.9643C190.36 52.6013 190.517 51.9816 190.517 51.1053V49.866C190.517 49.0523 190.36 48.4702 190.047 48.1197C189.747 47.7691 189.315 47.5939 188.752 47.5939C188.226 47.5939 187.807 47.7691 187.494 48.1197C187.193 48.4702 187.043 49.0523 187.043 49.866V51.1053C187.043 51.9816 187.193 52.6013 187.494 52.9643C187.807 53.3274 188.226 53.5089 188.752 53.5089ZM195.525 45.6034H198.041V55.5557H195.525V45.6034ZM196.783 44.8523C196.37 44.8523 196.013 44.7084 195.712 44.4204C195.425 44.12 195.281 43.7632 195.281 43.3501C195.281 42.937 195.425 42.5865 195.712 42.2986C196.013 41.9981 196.37 41.8479 196.783 41.8479C197.196 41.8479 197.546 41.9981 197.834 42.2986C198.135 42.5865 198.285 42.937 198.285 43.3501C198.285 43.7632 198.135 44.12 197.834 44.4204C197.546 44.7084 197.196 44.8523 196.783 44.8523ZM200.525 45.6034H202.872V47.162C203.097 46.6487 203.454 46.2356 203.942 45.9227C204.431 45.5972 204.988 45.4344 205.614 45.4344C206.615 45.4344 207.397 45.7474 207.961 46.3733C208.537 46.9867 208.825 47.9381 208.825 49.2276V55.5557H206.29V49.6219C206.29 48.8958 206.152 48.3763 205.876 48.0633C205.614 47.7504 205.244 47.5939 204.769 47.5939C204.243 47.5939 203.823 47.7629 203.51 48.1009C203.21 48.4389 203.06 48.9459 203.06 49.6219V55.5557H200.525V45.6034ZM214.058 55.5932C212.981 55.5932 212.136 55.2427 211.523 54.5417C210.909 53.8406 210.603 52.6952 210.603 51.1053V49.866C210.603 48.3262 210.909 47.2121 211.523 46.5236C212.136 45.835 212.981 45.4908 214.058 45.4908C214.771 45.4908 215.341 45.6473 215.766 45.9602C216.205 46.2607 216.549 46.6613 216.799 47.162V45.6034H219.146V55.5557C219.146 56.8576 218.802 57.834 218.114 58.485C217.438 59.1485 216.349 59.4802 214.846 59.4802C214.17 59.4802 213.588 59.4051 213.1 59.2549C212.624 59.1047 212.23 58.8981 211.917 58.6352C211.604 58.3723 211.36 58.0594 211.185 57.6963C211.022 57.3458 210.915 56.9577 210.865 56.5321H213.25C213.3 56.6448 213.357 56.7574 213.419 56.8701C213.482 56.9828 213.569 57.0829 213.682 57.1706C213.807 57.2582 213.957 57.327 214.133 57.3771C214.321 57.4272 214.558 57.4522 214.846 57.4522C215.485 57.4522 215.935 57.3083 216.198 57.0203C216.474 56.7449 216.611 56.2567 216.611 55.5557V54.1661C216.374 54.5667 216.042 54.9047 215.616 55.1801C215.191 55.4555 214.671 55.5932 214.058 55.5932ZM214.846 53.5652C215.41 53.5652 215.842 53.3837 216.142 53.0207C216.455 52.6451 216.611 52.0067 216.611 51.1053V49.866C216.611 49.0773 216.455 48.514 216.142 48.176C215.842 47.8255 215.41 47.6502 214.846 47.6502C214.321 47.6502 213.901 47.8255 213.588 48.176C213.288 48.514 213.138 49.0773 213.138 49.866V51.1053C213.138 52.0067 213.288 52.6451 213.588 53.0207C213.901 53.3837 214.321 53.5652 214.846 53.5652ZM228.961 44.6458H225.187V42.4112H235.402V44.6458H231.628V55.5557H228.961V44.6458ZM238.43 55.6683C237.528 55.6683 236.815 55.418 236.289 54.9172C235.776 54.4165 235.519 53.6779 235.519 52.7014C235.519 51.7 235.813 50.9426 236.402 50.4293C236.99 49.9036 237.873 49.6407 239.049 49.6407H241.115V49.0586C241.115 48.4952 240.996 48.1009 240.758 47.8756C240.533 47.6377 240.145 47.5188 239.594 47.5188C239.068 47.5188 238.699 47.6064 238.486 47.7817C238.286 47.9569 238.173 48.201 238.148 48.514H235.951C235.976 47.5376 236.27 46.7802 236.833 46.2419C237.409 45.7036 238.348 45.4344 239.65 45.4344C241.015 45.4344 241.997 45.7224 242.598 46.2982C243.199 46.8741 243.5 47.7879 243.5 49.0398V55.5557H241.303V53.9971C241.177 54.2224 241.033 54.4415 240.871 54.6543C240.708 54.8546 240.514 55.0299 240.289 55.1801C240.063 55.3303 239.8 55.4493 239.5 55.5369C239.199 55.6245 238.843 55.6683 238.43 55.6683ZM239.199 53.6403C239.813 53.6403 240.282 53.4713 240.608 53.1333C240.946 52.7953 241.115 52.3071 241.115 51.6687V51.3307H239.331C238.805 51.3307 238.436 51.4371 238.223 51.6499C238.023 51.8502 237.923 52.1318 237.923 52.4949C237.923 53.2585 238.348 53.6403 239.199 53.6403ZM248.734 55.5932C247.658 55.5932 246.813 55.2427 246.199 54.5417C245.586 53.8406 245.279 52.6952 245.279 51.1053V49.866C245.279 48.3262 245.586 47.2121 246.199 46.5236C246.813 45.835 247.658 45.4908 248.734 45.4908C249.448 45.4908 250.017 45.6473 250.443 45.9602C250.881 46.2607 251.225 46.6613 251.476 47.162V45.6034H253.823V55.5557C253.823 56.8576 253.479 57.834 252.79 58.485C252.114 59.1485 251.025 59.4802 249.523 59.4802C248.847 59.4802 248.265 59.4051 247.777 59.2549C247.301 59.1047 246.906 58.8981 246.594 58.6352C246.281 58.3723 246.036 58.0594 245.861 57.6963C245.698 57.3458 245.592 56.9577 245.542 56.5321H247.927C247.977 56.6448 248.033 56.7574 248.096 56.8701C248.158 56.9828 248.246 57.0829 248.359 57.1706C248.484 57.2582 248.634 57.327 248.809 57.3771C248.997 57.4272 249.235 57.4522 249.523 57.4522C250.161 57.4522 250.612 57.3083 250.875 57.0203C251.15 56.7449 251.288 56.2567 251.288 55.5557V54.1661C251.05 54.5667 250.718 54.9047 250.293 55.1801C249.867 55.4555 249.348 55.5932 248.734 55.5932ZM249.523 53.5652C250.086 53.5652 250.518 53.3837 250.819 53.0207C251.131 52.6451 251.288 52.0067 251.288 51.1053V49.866C251.288 49.0773 251.131 48.514 250.819 48.176C250.518 47.8255 250.086 47.6502 249.523 47.6502C248.997 47.6502 248.578 47.8255 248.265 48.176C247.964 48.514 247.814 49.0773 247.814 49.866V51.1053C247.814 52.0067 247.964 52.6451 248.265 53.0207C248.578 53.3837 248.997 53.5652 249.523 53.5652ZM259.619 55.7247C258.918 55.7247 258.317 55.6496 257.817 55.4993C257.329 55.3491 256.922 55.1426 256.596 54.8797C256.283 54.6043 256.045 54.2788 255.883 53.9032C255.72 53.5151 255.626 53.0958 255.601 52.6451H258.08C258.13 52.9581 258.261 53.2147 258.474 53.415C258.687 53.6028 259.069 53.6967 259.619 53.6967C260.22 53.6967 260.627 53.6153 260.84 53.4526C261.065 53.2773 261.178 53.052 261.178 52.7766C261.178 52.6388 261.159 52.5137 261.122 52.401C261.084 52.2883 261.003 52.1819 260.878 52.0818C260.752 51.9816 260.577 51.8877 260.352 51.8001C260.126 51.7125 259.82 51.6311 259.432 51.556C258.155 51.3056 257.228 50.9488 256.653 50.4857C256.089 50.01 255.808 49.3465 255.808 48.4952C255.808 47.5814 256.12 46.8428 256.746 46.2794C257.372 45.7161 258.33 45.4344 259.619 45.4344C260.896 45.4344 261.835 45.7161 262.436 46.2794C263.049 46.8428 263.381 47.5814 263.431 48.4952H260.953C260.903 48.1572 260.784 47.9006 260.596 47.7253C260.421 47.5501 260.095 47.4624 259.619 47.4624C259.119 47.4624 258.768 47.5438 258.568 47.7066C258.38 47.8568 258.286 48.0758 258.286 48.3638C258.286 48.6267 258.393 48.852 258.605 49.0398C258.831 49.215 259.281 49.3653 259.957 49.4904C260.633 49.6156 261.203 49.7658 261.666 49.9411C262.142 50.1164 262.524 50.3292 262.812 50.5796C263.112 50.8299 263.325 51.1241 263.45 51.4621C263.575 51.8001 263.638 52.1944 263.638 52.6451C263.638 53.559 263.312 54.3038 262.661 54.8797C262.023 55.443 261.009 55.7247 259.619 55.7247Z" fill="#100C27"/>
<rect x="144.972" y="78.1665" width="61.3889" height="20" rx="4" fill="#D3D5DC"/>
<rect x="217.195" y="78.1665" width="61.3889" height="20" rx="4" fill="#FF5718"/>
<rect x="289.417" y="78.1665" width="61.3889" height="20" rx="4" fill="#D3D5DC"/>
<rect x="361.639" y="78.1665" width="61.3889" height="20" rx="4" fill="#D3D5DC"/>
<rect x="144.972" y="124.167" width="101" height="9" rx="2.88889" fill="#D3D5DC"/>
<rect x="144.972" y="144" width="73" height="8" rx="2.88889" fill="#D3D5DC"/>
<rect x="144.972" y="162.833" width="168" height="9" rx="2.88889" fill="#D3D5DC"/>
<rect x="144.972" y="182.667" width="90" height="8" rx="2.88889" fill="#D3D5DC"/>
<defs>
<filter id="filter0_dd_334_9907" x="125.472" y="22.5556" width="317.056" height="212.333" filterUnits="userSpaceOnUse" color-interpolation-filters="sRGB">
<feFlood flood-opacity="0" result="BackgroundImageFix"/>
<feColorMatrix in="SourceAlpha" type="matrix" values="0 0 0 0 0 0 0 0 0 0 0 0 0 0 0 0 0 0 127 0" result="hardAlpha"/>
<feMorphology radius="2.16667" operator="erode" in="SourceAlpha" result="effect1_dropShadow_334_9907"/>
<feOffset dy="7.22222"/>
<feGaussianBlur stdDeviation="5.41667"/>
<feComposite in2="hardAlpha" operator="out"/>
<feColorMatrix type="matrix" values="0 0 0 0 0.0666667 0 0 0 0 0.0941176 0 0 0 0 0.152941 0 0 0 0.1 0"/>
<feBlend mode="normal" in2="BackgroundImageFix" result="effect1_dropShadow_334_9907"/>
<feColorMatrix in="SourceAlpha" type="matrix" values="0 0 0 0 0 0 0 0 0 0 0 0 0 0 0 0 0 0 127 0" result="hardAlpha"/>
<feMorphology radius="1.44444" operator="erode" in="SourceAlpha" result="effect2_dropShadow_334_9907"/>
<feOffset dy="2.88889"/>
<feGaussianBlur stdDeviation="2.16667"/>
<feComposite in2="hardAlpha" operator="out"/>
<feColorMatrix type="matrix" values="0 0 0 0 0.0666667 0 0 0 0 0.0941176 0 0 0 0 0.152941 0 0 0 0.06 0"/>
<feBlend mode="normal" in2="effect1_dropShadow_334_9907" result="effect2_dropShadow_334_9907"/>
<feBlend mode="normal" in="SourceGraphic" in2="effect2_dropShadow_334_9907" result="shape"/>
</filter>
</defs>
</svg>
